<svg width="40" height="40" viewBox="0 0 40 40" fill="none" xmlns="http://www.w3.org/2000/svg">
<circle cx="20" cy="20" r="20" fill="#A8AEBE"/>
<g clip-path="url(#clip0_4765_15399)" filter="url(#filter0_d_4765_15399)">
<g clip-path="url(#clip1_4765_15399)">
<g filter="url(#filter1_d_4765_15399)">
<g filter="url(#filter2_d_4765_15399)">
<path d="M28.75 27.5V20H26.25V27.5H23.75V20H21.25V27.5H18.75V20H16.25V27.5H13.75V20H11.25V27.5H10V30H30V27.5H28.75Z" fill="white"/>
</g>
<path d="M29.25 13.875L20.5 10.125C20.125 10 19.875 10 19.5 10.125L10.75 13.875C10.25 14 10 14.5 10 15V17.5C10 18.25 10.5 18.75 11.25 18.75H28.75C29.5 18.75 30 18.25 30 17.5V15C30 14.5 29.75 14 29.25 13.875ZM20 16.25C19.25 16.25 18.75 15.75 18.75 15C18.75 14.25 19.25 13.75 20 13.75C20.75 13.75 21.25 14.25 21.25 15C21.25 15.75 20.75 16.25 20 16.25Z" fill="white"/>
</g>
</g>
</g>
<defs>
<filter id="filter0_d_4765_15399" x="10" y="10" width="20" height="21" filterUnits="userSpaceOnUse" color-interpolation-filters="sRGB">
<feFlood flood-opacity="0" result="BackgroundImageFix"/>
<feColorMatrix in="SourceAlpha" type="matrix" values="0 0 0 0 0 0 0 0 0 0 0 0 0 0 0 0 0 0 127 0" result="hardAlpha"/>
<feOffset dy="1"/>
<feComposite in2="hardAlpha" operator="out"/>
<feColorMatrix type="matrix" values="0 0 0 0 0 0 0 0 0 0 0 0 0 0 0 0 0 0 0.15 0"/>
<feBlend mode="normal" in2="BackgroundImageFix" result="effect1_dropShadow_4765_15399"/>
<feBlend mode="normal" in="SourceGraphic" in2="effect1_dropShadow_4765_15399" result="shape"/>
</filter>
<filter id="filter1_d_4765_15399" x="10" y="10.0312" width="20" height="20.9688" filterUnits="userSpaceOnUse" color-interpolation-filters="sRGB">
<feFlood flood-opacity="0" result="BackgroundImageFix"/>
<feColorMatrix in="SourceAlpha" type="matrix" values="0 0 0 0 0 0 0 0 0 0 0 0 0 0 0 0 0 0 127 0" result="hardAlpha"/>
<feOffset dy="1"/>
<feComposite in2="hardAlpha" operator="out"/>
<feColorMatrix type="matrix" values="0 0 0 0 0 0 0 0 0 0 0 0 0 0 0 0 0 0 0.15 0"/>
<feBlend mode="normal" in2="BackgroundImageFix" result="effect1_dropShadow_4765_15399"/>
<feBlend mode="normal" in="SourceGraphic" in2="effect1_dropShadow_4765_15399" result="shape"/>
</filter>
<filter id="filter2_d_4765_15399" x="10" y="20" width="20" height="13" filterUnits="userSpaceOnUse" color-interpolation-filters="sRGB">
<feFlood flood-opacity="0" result="BackgroundImageFix"/>
<feColorMatrix in="SourceAlpha" type="matrix" values="0 0 0 0 0 0 0 0 0 0 0 0 0 0 0 0 0 0 127 0" result="hardAlpha"/>
<feOffset dy="3"/>
<feComposite in2="hardAlpha" operator="out"/>
<feColorMatrix type="matrix" values="0 0 0 0 0 0 0 0 0 0 0 0 0 0 0 0 0 0 0.15 0"/>
<feBlend mode="normal" in2="BackgroundImageFix" result="effect1_dropShadow_4765_15399"/>
<feBlend mode="normal" in="SourceGraphic" in2="effect1_dropShadow_4765_15399" result="shape"/>
</filter>
<clipPath id="clip0_4765_15399">
<rect width="20" height="20" fill="white" transform="translate(10 10)"/>
</clipPath>
<clipPath id="clip1_4765_15399">
<rect width="20" height="20" fill="white" transform="translate(10 10)"/>
</clipPath>
</defs>
</svg>
