<svg width="40" height="40" viewBox="0 0 40 40" fill="none" xmlns="http://www.w3.org/2000/svg">
<circle cx="20" cy="20" r="20" fill="#A8AEBE"/>
<g filter="url(#filter0_d_4765_15482)">
<path fill-rule="evenodd" clip-rule="evenodd" d="M11.125 13.39C11.1253 13.0408 11.4378 12.5745 12.3256 12.1567C13.183 11.7532 14.4195 11.4833 15.8268 11.4833C17.2341 11.4833 18.4706 11.7532 19.328 12.1567C20.2163 12.5747 20.5287 13.0413 20.5287 13.3905C20.5287 13.7398 20.2163 14.2064 19.328 14.6244C18.4706 15.0279 17.2341 15.2978 15.8268 15.2978C14.4195 15.2978 13.183 15.0279 12.3256 14.6244C11.4374 14.2064 11.125 13.7393 11.125 13.39ZM18.5336 19.3298V18.5722C18.5336 17.1653 19.5703 16.2229 20.5086 15.7177C20.5153 15.7141 20.522 15.7105 20.5287 15.7069V15.535C20.3737 15.6271 20.2121 15.7122 20.0463 15.7902C18.9278 16.3166 17.4346 16.6219 15.8268 16.6219C14.219 16.6219 12.7259 16.3166 11.6074 15.7902C11.4416 15.7122 11.2799 15.6271 11.125 15.535V17.7946C11.1252 18.1438 11.4376 18.6105 12.3256 19.0284C13.183 19.4319 14.4195 19.7018 15.8268 19.7018C16.8447 19.7018 17.7732 19.5606 18.5336 19.3298ZM18.5336 20.7165C17.7095 20.917 16.7887 21.0263 15.8268 21.0263C14.219 21.0263 12.7259 20.721 11.6074 20.1946C11.4416 20.1166 11.2799 20.0314 11.125 19.9393V22.1994C11.1252 22.5486 11.4376 23.0154 12.3256 23.4333C13.183 23.8368 14.4195 24.1067 15.8268 24.1067C16.8447 24.1067 17.7732 23.9655 18.5336 23.7347V20.7165ZM18.5336 25.1214C17.7095 25.3218 16.7887 25.4311 15.8268 25.4311C14.219 25.4311 12.7259 25.1258 11.6074 24.5994C11.4416 24.5214 11.2799 24.4363 11.125 24.3442V26.6043C11.125 26.9535 11.4374 27.4201 12.3256 27.8381C13.183 28.2416 14.4195 28.5115 15.8268 28.5115C17.1363 28.5115 18.298 28.2778 19.1439 27.9203C18.7812 27.4514 18.5336 26.8748 18.5336 26.1872V25.1214Z" fill="white"/>
<path d="M28.8705 22.7196V20.4601C28.7155 20.5521 28.5539 20.6373 28.3881 20.7153C27.2696 21.2417 25.7764 21.547 24.1686 21.547C22.5608 21.547 21.0677 21.2417 19.9492 20.7153C19.7834 20.6373 19.6217 20.5521 19.4668 20.4601V22.7196C19.467 23.0688 19.7794 23.5356 20.6674 23.9535C21.5248 24.357 22.7613 24.6269 24.1686 24.6269C25.5759 24.6269 26.8124 24.357 27.6698 23.9535C28.5578 23.5356 28.8703 23.0688 28.8705 22.7196Z" fill="white"/>
<path d="M28.8705 27.1248V24.8644C28.7155 24.9565 28.5539 25.0416 28.3881 25.1196C27.2696 25.646 25.7764 25.9513 24.1686 25.9513C22.5608 25.9513 21.0677 25.646 19.9492 25.1196C19.7834 25.0416 19.6217 24.9565 19.4668 24.8644V27.1245C19.467 27.4737 19.7794 27.9404 20.6674 28.3583C21.5248 28.7619 22.7613 29.0317 24.1686 29.0317C25.5759 29.0317 26.8124 28.7619 27.6698 28.3583C28.5578 27.9404 28.8703 27.474 28.8705 27.1248Z" fill="white"/>
<path d="M19.4668 18.3151C19.4671 17.9659 19.7796 17.4996 20.6674 17.0817C21.5248 16.6782 22.7613 16.4083 24.1686 16.4083C25.5759 16.4083 26.8124 16.6782 27.6698 17.0817C28.5581 17.4998 28.8705 17.9663 28.8705 18.3156C28.8705 18.6648 28.5581 19.1314 27.6698 19.5494C26.8124 19.953 25.5759 20.2229 24.1686 20.2229C22.7613 20.2229 21.5248 19.953 20.6674 19.5494C19.7792 19.1314 19.4668 18.6643 19.4668 18.3151Z" fill="white"/>
</g>
<defs>
<filter id="filter0_d_4765_15482" x="10" y="10" width="20" height="21" filterUnits="userSpaceOnUse" color-interpolation-filters="sRGB">
<feFlood flood-opacity="0" result="BackgroundImageFix"/>
<feColorMatrix in="SourceAlpha" type="matrix" values="0 0 0 0 0 0 0 0 0 0 0 0 0 0 0 0 0 0 127 0" result="hardAlpha"/>
<feOffset dy="1"/>
<feComposite in2="hardAlpha" operator="out"/>
<feColorMatrix type="matrix" values="0 0 0 0 0 0 0 0 0 0 0 0 0 0 0 0 0 0 0.15 0"/>
<feBlend mode="normal" in2="BackgroundImageFix" result="effect1_dropShadow_4765_15482"/>
<feBlend mode="normal" in="SourceGraphic" in2="effect1_dropShadow_4765_15482" result="shape"/>
</filter>
</defs>
</svg>
