<svg width="40" height="40" viewBox="0 0 40 40" fill="none" xmlns="http://www.w3.org/2000/svg">
<circle cx="20" cy="20" r="20" fill="#A8AEBE"/>
<g clip-path="url(#clip0_4765_15325)">
<g filter="url(#filter0_d_4765_15325)">
<path d="M28.7502 11.25H11.2502C11.0834 11.24 10.9164 11.2654 10.7602 11.3247C10.604 11.384 10.4622 11.4757 10.344 11.5938C10.2259 11.712 10.1342 11.8538 10.0749 12.01C10.0156 12.1662 9.99015 12.3332 10.0002 12.5V27.5C9.99015 27.6668 10.0156 27.8338 10.0749 27.99C10.1342 28.1462 10.2259 28.288 10.344 28.4061C10.4622 28.5243 10.604 28.616 10.7602 28.6753C10.9164 28.7346 11.0834 28.76 11.2502 28.75H28.7502C28.9169 28.76 29.0839 28.7346 29.2401 28.6753C29.3963 28.616 29.5382 28.5243 29.6563 28.4061C29.7745 28.288 29.8662 28.1462 29.9255 27.99C29.9847 27.8338 30.0102 27.6668 30.0002 27.5V12.5C30.0102 12.3332 29.9847 12.1662 29.9255 12.01C29.8662 11.8538 29.7745 11.712 29.6563 11.5938C29.5382 11.4757 29.3963 11.384 29.2401 11.3247C29.0839 11.2654 28.9169 11.24 28.7502 11.25ZM20.0002 23.75H13.7502V21.25H20.0002V23.75ZM26.2502 18.75H13.7502V16.25H26.2502V18.75Z" fill="white"/>
</g>
</g>
<defs>
<filter id="filter0_d_4765_15325" x="9.99805" y="11.2479" width="20.0039" height="18.5043" filterUnits="userSpaceOnUse" color-interpolation-filters="sRGB">
<feFlood flood-opacity="0" result="BackgroundImageFix"/>
<feColorMatrix in="SourceAlpha" type="matrix" values="0 0 0 0 0 0 0 0 0 0 0 0 0 0 0 0 0 0 127 0" result="hardAlpha"/>
<feOffset dy="1"/>
<feComposite in2="hardAlpha" operator="out"/>
<feColorMatrix type="matrix" values="0 0 0 0 0 0 0 0 0 0 0 0 0 0 0 0 0 0 0.15 0"/>
<feBlend mode="normal" in2="BackgroundImageFix" result="effect1_dropShadow_4765_15325"/>
<feBlend mode="normal" in="SourceGraphic" in2="effect1_dropShadow_4765_15325" result="shape"/>
</filter>
<clipPath id="clip0_4765_15325">
<rect width="20" height="20" fill="white" transform="translate(10 10)"/>
</clipPath>
</defs>
</svg>
