<svg width="40" height="40" viewBox="0 0 40 40" fill="none" xmlns="http://www.w3.org/2000/svg">
<circle cx="20" cy="20" r="20" fill="#A8AEBE"/>
<g filter="url(#filter0_d_4765_14841)">
<path fill-rule="evenodd" clip-rule="evenodd" d="M11.042 16.6666C11.042 14.4805 12.7354 12.7083 14.8244 12.7083H25.1763C27.2652 12.7083 28.9587 14.4805 28.9587 16.6666V17.7083H11.042V16.6666ZM11.042 18.9583H28.9587V23.3333C28.9587 23.6533 28.9224 23.9645 28.8539 24.2625L27.4079 22.7442C26.8525 22.161 25.9294 22.1385 25.3462 22.6939C24.8784 23.1395 24.7713 23.8215 25.0338 24.375H22.3836C21.5782 24.375 20.9253 25.0279 20.9253 25.8333C20.9253 26.6376 21.5764 27.2898 22.3803 27.2916H14.8244C12.7354 27.2916 11.042 25.5194 11.042 23.3333V18.9583Z" fill="white"/>
<path fill-rule="evenodd" clip-rule="evenodd" d="M25.8087 23.3081C26.0528 23.064 26.4485 23.064 26.6926 23.3081L28.7759 25.3914C29.02 25.6355 29.02 26.0312 28.7759 26.2753L26.6926 28.3586C26.4485 28.6027 26.0528 28.6027 25.8087 28.3586C25.5646 28.1145 25.5646 27.7188 25.8087 27.4747L26.8251 26.4583H22.084C21.7388 26.4583 21.459 26.1785 21.459 25.8333C21.459 25.4882 21.7388 25.2083 22.084 25.2083H26.8251L25.8087 24.1919C25.5646 23.9479 25.5646 23.5521 25.8087 23.3081Z" fill="white"/>
</g>
<defs>
<filter id="filter0_d_4765_14841" x="10" y="10" width="20" height="21" filterUnits="userSpaceOnUse" color-interpolation-filters="sRGB">
<feFlood flood-opacity="0" result="BackgroundImageFix"/>
<feColorMatrix in="SourceAlpha" type="matrix" values="0 0 0 0 0 0 0 0 0 0 0 0 0 0 0 0 0 0 127 0" result="hardAlpha"/>
<feOffset dy="1"/>
<feComposite in2="hardAlpha" operator="out"/>
<feColorMatrix type="matrix" values="0 0 0 0 0 0 0 0 0 0 0 0 0 0 0 0 0 0 0.15 0"/>
<feBlend mode="normal" in2="BackgroundImageFix" result="effect1_dropShadow_4765_14841"/>
<feBlend mode="normal" in="SourceGraphic" in2="effect1_dropShadow_4765_14841" result="shape"/>
</filter>
</defs>
</svg>
