<svg width="40" height="40" viewBox="0 0 40 40" fill="none" xmlns="http://www.w3.org/2000/svg">
<circle cx="20" cy="20" r="20" fill="#A8AEBE"/>
<g clip-path="url(#clip0_4765_15379)">
<g filter="url(#filter0_d_4765_15379)">
<path fill-rule="evenodd" clip-rule="evenodd" d="M11.875 15.625H28.125C28.8154 15.625 29.375 16.1846 29.375 16.875V28.125C29.375 28.8154 28.8154 29.375 28.125 29.375H11.875C11.1846 29.375 10.625 28.8154 10.625 28.125V16.875C10.625 16.1846 11.1846 15.625 11.875 15.625ZM23.125 22.5C23.125 24.2259 21.7259 25.625 20 25.625C18.2741 25.625 16.875 24.2259 16.875 22.5C16.875 20.7741 18.2741 19.375 20 19.375C21.7259 19.375 23.125 20.7741 23.125 22.5Z" fill="white"/>
<path d="M13.125 11.875H26.875" stroke="white" stroke-linecap="round" stroke-linejoin="round"/>
</g>
</g>
<defs>
<filter id="filter0_d_4765_15379" x="10.625" y="11.375" width="18.75" height="19" filterUnits="userSpaceOnUse" color-interpolation-filters="sRGB">
<feFlood flood-opacity="0" result="BackgroundImageFix"/>
<feColorMatrix in="SourceAlpha" type="matrix" values="0 0 0 0 0 0 0 0 0 0 0 0 0 0 0 0 0 0 127 0" result="hardAlpha"/>
<feOffset dy="1"/>
<feComposite in2="hardAlpha" operator="out"/>
<feColorMatrix type="matrix" values="0 0 0 0 0 0 0 0 0 0 0 0 0 0 0 0 0 0 0.15 0"/>
<feBlend mode="normal" in2="BackgroundImageFix" result="effect1_dropShadow_4765_15379"/>
<feBlend mode="normal" in="SourceGraphic" in2="effect1_dropShadow_4765_15379" result="shape"/>
</filter>
<clipPath id="clip0_4765_15379">
<rect width="20" height="20" fill="white" transform="translate(10 10)"/>
</clipPath>
</defs>
</svg>
