<svg width="40" height="40" viewBox="0 0 40 40" fill="none" xmlns="http://www.w3.org/2000/svg">
<circle cx="20" cy="20" r="20" fill="#A8AEBE"/>
<g filter="url(#filter0_d_4765_15492)">
<path fill-rule="evenodd" clip-rule="evenodd" d="M19.9993 28.3334C24.6017 28.3334 28.3327 24.6025 28.3327 20.0001C28.3327 15.3977 24.6017 11.6667 19.9993 11.6667C15.397 11.6667 11.666 15.3977 11.666 20.0001C11.666 24.6025 15.397 28.3334 19.9993 28.3334ZM19.5984 20.809L21.4746 24H20.5877L18.4339 20.32L18.4356 20.3197L18.4249 20.3086V19.9771H19.366C19.6918 19.9771 19.9603 19.8362 20.1715 19.5543C20.3159 19.3614 20.411 19.1328 20.4566 18.8686H19.5742V18.1029H20.4588C20.4311 17.9335 20.3835 17.7774 20.3163 17.6343C20.2077 17.3905 20.0508 17.2 19.8457 17.0629C19.6405 16.9181 19.4113 16.8457 19.1579 16.8457H17.9995V16H21.9633V16.8457H20.5158C20.6428 16.9597 20.7512 17.0854 20.8411 17.2229C20.9618 17.3981 21.0553 17.5924 21.1217 17.8057C21.1518 17.9024 21.175 18.0015 21.1915 18.1029H21.9995V18.8686H21.197C21.1724 19.0597 21.1292 19.2426 21.0674 19.4171C20.9709 19.699 20.8351 19.9467 20.6601 20.16C20.4912 20.3733 20.2891 20.541 20.0538 20.6629C19.9089 20.7333 19.7571 20.782 19.5984 20.809Z" fill="white"/>
</g>
<defs>
<filter id="filter0_d_4765_15492" x="11.666" y="11.6667" width="16.667" height="17.6666" filterUnits="userSpaceOnUse" color-interpolation-filters="sRGB">
<feFlood flood-opacity="0" result="BackgroundImageFix"/>
<feColorMatrix in="SourceAlpha" type="matrix" values="0 0 0 0 0 0 0 0 0 0 0 0 0 0 0 0 0 0 127 0" result="hardAlpha"/>
<feOffset dy="1"/>
<feComposite in2="hardAlpha" operator="out"/>
<feColorMatrix type="matrix" values="0 0 0 0 0 0 0 0 0 0 0 0 0 0 0 0 0 0 0.15 0"/>
<feBlend mode="normal" in2="BackgroundImageFix" result="effect1_dropShadow_4765_15492"/>
<feBlend mode="normal" in="SourceGraphic" in2="effect1_dropShadow_4765_15492" result="shape"/>
</filter>
</defs>
</svg>
