<svg width="40" height="40" viewBox="0 0 40 40" fill="none" xmlns="http://www.w3.org/2000/svg">
<circle cx="20" cy="20" r="20" fill="#A8AEBE"/>
<g filter="url(#filter0_d_4765_15331)">
<path fill-rule="evenodd" clip-rule="evenodd" d="M11.042 16.6666C11.042 14.4805 12.7354 12.7083 14.8244 12.7083H25.1763C27.2652 12.7083 28.9587 14.4805 28.9587 16.6666L28.9587 17.7083H11.042V16.6666ZM11.042 18.9583H28.9587L28.9587 23.3333C28.9587 23.7222 28.9051 24.0979 28.8052 24.4529C28.6573 24.4024 28.4987 24.375 28.3337 24.375H25.485C25.7418 23.8336 25.6461 23.1667 25.1982 22.7188C24.6287 22.1493 23.7053 22.1493 23.1358 22.7188L21.0525 24.8021C20.4829 25.3716 20.4829 26.295 21.0525 26.8645L21.4796 27.2916H14.8244C12.7354 27.2916 11.042 25.5194 11.042 23.3333V18.9583Z" fill="white"/>
<path fill-rule="evenodd" clip-rule="evenodd" d="M24.6093 23.3081C24.3652 23.064 23.9695 23.064 23.7254 23.3081L21.642 25.3914C21.398 25.6355 21.398 26.0312 21.642 26.2753L23.7254 28.3586C23.9695 28.6027 24.3652 28.6027 24.6093 28.3586C24.8533 28.1145 24.8533 27.7188 24.6093 27.4747L23.5929 26.4583H28.334C28.6792 26.4583 28.959 26.1785 28.959 25.8333C28.959 25.4882 28.6792 25.2083 28.334 25.2083H23.5929L24.6093 24.1919C24.8533 23.9479 24.8533 23.5521 24.6093 23.3081Z" fill="white"/>
</g>
<defs>
<filter id="filter0_d_4765_15331" x="10" y="10" width="20" height="21" filterUnits="userSpaceOnUse" color-interpolation-filters="sRGB">
<feFlood flood-opacity="0" result="BackgroundImageFix"/>
<feColorMatrix in="SourceAlpha" type="matrix" values="0 0 0 0 0 0 0 0 0 0 0 0 0 0 0 0 0 0 127 0" result="hardAlpha"/>
<feOffset dy="1"/>
<feComposite in2="hardAlpha" operator="out"/>
<feColorMatrix type="matrix" values="0 0 0 0 0 0 0 0 0 0 0 0 0 0 0 0 0 0 0.15 0"/>
<feBlend mode="normal" in2="BackgroundImageFix" result="effect1_dropShadow_4765_15331"/>
<feBlend mode="normal" in="SourceGraphic" in2="effect1_dropShadow_4765_15331" result="shape"/>
</filter>
</defs>
</svg>
