<svg width="40" height="40" viewBox="0 0 40 40" fill="none" xmlns="http://www.w3.org/2000/svg">
<circle cx="20" cy="20" r="20" fill="#A8AEBE"/>
<g clip-path="url(#clip0_4765_15839)">
<g clip-path="url(#clip1_4765_15839)">
<g filter="url(#filter0_d_4765_15839)">
<path d="M28.3333 18.3333H27.3075C27.1201 17.5108 26.7943 16.726 26.3442 16.0125L27.0708 15.2858C27.3744 14.9715 27.5424 14.5505 27.5386 14.1135C27.5348 13.6765 27.3595 13.2585 27.0505 12.9495C26.7415 12.6405 26.3235 12.4652 25.8865 12.4614C25.4495 12.4576 25.0285 12.6256 24.7142 12.9292L23.9875 13.6558C23.274 13.2057 22.4892 12.8799 21.6667 12.6925V11.6667C21.6667 11.2246 21.4911 10.8007 21.1785 10.4882C20.8659 10.1756 20.442 10 20 10C19.558 10 19.134 10.1756 18.8215 10.4882C18.5089 10.8007 18.3333 11.2246 18.3333 11.6667V12.6925C17.5108 12.8799 16.726 13.2057 16.0125 13.6558L15.2858 12.9292C14.9715 12.6256 14.5505 12.4576 14.1135 12.4614C13.6765 12.4652 13.2585 12.6405 12.9495 12.9495C12.6405 13.2585 12.4652 13.6765 12.4614 14.1135C12.4576 14.5505 12.6256 14.9715 12.9292 15.2858L13.6558 16.0125C13.2057 16.726 12.8799 17.5108 12.6925 18.3333H11.6667C11.2246 18.3333 10.8007 18.5089 10.4882 18.8215C10.1756 19.134 10 19.558 10 20C10 20.442 10.1756 20.8659 10.4882 21.1785C10.8007 21.4911 11.2246 21.6667 11.6667 21.6667H12.6925C12.8799 22.4892 13.2057 23.274 13.6558 23.9875L12.9292 24.7142C12.6256 25.0285 12.4576 25.4495 12.4614 25.8865C12.4652 26.3235 12.6405 26.7415 12.9495 27.0505C13.2585 27.3595 13.6765 27.5348 14.1135 27.5386C14.5505 27.5424 14.9715 27.3744 15.2858 27.0708L16.0125 26.3442C16.726 26.7943 17.5108 27.1201 18.3333 27.3075V28.3333C18.3333 28.7754 18.5089 29.1993 18.8215 29.5118C19.134 29.8244 19.558 30 20 30C20.442 30 20.8659 29.8244 21.1785 29.5118C21.4911 29.1993 21.6667 28.7754 21.6667 28.3333V27.3075C22.4892 27.1201 23.274 26.7943 23.9875 26.3442L24.7142 27.0708C25.0285 27.3744 25.4495 27.5424 25.8865 27.5386C26.3235 27.5348 26.7415 27.3595 27.0505 27.0505C27.3595 26.7415 27.5348 26.3235 27.5386 25.8865C27.5424 25.4495 27.3744 25.0285 27.0708 24.7142L26.3442 23.9875C26.7943 23.274 27.1201 22.4892 27.3075 21.6667H28.3333C28.7754 21.6667 29.1993 21.4911 29.5118 21.1785C29.8244 20.8659 30 20.442 30 20C30 19.558 29.8244 19.134 29.5118 18.8215C29.1993 18.5089 28.7754 18.3333 28.3333 18.3333ZM20 23.3333C19.3407 23.3333 18.6963 23.1378 18.1481 22.7716C17.5999 22.4053 17.1727 21.8847 16.9204 21.2756C16.6681 20.6665 16.6021 19.9963 16.7307 19.3497C16.8593 18.7031 17.1768 18.1092 17.643 17.643C18.1092 17.1768 18.7031 16.8593 19.3497 16.7307C19.9963 16.6021 20.6665 16.6681 21.2756 16.9204C21.8847 17.1727 22.4053 17.5999 22.7716 18.1481C23.1378 18.6963 23.3333 19.3407 23.3333 20C23.3333 20.8841 22.9821 21.7319 22.357 22.357C21.7319 22.9821 20.8841 23.3333 20 23.3333Z" fill="white"/>
</g>
</g>
</g>
<defs>
<filter id="filter0_d_4765_15839" x="10" y="10" width="20" height="21" filterUnits="userSpaceOnUse" color-interpolation-filters="sRGB">
<feFlood flood-opacity="0" result="BackgroundImageFix"/>
<feColorMatrix in="SourceAlpha" type="matrix" values="0 0 0 0 0 0 0 0 0 0 0 0 0 0 0 0 0 0 127 0" result="hardAlpha"/>
<feOffset dy="1"/>
<feComposite in2="hardAlpha" operator="out"/>
<feColorMatrix type="matrix" values="0 0 0 0 0 0 0 0 0 0 0 0 0 0 0 0 0 0 0.15 0"/>
<feBlend mode="normal" in2="BackgroundImageFix" result="effect1_dropShadow_4765_15839"/>
<feBlend mode="normal" in="SourceGraphic" in2="effect1_dropShadow_4765_15839" result="shape"/>
</filter>
<clipPath id="clip0_4765_15839">
<rect width="20" height="20" fill="white" transform="translate(10 10)"/>
</clipPath>
<clipPath id="clip1_4765_15839">
<rect width="20" height="20" fill="white" transform="translate(10 10)"/>
</clipPath>
</defs>
</svg>
