<svg width="32" height="32" viewBox="0 0 32 32" fill="none" xmlns="http://www.w3.org/2000/svg">
<circle cx="16" cy="16" r="15.75" fill="white" fill-opacity="0.3" stroke="#DADADA" stroke-width="0.5"/>
<path d="M25.8463 14.3584C25.4616 12.0445 24.2765 9.93965 22.4981 8.41186C20.7198 6.88407 18.4614 6.03064 16.118 6.00081C13.7746 5.97098 11.4953 6.76665 9.67869 8.24868C7.86209 9.7307 6.62383 11.8047 6.18045 14.1081C5.73706 16.4115 6.11679 18.7975 7.2532 20.849C8.38962 22.9005 10.2104 24.4869 12.3971 25.3306C14.5839 26.1744 16.9973 26.2219 19.2155 25.4648C21.4337 24.7078 23.3154 23.1943 24.5315 21.1891L21.1153 19.1135C20.3856 20.3166 19.2566 21.2247 17.9257 21.6789C16.5948 22.1332 15.1467 22.1047 13.8347 21.5984C12.5226 21.0921 11.4302 20.1403 10.7483 18.9094C10.0665 17.6785 9.83862 16.2469 10.1046 14.8649C10.3707 13.4829 11.1136 12.2384 12.2036 11.3492C13.2936 10.46 14.6611 9.98259 16.0672 10.0005C17.4732 10.0184 18.8282 10.5304 19.8952 11.4471C20.9623 12.3638 21.6734 13.6267 21.9042 15.0151L25.8463 14.3584Z" fill="url(#paint0_angular_1098_7961)"/>
<path d="M16.6125 18.1781C16.4526 18.2472 16.282 18.2987 16.1028 18.3298C14.8806 18.5414 13.7184 17.7212 13.507 16.4979C13.2956 15.2746 14.1149 14.1114 15.3371 13.8998C15.4982 13.8719 15.6582 13.8619 15.8151 13.8684L15.8144 13.8643L25.8353 14.1887C26.02 14.1947 26.0641 14.4496 25.8922 14.5174L16.6125 18.1781Z" fill="#333333"/>
<defs>
<radialGradient id="paint0_angular_1098_7961" cx="0" cy="0" r="1" gradientUnits="userSpaceOnUse" gradientTransform="translate(15.7519 15.9791) rotate(36.081) scale(21.8352 21.841)">
<stop offset="0.369792" stop-color="#F08B32"/>
<stop offset="0.744792" stop-color="#F08B32"/>
<stop offset="0.989583" stop-color="#F08B32" stop-opacity="0"/>
</radialGradient>
</defs>
</svg>
