<svg width="17" height="17" viewBox="0 0 17 17" fill="none" xmlns="http://www.w3.org/2000/svg">
<path d="M12.396 7.79171C11.8229 7.79171 11.2762 7.9017 10.7696 8.09395C9.68012 7.43463 8.43425 7.08347 7.15089 7.08347H7.016C3.14731 7.08347 0 10.2308 0 14.0995V14.875H8.52249C9.34191 16.1508 10.7702 17 12.3961 17C14.9348 17 17.0002 14.9346 17.0002 12.396C17.0002 9.85708 14.9346 7.79148 12.3961 7.79148L12.396 7.79171ZM0.708343 14.1668V14.0995C0.708343 10.6216 3.53789 7.79158 7.01587 7.79158H7.15076C8.14748 7.79158 9.1188 8.02816 9.99648 8.47376C8.67665 9.28426 7.79157 10.7368 7.79157 12.3959C7.79157 13.0232 7.91861 13.6214 8.14673 14.1669L0.708343 14.1668ZM12.396 16.2918C10.2478 16.2918 8.49998 14.5442 8.49998 12.3958C8.49998 10.2477 10.2476 8.4998 12.396 8.4998C14.5441 8.4998 16.292 10.2474 16.292 12.3958C16.2918 14.5441 14.5442 16.2918 12.396 16.2918Z" fill="#283049"/>
<path d="M10.625 3.54166C10.625 1.58872 9.03618 0 7.08339 0C5.13061 0 3.54173 1.58872 3.54173 3.54166C3.54173 5.49459 5.13061 7.08332 7.08339 7.08332C9.03618 7.08346 10.625 5.49475 10.625 3.54166ZM7.08339 6.37508C5.52104 6.37508 4.24997 5.10401 4.24997 3.54166C4.24997 1.97931 5.52104 0.708241 7.08339 0.708241C8.64574 0.708241 9.91681 1.97931 9.91681 3.54166C9.91666 5.10401 8.64559 6.37508 7.08339 6.37508Z" fill="#283049"/>
<path d="M12.396 10.6251C12.7865 10.6251 13.1044 10.9428 13.1044 11.3335H13.8128C13.8128 10.6753 13.3597 10.1254 12.7503 9.9671L12.7502 9.20847H12.0418V9.9671C11.4324 10.1254 10.9792 10.6752 10.9792 11.3335C10.9792 12.1147 11.6146 12.7501 12.3959 12.7501C12.7863 12.7501 13.1043 13.0678 13.1043 13.4585C13.1043 13.8491 12.7865 14.1669 12.3959 14.1669C12.0054 14.1669 11.6875 13.8493 11.6875 13.4585H10.9791C10.9791 14.1167 11.4322 14.6666 12.0416 14.8249L12.0418 15.5835H12.7501V14.8249C13.3595 14.6664 13.8127 14.1167 13.8127 13.4585C13.8127 12.6773 13.1774 12.0419 12.396 12.0419C12.0056 12.0419 11.6876 11.7242 11.6876 11.3335C11.6876 10.9428 12.0054 10.6251 12.396 10.6251Z" fill="#283049"/>
</svg>
