<svg width="20" height="20" viewBox="0 0 20 20" fill="none" xmlns="http://www.w3.org/2000/svg">
<path fill-rule="evenodd" clip-rule="evenodd" d="M9.16683 10.0001C9.16683 10.4603 9.53993 10.8334 10.0002 10.8334C10.4604 10.8334 10.8335 10.4603 10.8335 10.0001C10.8335 9.53984 10.4604 9.16675 10.0002 9.16675C9.53993 9.16675 9.16683 9.53984 9.16683 10.0001Z" stroke="black"/>
<path fill-rule="evenodd" clip-rule="evenodd" d="M9.16683 4.99996C9.16683 5.4602 9.53993 5.83329 10.0002 5.83329C10.4604 5.83329 10.8335 5.4602 10.8335 4.99996C10.8335 4.53972 10.4604 4.16663 10.0002 4.16663C9.53993 4.16663 9.16683 4.53972 9.16683 4.99996Z" stroke="black"/>
<path fill-rule="evenodd" clip-rule="evenodd" d="M9.16683 15.0001C9.16683 15.4603 9.53993 15.8334 10.0002 15.8334C10.4604 15.8334 10.8335 15.4603 10.8335 15.0001C10.8335 14.5398 10.4604 14.1667 10.0002 14.1667C9.53993 14.1667 9.16683 14.5398 9.16683 15.0001Z" stroke="black"/>
</svg>
