<svg width="21" height="21" viewBox="0 0 21 21" fill="none" xmlns="http://www.w3.org/2000/svg">
<path d="M14.3754 2.94068C9.33742 0.833938 4.50345 4.31515 4.23776 9.01434C4.23051 9.11138 4.26393 9.20705 4.33006 9.27852C4.39618 9.34993 4.489 9.39076 4.58639 9.39115H5.02288C5.12432 9.39036 5.2219 9.35176 5.29645 9.28302C5.37099 9.21422 5.41721 9.12011 5.42608 9.01909C5.6941 5.03782 9.89476 2.14674 14.1786 4.15866C15.2436 4.66147 16.1023 5.51612 16.6098 6.57827C18.6687 10.941 15.6255 15.2114 11.5339 15.3465C11.438 15.3503 11.3619 15.4284 11.3607 15.5242V16.1048C11.346 16.2147 11.3805 16.3255 11.455 16.4078C11.5294 16.4899 11.6364 16.5352 11.7473 16.5314C16.4628 16.266 19.9519 11.415 17.8123 6.36981C17.1584 4.82258 15.9249 3.59192 14.3754 2.94081L14.3754 2.94068Z" fill="#283049"/>
<path d="M14.3754 2.94068C9.33742 0.833938 4.50345 4.31515 4.23776 9.01434C4.23051 9.11138 4.26393 9.20705 4.33006 9.27852C4.39618 9.34993 4.489 9.39076 4.58639 9.39115H5.02288C5.12432 9.39036 5.2219 9.35176 5.29645 9.28302C5.37099 9.21422 5.41721 9.12011 5.42608 9.01909C5.6941 5.03782 9.89476 2.14674 14.1786 4.15866C15.2436 4.66147 16.1023 5.51612 16.6098 6.57827C18.6687 10.941 15.6255 15.2114 11.5339 15.3465C11.438 15.3503 11.3619 15.4284 11.3607 15.5242V16.1048C11.346 16.2147 11.3805 16.3255 11.455 16.4078C11.5294 16.4899 11.6364 16.5352 11.7473 16.5314C16.4628 16.266 19.9519 11.415 17.8123 6.36981C17.1584 4.82258 15.9249 3.59192 14.3754 2.94081L14.3754 2.94068Z" stroke="white"/>
<path d="M10.2336 9.39542L4.49991 10.8374C4.17293 10.9253 3.91634 11.1812 3.82545 11.5103C3.73454 11.8394 3.82286 12.1925 4.05757 12.4386L5.37982 13.7546L1.3542 17.8785C1.0449 18.1964 0.927005 18.6567 1.04497 19.0861C1.16288 19.5155 1.49878 19.8488 1.92604 19.9603C2.3533 20.0719 2.80711 19.9448 3.11641 19.627L7.14203 15.4863L8.46428 16.8047V16.8048C8.62466 16.9684 8.83839 17.0678 9.06578 17.0843C9.29318 17.1008 9.51882 17.0334 9.7007 16.8946C9.88258 16.7558 10.0084 16.5551 10.0548 16.3297L11.3794 10.5333C11.4551 10.2102 11.3583 9.87074 11.1242 9.63768C10.89 9.40461 10.5524 9.31191 10.2336 9.39305L10.2336 9.39542Z" stroke="#283049"/>
</svg>
