<svg width="32" height="32" viewBox="0 0 32 32" fill="none" xmlns="http://www.w3.org/2000/svg">
<path fill-rule="evenodd" clip-rule="evenodd" d="M9.3335 20.3333C9.3335 20.1492 9.48273 20 9.66683 20H22.3335C22.5176 20 22.6668 20.1492 22.6668 20.3333V22.3333C22.6668 22.5174 22.5176 22.6667 22.3335 22.6667H9.66683C9.48273 22.6667 9.3335 22.5174 9.3335 22.3333V20.3333ZM10.0002 20.6667V22H22.0002V20.6667H10.0002Z" fill="#F08B32"/>
<path fill-rule="evenodd" clip-rule="evenodd" d="M15.8449 9.37186C15.9421 9.32071 16.0582 9.32071 16.1554 9.37186L22.4887 12.7052C22.5983 12.7628 22.6668 12.8764 22.6668 13.0002V14.3335C22.6668 14.5176 22.5176 14.6668 22.3335 14.6668H9.66683C9.48273 14.6668 9.3335 14.5176 9.3335 14.3335V13.0002C9.3335 12.8764 9.40206 12.7628 9.51158 12.7052L15.8449 9.37186ZM10.0002 13.2014V14.0002H22.0002V13.2014L16.0002 10.0435L10.0002 13.2014Z" fill="#F08B32"/>
<path fill-rule="evenodd" clip-rule="evenodd" d="M14.3332 14C14.5173 14 14.6665 14.1492 14.6665 14.3333L14.6665 20.3333C14.6665 20.5174 14.5173 20.6667 14.3332 20.6667H10.9998C10.8157 20.6667 10.6665 20.5174 10.6665 20.3333L10.6665 14.3333C10.6665 14.1492 10.8157 14 10.9998 14H14.3332ZM13.9998 14.6667H11.3332V20H13.9998L13.9998 14.6667Z" fill="#F08B32"/>
<path fill-rule="evenodd" clip-rule="evenodd" d="M21.0002 14C21.1843 14 21.3335 14.1492 21.3335 14.3333V20.3333C21.3335 20.5174 21.1843 20.6667 21.0002 20.6667H17.6668C17.4827 20.6667 17.3335 20.5174 17.3335 20.3333V14.3333C17.3335 14.1492 17.4827 14 17.6668 14H21.0002ZM20.6668 14.6667H18.0002V20H20.6668V14.6667Z" fill="#F08B32"/>
<path fill-rule="evenodd" clip-rule="evenodd" d="M15.9998 11.6667C15.6316 11.6667 15.3332 11.9651 15.3332 12.3333C15.3332 12.7015 15.6316 13 15.9998 13C16.368 13 16.6665 12.7015 16.6665 12.3333C16.6665 11.9651 16.368 11.6667 15.9998 11.6667ZM14.6665 12.3333C14.6665 11.597 15.2635 11 15.9998 11C16.7362 11 17.3332 11.597 17.3332 12.3333C17.3332 13.0697 16.7362 13.6667 15.9998 13.6667C15.2635 13.6667 14.6665 13.0697 14.6665 12.3333Z" fill="#F08B32"/>
<circle cx="16" cy="16" r="15.5" stroke="#F08B32" stroke-dasharray="2 2"/>
</svg>
