<svg width="14" height="16" viewBox="0 0 14 16" fill="none" xmlns="http://www.w3.org/2000/svg">
<path d="M11.9237 8.11082C11.8647 8.05244 11.7942 8.00602 11.7164 7.97425C11.6386 7.94248 11.555 7.92601 11.4706 7.92578C11.3861 7.92556 11.3025 7.9416 11.2245 7.97295C11.1465 8.00431 11.0758 8.05037 11.0164 8.10843C10.957 8.1665 10.9102 8.23541 10.8786 8.31116C10.847 8.38691 10.8314 8.46797 10.8325 8.54963C10.8337 8.63129 10.8517 8.71191 10.8854 8.78679C10.9191 8.86167 10.9678 8.92931 11.0289 8.98577C11.5688 9.49953 11.9971 10.1124 12.2887 10.7884C12.5804 11.4644 12.7295 12.1899 12.7272 12.9224C12.7272 13.6751 10.4962 14.7685 7 14.7685C3.50377 14.7685 1.27275 13.6745 1.27275 12.9212C1.27061 12.1937 1.4177 11.4731 1.7055 10.801C1.9933 10.1289 2.41611 9.51867 2.94944 9.00565C3.00976 8.94878 3.0578 8.88089 3.09078 8.80592C3.12376 8.73095 3.14101 8.6504 3.14155 8.56893C3.14208 8.48746 3.12588 8.4067 3.09389 8.33133C3.06189 8.25597 3.01475 8.18749 2.95517 8.12989C2.8956 8.07228 2.8248 8.02668 2.74686 7.99574C2.66892 7.96481 2.58541 7.94914 2.50117 7.94966C2.41692 7.95017 2.33362 7.96686 2.2561 7.99875C2.17857 8.03064 2.10837 8.0771 2.04956 8.13544C1.39756 8.76263 0.880691 9.50867 0.528886 10.3304C0.177081 11.152 -0.00267327 12.0331 3.00436e-05 12.9224C3.00436e-05 14.9209 3.60629 15.9993 7 15.9993C10.3937 15.9993 14 14.9209 14 12.9224C14.0028 12.0271 13.8206 11.1402 13.464 10.314C13.1075 9.48768 12.5838 8.73864 11.9237 8.11082Z" fill="#313A4E"/>
<path d="M7.00018 8.61539C7.8812 8.61539 8.74244 8.36275 9.47498 7.88941C10.2075 7.41607 10.7785 6.7433 11.1156 5.95618C11.4528 5.16905 11.541 4.30292 11.3691 3.46731C11.1972 2.63169 10.773 1.86414 10.15 1.2617C9.52703 0.659254 8.73331 0.248986 7.86922 0.082773C7.00512 -0.0834402 6.10947 0.00186645 5.29551 0.327905C4.48155 0.653944 3.78585 1.20607 3.29638 1.91447C2.80691 2.62286 2.54565 3.45571 2.54565 4.30769C2.54702 5.44976 3.01677 6.54467 3.85186 7.35224C4.68695 8.1598 5.81919 8.61407 7.00018 8.61539ZM7.00018 1.23077C7.62948 1.23077 8.24465 1.41123 8.7679 1.74933C9.29114 2.08742 9.69896 2.56797 9.93978 3.13021C10.1806 3.69244 10.2436 4.31111 10.1208 4.90797C9.99808 5.50484 9.69504 6.05309 9.25006 6.48341C8.80507 6.91372 8.23813 7.20677 7.62092 7.3255C7.00371 7.44422 6.36396 7.38329 5.78256 7.1504C5.20116 6.91752 4.70423 6.52314 4.35461 6.01714C4.00499 5.51114 3.81838 4.91625 3.81838 4.30769C3.81937 3.49194 4.15491 2.70987 4.7514 2.13304C5.34789 1.55622 6.15662 1.23173 7.00018 1.23077Z" fill="#313A4E"/>
</svg>
