<svg width="42" height="42" viewBox="0 0 42 42" fill="none" xmlns="http://www.w3.org/2000/svg">
<circle cx="21" cy="21" r="21" fill="#BABEC8"/>
<path d="M28.222 28.3359H13.7838C13.3429 28.3359 12.9844 28.6973 12.9844 29.1354V30.2023C12.9844 30.6432 13.3457 31.0017 13.7838 31.0017H28.2163C28.6572 31.0017 29.0157 30.6403 29.0157 30.2023V29.1354C29.0243 28.6916 28.6629 28.3359 28.222 28.3359Z" fill="white"/>
<path d="M20.444 26.9033C20.6005 27.0598 20.8054 27.1394 21.0074 27.1394C21.2122 27.1394 21.417 27.0598 21.5707 26.9033L27.0387 21.4353C27.3488 21.1252 27.3488 20.6188 27.0387 20.303L26.2819 19.5462C25.9718 19.2361 25.4654 19.2361 25.1496 19.5462L22.3388 22.3599V11.7994C22.3388 11.3585 21.9775 11 21.5394 11H20.4725C20.0315 11 19.673 11.3556 19.673 11.7994V22.3627L16.8594 19.5491C16.5493 19.239 16.0401 19.239 15.7271 19.5491L14.9704 20.3058C14.6603 20.6159 14.6603 21.1252 14.9704 21.4381L20.444 26.9033Z" fill="white"/>
</svg>
