<svg width="26" height="26" viewBox="0 0 26 26" fill="none" xmlns="http://www.w3.org/2000/svg">
<rect x="1" y="1" width="24" height="24" rx="12" fill="white"/>
<rect x="0.75" y="0.75" width="24.5" height="24.5" rx="12.25" stroke="black" stroke-opacity="0.1" stroke-width="0.5"/>
<g clip-path="url(#clip0_5647_15620)">
<path d="M20.5247 7.02805L13.858 5.02805C13.7585 4.99822 13.6533 4.99208 13.551 5.01011C13.4487 5.02814 13.352 5.06984 13.2686 5.13189C13.1852 5.19394 13.1175 5.27461 13.0709 5.36747C13.0243 5.46033 13 5.5628 13 5.66671V9.00005H14.3333V6.56271L19.6667 8.16271V19.6667H15.6667V11C15.6667 10.8232 15.5964 10.6537 15.4714 10.5286C15.3464 10.4036 15.1768 10.3334 15 10.3334H8.33333C8.15652 10.3334 7.98695 10.4036 7.86193 10.5286C7.7369 10.6537 7.66667 10.8232 7.66667 11V19.6667H6.33333V13H5.66667C5.48986 13 5.32029 13.0703 5.19526 13.1953C5.07024 13.3203 5 13.4899 5 13.6667V20.3334C5 20.5102 5.07024 20.6798 5.19526 20.8048C5.32029 20.9298 5.48986 21 5.66667 21H20.3333C20.5101 21 20.6797 20.9298 20.8047 20.8048C20.9298 20.6798 21 20.5102 21 20.3334V7.66671C21 7.52329 20.9538 7.38369 20.8681 7.26863C20.7825 7.15358 20.6621 7.06921 20.5247 7.02805ZM12.6667 19H10.6667C10.5783 19 10.4935 18.9649 10.431 18.9024C10.3685 18.8399 10.3333 18.7551 10.3333 18.6667V18C10.3333 17.9116 10.3685 17.8269 10.431 17.7643C10.4935 17.7018 10.5783 17.6667 10.6667 17.6667H12.6667C12.7551 17.6667 12.8399 17.7018 12.9024 17.7643C12.9649 17.8269 13 17.9116 13 18V18.6667C13 18.7551 12.9649 18.8399 12.9024 18.9024C12.8399 18.9649 12.7551 19 12.6667 19ZM12.6667 16.3334H10.6667C10.5783 16.3334 10.4935 16.2983 10.431 16.2357C10.3685 16.1732 10.3333 16.0885 10.3333 16V15.3334C10.3333 15.245 10.3685 15.1602 10.431 15.0977C10.4935 15.0352 10.5783 15 10.6667 15H12.6667C12.7551 15 12.8399 15.0352 12.9024 15.0977C12.9649 15.1602 13 15.245 13 15.3334V16C13 16.0885 12.9649 16.1732 12.9024 16.2357C12.8399 16.2983 12.7551 16.3334 12.6667 16.3334ZM12.6667 13.6667H10.6667C10.5783 13.6667 10.4935 13.6316 10.431 13.5691C10.3685 13.5066 10.3333 13.4218 10.3333 13.3334V12.6667C10.3333 12.5783 10.3685 12.4935 10.431 12.431C10.4935 12.3685 10.5783 12.3334 10.6667 12.3334H12.6667C12.7551 12.3334 12.8399 12.3685 12.9024 12.431C12.9649 12.4935 13 12.5783 13 12.6667V13.3334C13 13.4218 12.9649 13.5066 12.9024 13.5691C12.8399 13.6316 12.7551 13.6667 12.6667 13.6667Z" fill="#F08B32"/>
<path d="M18 10.3333H17.3333C17.1492 10.3333 17 10.4825 17 10.6666V17.9999C17 18.184 17.1492 18.3333 17.3333 18.3333H18C18.1841 18.3333 18.3333 18.184 18.3333 17.9999V10.6666C18.3333 10.4825 18.1841 10.3333 18 10.3333Z" fill="#F08B32"/>
</g>
<defs>
<clipPath id="clip0_5647_15620">
<rect width="16" height="16" fill="white" transform="translate(5 5)"/>
</clipPath>
</defs>
</svg>
