<svg width="96" height="29" viewBox="0 0 96 29" fill="none" xmlns="http://www.w3.org/2000/svg">
<g clip-path="url(#clip0_4479_8300)">
<path d="M88.3929 0.472565H8.31251C8.02061 0.472565 7.73221 0.472565 7.44108 0.473976C7.19738 0.475387 6.95562 0.479487 6.70957 0.482937C6.17505 0.488513 5.64179 0.530196 5.11441 0.607623C4.58778 0.686737 4.07765 0.835889 3.60126 1.05003C3.12546 1.26599 2.69071 1.5466 2.31277 1.88169C1.93286 2.21584 1.61617 2.60207 1.37488 3.02553C1.13293 3.44815 0.965158 3.90102 0.877364 4.36851C0.788735 4.83541 0.741043 5.30769 0.734716 5.78112C0.727329 5.99746 0.726549 6.21451 0.722656 6.43088V22.7403C0.726549 22.9593 0.727329 23.1716 0.734716 23.3907C0.741045 23.8642 0.788737 24.3364 0.877364 24.8033C0.964916 25.271 1.1327 25.7242 1.37488 26.147C1.61606 26.569 1.93279 26.9537 2.31277 27.286C2.68928 27.6226 3.12431 27.9034 3.60126 28.1177C4.07764 28.3324 4.58772 28.4825 5.11441 28.5628C5.64188 28.6396 6.17509 28.6813 6.70957 28.6875C6.95562 28.6923 7.19738 28.6951 7.44108 28.6951C7.7322 28.6965 8.02063 28.6965 8.31251 28.6965H88.3929C88.6789 28.6965 88.9697 28.6965 89.2557 28.6951C89.4983 28.6951 89.7471 28.6923 89.9896 28.6875C90.5231 28.6816 91.0553 28.6399 91.5816 28.5628C92.11 28.4819 92.6219 28.3319 93.1006 28.1177C93.5772 27.9033 94.0118 27.6225 94.388 27.286C94.767 26.9524 95.0844 26.568 95.3285 26.147C95.5689 25.7239 95.7351 25.2708 95.8214 24.8033C95.9101 24.3363 95.9595 23.8642 95.9691 23.3907C95.9722 23.1716 95.9722 22.9593 95.9722 22.7403C95.9784 22.4839 95.9784 22.229 95.9784 21.9685V7.20124C95.9784 6.94284 95.9784 6.68651 95.9722 6.43088C95.9722 6.21451 95.9722 5.99746 95.9691 5.78109C95.9595 5.30762 95.9101 4.83545 95.8214 4.36848C95.7349 3.90127 95.5687 3.44843 95.3285 3.0255C94.8372 2.17672 94.058 1.48582 93.1006 1.04997C92.6219 0.836348 92.11 0.687236 91.5816 0.60756C91.0554 0.529791 90.5231 0.488094 89.9896 0.482838C89.7471 0.479395 89.4983 0.47526 89.2557 0.473884C88.9697 0.472473 88.6789 0.472473 88.3929 0.472473V0.472565Z" fill="#1D1D1D"/>
<path d="M7.37567 28.0811C7.13272 28.0811 6.89564 28.0784 6.65459 28.0736C6.15524 28.0678 5.65706 28.0294 5.16413 27.9585C4.7045 27.8884 4.25925 27.7581 3.84305 27.5718C3.43066 27.3871 3.05454 27.1448 2.72908 26.8543C2.39891 26.5673 2.12402 26.2344 1.91532 25.8688C1.70432 25.5008 1.55829 25.1064 1.48233 24.6992C1.4003 24.2617 1.35592 23.8194 1.34956 23.3759C1.34451 23.2271 1.33789 22.7315 1.33789 22.7315V6.42839C1.33789 6.42839 1.34494 5.94043 1.3496 5.79708C1.35569 5.35435 1.39981 4.91267 1.4816 4.47587C1.5577 4.06761 1.70384 3.67204 1.91495 3.30285C2.12289 2.9375 2.39625 2.60433 2.72443 2.31625C3.05224 2.02545 3.42957 1.78195 3.84266 1.59465C4.2579 1.40896 4.70231 1.27955 5.16102 1.21077C5.65556 1.13918 6.15547 1.10048 6.65655 1.09498L7.37606 1.08636H89.3239L90.052 1.09533C90.5485 1.10055 91.0438 1.13891 91.5338 1.21007C91.9972 1.27972 92.4462 1.41003 92.8662 1.59672C93.6938 1.97418 94.3672 2.57137 94.792 3.30457C94.9997 3.67121 95.1436 4.06356 95.2187 4.46829C95.3015 4.90868 95.3478 5.35383 95.3573 5.80018C95.3596 6.00005 95.3596 6.21474 95.3596 6.42839C95.3659 6.69305 95.3659 6.94495 95.3659 7.19892V21.9692C95.3659 22.2256 95.3659 22.4758 95.3596 22.7281C95.3596 22.9576 95.3596 23.1678 95.3565 23.3842C95.3472 23.8226 95.3017 24.2598 95.2202 24.6923C95.1458 25.1024 95.0006 25.4999 94.7896 25.8709C94.5795 26.2325 94.3062 26.5626 93.9798 26.8488C93.654 27.1409 93.2773 27.3845 92.8639 27.5705C92.4451 27.7582 91.9967 27.889 91.5338 27.9585C91.041 28.0297 90.5427 28.0682 90.0434 28.0736C89.8098 28.0784 89.5652 28.0811 89.3278 28.0811L88.4634 28.0826L7.37567 28.0811Z" fill="black"/>
<path d="M23.8648 14.7968C23.8724 14.2078 24.0288 13.6304 24.3195 13.1182C24.6103 12.6059 25.0258 12.1755 25.5276 11.8671C25.2088 11.4119 24.7883 11.0372 24.2995 10.7729C23.8106 10.5087 23.2669 10.362 22.7114 10.3446C21.5265 10.2203 20.3779 11.0536 19.7741 11.0536C19.1586 11.0536 18.229 10.357 17.2279 10.3776C16.5804 10.3985 15.9494 10.5868 15.3963 10.9241C14.8432 11.2614 14.3869 11.7363 14.0718 12.3023C12.7072 14.665 13.7251 18.1373 15.0323 20.0471C15.6863 20.9822 16.4507 22.0268 17.4508 21.9898C18.4295 21.9492 18.7951 21.3657 19.9765 21.3657C21.1469 21.3657 21.4898 21.9898 22.5103 21.9662C23.5605 21.9492 24.2221 21.0269 24.8532 20.0829C25.3231 19.4165 25.6847 18.6801 25.9246 17.9008C25.3145 17.6428 24.7938 17.2108 24.4275 16.6588C24.0612 16.1068 23.8655 15.4592 23.8648 14.7968Z" fill="white"/>
<path d="M21.9373 9.08859C22.5099 8.40119 22.792 7.51765 22.7237 6.62561C21.8488 6.71749 21.0407 7.1356 20.4604 7.79663C20.1766 8.11956 19.9593 8.49524 19.8208 8.90221C19.6824 9.30918 19.6255 9.73945 19.6534 10.1684C20.091 10.1729 20.5238 10.0781 20.9195 9.89104C21.3151 9.70399 21.6631 9.42962 21.9373 9.08859Z" fill="white"/>
<path d="M36.2363 19.6223H32.8964L32.0943 21.9906H30.6797L33.8432 13.2285H35.3129L38.4764 21.9906H37.0376L36.2363 19.6223ZM33.2423 18.5294H35.8897L34.5846 14.6858H34.5481L33.2423 18.5294Z" fill="white"/>
<path d="M45.3086 18.7968C45.3086 20.782 44.2461 22.0574 42.6426 22.0574C42.2364 22.0787 41.8325 21.9851 41.477 21.7875C41.1215 21.5898 40.8289 21.296 40.6326 20.9398H40.6023V24.1039H39.291V15.6023H40.5603V16.6649H40.5844C40.7897 16.3103 41.0873 16.0181 41.4455 15.8192C41.8036 15.6203 42.209 15.5223 42.6185 15.5355C44.2398 15.5355 45.3086 16.8171 45.3086 18.7968ZM43.9608 18.7968C43.9608 17.5034 43.2924 16.6531 42.2726 16.6531C41.2707 16.6531 40.5968 17.5214 40.5968 18.7968C40.5968 20.084 41.2707 20.946 42.2726 20.946C43.2924 20.946 43.9608 20.1019 43.9608 18.7968Z" fill="white"/>
<path d="M52.3399 18.7968C52.3399 20.782 51.2773 22.0574 49.6739 22.0574C49.2677 22.0787 48.8637 21.9851 48.5083 21.7875C48.1528 21.5898 47.8602 21.296 47.6639 20.9398H47.6335V24.1039H46.3223V15.6023H47.5915V16.6648H47.6156C47.8209 16.3103 48.1185 16.0181 48.4767 15.8192C48.8349 15.6203 49.2403 15.5223 49.6497 15.5355C51.2711 15.5355 52.3399 16.8171 52.3399 18.7968ZM50.992 18.7968C50.992 17.5034 50.3237 16.6531 49.3038 16.6531C48.302 16.6531 47.6281 17.5214 47.6281 18.7968C47.6281 20.084 48.302 20.946 49.3038 20.946C50.3237 20.946 50.9921 20.1019 50.9921 18.7968H50.992Z" fill="white"/>
<path d="M56.9868 19.5493C57.084 20.4182 57.9281 20.9887 59.0816 20.9887C60.1868 20.9887 60.982 20.4182 60.982 19.6347C60.982 18.9546 60.5024 18.5474 59.3669 18.2683L58.2313 17.9947C56.6223 17.6061 55.8754 16.8536 55.8754 15.6326C55.8754 14.1208 57.1929 13.0824 59.0637 13.0824C60.9152 13.0824 62.1844 14.1208 62.2272 15.6326H60.9034C60.8242 14.7582 60.1014 14.2304 59.0451 14.2304C57.9887 14.2304 57.2659 14.7644 57.2659 15.5417C57.2659 16.1611 57.7276 16.5256 58.8569 16.8047L59.8223 17.0417C61.6201 17.4669 62.367 18.189 62.367 19.4707C62.367 21.1099 61.0612 22.1366 58.9844 22.1366C57.0413 22.1366 55.7293 21.1341 55.6445 19.5492L56.9868 19.5493Z" fill="white"/>
<path d="M65.1975 14.0906V15.6024H66.4123V16.6409H65.1975V20.1626C65.1975 20.7098 65.4407 20.9647 65.9748 20.9647C66.119 20.9622 66.263 20.9521 66.4061 20.9344V21.9666C66.166 22.0114 65.922 22.0318 65.6778 22.0272C64.3844 22.0272 63.88 21.5414 63.88 20.3025V16.6409H62.9512V15.6024H63.88V14.0906H65.1975Z" fill="white"/>
<path d="M67.1152 18.7969C67.1152 16.7869 68.299 15.5239 70.145 15.5239C71.9972 15.5239 73.1755 16.7869 73.1755 18.7969C73.1755 20.8124 72.0034 22.0699 70.145 22.0699C68.2873 22.0699 67.1152 20.8124 67.1152 18.7969ZM71.8394 18.7969C71.8394 17.4181 71.2076 16.6043 70.145 16.6043C69.0825 16.6043 68.4513 17.4243 68.4513 18.7969C68.4513 20.1812 69.0825 20.9888 70.145 20.9888C71.2076 20.9888 71.8394 20.1812 71.8394 18.7969H71.8394Z" fill="white"/>
<path d="M74.2559 15.6024H75.5065V16.6897H75.5368C75.6215 16.3501 75.8204 16.05 76.1002 15.8398C76.3801 15.6296 76.7237 15.5222 77.0734 15.5355C77.2246 15.535 77.3753 15.5514 77.5227 15.5845V16.811C77.3319 16.7527 77.1329 16.7259 76.9335 16.7317C76.743 16.724 76.5531 16.7576 76.3768 16.8302C76.2006 16.9028 76.0421 17.0127 75.9123 17.1523C75.7824 17.2919 75.6844 17.458 75.6248 17.6391C75.5652 17.8202 75.5456 18.0121 75.5671 18.2015V21.9907H74.2559L74.2559 15.6024Z" fill="white"/>
<path d="M83.5693 20.1144C83.3929 21.2741 82.2635 22.0699 80.8185 22.0699C78.9601 22.0699 77.8066 20.8248 77.8066 18.8272C77.8066 16.8234 78.9663 15.5239 80.7634 15.5239C82.5308 15.5239 83.6423 16.738 83.6423 18.6749V19.1242H79.1303V19.2034C79.1095 19.4386 79.1389 19.6754 79.2167 19.8983C79.2944 20.1211 79.4187 20.3249 79.5812 20.496C79.7438 20.6672 79.9409 20.8018 80.1594 20.8909C80.378 20.98 80.613 21.0216 80.8489 21.0129C81.1587 21.0419 81.4697 20.9702 81.7355 20.8083C82.0013 20.6464 82.2078 20.403 82.3241 20.1144L83.5693 20.1144ZM79.1365 18.2078H82.3303C82.3421 17.9964 82.3101 17.7848 82.2362 17.5864C82.1623 17.388 82.0483 17.207 81.9011 17.0547C81.754 16.9025 81.577 16.7823 81.3812 16.7017C81.1854 16.6211 80.9751 16.5818 80.7634 16.5864C80.5499 16.5851 80.3382 16.6261 80.1406 16.7071C79.943 16.7881 79.7634 16.9074 79.6121 17.0581C79.4609 17.2088 79.341 17.388 79.2594 17.5854C79.1777 17.7827 79.136 17.9942 79.1365 18.2078V18.2078Z" fill="white"/>
<path d="M33.0774 6.63326C33.3523 6.61353 33.6282 6.65506 33.8851 6.75485C34.142 6.85465 34.3736 7.01022 34.5631 7.21035C34.7526 7.41047 34.8953 7.65016 34.981 7.91213C35.0667 8.1741 35.0931 8.45181 35.0584 8.72524C35.0584 10.0703 34.3315 10.8434 33.0774 10.8434H31.5566V6.63326H33.0774ZM32.2106 10.248H33.0044C33.2008 10.2598 33.3974 10.2276 33.5798 10.1538C33.7622 10.0799 33.9259 9.96637 34.0589 9.82133C34.1919 9.67628 34.2909 9.5034 34.3486 9.31528C34.4064 9.12715 34.4215 8.92851 34.3928 8.73382C34.4194 8.5399 34.4028 8.34249 34.3442 8.15575C34.2855 7.969 34.1863 7.79754 34.0536 7.65365C33.9209 7.50975 33.758 7.39699 33.5766 7.32344C33.3952 7.24989 33.1998 7.21738 33.0044 7.22822H32.2106V10.248Z" fill="white"/>
<path d="M35.7962 9.25334C35.7762 9.04454 35.8001 8.83387 35.8663 8.63485C35.9325 8.43582 36.0396 8.25283 36.1806 8.09761C36.3217 7.94239 36.4937 7.81837 36.6855 7.7335C36.8773 7.64864 37.0848 7.6048 37.2945 7.6048C37.5043 7.6048 37.7117 7.64864 37.9035 7.7335C38.0953 7.81837 38.2673 7.94239 38.4084 8.09761C38.5495 8.25283 38.6565 8.43582 38.7228 8.63485C38.789 8.83387 38.8128 9.04454 38.7929 9.25334C38.8132 9.46235 38.7896 9.67332 38.7236 9.87266C38.6576 10.072 38.5505 10.2553 38.4094 10.4109C38.2683 10.5664 38.0962 10.6907 37.9042 10.7757C37.7122 10.8608 37.5045 10.9047 37.2945 10.9047C37.0845 10.9047 36.8768 10.8608 36.6848 10.7757C36.4928 10.6907 36.3207 10.5664 36.1796 10.4109C36.0385 10.2553 35.9315 10.072 35.8654 9.87266C35.7994 9.67332 35.7758 9.46235 35.7962 9.25334ZM38.1479 9.25334C38.1479 8.56463 37.8385 8.16187 37.2955 8.16187C36.7505 8.16187 36.4439 8.56463 36.4439 9.25335C36.4439 9.94758 36.7505 10.3472 37.2955 10.3472C37.8385 10.3472 38.1479 9.94481 38.1479 9.25334H38.1479Z" fill="white"/>
<path d="M42.7768 10.8433H42.1264L41.4697 8.50328H41.4201L40.7662 10.8433H40.1219L39.2461 7.66608H39.8821L40.4513 10.0905H40.4981L41.1514 7.66608H41.7529L42.4061 10.0905H42.4557L43.0221 7.66608H43.6492L42.7768 10.8433Z" fill="white"/>
<path d="M44.3867 7.66602H44.9903V8.17076H45.0372C45.1167 7.98947 45.2508 7.83751 45.4207 7.73604C45.5907 7.63457 45.7881 7.58865 45.9853 7.60469C46.1399 7.59307 46.2952 7.61638 46.4395 7.67289C46.5839 7.72941 46.7137 7.81768 46.8193 7.93117C46.9249 8.04466 47.0037 8.18046 47.0497 8.32851C47.0957 8.47656 47.1078 8.63306 47.0851 8.78643V10.8432H46.458V8.94389C46.458 8.4333 46.2362 8.17937 45.7724 8.17937C45.6675 8.17448 45.5627 8.19235 45.4653 8.23174C45.3679 8.27114 45.2801 8.33113 45.2081 8.4076C45.136 8.48408 45.0813 8.57523 45.0478 8.67481C45.0143 8.77439 45.0026 8.88005 45.0138 8.98454V10.8433H44.3867L44.3867 7.66602Z" fill="white"/>
<path d="M48.084 6.42578H48.711V10.8433H48.084V6.42578Z" fill="white"/>
<path d="M49.5832 9.2534C49.5633 9.04459 49.5872 8.83391 49.6534 8.63487C49.7196 8.43584 49.8267 8.25284 49.9678 8.09762C50.1089 7.94239 50.2809 7.81837 50.4727 7.7335C50.6646 7.64864 50.872 7.6048 51.0818 7.6048C51.2915 7.6048 51.499 7.64864 51.6908 7.7335C51.8827 7.81837 52.0546 7.94239 52.1957 8.09762C52.3368 8.25284 52.4439 8.43584 52.5101 8.63487C52.5764 8.83391 52.6003 9.04459 52.5803 9.2534C52.6006 9.46242 52.577 9.67339 52.511 9.87274C52.4449 10.0721 52.3379 10.2554 52.1967 10.4109C52.0556 10.5664 51.8835 10.6907 51.6915 10.7758C51.4995 10.8608 51.2918 10.9047 51.0818 10.9047C50.8718 10.9047 50.6641 10.8608 50.4721 10.7758C50.28 10.6907 50.1079 10.5664 49.9668 10.4109C49.8257 10.2554 49.7187 10.0721 49.6526 9.87274C49.5865 9.67339 49.5629 9.46242 49.5832 9.2534ZM51.935 9.2534C51.935 8.56469 51.6256 8.16193 51.0826 8.16193C50.5376 8.16193 50.231 8.56469 50.231 9.25341C50.231 9.94764 50.5376 10.3473 51.0826 10.3473C51.6256 10.3473 51.935 9.94487 51.935 9.2534H51.935Z" fill="white"/>
<path d="M53.2402 9.94484C53.2402 9.37292 53.6661 9.04321 54.422 8.99635L55.2826 8.94674V8.6725C55.2826 8.33692 55.0607 8.14743 54.6321 8.14743C54.2821 8.14743 54.0396 8.27594 53.9699 8.50058H53.3629C53.427 7.95484 53.9403 7.6048 54.6611 7.6048C55.4576 7.6048 55.9069 8.00134 55.9069 8.6725V10.8434H55.3033V10.3969H55.2537C55.153 10.557 55.0116 10.6876 54.8439 10.7752C54.6762 10.8629 54.4883 10.9045 54.2993 10.8957C54.1659 10.9096 54.0311 10.8954 53.9036 10.854C53.776 10.8125 53.6586 10.7449 53.5588 10.6553C53.459 10.5657 53.3791 10.4562 53.3243 10.3338C53.2694 10.2114 53.2408 10.0789 53.2402 9.94484ZM55.2826 9.67335V9.40772L54.5067 9.45733C54.0692 9.48661 53.8707 9.63545 53.8707 9.91555C53.8707 10.2015 54.1188 10.3679 54.4599 10.3679C54.5598 10.378 54.6608 10.3679 54.7568 10.3382C54.8527 10.3085 54.9417 10.2598 55.0185 10.195C55.0953 10.1302 55.1582 10.0507 55.2036 9.96104C55.2489 9.87141 55.2758 9.77358 55.2826 9.67335Z" fill="white"/>
<path d="M56.7305 9.25335C56.7305 8.24939 57.2466 7.61339 58.0493 7.61339C58.2479 7.60424 58.445 7.6518 58.6175 7.75051C58.79 7.84922 58.9309 7.995 59.0237 8.17081H59.0705V6.42578H59.6976V10.8433H59.0967V10.3414H59.0471C58.9472 10.516 58.8014 10.66 58.6255 10.7577C58.4497 10.8554 58.2504 10.9031 58.0493 10.8957C57.2411 10.8957 56.7305 10.2597 56.7305 9.25335ZM57.3782 9.25335C57.3782 9.92726 57.6959 10.3328 58.2271 10.3328C58.7556 10.3328 59.0823 9.92141 59.0823 9.25611C59.0823 8.59392 58.7522 8.17669 58.2271 8.17669C57.6993 8.17669 57.3782 8.58496 57.3782 9.25335H57.3782Z" fill="white"/>
<path d="M62.2922 9.25334C62.2723 9.04454 62.2962 8.83387 62.3624 8.63485C62.4286 8.43582 62.5357 8.25283 62.6767 8.09761C62.8178 7.94239 62.9898 7.81837 63.1816 7.7335C63.3734 7.64864 63.5809 7.6048 63.7906 7.6048C64.0004 7.6048 64.2078 7.64864 64.3996 7.7335C64.5914 7.81837 64.7634 7.94239 64.9045 8.09761C65.0455 8.25283 65.1526 8.43582 65.2188 8.63485C65.2851 8.83387 65.3089 9.04454 65.289 9.25334C65.3093 9.46235 65.2857 9.67332 65.2197 9.87266C65.1536 10.072 65.0466 10.2553 64.9055 10.4109C64.7644 10.5664 64.5923 10.6907 64.4003 10.7757C64.2083 10.8608 64.0006 10.9047 63.7906 10.9047C63.5806 10.9047 63.3729 10.8608 63.1809 10.7757C62.9889 10.6907 62.8168 10.5664 62.6757 10.4109C62.5346 10.2553 62.4276 10.072 62.3615 9.87266C62.2955 9.67332 62.2719 9.46235 62.2922 9.25334ZM64.644 9.25334C64.644 8.56463 64.3346 8.16187 63.7916 8.16187C63.2466 8.16187 62.94 8.56463 62.94 9.25335C62.94 9.94758 63.2466 10.3472 63.7916 10.3472C64.3346 10.3472 64.644 9.94481 64.644 9.25334Z" fill="white"/>
<path d="M66.1309 7.66602H66.7345V8.17076H66.7813C66.8608 7.98947 66.9949 7.83751 67.1648 7.73604C67.3348 7.63457 67.5322 7.58865 67.7295 7.60469C67.8841 7.59307 68.0393 7.61638 68.1837 7.67289C68.328 7.72941 68.4578 7.81768 68.5635 7.93117C68.6691 8.04466 68.7478 8.18046 68.7938 8.32851C68.8398 8.47656 68.8519 8.63306 68.8292 8.78643V10.8432H68.2022V8.94389C68.2022 8.4333 67.9803 8.17937 67.5166 8.17937C67.4116 8.17448 67.3068 8.19235 67.2094 8.23174C67.112 8.27114 67.0243 8.33113 66.9522 8.4076C66.8801 8.48408 66.8255 8.57523 66.7919 8.67481C66.7584 8.77439 66.7468 8.88005 66.7579 8.98454V10.8433H66.1309V7.66602Z" fill="white"/>
<path d="M72.3724 6.875V7.68051H73.0607V8.20868H72.3724V9.84244C72.3724 10.1753 72.5095 10.321 72.8216 10.321C72.9015 10.3207 72.9814 10.3159 73.0607 10.3065V10.8288C72.9481 10.849 72.834 10.8597 72.7197 10.8609C72.0223 10.8609 71.7446 10.6156 71.7446 10.003V8.20865H71.2402V7.68048H71.7446V6.875H72.3724Z" fill="white"/>
<path d="M73.916 6.42578H74.5375V8.17669H74.5872C74.6705 7.99371 74.8083 7.84089 74.9816 7.73903C75.155 7.63718 75.3555 7.59126 75.5559 7.60752C75.7097 7.59916 75.8635 7.62483 76.0062 7.68272C76.1489 7.74061 76.2771 7.82928 76.3816 7.94242C76.4862 8.05555 76.5644 8.19036 76.6108 8.33722C76.6573 8.48408 76.6707 8.63937 76.6502 8.79202V10.8434H76.0225V8.94671C76.0225 8.43921 75.7861 8.18219 75.3431 8.18219C75.2353 8.17335 75.1269 8.18817 75.0255 8.2256C74.924 8.26304 74.832 8.32219 74.7558 8.39891C74.6796 8.47564 74.6211 8.56808 74.5843 8.66979C74.5476 8.77149 74.5335 8.87999 74.5431 8.9877V10.8433H73.916L73.916 6.42578Z" fill="white"/>
<path d="M80.3072 9.98555C80.222 10.2759 80.0374 10.5271 79.7858 10.6952C79.5341 10.8632 79.2313 10.9374 78.9305 10.9048C78.7211 10.9103 78.5131 10.8702 78.3208 10.7873C78.1286 10.7043 77.9566 10.5806 77.817 10.4245C77.6773 10.2685 77.5733 10.0839 77.5122 9.88367C77.451 9.68341 77.4341 9.47223 77.4628 9.2648C77.4349 9.05673 77.452 8.8451 77.5131 8.64423C77.5741 8.44337 77.6776 8.25796 77.8165 8.10056C77.9554 7.94316 78.1265 7.81744 78.3182 7.73192C78.5099 7.64639 78.7178 7.60306 78.9277 7.60485C79.8118 7.60485 80.3451 8.20884 80.3451 9.20656V9.42536H78.1015V9.4605C78.0917 9.57709 78.1064 9.69446 78.1446 9.80506C78.1827 9.91566 78.2436 10.0171 78.3233 10.1028C78.403 10.1885 78.4997 10.2566 78.6072 10.3027C78.7147 10.3489 78.8307 10.372 78.9477 10.3707C79.0977 10.3887 79.2496 10.3617 79.3842 10.2931C79.5188 10.2245 79.63 10.1175 79.7036 9.98553L80.3072 9.98555ZM78.1015 8.96161H79.7063C79.7142 8.85497 79.6997 8.74786 79.6638 8.64716C79.6278 8.54646 79.5712 8.4544 79.4976 8.37688C79.4239 8.29936 79.3348 8.23812 79.2361 8.19707C79.1374 8.15602 79.0311 8.13608 78.9242 8.13853C78.8158 8.13717 78.7082 8.15753 78.6077 8.19841C78.5073 8.2393 78.416 8.29988 78.3393 8.37659C78.2627 8.4533 78.2021 8.54458 78.1613 8.64505C78.1204 8.74553 78.1001 8.85316 78.1015 8.96161H78.1015Z" fill="white"/>
</g>
<defs>
<clipPath id="clip0_4479_8300">
<rect width="95.2558" height="28.2239" fill="white" transform="translate(0.722656 0.472595)"/>
</clipPath>
</defs>
</svg>
