<svg width="24" height="24" viewBox="0 0 24 24" fill="none" xmlns="http://www.w3.org/2000/svg">
<path d="M16.6663 8.8C16.6663 7.52696 16.1746 6.30606 15.2995 5.40589C14.4243 4.50571 13.2373 4 11.9996 4C10.762 4 9.57497 4.50571 8.6998 5.40589C7.82463 6.30606 7.33297 7.52696 7.33297 8.8C7.33297 14.4 4.99963 16 4.99963 16H18.9996C18.9996 16 16.6663 14.4 16.6663 8.8Z" stroke="#A0A4AF" stroke-width="2" stroke-linecap="round" stroke-linejoin="round"/>
<path d="M15.0001 18C14.6952 18.6083 14.2577 19.1132 13.7312 19.4642C13.2046 19.8152 12.6077 20 12.0001 20C11.3925 20 10.7956 19.8152 10.2691 19.4642C9.74259 19.1132 9.305 18.6083 9.00012 18" stroke="#A0A4AF" stroke-width="2" stroke-linecap="round" stroke-linejoin="round"/>
</svg>
