<svg width="30" height="30" viewBox="0 0 30 30" fill="none" xmlns="http://www.w3.org/2000/svg">
<path fill-rule="evenodd" clip-rule="evenodd" d="M15 25C15 25 15 7.5 15 7.5C15 7.5 12.5 5 9.99998 5C7.49998 5 3.74998 7.5 3.74998 7.5C3.74998 7.5 3.74998 25 3.74998 25C3.74998 25 7.49997 22.5 9.99998 22.5C12.5 22.5 15 25 15 25Z" stroke="#A0A4AF" stroke-width="2" stroke-linecap="round" stroke-linejoin="round"/>
<path fill-rule="evenodd" clip-rule="evenodd" d="M15 25C15 25 15 7.5 15 7.5C15 7.5 17.5 5 20 5C22.5 5 26.25 7.5 26.25 7.5C26.25 7.5 26.25 25 26.25 25C26.25 25 22.5 22.5 20 22.5C17.5 22.5 15 25 15 25Z" stroke="#A0A4AF" stroke-width="2" stroke-linecap="round" stroke-linejoin="round"/>
</svg>
