<svg width="69" height="96" viewBox="0 0 69 96" fill="none" xmlns="http://www.w3.org/2000/svg">
<path d="M139 69.5C139 84.8823 133.897 99.83 124.49 112.001C115.084 124.172 101.905 132.878 87.0193 136.756C72.1338 140.633 56.3824 139.463 42.2333 133.428C28.0843 127.393 16.3371 116.835 8.83244 103.407C1.32782 89.9797 -1.51016 74.442 0.763199 59.2286C3.03656 44.0152 10.2928 29.9858 21.3949 19.3388C32.497 8.69176 46.8176 2.02872 62.1128 0.393707C77.408 -1.24129 92.8134 2.24414 105.915 10.3038L90.4011 35.5233C82.8811 30.8973 74.0389 28.8968 65.26 29.8352C56.481 30.7737 48.2615 34.598 41.8892 40.7091C35.517 46.8201 31.3521 54.8725 30.0473 63.6045C28.7425 72.3365 30.3714 81.2547 34.6788 88.9616C38.9862 96.6686 45.7287 102.729 53.8498 106.193C61.9709 109.656 71.0117 110.328 79.5555 108.103C88.0994 105.877 95.6635 100.88 101.063 93.8942C106.462 86.9085 109.391 78.329 109.391 69.5H139Z" fill="url(#paint0_linear_7461_15959)"/>
<defs>
<linearGradient id="paint0_linear_7461_15959" x1="139" y1="119.828" x2="-2.90863e-06" y2="35.9483" gradientUnits="userSpaceOnUse">
<stop stop-color="#FFD9C4"/>
<stop offset="1" stop-color="#FFD9C3" stop-opacity="0"/>
</linearGradient>
</defs>
</svg>
