<svg width="26" height="22" viewBox="0 0 26 22" fill="none" xmlns="http://www.w3.org/2000/svg">
<path d="M3.6514 7.30435C3.6514 7.87826 4.14938 8.34783 4.75803 8.34783C5.36667 8.34783 5.86465 7.87826 5.86465 7.30435V5.21739H8.07791C8.68655 5.21739 9.18454 4.74783 9.18454 4.17391C9.18454 3.6 8.68655 3.13043 8.07791 3.13043H5.86465V1.04348C5.86465 0.469565 5.36667 0 4.75803 0C4.14938 0 3.6514 0.469565 3.6514 1.04348V3.13043H1.43814C0.829495 3.13043 0.331512 3.6 0.331512 4.17391C0.331512 4.74783 0.829495 5.21739 1.43814 5.21739H3.6514V7.30435Z" fill="#A0A4AF"/>
<path d="M14.7177 16.6945C16.5512 16.6945 18.0376 15.2929 18.0376 13.564C18.0376 11.8351 16.5512 10.4336 14.7177 10.4336C12.8842 10.4336 11.3978 11.8351 11.3978 13.564C11.3978 15.2929 12.8842 16.6945 14.7177 16.6945Z" fill="#A0A4AF"/>
<path d="M23.5706 5.21586H20.0626L18.6904 3.80717C18.4842 3.59366 18.233 3.42307 17.9529 3.30628C17.6728 3.1895 17.3699 3.12908 17.0637 3.12891H9.98125C10.1694 3.44195 10.2911 3.7863 10.2911 4.17238C10.2911 5.32021 9.29514 6.25934 8.07785 6.25934H6.97122V7.30282C6.97122 8.45065 5.97526 9.38978 4.75796 9.38978C4.34851 9.38978 3.98333 9.27499 3.65134 9.0976V19.8246C3.65134 20.9724 4.6473 21.9115 5.86459 21.9115H23.5706C24.7879 21.9115 25.7839 20.9724 25.7839 19.8246V7.30282C25.7839 6.15499 24.7879 5.21586 23.5706 5.21586ZM14.7176 18.7811C11.6633 18.7811 9.18448 16.4437 9.18448 13.5637C9.18448 10.6837 11.6633 8.3463 14.7176 8.3463C17.7719 8.3463 20.2508 10.6837 20.2508 13.5637C20.2508 16.4437 17.7719 18.7811 14.7176 18.7811Z" fill="#A0A4AF"/>
</svg>
