<svg width="29" height="29" viewBox="0 0 29 29" fill="none" xmlns="http://www.w3.org/2000/svg">
<path d="M19.3333 7.25L22.9583 12.0833H25.375C26.7162 12.0833 27.7916 13.1588 27.7916 14.5V18.125H25.375C25.375 19.0864 24.9931 20.0084 24.3132 20.6883C23.6334 21.3681 22.7114 21.75 21.75 21.75C20.7886 21.75 19.8665 21.3681 19.1867 20.6883C18.5069 20.0084 18.125 19.0864 18.125 18.125H10.875C10.875 19.0864 10.4931 20.0084 9.81324 20.6883C9.13342 21.3681 8.21139 21.75 7.24998 21.75C6.28857 21.75 5.36654 21.3681 4.68672 20.6883C4.0069 20.0084 3.62498 19.0864 3.62498 18.125H1.20831V14.5C1.20831 13.1588 2.28373 12.0833 3.62498 12.0833L7.24998 7.25H19.3333ZM12.6875 9.0625H8.15623L5.87248 12.0833H12.6875V9.0625ZM14.5 9.0625V12.0833H20.7108L18.4271 9.0625H14.5ZM7.24998 16.3125C6.76927 16.3125 6.30826 16.5035 5.96835 16.8434C5.62844 17.1833 5.43748 17.6443 5.43748 18.125C5.43748 18.6057 5.62844 19.0667 5.96835 19.4066C6.30826 19.7465 6.76927 19.9375 7.24998 19.9375C7.73068 19.9375 8.1917 19.7465 8.53161 19.4066C8.87152 19.0667 9.06248 18.6057 9.06248 18.125C9.06248 17.6443 8.87152 17.1833 8.53161 16.8434C8.1917 16.5035 7.73068 16.3125 7.24998 16.3125ZM21.75 16.3125C21.2693 16.3125 20.8083 16.5035 20.4683 16.8434C20.1284 17.1833 19.9375 17.6443 19.9375 18.125C19.9375 18.6057 20.1284 19.0667 20.4683 19.4066C20.8083 19.7465 21.2693 19.9375 21.75 19.9375C22.2307 19.9375 22.6917 19.7465 23.0316 19.4066C23.3715 19.0667 23.5625 18.6057 23.5625 18.125C23.5625 17.6443 23.3715 17.1833 23.0316 16.8434C22.6917 16.5035 22.2307 16.3125 21.75 16.3125Z" fill="#A0A4AF"/>
</svg>
