<svg width="25" height="26" viewBox="0 0 25 26" fill="none" xmlns="http://www.w3.org/2000/svg">
<path d="M6.32757 6.92766C2.98181 10.3923 3.07813 15.9102 6.54276 19.256C10.0074 22.6017 15.5253 22.5054 18.8711 19.0408C22.2168 15.5761 22.1205 10.0582 18.6559 6.71247C15.1912 3.36671 9.67333 3.46303 6.32757 6.92766ZM9.28542 11.1525C8.8136 11.1856 8.40898 10.7948 8.40117 10.3474L8.39162 9.80061C8.35852 9.32879 8.74927 8.92416 9.22196 8.94077L15.8335 8.82537C16.2809 8.81756 16.6602 9.18388 16.668 9.63128L16.7835 16.2428C16.7913 16.6902 16.4249 17.0696 15.9531 17.1027L15.4063 17.1122C14.9589 17.12 14.5543 16.7293 14.5709 16.2566L14.5564 12.5771L10.0872 17.2051C9.76976 17.5338 9.24823 17.5678 8.89418 17.2259L8.48955 16.8351C8.16079 16.5176 8.15124 15.9708 8.46872 15.6421L12.9379 11.0141L9.28542 11.1525Z" fill="#D46400"/>
</svg>

