<svg width="16" height="16" viewBox="0 0 16 16" fill="none" xmlns="http://www.w3.org/2000/svg">
<path d="M12.2446 3.48896C14.5833 5.82772 14.5833 9.63549 12.2446 11.9742C9.90584 14.313 6.09807 14.313 3.75931 11.9742C1.42056 9.63549 1.42056 5.82772 3.75931 3.48896C6.09807 1.15021 9.90584 1.15021 12.2446 3.48896ZM13.3053 2.4283C10.3778 -0.499121 5.62607 -0.499121 2.69865 2.4283C-0.228769 5.35572 -0.22877 10.1075 2.69865 13.0349C5.62607 15.9623 10.3778 15.9623 13.3053 13.0349C16.2327 10.1075 16.2327 5.35572 13.3053 2.4283ZM8.53228 8.26193L10.6536 6.14061L9.59294 5.07995L7.47162 7.20127L5.88063 5.61028V9.85292H10.1233L8.53228 8.26193Z" fill="#00A676"/>
</svg>