<svg width="25" height="25" viewBox="0 0 25 25" fill="none" xmlns="http://www.w3.org/2000/svg">
<path d="M19.7252 16.9118C22.2058 12.7833 20.8707 7.42851 16.7423 4.94788C12.6138 2.46725 7.25898 3.80235 4.77834 7.93082C2.29771 12.0593 3.63282 17.4141 7.76128 19.8947C11.8898 22.3754 17.2446 21.0403 19.7252 16.9118ZM15.8928 13.4606C16.3451 13.3223 16.8272 13.612 16.9355 14.0461L17.0678 14.5768C17.2062 15.0291 16.9165 15.5112 16.4521 15.6014L10.036 17.2011C9.60184 17.3094 9.14982 17.0378 9.04157 16.6036L7.44184 10.1874C7.33359 9.75327 7.6052 9.30125 8.05748 9.16286L8.58813 9.03055C9.02231 8.9223 9.50446 9.21201 9.59461 9.67632L10.4364 13.2582L13.75 7.74356C13.9854 7.35181 14.4859 7.20139 14.9078 7.45489L15.3899 7.7446C15.7817 7.97998 15.914 8.51064 15.6786 8.90239L12.3651 14.4171L15.8928 13.4606Z" fill="#00A676"/>
</svg>


