<svg width="16" height="16" viewBox="0 0 16 16" fill="none" xmlns="http://www.w3.org/2000/svg">
<path d="M3.75834 12.2376C1.41958 9.89885 1.41958 6.09108 3.75834 3.75232C6.09709 1.41356 9.90486 1.41356 12.2436 3.75232C14.5824 6.09108 14.5824 9.89885 12.2436 12.2376C9.90486 14.5764 6.09709 14.5764 3.75834 12.2376ZM2.69768 13.2983C5.6251 16.2257 10.3769 16.2257 13.3043 13.2983C16.2317 10.3708 16.2317 5.61908 13.3043 2.69166C10.3769 -0.235761 5.6251 -0.235761 2.69768 2.69166C-0.229746 5.61908 -0.229746 10.3708 2.69768 13.2983ZM7.47065 7.46463L5.34933 9.58595L6.40999 10.6466L8.53131 8.52529L10.1223 10.1163V5.87364H5.87966L7.47065 7.46463Z" fill="#FF0000"/>
</svg>
