<svg width="16" height="16" viewBox="0 0 16 16" fill="none" xmlns="http://www.w3.org/2000/svg">
<path d="M2.79922 3.5999C2.71682 3.5999 2.63682 3.6063 2.55762 3.6183C2.71107 3.25685 2.96754 2.94858 3.29503 2.73191C3.62252 2.51524 4.00654 2.39978 4.39922 2.3999H11.5992C12.1297 2.3999 12.6384 2.61062 13.0134 2.98569C13.3885 3.36076 13.5992 3.86947 13.5992 4.3999V7.6799C13.3435 7.54908 13.0756 7.44377 12.7992 7.3655V4.3999C12.7992 4.08164 12.6728 3.77642 12.4477 3.55137C12.2227 3.32633 11.9175 3.1999 11.5992 3.1999H4.39922C3.98882 3.1999 3.62642 3.4063 3.40962 3.7199C3.216 3.64023 3.00859 3.59946 2.79922 3.5999Z" fill="#283049"/>
<path d="M7.3655 12.7999C7.4447 13.0791 7.5495 13.3463 7.6799 13.5999H4.3999C3.86947 13.5999 3.36076 13.3892 2.98569 13.0141C2.61062 12.6391 2.3999 12.1303 2.3999 11.5999V6.74951C2.66228 6.81711 2.93752 6.81711 3.1999 6.74951V11.5999C3.1999 11.9182 3.32633 12.2234 3.55137 12.4484C3.77642 12.6735 4.08164 12.7999 4.3999 12.7999H7.3655Z" fill="#283049"/>
<path d="M7.6801 9.5998C7.8265 9.3134 8.0033 9.0454 8.2057 8.7998H6.0001C5.89401 8.7998 5.79227 8.84195 5.71726 8.91696C5.64224 8.99198 5.6001 9.09372 5.6001 9.1998C5.6001 9.30589 5.64224 9.40763 5.71726 9.48265C5.79227 9.55766 5.89401 9.5998 6.0001 9.5998H7.6801Z" fill="#283049"/>
<path d="M2.8 4.3999C2.58783 4.3999 2.38434 4.48419 2.23431 4.63422C2.08429 4.78425 2 4.98773 2 5.1999C2 5.41208 2.08429 5.61556 2.23431 5.76559C2.38434 5.91562 2.58783 5.9999 2.8 5.9999C3.01217 5.9999 3.21566 5.91562 3.36569 5.76559C3.51571 5.61556 3.6 5.41208 3.6 5.1999C3.6 4.98773 3.51571 4.78425 3.36569 4.63422C3.21566 4.48419 3.01217 4.3999 2.8 4.3999Z" fill="#283049"/>
<path d="M6.0001 6.3999C5.89401 6.3999 5.79227 6.44204 5.71726 6.51706C5.64224 6.59207 5.6001 6.69382 5.6001 6.7999C5.6001 6.90599 5.64224 7.00773 5.71726 7.08275C5.79227 7.15776 5.89401 7.1999 6.0001 7.1999H10.0001C10.1062 7.1999 10.2079 7.15776 10.2829 7.08275C10.358 7.00773 10.4001 6.90599 10.4001 6.7999C10.4001 6.69382 10.358 6.59207 10.2829 6.51706C10.2079 6.44204 10.1062 6.3999 10.0001 6.3999H6.0001Z" fill="#283049"/>
<circle cx="11.6" cy="11.6" r="3.25" stroke="#283049" stroke-width="0.7"/>
<line x1="10.4392" y1="11.5598" x2="12.9592" y2="11.5598" stroke="#283049" stroke-width="0.480002" stroke-linecap="round"/>
<line x1="11.7025" y1="10.2394" x2="11.7091" y2="12.7594" stroke="#283049" stroke-width="0.480002" stroke-linecap="round"/>
</svg>
