<svg width="28" height="28" viewBox="0 0 28 28" fill="none" xmlns="http://www.w3.org/2000/svg">
<path d="M24.5 19.8337V20.8337C25.0523 20.8337 25.5 20.3859 25.5 19.8337H24.5ZM24.5 4.66699H25.5C25.5 4.11471 25.0523 3.66699 24.5 3.66699V4.66699ZM15.1667 19.8337V18.8337C14.9692 18.8337 14.7762 18.8921 14.612 19.0016L15.1667 19.8337ZM8.16667 24.5003H7.16667C7.16667 24.8691 7.36965 25.208 7.69481 25.382C8.01997 25.556 8.41451 25.5369 8.72137 25.3324L8.16667 24.5003ZM8.16667 19.8337H9.16667C9.16667 19.2814 8.71895 18.8337 8.16667 18.8337V19.8337ZM3.5 19.8337H2.5C2.5 20.3859 2.94772 20.8337 3.5 20.8337V19.8337ZM3.5 4.66699V3.66699C2.94772 3.66699 2.5 4.11471 2.5 4.66699H3.5ZM25.5 19.8337V4.66699H23.5V19.8337H25.5ZM15.1667 20.8337L24.5 20.8337V18.8337L15.1667 18.8337V20.8337ZM8.72137 25.3324L15.7214 20.6657L14.612 19.0016L7.61197 23.6683L8.72137 25.3324ZM7.16667 19.8337V24.5003H9.16667V19.8337H7.16667ZM3.5 20.8337H8.16667V18.8337H3.5V20.8337ZM2.5 4.66699V19.8337H4.5V4.66699H2.5ZM24.5 3.66699H3.5V5.66699H24.5V3.66699Z" fill="#A0A4AF"/>
</svg>
