<svg width="30" height="30" viewBox="0 0 30 30" fill="none" xmlns="http://www.w3.org/2000/svg">
<path d="M11.0299 23.2351L11.2238 22.5106C11.0468 22.4632 10.8584 22.4823 10.6944 22.5643L11.0299 23.2351ZM5 26.25L4.25754 26.1439C4.21809 26.4201 4.33516 26.6953 4.56147 26.8584C4.78777 27.0215 5.0859 27.0456 5.33541 26.9208L5 26.25ZM5.81654 20.5342L6.559 20.6403C6.59507 20.3878 6.50033 20.1342 6.30749 19.9673L5.81654 20.5342ZM15 24.5C22.1529 24.5 28.25 19.8346 28.25 13.75H26.75C26.75 18.7111 21.6542 23 15 23V24.5ZM10.8359 23.9596C12.1468 24.3106 13.5471 24.5 15 24.5V23C13.6773 23 12.4075 22.8275 11.2238 22.5106L10.8359 23.9596ZM5.33541 26.9208L11.3653 23.9059L10.6944 22.5643L4.66459 25.5792L5.33541 26.9208ZM5.07407 20.4282L4.25754 26.1439L5.74246 26.3561L6.559 20.6403L5.07407 20.4282ZM1.75 13.75C1.75 16.6222 3.13193 19.2017 5.32558 21.1012L6.30749 19.9673C4.3838 18.3015 3.25 16.1145 3.25 13.75H1.75ZM15 3C7.84705 3 1.75 7.66541 1.75 13.75H3.25C3.25 8.78889 8.34583 4.5 15 4.5V3ZM28.25 13.75C28.25 7.66541 22.1529 3 15 3V4.5C21.6542 4.5 26.75 8.78889 26.75 13.75H28.25Z" fill="#A0A4AF"/>
</svg>
