<svg width="14" height="14" viewBox="0 0 14 14" fill="none" xmlns="http://www.w3.org/2000/svg">
<path d="M0.0449219 7.125C0.0449219 3.54492 2.93945 0.625 6.54492 0.625C10.125 0.625 13.0449 3.54492 13.0449 7.125C13.0449 10.7305 10.125 13.625 6.54492 13.625C2.93945 13.625 0.0449219 10.7305 0.0449219 7.125ZM9.46484 6.00781C9.74414 5.72852 9.74414 5.29688 9.46484 5.01758C9.18555 4.73828 8.75391 4.73828 8.47461 5.01758L5.73242 7.75977L4.58984 6.64258C4.31055 6.36328 3.87891 6.36328 3.59961 6.64258C3.32031 6.92188 3.32031 7.35352 3.59961 7.63281L5.22461 9.25781C5.50391 9.53711 5.93555 9.53711 6.21484 9.25781L9.46484 6.00781Z" fill="#008000"/>
</svg>
