<svg width="32" height="32" viewBox="0 0 32 32" fill="none" xmlns="http://www.w3.org/2000/svg">
<ellipse cx="16" cy="16" rx="16" ry="16" transform="rotate(-180 16 16)" fill="#FA8080"/>
<g clip-path="url(#clip0_429_5310)">
<path d="M23.556 8.44442C21.5115 6.39998 18.8449 5.33331 16.0004 5.33331C13.156 5.33331 10.4893 6.39998 8.44486 8.44442C4.26708 12.6222 4.26708 19.3778 8.44486 23.5555C10.4893 25.6 13.156 26.6666 16.0004 26.6666C18.8449 26.6666 21.5115 25.6 23.556 23.5555C27.7337 19.3778 27.7337 12.6222 23.556 8.44442ZM9.6893 9.68887C11.3782 7.99998 13.6004 7.11109 16.0004 7.11109C18.0449 7.11109 20.0004 7.8222 21.6004 9.15554L9.15597 21.6C6.22263 18.1333 6.4893 12.9778 9.6893 9.68887Z" fill="white"/>
</g>
<defs>
<clipPath id="clip0_429_5310">
<rect width="21.3333" height="21.3333" fill="white" transform="translate(5.3335 5.33331)"/>
</clipPath>
</defs>
</svg>
