<svg width="20" height="20" viewBox="0 0 20 20" fill="none" xmlns="http://www.w3.org/2000/svg">
<path d="M5.96947 9.43639C5.65833 9.17711 5.19592 9.21915 4.93664 9.53029C4.67736 9.84142 4.71939 10.3038 5.03053 10.5631L5.96947 9.43639ZM9.35714 13.214L8.88767 13.7774C9.03904 13.9035 9.2348 13.9635 9.43083 13.9437C9.62687 13.9239 9.80669 13.826 9.92978 13.6722L9.35714 13.214ZM15.0726 7.24358C15.3256 6.92732 15.2744 6.46584 14.9581 6.21283C14.6419 5.95983 14.1804 6.0111 13.9274 6.32736L15.0726 7.24358ZM10 18.9998V18.2664V18.9998ZM1 9.99976H0.266667H1ZM10 0.999756V0.266423V0.999756ZM19 9.99976H18.2667H19ZM7.42857 11.6069L6.9591 12.1703L7.42857 11.6069ZM9.92978 13.6722L15.0726 7.24358L13.9274 6.32736L8.78451 12.7559L9.92978 13.6722ZM10 18.2664C8.91441 18.2664 7.83944 18.0526 6.83648 17.6372L6.27521 18.9922C7.45612 19.4813 8.7218 19.7331 10 19.7331V18.2664ZM6.83648 17.6372C5.83353 17.2217 4.92221 16.6128 4.15458 15.8452L3.11749 16.8823C4.02132 17.7861 5.09431 18.503 6.27521 18.9922L6.83648 17.6372ZM4.15458 15.8452C3.38695 15.0775 2.77803 14.1662 2.3626 13.1633L1.00757 13.7245C1.49672 14.9054 2.21367 15.9784 3.11749 16.8823L4.15458 15.8452ZM2.3626 13.1633C1.94716 12.1603 1.73333 11.0854 1.73333 9.99976H0.266667C0.266667 11.278 0.518427 12.5436 1.00757 13.7245L2.3626 13.1633ZM1.73333 9.99976C1.73333 8.91416 1.94716 7.8392 2.3626 6.83624L1.00757 6.27497C0.518427 7.45587 0.266667 8.72156 0.266667 9.99976H1.73333ZM2.3626 6.83624C2.77803 5.83328 3.38695 4.92197 4.15458 4.15434L3.11749 3.11725C2.21367 4.02107 1.49672 5.09407 1.00757 6.27497L2.3626 6.83624ZM4.15458 4.15434C4.92221 3.38671 5.83353 2.77779 6.83648 2.36235L6.27521 1.00733C5.09431 1.49647 4.02132 2.21343 3.11749 3.11725L4.15458 4.15434ZM6.83648 2.36235C7.83944 1.94691 8.91441 1.73309 10 1.73309V0.266423C8.7218 0.266423 7.45612 0.518183 6.27521 1.00733L6.83648 2.36235ZM10 1.73309C12.1925 1.73309 14.2951 2.60404 15.8454 4.15434L16.8825 3.11725C15.0572 1.2919 12.5814 0.266423 10 0.266423V1.73309ZM15.8454 4.15434C17.3957 5.70464 18.2667 7.8073 18.2667 9.99976H19.7333C19.7333 7.41831 18.7079 4.9426 16.8825 3.11725L15.8454 4.15434ZM18.2667 9.99976C18.2667 12.1922 17.3957 14.2949 15.8454 15.8452L16.8825 16.8823C18.7079 15.0569 19.7333 12.5812 19.7333 9.99976H18.2667ZM15.8454 15.8452C14.2951 17.3955 12.1925 18.2664 10 18.2664V19.7331C12.5814 19.7331 15.0572 18.7076 16.8825 16.8823L15.8454 15.8452ZM5.03053 10.5631L6.9591 12.1703L7.89804 11.0435L5.96947 9.43639L5.03053 10.5631ZM6.9591 12.1703L8.88767 13.7774L9.82661 12.6507L7.89804 11.0435L6.9591 12.1703Z" fill="#0FA958"/>
</svg>
