<svg width="16" height="16" viewBox="0 0 16 16" fill="none" xmlns="http://www.w3.org/2000/svg">
<path d="M2 4H3.33333H14" stroke="#FF0000" stroke-opacity="0.5" stroke-width="1.5" stroke-linecap="round" stroke-linejoin="round"/>
<path d="M12.6668 4.0026V13.3359C12.6668 13.6896 12.5264 14.0287 12.2763 14.2787C12.0263 14.5288 11.6871 14.6693 11.3335 14.6693H4.66683C4.31321 14.6693 3.97407 14.5288 3.72402 14.2787C3.47397 14.0287 3.3335 13.6896 3.3335 13.3359V4.0026M5.3335 4.0026V2.66927C5.3335 2.31565 5.47397 1.97651 5.72402 1.72646C5.97407 1.47641 6.31321 1.33594 6.66683 1.33594H9.3335C9.68712 1.33594 10.0263 1.47641 10.2763 1.72646C10.5264 1.97651 10.6668 2.31565 10.6668 2.66927V4.0026" stroke="#FF0000" stroke-opacity="0.5" stroke-width="1.5" stroke-linecap="round" stroke-linejoin="round"/>
<path d="M6.6665 7.33594V11.3359" stroke="#FF0000" stroke-opacity="0.5" stroke-width="1.5" stroke-linecap="round" stroke-linejoin="round"/>
<path d="M9.3335 7.33594V11.3359" stroke="#FF0000" stroke-opacity="0.5" stroke-width="1.5" stroke-linecap="round" stroke-linejoin="round"/>
</svg>
