<svg width="24" height="24" viewBox="0 0 24 24" fill="none" xmlns="http://www.w3.org/2000/svg">
<circle cx="12" cy="12" r="12" fill="#EFEFED"/>
<path fill-rule="evenodd" clip-rule="evenodd" d="M11.8 7.53255C11.8 7.23843 12.0388 7 12.3333 7C12.6279 7 12.8667 7.23843 12.8667 7.53255V12.1124L14.0895 10.8895C14.2978 10.6813 14.6355 10.6813 14.8438 10.8895C15.0521 11.0978 15.0521 11.4355 14.8438 11.6438L12.7105 13.7771C12.5022 13.9854 12.1645 13.9854 11.9562 13.7771L9.82288 11.6438C9.6146 11.4355 9.6146 11.0978 9.82288 10.8895C10.0312 10.6813 10.3688 10.6813 10.5771 10.8895L11.8 12.1124V7.53255ZM16.6 15.5333V12.3333C16.6 12.0388 16.8388 11.8 17.1333 11.8C17.4279 11.8 17.6667 12.0388 17.6667 12.3333V16.0667C17.6667 16.3612 17.4279 16.6 17.1333 16.6H7.53333C7.23878 16.6 7 16.3612 7 16.0667V12.3333C7 12.0388 7.23878 11.8 7.53333 11.8C7.82789 11.8 8.06667 12.0388 8.06667 12.3333V15.5333H16.6Z" fill="#283049"/>
</svg>
