<svg width="16" height="20" viewBox="0 0 16 20" fill="none" xmlns="http://www.w3.org/2000/svg">
<path d="M1.24992 18.5H14.7499C14.9373 18.4997 15.1181 18.5695 15.2566 18.6958C15.3951 18.822 15.4813 18.9956 15.4982 19.1822C15.5152 19.3689 15.4616 19.5551 15.3481 19.7042C15.2346 19.8534 15.0693 19.9546 14.8849 19.988L14.7499 20H1.24992C1.0625 20.0003 0.881742 19.9305 0.743243 19.8042C0.604744 19.678 0.518539 19.5044 0.501604 19.3178C0.48467 19.1311 0.538234 18.9449 0.651747 18.7958C0.76526 18.6466 0.930497 18.5454 1.11492 18.512L1.24992 18.5H14.7499H1.24992ZM7.86492 0.512L7.99992 0.5C8.17546 0.499942 8.34545 0.561457 8.48031 0.673834C8.61516 0.786211 8.70632 0.942329 8.73792 1.115L8.74992 1.25V14.438L12.7729 10.4165C12.897 10.2923 13.0608 10.2155 13.2357 10.1996C13.4105 10.1837 13.5854 10.2297 13.7299 10.3295L13.8349 10.4165C13.9589 10.5408 14.0354 10.7046 14.051 10.8795C14.0667 11.0544 14.0204 11.2292 13.9204 11.3735L13.8334 11.477L8.53092 16.781C8.40663 16.905 8.24278 16.9815 8.06791 16.9971C7.89303 17.0127 7.71822 16.9665 7.57392 16.8665L7.46892 16.781L2.16642 11.477C2.03354 11.3447 1.95503 11.1675 1.94636 10.9802C1.93769 10.7929 1.99949 10.6091 2.11958 10.4651C2.23967 10.3211 2.40933 10.2273 2.59514 10.2022C2.78095 10.1771 2.96942 10.2225 3.12342 10.3295L3.22692 10.4165L7.24992 14.438V1.25C7.24986 1.07446 7.31137 0.904464 7.42375 0.769612C7.53613 0.63476 7.69225 0.543597 7.86492 0.512L7.99992 0.5L7.86492 0.512Z" fill="#686868"/>
</svg>
