<svg width="27" height="27" viewBox="0 0 27 27" fill="none" xmlns="http://www.w3.org/2000/svg">
<path d="M24.875 23.4414H2.125C1.22754 23.4414 0.5 24.1261 0.5 24.9708C0.5 25.8155 1.22754 26.5002 2.125 26.5002H24.875C25.7725 26.5002 26.5 25.8155 26.5 24.9708C26.5 24.1261 25.7725 23.4414 24.875 23.4414Z" fill="white"/>
<path d="M0.5 21.9118L0.5 24.9706C0.5 25.8153 1.22755 26.5 2.12503 26.5C3.02251 26.5 3.75006 25.8153 3.75006 24.9706L3.75006 21.9118C3.75006 21.0671 3.02251 20.3823 2.12503 20.3823C1.22755 20.3823 0.5 21.0671 0.5 21.9118Z" fill="white"/>
<path d="M23.2461 21.9118V24.9706C23.2461 25.8153 23.9736 26.5 24.8711 26.5C25.7686 26.5 26.4962 25.8153 26.4962 24.9706V21.9118C26.4962 21.0671 25.7686 20.3823 24.8711 20.3823C23.9736 20.3823 23.2461 21.0671 23.2461 21.9118Z" fill="white"/>
<path d="M13.4984 18.8541C13.1615 18.8565 12.8322 18.7603 12.5559 18.5788L6.0559 14.2659C5.70556 14.032 5.46788 13.677 5.39479 13.2787C5.32171 12.8803 5.41918 12.4709 5.66589 12.14C5.78905 11.9746 5.94579 11.8338 6.12708 11.7257C6.30837 11.6176 6.51061 11.5444 6.72212 11.5102C6.93364 11.4761 7.15024 11.4818 7.35943 11.5268C7.56862 11.5719 7.76624 11.6556 7.9409 11.7729L13.4984 15.4282L19.0234 11.5129C19.3682 11.2695 19.8016 11.165 20.2283 11.2224C20.6549 11.2798 21.0399 11.4943 21.2984 11.8188C21.557 12.1433 21.6681 12.5512 21.6071 12.9527C21.5462 13.3543 21.3182 13.7166 20.9734 13.96L14.4734 18.5482C14.1921 18.7468 13.85 18.8541 13.4984 18.8541Z" fill="white"/>
<path d="M13.5039 15.7942C13.073 15.7942 12.6596 15.633 12.3549 15.3462C12.0501 15.0594 11.8789 14.6704 11.8789 14.2648V2.02942C11.8789 1.62379 12.0501 1.23478 12.3549 0.947956C12.6596 0.661135 13.073 0.5 13.5039 0.5C13.9349 0.5 14.3483 0.661135 14.653 0.947956C14.9578 1.23478 15.129 1.62379 15.129 2.02942V14.2648C15.129 14.6704 14.9578 15.0594 14.653 15.3462C14.3483 15.633 13.9349 15.7942 13.5039 15.7942Z" fill="white"/>
</svg>
