<svg width="132" height="24" viewBox="0 0 132 24" fill="none" xmlns="http://www.w3.org/2000/svg">
<path d="M23.99 10.0301C23.525 7.25345 22.0924 4.72758 19.9427 2.89423C17.7931 1.06089 15.0632 0.0367676 12.2305 0.000971144C9.39784 -0.0348253 6.64264 0.91998 4.44676 2.69841C2.25088 4.47684 0.754078 6.9657 0.218123 9.72973C-0.317833 12.4938 0.141169 15.357 1.51486 17.8188C2.88855 20.2806 5.08949 22.1842 7.73278 23.1968C10.3761 24.2093 13.2935 24.2663 15.9748 23.3578C18.6561 22.4493 20.9306 20.6331 22.4006 18.2269L18.2712 15.7361C17.3892 17.1799 16.0244 18.2696 14.4156 18.8147C12.8069 19.3598 11.0564 19.3256 9.47044 18.7181C7.88447 18.1105 6.5639 16.9684 5.73969 15.4913C4.91548 14.0142 4.64008 12.2963 4.96165 10.6378C5.28322 8.97942 6.1813 7.4861 7.49883 6.41905C8.81636 5.35199 10.4695 4.7791 12.1691 4.80058C13.8687 4.82206 15.5066 5.43653 16.7964 6.53654C18.0862 7.63655 18.9458 9.15207 19.2248 10.8181L23.99 10.0301Z" fill="url(#paint0_angular_908_6867)"/>
<path d="M11.8937 9.44348L23.8015 9.86278C24.0241 9.87062 24.0771 10.1755 23.87 10.2571L12.9259 14.5695C12.7049 14.6749 12.4657 14.7521 12.2121 14.7957C10.7348 15.0496 9.32993 14.0655 9.07436 12.5975C8.81878 11.1296 9.80924 9.73369 11.2866 9.47974C11.4173 9.45727 11.5474 9.4445 11.6762 9.44089L11.6753 9.43579L11.8029 9.44028C11.8332 9.44084 11.8635 9.44191 11.8937 9.44348Z" fill="white"/>
<path d="M38.1789 20C36.9622 20 35.8847 19.7356 34.9465 19.2067C34.023 18.6778 33.2974 17.96 32.7696 17.0533C32.2565 16.1316 32 15.0813 32 13.9027C32 12.9658 32.1466 12.112 32.4398 11.3413C32.733 10.5707 33.1361 9.90578 33.6492 9.34667C34.1769 8.77244 34.7999 8.33422 35.5182 8.032C36.2512 7.71467 37.0502 7.556 37.9151 7.556C38.6773 7.556 39.3883 7.70711 40.048 8.00933C40.7077 8.31156 41.2794 8.72711 41.7631 9.256C42.2469 9.76978 42.6134 10.3893 42.8626 11.1147C43.1265 11.8249 43.2511 12.6031 43.2364 13.4493L43.2144 14.424H33.8251L33.3193 12.52H40.9495L40.5977 12.9053V12.4067C40.5537 11.9382 40.4071 11.5302 40.1579 11.1827C39.9087 10.82 39.5862 10.5404 39.1904 10.344C38.8093 10.1324 38.3842 10.0267 37.9151 10.0267C37.1967 10.0267 36.5884 10.1702 36.09 10.4573C35.6062 10.7444 35.2397 11.16 34.9905 11.704C34.7413 12.2329 34.6167 12.8978 34.6167 13.6987C34.6167 14.4693 34.7706 15.1418 35.0785 15.716C35.401 16.2902 35.8481 16.736 36.4198 17.0533C37.0062 17.3556 37.6878 17.5067 38.4648 17.5067C39.0072 17.5067 39.5056 17.416 39.96 17.2347C40.4145 17.0533 40.9056 16.7284 41.4333 16.26L42.7746 18.1867C42.3788 18.5644 41.9244 18.8893 41.4113 19.1613C40.9129 19.4182 40.3852 19.6222 39.8281 19.7733C39.271 19.9244 38.7213 20 38.1789 20Z" fill="white"/>
<path d="M46.6873 19.7733V6.76267C46.6873 6.03733 46.8412 5.39511 47.1491 4.836C47.4569 4.26178 47.882 3.816 48.4244 3.49867C48.9668 3.16622 49.5972 3 50.3155 3C50.8139 3 51.2757 3.09067 51.7008 3.272C52.1259 3.43822 52.4851 3.67244 52.7783 3.97467L51.9427 6.08267C51.7521 5.91644 51.5469 5.788 51.327 5.69733C51.1218 5.60667 50.9239 5.56133 50.7333 5.56133C50.4401 5.56133 50.1909 5.61422 49.9857 5.72C49.7951 5.81067 49.6485 5.95422 49.5459 6.15067C49.4579 6.34711 49.4139 6.58133 49.4139 6.85333V19.7733H48.0506C47.7868 19.7733 47.5376 19.7733 47.303 19.7733C47.0831 19.7733 46.8779 19.7733 46.6873 19.7733ZM44.8842 10.5253V8.07733H52.0306V10.5253H44.8842ZM55.329 19.7733V6.76267C55.329 6.03733 55.4829 5.39511 55.7908 4.836C56.0986 4.26178 56.5237 3.816 57.0661 3.49867C57.6085 3.16622 58.2389 3 58.9572 3C59.4556 3 59.9174 3.09067 60.3425 3.272C60.7676 3.43822 61.1268 3.67244 61.42 3.97467L60.5844 6.08267C60.3938 5.91644 60.1886 5.788 59.9687 5.69733C59.7635 5.60667 59.5656 5.56133 59.375 5.56133C59.0818 5.56133 58.8326 5.61422 58.6274 5.72C58.4368 5.81067 58.2902 5.95422 58.1876 6.15067C58.0996 6.34711 58.0556 6.58133 58.0556 6.85333V19.7733H56.6923C56.4285 19.7733 56.1792 19.7733 55.9447 19.7733C55.7248 19.7733 55.5196 19.7733 55.329 19.7733ZM53.5259 10.5253V8.07733H60.6723V10.5253H53.5259Z" fill="white"/>
<path d="M67.788 20C66.6299 20 65.5965 19.7356 64.6876 19.2067C63.7787 18.6627 63.0604 17.9222 62.5327 16.9853C62.0049 16.0484 61.741 14.9831 61.741 13.7893C61.741 12.5956 62.0049 11.5302 62.5327 10.5933C63.0604 9.65644 63.7787 8.92356 64.6876 8.39467C65.5965 7.85067 66.6299 7.57867 67.788 7.57867C68.9315 7.57867 69.9576 7.85067 70.8665 8.39467C71.7754 8.92356 72.4864 9.65644 72.9994 10.5933C73.5272 11.5302 73.791 12.5956 73.791 13.7893C73.791 14.9831 73.5272 16.0484 72.9994 16.9853C72.4864 17.9222 71.7754 18.6627 70.8665 19.2067C69.9576 19.7356 68.9315 20 67.788 20ZM67.788 17.5293C68.4184 17.5293 68.9754 17.3631 69.4592 17.0307C69.9576 16.6982 70.3461 16.2524 70.6246 15.6933C70.9178 15.1342 71.0571 14.4996 71.0424 13.7893C71.0571 13.064 70.9178 12.4218 70.6246 11.8627C70.3461 11.3036 69.9576 10.8653 69.4592 10.548C68.9754 10.2156 68.4184 10.0493 67.788 10.0493C67.1577 10.0493 66.586 10.2156 66.0729 10.548C65.5745 10.8653 65.186 11.3111 64.9075 11.8853C64.6289 12.4444 64.4897 13.0791 64.4897 13.7893C64.4897 14.4996 64.6289 15.1342 64.9075 15.6933C65.186 16.2524 65.5745 16.6982 66.0729 17.0307C66.586 17.3631 67.1577 17.5293 67.788 17.5293Z" fill="white"/>
<path d="M76.2104 19.7733V7.828H78.871L78.915 11.636L78.5412 10.7747C78.7024 10.1702 78.981 9.62622 79.3768 9.14267C79.7726 8.65911 80.227 8.28133 80.7401 8.00933C81.2678 7.72222 81.8176 7.57867 82.3893 7.57867C82.6385 7.57867 82.873 7.60133 83.0929 7.64667C83.3275 7.692 83.518 7.74489 83.6646 7.80533L82.939 10.8653C82.7777 10.7747 82.5798 10.6991 82.3453 10.6387C82.1107 10.5782 81.8762 10.548 81.6416 10.548C81.2752 10.548 80.9233 10.6236 80.5862 10.7747C80.2637 10.9107 79.9778 11.1071 79.7286 11.364C79.4794 11.6209 79.2815 11.9231 79.1349 12.2707C79.003 12.6031 78.937 12.9809 78.937 13.404V19.7733H76.2104Z" fill="white"/>
<path d="M87.1484 19.7733V4.79067H89.853V19.7733H87.1484ZM84.8615 10.412V7.828H92.3818V10.412H84.8615Z" fill="white"/>
<path d="M94.4635 19.7733V3H97.1901V19.7733H94.4635Z" fill="white"/>
<path d="M105.585 20C104.368 20 103.291 19.7356 102.352 19.2067C101.429 18.6778 100.703 17.96 100.175 17.0533C99.6624 16.1316 99.4059 15.0813 99.4059 13.9027C99.4059 12.9658 99.5525 12.112 99.8457 11.3413C100.139 10.5707 100.542 9.90578 101.055 9.34667C101.583 8.77244 102.206 8.33422 102.924 8.032C103.657 7.71467 104.456 7.556 105.321 7.556C106.083 7.556 106.794 7.70711 107.454 8.00933C108.114 8.31156 108.685 8.72711 109.169 9.256C109.653 9.76978 110.019 10.3893 110.268 11.1147C110.532 11.8249 110.657 12.6031 110.642 13.4493L110.62 14.424H101.231L100.725 12.52H108.355L108.004 12.9053V12.4067C107.96 11.9382 107.813 11.5302 107.564 11.1827C107.315 10.82 106.992 10.5404 106.596 10.344C106.215 10.1324 105.79 10.0267 105.321 10.0267C104.603 10.0267 103.994 10.1702 103.496 10.4573C103.012 10.7444 102.646 11.16 102.396 11.704C102.147 12.2329 102.023 12.8978 102.023 13.6987C102.023 14.4693 102.176 15.1418 102.484 15.716C102.807 16.2902 103.254 16.736 103.826 17.0533C104.412 17.3556 105.094 17.5067 105.871 17.5067C106.413 17.5067 106.911 17.416 107.366 17.2347C107.82 17.0533 108.311 16.7284 108.839 16.26L110.181 18.1867C109.785 18.5644 109.33 18.8893 108.817 19.1613C108.319 19.4182 107.791 19.6222 107.234 19.7733C106.677 19.9244 106.127 20 105.585 20Z" fill="white"/>
<path d="M116.908 20C115.882 20 114.958 19.8262 114.137 19.4787C113.331 19.116 112.671 18.6022 112.158 17.9373L113.917 16.3733C114.357 16.8871 114.848 17.2573 115.391 17.484C115.933 17.7107 116.505 17.824 117.106 17.824C117.355 17.824 117.575 17.7938 117.765 17.7333C117.971 17.6729 118.146 17.5822 118.293 17.4613C118.44 17.3404 118.55 17.2044 118.623 17.0533C118.711 16.8871 118.755 16.7058 118.755 16.5093C118.755 16.1467 118.623 15.8596 118.359 15.648C118.212 15.5422 117.978 15.4289 117.655 15.308C117.348 15.1871 116.944 15.0662 116.446 14.9453C115.654 14.7338 114.995 14.492 114.467 14.22C113.939 13.9329 113.529 13.6156 113.236 13.268C112.986 12.9809 112.796 12.656 112.664 12.2933C112.547 11.9307 112.488 11.5378 112.488 11.1147C112.488 10.5858 112.598 10.1098 112.818 9.68667C113.052 9.24844 113.368 8.87067 113.763 8.55333C114.159 8.236 114.621 7.99422 115.149 7.828C115.676 7.66178 116.226 7.57867 116.798 7.57867C117.384 7.57867 117.949 7.65422 118.491 7.80533C119.048 7.95644 119.561 8.17556 120.03 8.46267C120.514 8.73467 120.924 9.06711 121.262 9.46L119.766 11.16C119.488 10.888 119.18 10.6462 118.843 10.4347C118.52 10.2231 118.19 10.0569 117.853 9.936C117.516 9.8 117.201 9.732 116.908 9.732C116.629 9.732 116.38 9.76222 116.16 9.82267C115.94 9.868 115.757 9.94356 115.61 10.0493C115.464 10.1551 115.347 10.2911 115.259 10.4573C115.185 10.6084 115.149 10.7898 115.149 11.0013C115.163 11.1827 115.207 11.3564 115.281 11.5227C115.369 11.6738 115.486 11.8022 115.632 11.908C115.794 12.0138 116.036 12.1347 116.358 12.2707C116.681 12.4067 117.098 12.5351 117.611 12.656C118.33 12.8524 118.931 13.0716 119.415 13.3133C119.898 13.5551 120.279 13.8347 120.558 14.152C120.836 14.424 121.034 14.7413 121.152 15.104C121.269 15.4667 121.328 15.8671 121.328 16.3053C121.328 17.0156 121.13 17.6502 120.734 18.2093C120.353 18.7684 119.825 19.2067 119.151 19.524C118.491 19.8413 117.743 20 116.908 20Z" fill="white"/>
<path d="M127.58 20C126.554 20 125.631 19.8262 124.81 19.4787C124.003 19.116 123.344 18.6022 122.831 17.9373L124.59 16.3733C125.029 16.8871 125.521 17.2573 126.063 17.484C126.605 17.7107 127.177 17.824 127.778 17.824C128.027 17.824 128.247 17.7938 128.438 17.7333C128.643 17.6729 128.819 17.5822 128.966 17.4613C129.112 17.3404 129.222 17.2044 129.295 17.0533C129.383 16.8871 129.427 16.7058 129.427 16.5093C129.427 16.1467 129.295 15.8596 129.031 15.648C128.885 15.5422 128.65 15.4289 128.328 15.308C128.02 15.1871 127.617 15.0662 127.118 14.9453C126.327 14.7338 125.667 14.492 125.139 14.22C124.612 13.9329 124.201 13.6156 123.908 13.268C123.659 12.9809 123.468 12.656 123.336 12.2933C123.219 11.9307 123.16 11.5378 123.16 11.1147C123.16 10.5858 123.27 10.1098 123.49 9.68667C123.725 9.24844 124.04 8.87067 124.436 8.55333C124.832 8.236 125.293 7.99422 125.821 7.828C126.349 7.66178 126.899 7.57867 127.47 7.57867C128.057 7.57867 128.621 7.65422 129.163 7.80533C129.72 7.95644 130.234 8.17556 130.703 8.46267C131.186 8.73467 131.597 9.06711 131.934 9.46L130.439 11.16C130.16 10.888 129.852 10.6462 129.515 10.4347C129.193 10.2231 128.863 10.0569 128.526 9.936C128.189 9.8 127.873 9.732 127.58 9.732C127.302 9.732 127.052 9.76222 126.833 9.82267C126.613 9.868 126.429 9.94356 126.283 10.0493C126.136 10.1551 126.019 10.2911 125.931 10.4573C125.858 10.6084 125.821 10.7898 125.821 11.0013C125.836 11.1827 125.88 11.3564 125.953 11.5227C126.041 11.6738 126.158 11.8022 126.305 11.908C126.466 12.0138 126.708 12.1347 127.03 12.2707C127.353 12.4067 127.771 12.5351 128.284 12.656C129.002 12.8524 129.603 13.0716 130.087 13.3133C130.571 13.5551 130.952 13.8347 131.23 14.152C131.509 14.424 131.707 14.7413 131.824 15.104C131.941 15.4667 132 15.8671 132 16.3053C132 17.0156 131.802 17.6502 131.406 18.2093C131.025 18.7684 130.497 19.2067 129.823 19.524C129.163 19.8413 128.416 20 127.58 20Z" fill="white"/>
<defs>
<radialGradient id="paint0_angular_908_6867" cx="0" cy="0" r="1" gradientUnits="userSpaceOnUse" gradientTransform="translate(11.788 11.9749) rotate(35.8823) scale(26.3277 26.2753)">
<stop offset="0.369792" stop-color="white"/>
<stop offset="0.744792" stop-color="white"/>
<stop offset="0.989583" stop-color="white" stop-opacity="0"/>
</radialGradient>
</defs>
</svg>
