<svg width="55" height="49" viewBox="0 0 55 49" fill="none" xmlns="http://www.w3.org/2000/svg">
<ellipse cx="25" cy="24.5" rx="25" ry="24.5" fill="#F2F2F0"/>
<path d="M14 31C14 28.75 17 28.75 18.5 27.25C19.25 26.5 17 26.5 17 22.75C17 20.2503 17.9997 19 20 19C22.0003 19 23 20.2503 23 22.75C23 26.5 20.75 26.5 21.5 27.25C23 28.75 26 28.75 26 31" stroke="#283049" stroke-width="2" stroke-linecap="round"/>
<path d="M24.9947 29.2431C25.5617 28.8523 26.2978 28.571 27.0021 28.2318C27.5528 27.9665 28.0841 27.6659 28.5 27.25C29.25 26.5 27 26.5 27 22.75C27 20.2503 27.9998 19 30 19C32.0003 19 33 20.2503 33 22.75C33 26.5 30.75 26.5 31.5 27.25C33 28.75 36 28.75 36 31" stroke="#283049" stroke-width="2" stroke-linecap="round"/>
<path d="M46.1524 4.67021V8.22074L49.3012 10C49.3569 10.0314 49.4058 10.0733 49.4449 10.1232C49.4841 10.1731 49.5128 10.23 49.5295 10.2908C49.5462 10.3515 49.5504 10.4149 49.5421 10.4773C49.5337 10.5396 49.5128 10.5998 49.4807 10.6543C49.4486 10.7087 49.4058 10.7565 49.3547 10.7948C49.3037 10.8331 49.2455 10.8612 49.1834 10.8775C49.1213 10.8938 49.0565 10.898 48.9927 10.8898C48.929 10.8816 48.8675 10.8612 48.8118 10.8298L45.4182 8.91489H45.41L45.3856 8.89894L45.3611 8.88298H45.3448L45.3285 8.85904H45.3122L45.2958 8.83511L45.2795 8.81915L45.2632 8.80319V8.78723L45.2469 8.7633C45.2469 8.75532 45.2387 8.74734 45.2387 8.73936C45.2387 8.73138 45.2306 8.73138 45.2306 8.7234L45.2143 8.69947C45.2143 8.69149 45.2143 8.68351 45.2061 8.68351C45.2063 8.67236 45.2035 8.66135 45.1979 8.6516V8.63564C45.195 8.6324 45.1928 8.62861 45.1913 8.62449C45.1899 8.62038 45.1894 8.61602 45.1898 8.6117V8.58777C45.1868 8.58453 45.1846 8.58073 45.1832 8.57662C45.1818 8.5725 45.1813 8.56815 45.1816 8.56383V4.67021C45.1816 4.54325 45.2332 4.42148 45.325 4.33171C45.4168 4.24193 45.5413 4.19149 45.6711 4.19149C45.8009 4.19149 45.9254 4.24193 46.0172 4.33171C46.109 4.42148 46.1605 4.54325 46.1605 4.67021H46.1524ZM53.9184 6.50532C53.9352 6.48041 53.9489 6.45362 53.9592 6.42553C53.9735 6.40042 53.9845 6.3736 53.9918 6.34575C53.9918 6.32181 54 6.28989 54 6.25798V3.06649C54 2.93953 53.9484 2.81776 53.8566 2.72798C53.7649 2.63821 53.6404 2.58777 53.5105 2.58777C53.3807 2.58777 53.2562 2.63821 53.1644 2.72798C53.0727 2.81776 53.0211 2.93953 53.0211 3.06649V5.08511L51.0877 3.19415C50.015 2.14598 48.6487 1.43239 47.1614 1.14359C45.6741 0.854782 44.1327 1.00373 42.732 1.5716C41.3312 2.13947 40.1341 3.10076 39.2918 4.33398C38.4495 5.56719 38 7.01695 38 8.5C38 9.98305 38.4495 11.4328 39.2918 12.666C40.1341 13.8992 41.3312 14.8605 42.732 15.4284C44.1327 15.9963 45.6741 16.1452 47.1614 15.8564C48.6487 15.5676 50.015 14.854 51.0877 13.8058C51.1779 13.715 51.2284 13.5934 51.2284 13.4668C51.2284 13.3401 51.1779 13.2185 51.0877 13.1277C51.0428 13.082 50.989 13.0458 50.9294 13.021C50.8698 12.9962 50.8058 12.9834 50.741 12.9834C50.6763 12.9834 50.6122 12.9962 50.5527 13.021C50.4931 13.0458 50.4392 13.082 50.3943 13.1277C49.4587 14.0423 48.2668 14.665 46.9693 14.9171C45.6718 15.1693 44.327 15.0395 43.105 14.5442C41.8829 14.0489 40.8384 13.2103 40.1036 12.1344C39.3687 11.0586 38.9765 9.79383 38.9765 8.5C38.9765 7.20617 39.3687 5.94139 40.1036 4.86556C40.8384 3.78973 41.8829 2.95115 43.105 2.45584C44.327 1.96054 45.6718 1.83075 46.9693 2.08288C48.2668 2.33501 49.4587 2.95774 50.3943 3.87234L52.3277 5.7633H50.2475C50.1177 5.7633 49.9932 5.81374 49.9014 5.90351C49.8096 5.99329 49.758 6.11506 49.758 6.24202C49.758 6.36899 49.8096 6.49075 49.9014 6.58053C49.9932 6.67031 50.1177 6.72074 50.2475 6.72074H53.6003L53.69 6.69681L53.7716 6.65692H53.7797L53.8532 6.60106L53.9184 6.52128V6.50532Z" fill="#F08B32" stroke="#F08B32" stroke-width="0.5"/>
</svg>
