<svg width="81" height="81" viewBox="0 0 81 81" fill="none" xmlns="http://www.w3.org/2000/svg">
<rect x="0.363281" y="0.589844" width="79.9219" height="79.9219" rx="39.9609" fill="#F08B32"/>
<path d="M62.3027 36.7469C62.6706 36.7469 62.9688 37.0451 62.9688 37.4129V42.3605C62.9688 42.7283 62.6706 43.0265 62.3027 43.0265H44.796C44.4282 43.0265 44.13 43.3247 44.13 43.6925V61.1992C44.13 61.5671 43.8318 61.8652 43.464 61.8652H38.5165C38.1486 61.8652 37.8504 61.567 37.8504 61.1992V43.6925C37.8504 43.3247 37.5523 43.0265 37.1844 43.0265H19.6777C19.3099 43.0265 19.0117 42.7283 19.0117 42.3605V37.4129C19.0117 37.0451 19.3099 36.7469 19.6777 36.7469H37.1844C37.5523 36.7469 37.8504 36.4487 37.8504 36.0809V18.5742C37.8504 18.2064 38.1486 17.9082 38.5165 17.9082H43.464C43.8318 17.9082 44.13 18.2064 44.13 18.5742V36.0809C44.13 36.4487 44.4282 36.7469 44.796 36.7469H62.3027Z" fill="white"/>
</svg>
