<svg width="25" height="24" viewBox="0 0 25 24" fill="none" xmlns="http://www.w3.org/2000/svg">
<path d="M14.0662 12.0002L18.3662 7.71019C18.5545 7.52188 18.6603 7.26649 18.6603 7.00019C18.6603 6.73388 18.5545 6.47849 18.3662 6.29019C18.1779 6.10188 17.9225 5.99609 17.6562 5.99609C17.3899 5.99609 17.1345 6.10188 16.9462 6.29019L12.6562 10.5902L8.36619 6.29019C8.17789 6.10188 7.92249 5.99609 7.65619 5.99609C7.38989 5.99609 7.13449 6.10188 6.94619 6.29019C6.75789 6.47849 6.6521 6.73388 6.6521 7.00019C6.6521 7.26649 6.75789 7.52188 6.94619 7.71019L11.2462 12.0002L6.94619 16.2902C6.85246 16.3831 6.77807 16.4937 6.7273 16.6156C6.67653 16.7375 6.65039 16.8682 6.65039 17.0002C6.65039 17.1322 6.67653 17.2629 6.7273 17.3848C6.77807 17.5066 6.85246 17.6172 6.94619 17.7102C7.03915 17.8039 7.14975 17.8783 7.27161 17.9291C7.39347 17.9798 7.52418 18.006 7.65619 18.006C7.7882 18.006 7.91891 17.9798 8.04077 17.9291C8.16263 17.8783 8.27323 17.8039 8.36619 17.7102L12.6562 13.4102L16.9462 17.7102C17.0392 17.8039 17.1498 17.8783 17.2716 17.9291C17.3935 17.9798 17.5242 18.006 17.6562 18.006C17.7882 18.006 17.9189 17.9798 18.0408 17.9291C18.1626 17.8783 18.2732 17.8039 18.3662 17.7102C18.4599 17.6172 18.5343 17.5066 18.5851 17.3848C18.6358 17.2629 18.662 17.1322 18.662 17.0002C18.662 16.8682 18.6358 16.7375 18.5851 16.6156C18.5343 16.4937 18.4599 16.3831 18.3662 16.2902L14.0662 12.0002Z" fill="#6E6E6E"/>
</svg>
