<svg width="4" height="19" viewBox="0 0 4 19" fill="none" xmlns="http://www.w3.org/2000/svg">
<path d="M1.175 11.975C1.05833 10.925 0.95 9.84167 0.85 8.725C0.766667 7.59167 0.7 6.475 0.65 5.375C0.6 4.275 0.575 3.23333 0.575 2.25V0.499999H3.275V2.25C3.275 3.28333 3.25 4.36667 3.2 5.5C3.15 6.63333 3.075 7.75833 2.975 8.875C2.89167 9.975 2.79167 11.0083 2.675 11.975H1.175ZM1.85 18.275C1.3 18.275 0.875 18.1167 0.575 17.8C0.275 17.4667 0.125 17 0.125 16.4C0.125 15.85 0.283333 15.4 0.6 15.05C0.916667 14.7 1.33333 14.525 1.85 14.525C2.4 14.525 2.825 14.6917 3.125 15.025C3.425 15.3417 3.575 15.8 3.575 16.4C3.575 16.95 3.41667 17.4 3.1 17.75C2.78333 18.1 2.36667 18.275 1.85 18.275Z" fill="#A0A4AF"/>
</svg>
