<svg width="200" height="195" viewBox="0 0 200 195" fill="none" xmlns="http://www.w3.org/2000/svg">
<path d="M133.335 130.298L100.001 97.9648L66.668 130.298" stroke="black" stroke-opacity="0.4" stroke-width="2" stroke-linecap="round" stroke-linejoin="round"/>
<path d="M100 97.9648V170.715" stroke="black" stroke-opacity="0.4" stroke-width="2" stroke-linecap="round" stroke-linejoin="round"/>
<path d="M169.917 149.617C178.045 145.319 184.465 138.518 188.166 130.287C191.866 122.056 192.635 112.864 190.352 104.162C188.068 95.4601 182.863 87.7435 175.556 82.2301C168.249 76.7168 159.257 73.7207 150 73.7148H139.5C136.978 64.2511 132.277 55.4653 125.75 48.0178C119.223 40.5703 111.041 34.6549 101.818 30.7163C92.5948 26.7778 82.5714 24.9186 72.5011 25.2785C62.4309 25.6384 52.5757 28.208 43.6766 32.7942C34.7775 37.3804 27.0661 43.8638 21.122 51.757C15.1779 59.6502 11.1559 68.7478 9.35832 78.3659C7.56074 87.9839 8.03437 97.872 10.7436 107.287C13.4528 116.702 18.3272 125.398 25.0002 132.723" stroke="black" stroke-opacity="0.4" stroke-width="2" stroke-linecap="round" stroke-linejoin="round"/>
<path d="M133.335 130.298L100.001 97.9648L66.668 130.298" stroke="black" stroke-opacity="0.4" stroke-width="2" stroke-linecap="round" stroke-linejoin="round"/>
</svg>
