<svg width="16" height="16" viewBox="0 0 16 16" fill="none" xmlns="http://www.w3.org/2000/svg">
<path d="M0.666668 2.66669V6.66669H4.66667" stroke="white" stroke-linecap="round" stroke-linejoin="round"/>
<path d="M15.3333 13.3333V9.33331H11.3333" stroke="white" stroke-linecap="round" stroke-linejoin="round"/>
<path d="M13.66 6.00001C13.3219 5.04453 12.7472 4.19028 11.9897 3.51696C11.2321 2.84363 10.3164 2.37319 9.32781 2.14952C8.33926 1.92584 7.31017 1.95624 6.33654 2.23786C5.36292 2.51948 4.4765 3.04315 3.76 3.76001L0.666668 6.66668M15.3333 9.33334L12.24 12.24C11.5235 12.9569 10.6371 13.4805 9.66346 13.7622C8.68984 14.0438 7.66074 14.0742 6.67219 13.8505C5.68365 13.6268 4.76787 13.1564 4.01031 12.4831C3.25276 11.8097 2.67811 10.9555 2.34 10" stroke="white" stroke-linecap="round" stroke-linejoin="round"/>
</svg>
