<svg width="30" height="30" viewBox="0 0 30 30" fill="none" xmlns="http://www.w3.org/2000/svg">
<circle cx="15" cy="15" r="15" fill="#F08B32"/>
<path d="M13.0017 15.2612H13.7517C13.7517 15.0846 13.6894 14.9137 13.5757 14.7785L13.0017 15.2612ZM7.41238 8.61533L7.98637 8.13259L7.98637 8.13259L7.41238 8.61533ZM22.6477 8.61533L22.0737 8.13259L22.6477 8.61533ZM17.0017 15.3286L16.4277 14.8458C16.314 14.981 16.2517 15.152 16.2517 15.3286H17.0017ZM17.0017 19.9999L17.4517 20.5999C17.6406 20.4582 17.7517 20.2359 17.7517 19.9999H17.0017ZM13.0017 22.9999H12.2517C12.2517 23.2839 12.4122 23.5436 12.6663 23.6707C12.9204 23.7977 13.2244 23.7703 13.4517 23.5999L13.0017 22.9999ZM13.5757 14.7785L7.98637 8.13259L6.83839 9.09807L12.4277 15.744L13.5757 14.7785ZM7.98637 8.13259C7.8496 7.96997 7.96521 7.72168 8.1777 7.72168V6.22168C6.69028 6.22168 5.88101 7.95971 6.83839 9.09807L7.98637 8.13259ZM8.1777 7.72168H21.8824V6.22168H8.1777V7.72168ZM21.8824 7.72168C22.0949 7.72168 22.2105 7.96997 22.0737 8.13259L23.2217 9.09807C24.1791 7.95971 23.3698 6.22168 21.8824 6.22168V7.72168ZM22.0737 8.13259L16.4277 14.8458L17.5757 15.8113L23.2217 9.09807L22.0737 8.13259ZM16.2517 15.3286V19.9999H17.7517V15.3286H16.2517ZM16.5517 19.3999L12.5517 22.3999L13.4517 23.5999L17.4517 20.5999L16.5517 19.3999ZM13.7517 22.9999V15.2612H12.2517V22.9999H13.7517Z" fill="white"/>
</svg>
