<svg width="100" height="100" viewBox="0 0 100 100" fill="none" xmlns="http://www.w3.org/2000/svg">
<path fill-rule="evenodd" clip-rule="evenodd" d="M8.33301 77.0833C8.33301 75.9327 9.26575 75 10.4163 75H89.583C90.7336 75 91.6664 75.9327 91.6664 77.0833V89.5833C91.6664 90.7339 90.7336 91.6667 89.583 91.6667H10.4163C9.26575 91.6667 8.33301 90.7339 8.33301 89.5833V77.0833ZM12.4997 79.1667V87.5H87.4997V79.1667H12.4997Z" fill="#F08B32"/>
<path fill-rule="evenodd" clip-rule="evenodd" d="M49.0294 8.57313C49.6367 8.25346 50.3626 8.25346 50.97 8.57313L90.5533 29.4065C91.2378 29.7667 91.6664 30.4765 91.6664 31.25V39.5834C91.6664 40.734 90.7336 41.6667 89.583 41.6667H10.4163C9.26575 41.6667 8.33301 40.734 8.33301 39.5834V31.25C8.33301 30.4765 8.76155 29.7667 9.44604 29.4065L49.0294 8.57313ZM12.4997 32.5078V37.5H87.4997V32.5078L49.9997 12.771L12.4997 32.5078Z" fill="#F08B32"/>
<path fill-rule="evenodd" clip-rule="evenodd" d="M39.5837 37.5C40.7343 37.5 41.667 38.4327 41.667 39.5833L41.667 77.0833C41.667 78.2339 40.7343 79.1667 39.5837 79.1667H18.7503C17.5997 79.1667 16.667 78.2339 16.667 77.0833L16.667 39.5833C16.667 38.4327 17.5997 37.5 18.7503 37.5L39.5837 37.5ZM37.5003 41.6667H20.8337L20.8337 75H37.5003L37.5003 41.6667Z" fill="#F08B32"/>
<path fill-rule="evenodd" clip-rule="evenodd" d="M81.2497 37.5C82.4003 37.5 83.333 38.4327 83.333 39.5833L83.333 77.0833C83.333 78.2339 82.4003 79.1667 81.2497 79.1667H60.4163C59.2658 79.1667 58.333 78.2339 58.333 77.0833L58.333 39.5833C58.333 38.4327 59.2658 37.5 60.4163 37.5L81.2497 37.5ZM79.1663 41.6667H62.4997L62.4997 75H79.1663V41.6667Z" fill="#F08B32"/>
<path fill-rule="evenodd" clip-rule="evenodd" d="M50.0003 22.9167C47.6991 22.9167 45.8337 24.7821 45.8337 27.0833C45.8337 29.3845 47.6991 31.25 50.0003 31.25C52.3015 31.25 54.167 29.3845 54.167 27.0833C54.167 24.7821 52.3015 22.9167 50.0003 22.9167ZM41.667 27.0833C41.667 22.481 45.398 18.75 50.0003 18.75C54.6027 18.75 58.3337 22.481 58.3337 27.0833C58.3337 31.6857 54.6027 35.4167 50.0003 35.4167C45.398 35.4167 41.667 31.6857 41.667 27.0833Z" fill="#F08B32"/>
</svg>
