<svg width="82" height="82" viewBox="0 0 82 82" fill="none" xmlns="http://www.w3.org/2000/svg">
<path d="M36.2579 36.4962L36.0745 35.0074L34.903 35.1517L34.7678 36.3244L36.2579 36.4962ZM79.9415 79.7039L80.1249 81.1927L81.2964 81.0484L81.4316 79.8757L79.9415 79.7039ZM36.4413 37.9849C37.967 37.797 39.5215 37.7001 41.0995 37.7001V34.7001C39.3987 34.7001 37.7216 34.8045 36.0745 35.0074L36.4413 37.9849ZM41.0995 37.7001C61.869 37.7001 78.6994 54.493 78.6994 75.2001H81.6994C81.6994 52.8289 63.5186 34.7001 41.0995 34.7001V37.7001ZM78.6994 75.2001C78.6994 76.6658 78.6152 78.1113 78.4514 79.5321L81.4316 79.8757C81.6085 78.3411 81.6994 76.7809 81.6994 75.2001H78.6994ZM79.7581 78.2152C78.2324 78.4031 76.6779 78.5 75.0999 78.5V81.5C76.8008 81.5 78.4778 81.3956 80.1249 81.1927L79.7581 78.2152ZM75.0999 78.5C54.3304 78.5 37.5 61.7071 37.5 41H34.5C34.5 63.3712 52.6808 81.5 75.0999 81.5V78.5ZM37.5 41C37.5 39.5343 37.5842 38.0888 37.748 36.6679L34.7678 36.3244C34.5909 37.859 34.5 39.4192 34.5 41H37.5Z" fill="url(#paint0_linear_4479_8372)"/>
<path d="M2.30691 2.29006L2.12539 0.801088L0.96476 0.94258L0.818662 2.10264L2.30691 2.29006ZM45.8927 45.91L46.0742 47.399L47.2348 47.2575L47.3809 46.0974L45.8927 45.91ZM2.48843 3.77904C3.99904 3.59488 5.5379 3.5 7.09966 3.5V0.5C5.41628 0.5 3.75618 0.602279 2.12539 0.801088L2.48843 3.77904ZM7.09966 3.5C27.8692 3.5 44.6996 20.2929 44.6996 40.9999H47.6996C47.6996 18.6288 29.5188 0.5 7.09966 0.5V3.5ZM44.6996 40.9999C44.6996 42.6002 44.5992 44.1763 44.4044 45.7226L47.3809 46.0974C47.5913 44.4272 47.6996 42.7258 47.6996 40.9999H44.6996ZM45.7112 44.421C44.2006 44.6052 42.6617 44.7001 41.0999 44.7001V47.7001C42.7833 47.7001 44.4434 47.5978 46.0742 47.399L45.7112 44.421ZM41.0999 44.7001C20.3304 44.7001 3.5 27.9072 3.5 7.20013H0.5C0.5 29.5713 18.6808 47.7001 41.0999 47.7001V44.7001ZM3.5 7.20013C3.5 5.59989 3.60041 4.02375 3.79515 2.47749L0.818662 2.10264C0.608306 3.77292 0.5 5.47426 0.5 7.20013H3.5Z" fill="url(#paint1_linear_4479_8372)"/>
<path d="M79.8925 2.29004L81.3807 2.10261L81.2346 0.942552L80.074 0.801065L79.8925 2.29004ZM36.3069 45.91L34.8187 46.0975L34.9648 47.2575L36.1254 47.399L36.3069 45.91ZM78.6994 7.20013C78.6994 27.9072 61.869 44.7001 41.0995 44.7001V47.7001C63.5186 47.7001 81.6994 29.5713 81.6994 7.20013H78.6994ZM78.4043 2.47747C78.599 4.02373 78.6994 5.59988 78.6994 7.20013H81.6994C81.6994 5.47425 81.5911 3.77291 81.3807 2.10261L78.4043 2.47747ZM75.0999 3.5C76.6616 3.5 78.2004 3.59488 79.711 3.77902L80.074 0.801065C78.4433 0.602271 76.7832 0.5 75.0999 0.5V3.5ZM37.5 40.9999C37.5 20.2929 54.3304 3.5 75.0999 3.5V0.5C52.6808 0.5 34.5 18.6288 34.5 40.9999H37.5ZM37.7952 45.7226C37.6004 44.1763 37.5 42.6002 37.5 40.9999H34.5C34.5 42.7258 34.6083 44.4272 34.8187 46.0975L37.7952 45.7226ZM41.0995 44.7001C39.5378 44.7001 37.999 44.6052 36.4884 44.4211L36.1254 47.399C37.7561 47.5978 39.4162 47.7001 41.0995 47.7001V44.7001Z" fill="url(#paint2_linear_4479_8372)"/>
<path d="M45.9416 36.4961L47.4317 36.3243L47.2965 35.1516L46.125 35.0073L45.9416 36.4961ZM2.25792 79.7039L0.76779 79.8757L0.902979 81.0483L2.07453 81.1926L2.25792 79.7039ZM44.6995 41C44.6995 61.707 27.8691 78.4999 7.09957 78.4999V81.4999C29.5187 81.4999 47.6995 63.3711 47.6995 41H44.6995ZM44.4515 36.6679C44.6153 38.0887 44.6995 39.5342 44.6995 41H47.6995C47.6995 39.4192 47.6086 37.8589 47.4317 36.3243L44.4515 36.6679ZM41.0999 37.7C42.6779 37.7 44.2325 37.7969 45.7582 37.9848L46.125 35.0073C44.4779 34.8044 42.8008 34.7 41.0999 34.7V37.7ZM3.5 75.2C3.5 54.4929 20.3304 37.7 41.0999 37.7V34.7C18.6808 34.7 0.5 52.8288 0.5 75.2H3.5ZM3.74805 79.5321C3.58425 78.1112 3.5 76.6657 3.5 75.2H0.5C0.5 76.7808 0.590865 78.341 0.76779 79.8757L3.74805 79.5321ZM7.09957 78.4999C5.52161 78.4999 3.96701 78.4031 2.44131 78.2151L2.07453 81.1926C3.72164 81.3955 5.39872 81.4999 7.09957 81.4999V78.4999Z" fill="url(#paint3_linear_4479_8372)"/>
<defs>
<linearGradient id="paint0_linear_4479_8372" x1="58.0997" y1="36.2001" x2="58.0997" y2="80" gradientUnits="userSpaceOnUse">
<stop stop-color="#C29765"/>
<stop offset="1" stop-color="#936541"/>
</linearGradient>
<linearGradient id="paint1_linear_4479_8372" x1="24.0998" y1="2" x2="24.0998" y2="46.2" gradientUnits="userSpaceOnUse">
<stop stop-color="#C29765"/>
<stop offset="1" stop-color="#936541"/>
</linearGradient>
<linearGradient id="paint2_linear_4479_8372" x1="58.0997" y1="2" x2="58.0997" y2="46.2" gradientUnits="userSpaceOnUse">
<stop stop-color="#C29765"/>
<stop offset="1" stop-color="#936541"/>
</linearGradient>
<linearGradient id="paint3_linear_4479_8372" x1="24.0998" y1="36.2" x2="24.0998" y2="79.9999" gradientUnits="userSpaceOnUse">
<stop stop-color="#C29765"/>
<stop offset="1" stop-color="#936541"/>
</linearGradient>
</defs>
</svg>
