<svg width="320" height="88" viewBox="0 0 320 88" fill="none" xmlns="http://www.w3.org/2000/svg">
<path opacity="0.9" d="M22.19 70.7C18.41 70.7 15.05 69.9067 12.11 68.32C9.21667 66.6867 6.93 64.47 5.25 61.67C3.61667 58.87 2.8 55.65 2.8 52.01C2.8 49.1167 3.26667 46.48 4.2 44.1C5.13333 41.72 6.41667 39.6667 8.05 37.94C9.73 36.1667 11.7133 34.8133 14 33.88C16.3333 32.9 18.8533 32.41 21.56 32.41C23.94 32.41 26.1567 32.8767 28.21 33.81C30.2633 34.6967 32.0367 35.9333 33.53 37.52C35.07 39.1067 36.2367 40.9967 37.03 43.19C37.87 45.3367 38.2667 47.6933 38.22 50.26L38.15 53.34H8.12L6.51 47.6H31.92L30.87 48.79V47.11C30.73 45.57 30.2167 44.1933 29.33 42.98C28.4433 41.7667 27.3233 40.81 25.97 40.11C24.6167 39.41 23.1467 39.06 21.56 39.06C19.04 39.06 16.9167 39.55 15.19 40.53C13.4633 41.4633 12.1567 42.8633 11.27 44.73C10.3833 46.55 9.94 48.8133 9.94 51.52C9.94 54.0867 10.4767 56.3267 11.55 58.24C12.6233 60.1067 14.14 61.5533 16.1 62.58C18.06 63.6067 20.3233 64.12 22.89 64.12C24.71 64.12 26.39 63.8167 27.93 63.21C29.5167 62.6033 31.22 61.5067 33.04 59.92L36.68 65.03C35.56 66.15 34.1833 67.13 32.55 67.97C30.9633 68.81 29.26 69.4867 27.44 70C25.6667 70.4667 23.9167 70.7 22.19 70.7ZM50.0456 70V29.12C50.0456 27.02 50.5123 25.1533 51.4456 23.52C52.379 21.8867 53.6623 20.6033 55.2956 19.67C56.929 18.7367 58.819 18.27 60.9656 18.27C62.459 18.27 63.859 18.55 65.1656 19.11C66.4723 19.67 67.5223 20.4167 68.3156 21.35L65.8656 26.88C65.259 26.32 64.5823 25.8767 63.8356 25.55C63.1356 25.1767 62.459 24.99 61.8056 24.99C60.8256 24.99 59.9856 25.1533 59.2856 25.48C58.6323 25.76 58.1423 26.2267 57.8156 26.88C57.489 27.4867 57.3256 28.2333 57.3256 29.12V70H53.6856C53.079 70 52.4723 70 51.8656 70C51.259 70 50.6523 70 50.0456 70ZM44.1656 40.53V33.88H66.0056V40.53H44.1656ZM77.5556 70V29.12C77.5556 27.02 78.0223 25.1533 78.9556 23.52C79.889 21.8867 81.1723 20.6033 82.8056 19.67C84.439 18.7367 86.329 18.27 88.4756 18.27C89.969 18.27 91.369 18.55 92.6756 19.11C93.9823 19.67 95.0323 20.4167 95.8256 21.35L93.3756 26.88C92.769 26.32 92.0923 25.8767 91.3456 25.55C90.6456 25.1767 89.969 24.99 89.3156 24.99C88.3356 24.99 87.4956 25.1533 86.7956 25.48C86.1423 25.76 85.6523 26.2267 85.3256 26.88C84.999 27.4867 84.8356 28.2333 84.8356 29.12V70H81.1956C80.589 70 79.9823 70 79.3756 70C78.769 70 78.1623 70 77.5556 70ZM71.6756 40.53V33.88H93.5156V40.53H71.6756ZM116.238 70.7C112.644 70.7 109.424 69.8833 106.578 68.25C103.778 66.57 101.561 64.3067 99.9277 61.46C98.2944 58.5667 97.4777 55.2767 97.4777 51.59C97.4777 47.9033 98.2944 44.6367 99.9277 41.79C101.561 38.8967 103.778 36.6333 106.578 35C109.424 33.32 112.644 32.48 116.238 32.48C119.784 32.48 122.958 33.32 125.758 35C128.604 36.6333 130.844 38.8967 132.478 41.79C134.111 44.6367 134.928 47.9033 134.928 51.59C134.928 55.2767 134.111 58.5667 132.478 61.46C130.844 64.3067 128.604 66.57 125.758 68.25C122.958 69.8833 119.784 70.7 116.238 70.7ZM116.238 64.12C118.431 64.12 120.391 63.5833 122.118 62.51C123.844 61.39 125.198 59.8967 126.178 58.03C127.158 56.1167 127.624 53.97 127.578 51.59C127.624 49.1633 127.158 47.0167 126.178 45.15C125.198 43.2367 123.844 41.7433 122.118 40.67C120.391 39.5967 118.431 39.06 116.238 39.06C114.044 39.06 112.061 39.62 110.288 40.74C108.561 41.8133 107.208 43.3067 106.228 45.22C105.248 47.0867 104.781 49.21 104.828 51.59C104.781 53.97 105.248 56.1167 106.228 58.03C107.208 59.8967 108.561 61.39 110.288 62.51C112.061 63.5833 114.044 64.12 116.238 64.12ZM142.784 70V33.25H150.064V44.8L149.364 42C149.877 40.2267 150.741 38.6167 151.954 37.17C153.214 35.7233 154.637 34.58 156.224 33.74C157.857 32.9 159.537 32.48 161.264 32.48C162.057 32.48 162.804 32.55 163.504 32.69C164.251 32.83 164.834 32.9933 165.254 33.18L163.364 41.02C162.804 40.7867 162.174 40.6 161.474 40.46C160.821 40.2733 160.167 40.18 159.514 40.18C158.254 40.18 157.041 40.4367 155.874 40.95C154.754 41.4167 153.751 42.0933 152.864 42.98C152.024 43.82 151.347 44.8233 150.834 45.99C150.321 47.11 150.064 48.3467 150.064 49.7V70H142.784ZM176.934 70V23.87H184.144V70H176.934ZM169.304 40.25V33.25H192.684V40.25H169.304ZM199.389 70V18.2H206.599V70H199.389ZM233.284 70.7C229.504 70.7 226.144 69.9067 223.204 68.32C220.31 66.6867 218.024 64.47 216.344 61.67C214.71 58.87 213.894 55.65 213.894 52.01C213.894 49.1167 214.36 46.48 215.294 44.1C216.227 41.72 217.51 39.6667 219.144 37.94C220.824 36.1667 222.807 34.8133 225.094 33.88C227.427 32.9 229.947 32.41 232.654 32.41C235.034 32.41 237.25 32.8767 239.304 33.81C241.357 34.6967 243.13 35.9333 244.624 37.52C246.164 39.1067 247.33 40.9967 248.124 43.19C248.964 45.3367 249.36 47.6933 249.314 50.26L249.244 53.34H219.214L217.604 47.6H243.014L241.964 48.79V47.11C241.824 45.57 241.31 44.1933 240.424 42.98C239.537 41.7667 238.417 40.81 237.064 40.11C235.71 39.41 234.24 39.06 232.654 39.06C230.134 39.06 228.01 39.55 226.284 40.53C224.557 41.4633 223.25 42.8633 222.364 44.73C221.477 46.55 221.034 48.8133 221.034 51.52C221.034 54.0867 221.57 56.3267 222.644 58.24C223.717 60.1067 225.234 61.5533 227.194 62.58C229.154 63.6067 231.417 64.12 233.984 64.12C235.804 64.12 237.484 63.8167 239.024 63.21C240.61 62.6033 242.314 61.5067 244.134 59.92L247.774 65.03C246.654 66.15 245.277 67.13 243.644 67.97C242.057 68.81 240.354 69.4867 238.534 70C236.76 70.4667 235.01 70.7 233.284 70.7ZM269.399 70.7C266.319 70.7 263.543 70.1633 261.069 69.09C258.596 68.0167 256.543 66.43 254.909 64.33L259.809 60.13C261.209 61.7633 262.726 62.9533 264.359 63.7C266.039 64.4 267.929 64.75 270.029 64.75C270.869 64.75 271.639 64.6567 272.339 64.47C273.086 64.2367 273.716 63.91 274.229 63.49C274.789 63.07 275.209 62.58 275.489 62.02C275.769 61.4133 275.909 60.76 275.909 60.06C275.909 58.8467 275.466 57.8667 274.579 57.12C274.113 56.7933 273.366 56.4433 272.339 56.07C271.359 55.65 270.076 55.23 268.489 54.81C265.783 54.11 263.566 53.3167 261.839 52.43C260.113 51.5433 258.783 50.54 257.849 49.42C257.149 48.5333 256.636 47.5767 256.309 46.55C255.983 45.4767 255.819 44.31 255.819 43.05C255.819 41.51 256.146 40.11 256.799 38.85C257.499 37.5433 258.433 36.4233 259.599 35.49C260.813 34.51 262.213 33.7633 263.799 33.25C265.433 32.7367 267.159 32.48 268.979 32.48C270.706 32.48 272.409 32.7133 274.089 33.18C275.816 33.6467 277.403 34.3233 278.849 35.21C280.296 36.0967 281.509 37.1467 282.489 38.36L278.359 42.91C277.473 42.0233 276.493 41.2533 275.419 40.6C274.393 39.9 273.343 39.3633 272.269 38.99C271.196 38.6167 270.216 38.43 269.329 38.43C268.349 38.43 267.463 38.5233 266.669 38.71C265.876 38.8967 265.199 39.1767 264.639 39.55C264.126 39.9233 263.729 40.39 263.449 40.95C263.169 41.51 263.029 42.14 263.029 42.84C263.076 43.4467 263.216 44.03 263.449 44.59C263.729 45.1033 264.103 45.5467 264.569 45.92C265.083 46.2933 265.853 46.69 266.879 47.11C267.906 47.53 269.213 47.9267 270.799 48.3C273.133 48.9067 275.046 49.5833 276.539 50.33C278.079 51.03 279.293 51.8467 280.179 52.78C281.113 53.6667 281.766 54.6933 282.139 55.86C282.513 57.0267 282.699 58.3333 282.699 59.78C282.699 61.88 282.093 63.77 280.879 65.45C279.713 67.0833 278.126 68.3667 276.119 69.3C274.113 70.2333 271.873 70.7 269.399 70.7ZM302.895 70.7C299.815 70.7 297.039 70.1633 294.565 69.09C292.092 68.0167 290.039 66.43 288.405 64.33L293.305 60.13C294.705 61.7633 296.222 62.9533 297.855 63.7C299.535 64.4 301.425 64.75 303.525 64.75C304.365 64.75 305.135 64.6567 305.835 64.47C306.582 64.2367 307.212 63.91 307.725 63.49C308.285 63.07 308.705 62.58 308.985 62.02C309.265 61.4133 309.405 60.76 309.405 60.06C309.405 58.8467 308.962 57.8667 308.075 57.12C307.609 56.7933 306.862 56.4433 305.835 56.07C304.855 55.65 303.572 55.23 301.985 54.81C299.279 54.11 297.062 53.3167 295.335 52.43C293.609 51.5433 292.279 50.54 291.345 49.42C290.645 48.5333 290.132 47.5767 289.805 46.55C289.479 45.4767 289.315 44.31 289.315 43.05C289.315 41.51 289.642 40.11 290.295 38.85C290.995 37.5433 291.929 36.4233 293.095 35.49C294.309 34.51 295.709 33.7633 297.295 33.25C298.929 32.7367 300.655 32.48 302.475 32.48C304.202 32.48 305.905 32.7133 307.585 33.18C309.312 33.6467 310.899 34.3233 312.345 35.21C313.792 36.0967 315.005 37.1467 315.985 38.36L311.855 42.91C310.969 42.0233 309.989 41.2533 308.915 40.6C307.889 39.9 306.839 39.3633 305.765 38.99C304.692 38.6167 303.712 38.43 302.825 38.43C301.845 38.43 300.959 38.5233 300.165 38.71C299.372 38.8967 298.695 39.1767 298.135 39.55C297.622 39.9233 297.225 40.39 296.945 40.95C296.665 41.51 296.525 42.14 296.525 42.84C296.572 43.4467 296.712 44.03 296.945 44.59C297.225 45.1033 297.599 45.5467 298.065 45.92C298.579 46.2933 299.349 46.69 300.375 47.11C301.402 47.53 302.709 47.9267 304.295 48.3C306.629 48.9067 308.542 49.5833 310.035 50.33C311.575 51.03 312.789 51.8467 313.675 52.78C314.609 53.6667 315.262 54.6933 315.635 55.86C316.009 57.0267 316.195 58.3333 316.195 59.78C316.195 61.88 315.589 63.77 314.375 65.45C313.209 67.0833 311.622 68.3667 309.615 69.3C307.609 70.2333 305.369 70.7 302.895 70.7Z" fill="white"/>
</svg>
