<svg width="17" height="18" viewBox="0 0 17 18" fill="none" xmlns="http://www.w3.org/2000/svg">
<path d="M10.2131 6.62365C10.2131 6.88471 10.4416 7.08045 10.6699 7.08045C10.931 7.08045 11.1267 6.85193 11.1267 6.62365C11.1267 5.90579 10.6374 4.60067 8.94053 4.37215V3.85002C8.94053 3.58896 8.74478 3.39322 8.48372 3.39322C8.22266 3.39322 8.02692 3.58896 8.02692 3.85002V4.37215C7.37439 4.43747 6.85226 4.66576 6.49333 5.05748C5.90612 5.6447 5.87331 6.42793 5.87331 6.59107C5.87331 6.75427 5.84076 7.57002 6.42798 8.22255C6.81947 8.64681 7.37412 8.90789 8.05946 8.97297L8.05969 11.7791C6.91754 11.5834 6.81971 10.6698 6.81971 10.4741C6.81971 10.213 6.59119 10.0172 6.36291 10.0172C6.10184 10.0172 5.9061 10.2458 5.9061 10.4741C5.9061 11.1919 6.39545 12.497 8.09228 12.7255V13.2477C8.09228 13.5087 8.28803 13.7045 8.54909 13.7045C8.81015 13.7045 9.00589 13.5087 9.00589 13.2477V12.7255C9.65842 12.6602 10.1806 12.4319 10.5395 12.0402C11.1267 11.453 11.1595 10.6698 11.1595 10.5066C11.1595 10.3434 11.192 9.52768 10.6048 8.87514C10.2133 8.45089 9.65868 8.18981 8.97335 8.12472V5.31858C10.1153 5.54687 10.1806 6.42793 10.2131 6.62365H10.2131ZM8.02692 8.0594C7.63543 7.99408 7.30907 7.86366 7.11329 7.63515C6.75436 7.24367 6.81968 6.68901 6.81968 6.68901V6.62369C6.81968 6.62369 6.81968 6.10156 7.17861 5.71006C7.37436 5.51432 7.66796 5.38367 8.05967 5.31857V8.0594L8.02692 8.0594ZM9.88692 9.49516C10.2459 9.88665 10.1805 10.4413 10.1805 10.4413V10.5066C10.1805 10.5066 10.1805 11.0288 9.8216 11.4203C9.62586 11.616 9.33225 11.7466 8.94054 11.8117V9.07091C9.3648 9.13624 9.6912 9.26666 9.88692 9.49517L9.88692 9.49516Z" fill="#283049"/>
<path d="M8.48369 17.0326C3.81778 17.0326 0 13.215 0 8.51632C0 3.81766 3.81766 0 8.48369 0C13.1498 0 17 3.81766 17 8.51632C17 13.215 13.1823 17.0326 8.48369 17.0326ZM8.48369 1.04415C4.37242 1.04415 1.04414 4.40499 1.04414 8.51632C1.04414 12.6276 4.40499 15.9885 8.51632 15.9885C12.6276 15.9885 15.9885 12.6276 15.9885 8.51632C15.9562 4.40505 12.5954 1.04415 8.48369 1.04415Z" fill="#283049"/>
</svg>
