<svg width="96" height="29" viewBox="0 0 96 29" fill="none" xmlns="http://www.w3.org/2000/svg">
<g clip-path="url(#clip0_4479_8279)">
<path d="M91.7273 0.472656H3.52797C1.57953 0.472656 0 2.05218 0 4.00063V25.1685C0 27.1169 1.57953 28.6964 3.52797 28.6964H91.7273C93.6758 28.6964 95.2553 27.1169 95.2553 25.1685V4.00063C95.2553 2.05218 93.6758 0.472656 91.7273 0.472656Z" fill="black"/>
<path d="M91.7273 1.03705C92.513 1.03796 93.2663 1.3505 93.8219 1.9061C94.3774 2.4617 94.6899 3.21498 94.6908 4.00069V25.1685C94.6899 25.9542 94.3774 26.7075 93.8218 27.2631C93.2663 27.8187 92.513 28.1313 91.7273 28.1322H3.52797C2.74226 28.1313 1.98899 27.8187 1.43341 27.2631C0.877843 26.7075 0.565344 25.9543 0.564476 25.1685V4.00069C0.565331 3.21497 0.877826 2.46168 1.4334 1.90608C1.98897 1.35048 2.74225 1.03794 3.52797 1.03705H91.7273ZM91.7273 0.472717H3.52797C2.59314 0.475454 1.69737 0.848028 1.03634 1.50906C0.375311 2.17009 0.00273637 3.06586 0 4.00069L0 25.1685C0.00273637 26.1034 0.375311 26.9991 1.03634 27.6602C1.69737 28.3212 2.59314 28.6938 3.52797 28.6965H91.7273C92.6622 28.6938 93.5579 28.3212 94.219 27.6602C94.88 26.9991 95.2526 26.1034 95.2553 25.1685V4.00069C95.2526 3.06586 94.88 2.17009 94.219 1.50906C93.5579 0.848028 92.6622 0.475454 91.7273 0.472717Z" fill="#1D1D1D"/>
<path d="M33.4584 7.70012C33.4712 7.95904 33.4312 8.21785 33.3408 8.46081C33.2504 8.70377 33.1115 8.92579 32.9326 9.11336C32.732 9.32134 32.4898 9.48464 32.2218 9.59258C31.9538 9.70051 31.6661 9.75065 31.3774 9.73971C31.0868 9.74232 30.7987 9.68681 30.5299 9.57646C30.2611 9.46611 30.0171 9.30314 29.8122 9.09714C29.6073 8.89113 29.4456 8.64624 29.3367 8.37686C29.2278 8.10749 29.1738 7.81905 29.178 7.52852C29.1738 7.23798 29.2278 6.94955 29.3367 6.68016C29.4457 6.41078 29.6073 6.16588 29.8122 5.95985C30.0171 5.75383 30.2611 5.59082 30.5299 5.48042C30.7987 5.37002 31.0868 5.31445 31.3774 5.31698C31.6761 5.31607 31.9718 5.37647 32.2463 5.49443C32.5012 5.59776 32.7281 5.75984 32.9085 5.96746L32.5364 6.33988C32.3946 6.17297 32.2163 6.04087 32.0154 5.95378C31.8144 5.86669 31.5961 5.82693 31.3774 5.83756C31.1572 5.83643 30.939 5.87974 30.7359 5.96491C30.5329 6.05009 30.3491 6.17537 30.1956 6.33325C30.0421 6.49113 29.922 6.67837 29.8426 6.88376C29.7632 7.08914 29.726 7.30844 29.7333 7.52852C29.7281 7.85817 29.8208 8.18196 29.9998 8.45882C30.1789 8.73569 30.4361 8.95316 30.7388 9.08365C31.0416 9.21415 31.3763 9.25181 31.7005 9.19184C32.0247 9.13187 32.3238 8.97697 32.5598 8.7468C32.777 8.51271 32.903 8.20837 32.9146 7.88922H31.3774V7.3807H33.4287C33.4481 7.48608 33.4581 7.59298 33.4584 7.70012Z" fill="white" stroke="white" stroke-width="0.14112" stroke-miterlimit="10"/>
<path d="M36.7099 5.93204H34.7819V7.27429H36.5205V7.78288H34.7819V9.12514H36.7099V9.64537H34.2383V5.4118H36.7099V5.93204Z" fill="white" stroke="white" stroke-width="0.14112" stroke-miterlimit="10"/>
<path d="M39.0041 9.64537H38.4598V5.93204H37.2773V5.4118H40.1866V5.93204H39.0041V9.64537Z" fill="white" stroke="white" stroke-width="0.14112" stroke-miterlimit="10"/>
<path d="M42.291 9.64537V5.4118H42.8347V9.64537H42.291Z" fill="white" stroke="white" stroke-width="0.14112" stroke-miterlimit="10"/>
<path d="M45.2482 9.64537H44.7039V5.93204H43.5215V5.4118H46.4307V5.93204H45.2482V9.64537Z" fill="white" stroke="white" stroke-width="0.14112" stroke-miterlimit="10"/>
<path d="M51.9393 9.09823C51.5272 9.50906 50.9691 9.73976 50.3872 9.73976C49.8053 9.73976 49.2472 9.50906 48.8351 9.09823C48.6312 8.89175 48.471 8.64639 48.3639 8.37674C48.2567 8.10708 48.2049 7.81864 48.2115 7.52856C48.2049 7.23848 48.2567 6.95004 48.3639 6.68039C48.471 6.41073 48.6312 6.16537 48.8351 5.9589C49.0388 5.75517 49.2806 5.59361 49.5468 5.48347C49.813 5.37332 50.0983 5.31676 50.3864 5.31702C50.6745 5.31727 50.9597 5.37434 51.2257 5.48496C51.4917 5.59557 51.7332 5.75756 51.9365 5.96165C52.1405 6.16758 52.3011 6.41239 52.4087 6.68155C52.5163 6.95072 52.5687 7.23875 52.5629 7.52856C52.5693 7.81862 52.5174 8.10701 52.4103 8.37664C52.3032 8.64627 52.143 8.89165 51.9393 9.09823ZM49.2368 8.74374C49.542 9.04841 49.9556 9.21953 50.3868 9.21953C50.8181 9.21953 51.2317 9.04841 51.5369 8.74374C51.6934 8.58351 51.8158 8.39322 51.8967 8.18436C51.9776 7.9755 52.0153 7.75241 52.0075 7.52856C52.0153 7.30472 51.9776 7.08163 51.8967 6.87277C51.8158 6.66391 51.6934 6.47361 51.5369 6.31339C51.2317 6.00872 50.8181 5.8376 50.3868 5.8376C49.9556 5.8376 49.542 6.00872 49.2368 6.31339C49.0805 6.47374 48.9583 6.66407 48.8775 6.87291C48.7968 7.08175 48.7591 7.30478 48.7669 7.52856C48.7591 7.75234 48.7968 7.97537 48.8775 8.18421C48.9583 8.39305 49.0805 8.58338 49.2368 8.74374Z" fill="white" stroke="white" stroke-width="0.14112" stroke-miterlimit="10"/>
<path d="M53.3262 9.64537V5.4118H53.9884L56.0459 8.70517H56.0693L56.0459 7.88929V5.4118H56.5903V9.64537H56.0225L53.8698 6.19247H53.8464L53.8698 7.00835V9.64537H53.3262Z" fill="white" stroke="white" stroke-width="0.14112" stroke-miterlimit="10"/>
<path d="M48.0766 15.8204C47.4836 15.8227 46.9045 16.0006 46.4125 16.3317C45.9204 16.6628 45.5376 17.1323 45.3122 17.6809C45.0868 18.2294 45.029 18.8325 45.146 19.4139C45.2631 19.9953 45.5498 20.5289 45.97 20.9475C46.3902 21.3661 46.9249 21.6507 47.5067 21.7656C48.0886 21.8805 48.6914 21.8204 49.2391 21.5929C49.7868 21.3654 50.2548 20.9808 50.5841 20.4875C50.9133 19.9942 51.089 19.4145 51.089 18.8214C51.0949 18.4247 51.0208 18.0309 50.8714 17.6635C50.7219 17.296 50.5 16.9623 50.219 16.6823C49.9379 16.4023 49.6034 16.1818 49.2354 16.0337C48.8673 15.8856 48.4733 15.8131 48.0766 15.8204ZM48.0766 20.6402C47.7114 20.6662 47.3468 20.5817 47.0303 20.3976C46.7137 20.2136 46.46 19.9384 46.302 19.6081C46.144 19.2778 46.0892 18.9076 46.1445 18.5456C46.1999 18.1837 46.363 17.8468 46.6125 17.5788C46.8621 17.3108 47.1865 17.1242 47.5436 17.0432C47.9007 16.9622 48.2739 16.9906 48.6146 17.1247C48.9553 17.2588 49.2478 17.4923 49.454 17.7949C49.6601 18.0976 49.7703 18.4552 49.7703 18.8214C49.7814 19.0527 49.7461 19.2839 49.6665 19.5014C49.5869 19.7189 49.4646 19.9182 49.3067 20.0877C49.1489 20.2572 48.9588 20.3934 48.7475 20.4883C48.5363 20.5831 48.3082 20.6348 48.0766 20.6402ZM41.5051 15.8204C40.9121 15.8227 40.333 16.0006 39.8409 16.3317C39.3489 16.6628 38.966 17.1323 38.7406 17.6808C38.5152 18.2294 38.4574 18.8324 38.5745 19.4138C38.6916 19.9952 38.9783 20.5289 39.3984 20.9475C39.8186 21.366 40.3533 21.6507 40.9352 21.7656C41.517 21.8805 42.1198 21.8204 42.6675 21.5929C43.2152 21.3654 43.6833 20.9808 44.0125 20.4875C44.3418 19.9942 44.5175 19.4145 44.5175 18.8214C44.5233 18.4247 44.4493 18.0309 44.2998 17.6635C44.1503 17.296 43.9285 16.9623 43.6475 16.6824C43.3664 16.4024 43.0319 16.1818 42.6639 16.0337C42.2958 15.8856 41.9018 15.8131 41.5051 15.8204ZM41.5051 20.6402C41.1399 20.6662 40.7753 20.5817 40.4588 20.3976C40.1423 20.2136 39.8885 19.9384 39.7305 19.6081C39.5725 19.2778 39.5177 18.9076 39.5731 18.5456C39.6284 18.1837 39.7915 17.8468 40.0411 17.5788C40.2906 17.3108 40.615 17.1242 40.9721 17.0432C41.3292 16.9622 41.7024 16.9906 42.0431 17.1247C42.3839 17.2588 42.6763 17.4923 42.8825 17.7949C43.0886 18.0976 43.1988 18.4552 43.1989 18.8214C43.2099 19.0527 43.1746 19.2839 43.095 19.5014C43.0154 19.7189 42.8931 19.9182 42.7353 20.0877C42.5774 20.2572 42.3873 20.3934 42.176 20.4883C41.9648 20.5831 41.7367 20.6348 41.5051 20.6402ZM33.688 16.7412V18.0143H36.7345C36.6906 18.6115 36.4462 19.1763 36.0411 19.6172C35.7358 19.9284 35.3686 20.1721 34.9633 20.3326C34.558 20.4932 34.1236 20.567 33.688 20.5493C32.7975 20.5372 31.9476 20.175 31.3222 19.541C30.6967 18.9071 30.3461 18.0523 30.3461 17.1618C30.3461 16.2712 30.6967 15.4165 31.3222 14.7825C31.9476 14.1485 32.7975 13.7863 33.688 13.7743C34.5433 13.7631 35.3685 14.0899 35.9843 14.6836L36.8823 13.7856C36.4622 13.3697 35.9632 13.0418 35.4147 12.8212C34.8662 12.6007 34.2791 12.4918 33.688 12.5011C33.0702 12.4921 32.4569 12.606 31.8835 12.8362C31.3102 13.0664 30.7883 13.4082 30.3483 13.8419C29.9082 14.2756 29.5588 14.7924 29.3203 15.3624C29.0818 15.9323 28.959 16.5439 28.959 17.1618C28.959 17.7796 29.0818 18.3912 29.3203 18.9612C29.5588 19.5311 29.9082 20.0479 30.3483 20.4816C30.7883 20.9153 31.3102 21.2571 31.8835 21.4873C32.4569 21.7175 33.0702 21.8314 33.688 21.8224C34.2916 21.8475 34.8936 21.7439 35.4541 21.5185C36.0147 21.2931 36.5208 20.9511 36.9391 20.5152C37.6817 19.7046 38.0775 18.6356 38.0418 17.5369C38.0447 17.2701 38.0218 17.0036 37.9735 16.7412H33.688ZM65.6573 17.7301C65.477 17.1866 65.1336 16.7117 64.674 16.37C64.2144 16.0284 63.6607 15.8365 63.0882 15.8204C62.7026 15.8228 62.3216 15.9034 61.968 16.0572C61.6144 16.2111 61.2957 16.435 61.0312 16.7155C60.7666 16.996 60.5617 17.3273 60.4287 17.6892C60.2958 18.0512 60.2377 18.4363 60.2578 18.8214C60.2491 19.2159 60.32 19.6082 60.4663 19.9747C60.6127 20.3413 60.8313 20.6745 61.1093 20.9547C61.3873 21.2348 61.7189 21.456 62.0843 21.6051C62.4497 21.7542 62.8414 21.8281 63.2361 21.8224C63.7304 21.8252 64.2177 21.7051 64.6542 21.4729C65.0907 21.2408 65.4627 20.9039 65.7368 20.4925L64.7138 19.8104C64.5605 20.065 64.3437 20.2753 64.0847 20.4207C63.8256 20.5662 63.5332 20.6418 63.2361 20.6402C62.9303 20.6519 62.6281 20.5715 62.3687 20.4093C62.1092 20.2471 61.9045 20.0108 61.781 19.7308L65.7938 18.0712L65.6573 17.7301ZM61.5651 18.7305C61.5509 18.5121 61.5805 18.293 61.6521 18.0862C61.7236 17.8793 61.8357 17.6888 61.9817 17.5258C62.1278 17.3628 62.3049 17.2306 62.5027 17.1368C62.7005 17.0431 62.915 16.9898 63.1337 16.9799C63.3614 16.965 63.5884 17.0173 63.7865 17.1305C63.9846 17.2437 64.145 17.4128 64.2477 17.6165L61.5651 18.7305ZM58.3025 21.6405H59.6212V12.8195H58.3025V21.6405ZM56.1427 16.4911H56.0973C55.8968 16.2733 55.6521 16.1008 55.3796 15.9851C55.1071 15.8695 54.8131 15.8133 54.5172 15.8204C53.7433 15.8534 53.0121 16.1839 52.4762 16.7431C51.9403 17.3023 51.6412 18.0469 51.6412 18.8214C51.6412 19.596 51.9403 20.3405 52.4762 20.8997C53.0121 21.4589 53.7433 21.7895 54.5172 21.8224C54.8143 21.8303 55.1095 21.7734 55.3824 21.6556C55.6553 21.5378 55.8992 21.362 56.0973 21.1404H56.1427V21.5724C56.1427 22.7205 55.5289 23.3343 54.5399 23.3343C54.2103 23.3264 53.8905 23.2206 53.6212 23.0303C53.352 22.84 53.1455 22.5738 53.0281 22.2658L51.8799 22.7432C52.0963 23.2701 52.4651 23.7203 52.939 24.0362C53.4129 24.3522 53.9703 24.5194 54.5399 24.5165C56.0859 24.5165 57.3932 23.6072 57.3932 21.3905V16.0023H56.1427V16.4911ZM54.6309 20.6402C54.1751 20.6016 53.7505 20.3932 53.441 20.0564C53.1315 19.7196 52.9598 19.2788 52.9598 18.8214C52.9598 18.364 53.1315 17.9233 53.441 17.5865C53.7505 17.2497 54.1751 17.0413 54.6309 17.0027C54.8576 17.0137 55.0798 17.0703 55.2842 17.1691C55.4887 17.2679 55.6711 17.4068 55.8206 17.5776C55.9702 17.7484 56.0839 17.9475 56.1548 18.1632C56.2258 18.3788 56.2526 18.6065 56.2337 18.8328C56.2514 19.0576 56.2236 19.2837 56.1519 19.4975C56.0803 19.7113 55.9662 19.9085 55.8166 20.0773C55.667 20.246 55.4848 20.3828 55.2811 20.4795C55.0774 20.5763 54.8562 20.6309 54.6309 20.6402ZM71.834 12.8196H68.6792V21.6405H69.9956V18.2985H71.834C72.2064 18.319 72.579 18.2632 72.9291 18.1348C73.2793 18.0063 73.5995 17.8079 73.8704 17.5515C74.1412 17.2951 74.3569 16.9862 74.5043 16.6436C74.6517 16.301 74.7278 15.932 74.7278 15.5591C74.7278 15.1861 74.6517 14.8171 74.5043 14.4745C74.3569 14.132 74.1412 13.8231 73.8704 13.5667C73.5995 13.3103 73.2793 13.1118 72.9291 12.9834C72.579 12.8549 72.2064 12.7992 71.834 12.8196ZM71.868 17.071H69.9956V14.0473H71.868C72.0692 14.0431 72.2692 14.0791 72.4563 14.1532C72.6433 14.2273 72.8137 14.338 72.9575 14.4788C73.1012 14.6196 73.2154 14.7877 73.2934 14.9732C73.3714 15.1587 73.4115 15.3579 73.4115 15.5591C73.4115 15.7603 73.3714 15.9595 73.2934 16.145C73.2154 16.3305 73.1012 16.4986 72.9575 16.6394C72.8137 16.7802 72.6433 16.8909 72.4563 16.965C72.2692 17.0391 72.0692 17.0751 71.868 17.071ZM80.0047 15.8042C79.5242 15.7761 79.0459 15.889 78.6286 16.1289C78.2113 16.3688 77.8732 16.7253 77.6556 17.1546L78.8245 17.6426C78.9404 17.4295 79.1159 17.2548 79.3295 17.1399C79.5432 17.025 79.7857 16.9749 80.0274 16.9957C80.3614 16.9631 80.6946 17.0643 80.9542 17.277C81.2137 17.4897 81.3783 17.7967 81.4119 18.1305V18.2214C80.9891 17.9967 80.5175 17.8798 80.0387 17.8809C78.7791 17.8809 77.4968 18.5732 77.4968 19.8669C77.509 20.1395 77.5759 20.4069 77.6934 20.6532C77.811 20.8995 77.9768 21.1197 78.1811 21.3007C78.3854 21.4817 78.6239 21.6198 78.8826 21.7069C79.1413 21.7939 79.4148 21.8281 79.6869 21.8074C80.0184 21.8269 80.3491 21.7572 80.6445 21.6055C80.9399 21.4538 81.1892 21.2257 81.3665 20.945H81.4119V21.6259H82.6829V18.2441C82.6829 16.678 81.514 15.8042 80.0047 15.8042ZM79.8458 20.6385C79.4146 20.6385 78.8131 20.423 78.8131 19.8895C78.8131 19.2087 79.5621 18.9476 80.209 18.9476C80.6292 18.9364 81.0446 19.0383 81.4119 19.2427C81.3635 19.6253 81.1783 19.9775 80.8904 20.2341C80.6025 20.4906 80.2314 20.6343 79.8458 20.6385ZM87.313 15.9971L85.8037 19.8214H85.7582L84.1922 15.9971H82.7737L85.1228 21.3421L83.7837 24.3154H85.1568L88.7769 15.9971H87.313ZM75.4541 21.6405H76.7704V12.8196H75.4541V21.6405Z" fill="white"/>
<path d="M7.36232 5.79146C7.13094 6.0681 7.01411 6.42275 7.03577 6.78275V22.3878C7.01405 22.7478 7.13089 23.1024 7.36232 23.379L7.41453 23.4299L16.1561 14.6884V14.4821L7.41453 5.74023L7.36232 5.79146Z" fill="url(#paint0_linear_4479_8279)"/>
<path d="M19.0699 17.6035L16.1562 14.6884V14.4821L19.0706 11.5677L19.1363 11.6052L22.5887 13.5668C23.5748 14.1271 23.5748 15.0438 22.5887 15.6044L19.1363 17.566L19.0699 17.6035Z" fill="url(#paint1_linear_4479_8279)"/>
<path d="M19.1372 17.5656L16.1571 14.5852L7.36328 23.379C7.56421 23.5562 7.82081 23.6575 8.08861 23.6654C8.3564 23.6733 8.61853 23.5873 8.82958 23.4223L19.1372 17.5656Z" fill="url(#paint2_linear_4479_8279)"/>
<path d="M19.1372 11.6048L8.82958 5.7481C8.61853 5.58306 8.3564 5.49704 8.08861 5.50496C7.82081 5.51287 7.56421 5.61421 7.36328 5.79143L16.1571 14.5853L19.1372 11.6048Z" fill="url(#paint3_linear_4479_8279)"/>
<path opacity="0.2" d="M19.0715 17.5L8.82958 23.3193C8.62666 23.4737 8.379 23.558 8.12397 23.5594C7.86895 23.5607 7.6204 23.4791 7.41585 23.3268L7.36328 23.3794L7.4155 23.4302L7.41585 23.4299C7.62037 23.5823 7.86893 23.664 8.12398 23.6626C8.37902 23.6612 8.62669 23.5769 8.82958 23.4223L19.1372 17.5656L19.0715 17.5Z" fill="#1D1D1D"/>
<path opacity="0.12" d="M7.3623 23.2762C7.13095 22.9995 7.01412 22.6449 7.03575 22.2849V22.388C7.01411 22.748 7.13094 23.1026 7.3623 23.3793L7.41487 23.3267L7.3623 23.2762Z" fill="#1D1D1D"/>
<path opacity="0.12" d="M22.5903 15.501L19.0723 17.5001L19.138 17.5657L22.5903 15.6041C22.7934 15.516 22.9691 15.375 23.0992 15.1959C23.2293 15.0167 23.309 14.806 23.33 14.5856C23.2863 14.7852 23.1967 14.9719 23.0683 15.1308C22.9399 15.2897 22.7763 15.4164 22.5903 15.501Z" fill="#1D1D1D"/>
<path opacity="0.25" d="M8.82996 5.85147L22.5899 13.6695C22.7759 13.754 22.9397 13.8808 23.0681 14.0398C23.1965 14.1988 23.286 14.3855 23.3296 14.5852C23.3087 14.3647 23.2291 14.1539 23.099 13.9747C22.9689 13.7955 22.7931 13.6545 22.5899 13.5664L8.82996 5.74838C7.84382 5.18807 7.03711 5.65348 7.03711 6.78299V6.88608C7.03711 5.75664 7.84382 5.29123 8.82996 5.85147Z" fill="white"/>
</g>
<defs>
<linearGradient id="paint0_linear_4479_8279" x1="15.3809" y1="6.61821" x2="3.53935" y2="18.4598" gradientUnits="userSpaceOnUse">
<stop stop-color="#00A0FF"/>
<stop offset="0.00657" stop-color="#00A1FF"/>
<stop offset="0.2601" stop-color="#00BEFF"/>
<stop offset="0.5122" stop-color="#00D2FF"/>
<stop offset="0.7604" stop-color="#00DFFF"/>
<stop offset="1" stop-color="#00E3FF"/>
</linearGradient>
<linearGradient id="paint1_linear_4479_8279" x1="23.8726" y1="14.5856" x2="6.79941" y2="14.5856" gradientUnits="userSpaceOnUse">
<stop stop-color="#FFE000"/>
<stop offset="0.4087" stop-color="#FFBD00"/>
<stop offset="0.7754" stop-color="#FFA500"/>
<stop offset="1" stop-color="#FF9C00"/>
</linearGradient>
<linearGradient id="paint2_linear_4479_8279" x1="17.5179" y1="16.2046" x2="1.45976" y2="32.2627" gradientUnits="userSpaceOnUse">
<stop stop-color="#FF3A44"/>
<stop offset="1" stop-color="#C31162"/>
</linearGradient>
<linearGradient id="paint3_linear_4479_8279" x1="5.14908" y1="0.596966" x2="12.3197" y2="7.76759" gradientUnits="userSpaceOnUse">
<stop stop-color="#32A071"/>
<stop offset="0.0685" stop-color="#2DA771"/>
<stop offset="0.4762" stop-color="#15CF74"/>
<stop offset="0.8009" stop-color="#06E775"/>
<stop offset="1" stop-color="#00F076"/>
</linearGradient>
<clipPath id="clip0_4479_8279">
<rect width="95.2553" height="28.2239" fill="white" transform="translate(0 0.472656)"/>
</clipPath>
</defs>
</svg>
