<svg width="12" height="15" viewBox="0 0 12 15" fill="none" xmlns="http://www.w3.org/2000/svg">
<path d="M6.00002 14.4408H1.33335C1.15654 14.4408 0.986974 14.3705 0.861949 14.2455C0.736925 14.1205 0.666687 13.9509 0.666687 13.7741V1.77409C0.666687 1.59728 0.736925 1.42771 0.861949 1.30268C0.986974 1.17766 1.15654 1.10742 1.33335 1.10742H10.6667C10.8435 1.10742 11.0131 1.17766 11.1381 1.30268C11.2631 1.42771 11.3334 1.59728 11.3334 1.77409V7.77409" stroke="#283049" stroke-linecap="round" stroke-linejoin="round"/>
<path d="M9.83337 14.4408V10.1074" stroke="#283049" stroke-width="0.8" stroke-linecap="round" stroke-linejoin="round"/>
<path d="M8.33337 11.2734L8.83337 10.7734L9.83337 9.77344L10.8334 10.7734L11.3334 11.2734" stroke="#283049" stroke-width="0.8" stroke-linecap="round" stroke-linejoin="round"/>
<path d="M3.33337 5.10742H8.66671" stroke="#283049" stroke-width="0.9375" stroke-linecap="round"/>
<path d="M3.33337 7.77344H6.00004" stroke="#283049" stroke-width="0.9375" stroke-linecap="round"/>
</svg>
