<svg width="40" height="41" viewBox="0 0 40 41" fill="none" xmlns="http://www.w3.org/2000/svg">
<circle cx="20" cy="20.7734" r="20" fill="#F2F2F0"/>
<path d="M14.7994 16.3738C14.717 16.3738 14.637 16.3802 14.5578 16.3922C14.7113 16.0308 14.9677 15.7225 15.2952 15.5058C15.6227 15.2892 16.0067 15.1737 16.3994 15.1738H23.5994C24.1298 15.1738 24.6385 15.3845 25.0136 15.7596C25.3887 16.1347 25.5994 16.6434 25.5994 17.1738V20.4538C25.3437 20.323 25.0757 20.2177 24.7994 20.1394V17.1738C24.7994 16.8556 24.673 16.5503 24.4479 16.3253C24.2229 16.1003 23.9177 15.9738 23.5994 15.9738H16.3994C15.989 15.9738 15.6266 16.1802 15.4098 16.4938C15.2162 16.4142 15.0088 16.3734 14.7994 16.3738Z" fill="#283049"/>
<path d="M19.3656 25.5738C19.4448 25.853 19.5496 26.1202 19.68 26.3738H16.4C15.8696 26.3738 15.3609 26.1631 14.9858 25.7881C14.6107 25.413 14.4 24.9043 14.4 24.3738V19.5234C14.6624 19.591 14.9376 19.591 15.2 19.5234V24.3738C15.2 24.6921 15.3265 24.9973 15.5515 25.2224C15.7765 25.4474 16.0818 25.5738 16.4 25.5738H19.3656Z" fill="#283049"/>
<path d="M19.68 22.3742C19.8264 22.0878 20.0032 21.8198 20.2056 21.5742H18C17.8939 21.5742 17.7921 21.6164 17.7171 21.6914C17.6421 21.7664 17.6 21.8681 17.6 21.9742C17.6 22.0803 17.6421 22.182 17.7171 22.2571C17.7921 22.3321 17.8939 22.3742 18 22.3742H19.68Z" fill="#283049"/>
<path d="M14.8 17.1738C14.5878 17.1738 14.3843 17.2581 14.2343 17.4081C14.0843 17.5582 14 17.7617 14 17.9738C14 18.186 14.0843 18.3895 14.2343 18.5395C14.3843 18.6895 14.5878 18.7738 14.8 18.7738C15.0122 18.7738 15.2157 18.6895 15.3657 18.5395C15.5157 18.3895 15.6 18.186 15.6 17.9738C15.6 17.7617 15.5157 17.5582 15.3657 17.4081C15.2157 17.2581 15.0122 17.1738 14.8 17.1738Z" fill="#283049"/>
<path d="M18 19.1738C17.8939 19.1738 17.7921 19.216 17.7171 19.291C17.6421 19.366 17.6 19.4677 17.6 19.5738C17.6 19.6799 17.6421 19.7817 17.7171 19.8567C17.7921 19.9317 17.8939 19.9738 18 19.9738H22C22.1061 19.9738 22.2078 19.9317 22.2828 19.8567C22.3578 19.7817 22.4 19.6799 22.4 19.5738C22.4 19.4677 22.3578 19.366 22.2828 19.291C22.2078 19.216 22.1061 19.1738 22 19.1738H18Z" fill="#283049"/>
<circle cx="23.6" cy="24.3734" r="3.25" stroke="#283049" stroke-width="0.7"/>
<line x1="22.4392" y1="24.3342" x2="24.9592" y2="24.3342" stroke="#283049" stroke-width="0.480002" stroke-linecap="round"/>
<line x1="23.7024" y1="23.0128" x2="23.7089" y2="25.5328" stroke="#283049" stroke-width="0.480002" stroke-linecap="round"/>
</svg>
