<svg width="24" height="26" viewBox="0 0 24 26" fill="none" xmlns="http://www.w3.org/2000/svg">
<path d="M21 13.9648H19C17.8954 13.9648 17 14.8603 17 15.9648V17.9648C17 19.0694 17.8954 19.9648 19 19.9648V19.9648C20.1046 19.9648 21 19.0694 21 17.9648V13.9648C21 8.99428 16.9706 4.96484 12 4.96484C7.02944 4.96484 3 8.99428 3 13.9648V17.9648C3 19.0694 3.89543 19.9648 5 19.9648V19.9648C6.10457 19.9648 7 19.0694 7 17.9648V15.9648C7 14.8603 6.10457 13.9648 5 13.9648H3" stroke="white" stroke-width="2"/>
<path d="M21 15.9648V19.9648C21 19.9648 21 22.9648 19 22.9648C17 22.9648 14 22.9648 14 22.9648" stroke="white" stroke-width="2" stroke-linejoin="round"/>
</svg>
