<svg width="24" height="24" viewBox="0 0 24 24" fill="none" xmlns="http://www.w3.org/2000/svg">
<circle cx="12" cy="12" r="12" fill="#EFEFED"/>
<path d="M15.4546 9.26253H14.3055C14.2037 8.7625 13.9418 8.30632 13.5636 7.93749H15.4546C15.7527 7.93749 16 7.72498 16 7.46874C16 7.2125 15.7527 7 15.4546 7H8.54545C8.24728 7 8 7.2125 8 7.46874C8 7.72498 8.24728 7.93749 8.54545 7.93749H11.1855C12.1454 7.93749 12.9527 8.49998 13.1927 9.26253H8.54548C8.24731 9.26253 8.00003 9.47504 8.00003 9.73128C8.00003 9.98752 8.24731 10.2 8.54548 10.2H13.1927C12.9527 10.9625 12.1454 11.5312 11.1855 11.5312H8.55274C8.48006 11.5312 8.41455 11.5437 8.34187 11.5687C8.20368 11.6125 8.09459 11.7063 8.0437 11.8188C7.9855 11.9312 7.9855 12.0624 8.0437 12.175C8.0728 12.2375 8.10908 12.2875 8.15997 12.3312L13.4327 16.8625C13.5418 16.9563 13.68 17 13.8182 17C13.9564 17 14.0946 16.9563 14.2037 16.8625C14.4145 16.6812 14.4145 16.3812 14.2037 16.2L9.86189 12.4688H11.1783C12.7491 12.4688 14.0437 11.4876 14.3054 10.2001H15.4545C15.7526 10.2001 15.9999 9.98761 15.9999 9.73137C15.9999 9.47513 15.7526 9.26262 15.4545 9.26262L15.4546 9.26253Z" fill="#283049"/>
</svg>
