<svg width="32" height="32" viewBox="0 0 32 32" fill="none" xmlns="http://www.w3.org/2000/svg">
<circle cx="16" cy="16.0001" r="16" transform="rotate(-180 16 16.0001)" fill="#27BDED"/>
<g clip-path="url(#clip0_767_14152)">
<path d="M16.0003 19.3335C17.8413 19.3335 19.3337 17.8412 19.3337 16.0002C19.3337 14.1593 17.8413 12.6669 16.0003 12.6669C14.1594 12.6669 12.667 14.1593 12.667 16.0002C12.667 17.8412 14.1594 19.3335 16.0003 19.3335Z" fill="white"/>
<path d="M12.9704 21.9403C11.8749 21.3821 10.9552 20.5318 10.3128 19.4835C9.67041 18.4353 9.33042 17.2297 9.33042 16.0003C9.33042 14.7708 9.67041 13.5653 10.3128 12.517C10.9552 11.4687 11.8749 10.6184 12.9704 10.0603C13.0484 10.0204 13.1177 9.96563 13.1745 9.899C13.2313 9.83236 13.2744 9.75519 13.3013 9.6719C13.3283 9.5886 13.3386 9.50081 13.3316 9.41354C13.3247 9.32627 13.3006 9.24123 13.2607 9.16327C13.2209 9.0853 13.1661 9.01595 13.0995 8.95917C13.0328 8.90239 12.9557 8.85928 12.8724 8.83232C12.7041 8.77788 12.5212 8.79248 12.3637 8.87293C11.0495 9.54288 9.94615 10.5631 9.17554 11.821C8.40492 13.0788 7.99707 14.5252 7.99707 16.0003C7.99707 17.4754 8.40492 18.9218 9.17554 20.1796C9.94615 21.4374 11.0495 22.4577 12.3637 23.1276C12.4576 23.1758 12.5616 23.2007 12.6671 23.2003C12.8169 23.2006 12.9625 23.1504 13.0803 23.0578C13.1982 22.9652 13.2814 22.8356 13.3165 22.6899C13.3516 22.5442 13.3366 22.3909 13.274 22.2548C13.2113 22.1187 13.1046 22.0076 12.9711 21.9396L12.9704 21.9403Z" fill="white"/>
<path d="M19.637 8.87293C19.4795 8.79248 19.2966 8.77788 19.1284 8.83232C18.9601 8.88677 18.8204 9.00582 18.74 9.16327C18.6595 9.32072 18.6449 9.50368 18.6994 9.6719C18.7538 9.84012 18.8729 9.97982 19.0303 10.0603C20.1258 10.6184 21.0455 11.4687 21.6879 12.517C22.3303 13.5653 22.6703 14.7708 22.6703 16.0003C22.6703 17.2297 22.3303 18.4353 21.6879 19.4835C21.0455 20.5318 20.1258 21.3821 19.0303 21.9403C18.8972 22.0085 18.7909 22.1194 18.7285 22.2554C18.6661 22.3913 18.6511 22.5442 18.6862 22.6896C18.7212 22.835 18.804 22.9645 18.9215 23.0571C19.0389 23.1497 19.1841 23.2001 19.3337 23.2003C19.439 23.2004 19.5428 23.1752 19.6363 23.1269C20.9505 22.457 22.0539 21.4367 22.8245 20.1789C23.5952 18.9211 24.003 17.4747 24.003 15.9996C24.003 14.5245 23.5952 13.0781 22.8245 11.8203C22.0539 10.5625 20.9505 9.54221 19.6363 8.87227L19.637 8.87293Z" fill="white"/>
</g>
<defs>
<clipPath id="clip0_767_14152">
<rect width="16" height="16" fill="white" transform="translate(8 8.00012)"/>
</clipPath>
</defs>
</svg>
