<svg width="167" height="139" viewBox="0 0 167 139" fill="none" xmlns="http://www.w3.org/2000/svg">
<path fill-rule="evenodd" clip-rule="evenodd" d="M72.661 134.66C65.162 138.417 56.3705 138.723 48.0515 137.653C31.9463 135.582 15.6824 127.774 7.67449 113.648C4.22031 107.555 2.47575 100.646 1.26033 93.7481C-0.362889 84.5359 -1.0186 74.6323 3.06039 66.2144C6.49908 59.1179 12.8806 53.9538 19.2384 49.2888C25.9018 44.3996 33.1202 39.646 41.3269 38.6689C65.0007 38.2 62.6025 47.0933 87.3261 32.9491C94.5134 28.8373 115.882 35.8953 123.102 38.2C130.322 40.5048 144.569 47.6152 154.231 56.0618C158.27 59.5925 161.995 63.6331 164.265 68.4936C167.663 75.7711 167.498 84.2488 165.913 92.1226C164.313 100.065 160.841 108.325 153.788 112.311C150.601 114.111 146.927 114.884 143.279 115.179C128.043 116.413 111.836 109.909 97.8934 116.175C88.3486 120.464 82.0168 129.973 72.661 134.66Z" fill="url(#paint0_linear_5314_2636)"/>
<path fill-rule="evenodd" clip-rule="evenodd" d="M15.5334 69.2887C18.3963 66.4687 21.0871 63.561 22.8979 61.027C25.3906 57.5388 29.0453 54.2222 33.376 53.5823C38.4263 52.8361 43.0644 56.3179 46.7356 59.8654C51.8073 64.7664 56.3589 70.2053 60.2893 76.0614C58.7127 76.2668 55.3153 78.6184 50.8003 78.5438C48.1426 78.4999 44.9674 76.1313 41.898 75.9732C39.7662 75.8633 37.4388 78.0948 35.2921 77.9247C31.5387 77.6271 28.028 74.8636 24.8618 74.3637C22.9755 74.0659 20.4299 75.9409 18.9799 75.5647C14.9952 74.5311 13.8143 70.982 15.5334 69.2887Z" fill="white"/>
<path fill-rule="evenodd" clip-rule="evenodd" d="M101.383 113.163C113.756 109.083 127.164 113.811 140.192 113.637C145.963 113.559 152.133 112.286 156.106 108.099C147.404 102.975 140.798 94.8262 135.986 85.947C131.175 77.0678 128.011 67.4078 124.874 57.8085C120.745 55.4546 115.432 59.4353 110.9 58.0037C108.585 57.2721 105.819 55.2848 104.158 57.0556C103.155 58.1245 101.287 57.4957 100.311 56.4017C99.3353 55.3077 98.7918 53.8534 97.6917 52.8846C96.5916 51.9159 94.5035 51.7939 93.9436 53.1486C92.9745 55.4938 91.953 57.9161 90.0949 59.6442C88.2368 61.3724 85.2909 62.2065 83.1146 60.9017C81.4145 59.8824 80.6121 57.899 79.6219 56.1819C78.6317 54.4648 78.2455 52.921 76.2764 53.1486C69.6251 67.1624 64.6594 80.9385 56.4769 94.117C52.9608 99.78 33.2882 121.367 21.8573 118.585C10.4264 115.803 11.2745 113.637 7.41425 110.216C11.4353 118.396 18.5388 124.833 26.6495 128.993C34.7602 133.154 43.8446 135.154 52.9314 135.877C56.517 136.162 60.1537 136.252 63.6832 135.558C78.1474 132.715 87.3835 117.779 101.383 113.163Z" fill="white"/>
<path fill-rule="evenodd" clip-rule="evenodd" d="M88.979 58.5027C90.2465 56.8651 91.0385 54.8951 92.3444 53.288C93.6504 51.6809 95.7711 50.4352 97.7467 51.0559C99.5852 51.6335 100.597 53.5517 101.416 55.2957C101.828 56.1714 103.079 56.2392 103.981 55.888C104.882 55.5369 105.693 54.902 106.655 54.7971C108.645 54.5799 110.144 56.6415 112.088 57.1161C114.982 57.8225 117.892 54.8692 120.752 55.7026C121.962 56.0553 123.01 57.0671 124.267 56.9807C121.848 51.1825 120.026 45.1446 117.487 39.3982C114.947 33.6518 111.598 28.1056 106.722 24.1437C106.221 23.7363 105.672 23.333 105.031 23.2513C104.39 23.1695 103.648 23.5334 103.536 24.1696C103.202 26.0608 102.868 27.9521 102.534 29.8433C102.369 30.7796 101.933 31.9551 100.982 31.9373C100.349 31.9255 99.8622 31.3045 99.775 30.677C99.6878 30.0495 99.8981 29.4231 100.105 28.8244C100.755 26.9487 101.404 25.073 102.053 23.1973C97.5987 24.8046 93.7376 27.7881 90.537 31.2783C87.3364 34.7685 84.748 38.7687 82.267 42.8023C80.1428 46.2559 78.085 49.7504 76.0951 53.2831C78.7635 52.9043 81.0877 55.0954 82.5975 57.328C83.5009 58.6639 84.5765 60.2554 86.1891 60.2495C87.3261 60.2453 88.2831 59.4018 88.979 58.5027Z" fill="white"/>
<path fill-rule="evenodd" clip-rule="evenodd" d="M106.238 18.1393C105.942 18.0444 105.633 17.9365 105.431 17.7003C105.142 17.3604 105.161 16.8636 105.196 16.4185C105.54 12.0199 105.885 7.62122 106.229 3.22257C106.269 2.71288 106.769 2.33708 107.275 2.26182C107.78 2.18656 108.289 2.3397 108.777 2.49105C111.927 3.46737 115.077 4.44369 118.227 5.42C118.996 5.65829 119.037 6.72542 118.875 7.51384C118.713 8.30225 118.592 9.31458 119.28 9.73184C123.874 12.5169 128.755 14.8272 133.822 16.6142C134.149 16.7297 134.173 17.2276 133.945 17.4889C133.716 17.7502 133.351 17.8345 133.011 17.9069C127.867 19.0045 122.834 20.619 118.012 22.7182C117.337 23.0119 116.456 23.2803 115.947 22.7492C115.584 22.3713 115.619 21.7805 115.588 21.2577C115.558 20.735 115.327 20.1091 114.808 20.0431C111.901 19.6736 109.028 19.0354 106.238 18.1393ZM117.03 9.21734C117.735 8.10142 117.233 6.41463 116.032 5.86607C113.186 4.56511 110.198 3.57275 107.138 2.91194C107.647 3.69644 107.62 4.69992 107.575 5.63373C107.403 9.21943 107.226 12.8382 106.289 16.3038C106.208 16.6034 106.594 16.7983 106.897 16.8661C109.61 17.4728 112.344 17.9885 115.092 18.4122C114.865 15.7639 114.639 13.1155 114.413 10.4672C114.388 10.1728 114.364 9.86536 114.476 9.59203C114.658 9.14919 115.162 8.90851 115.641 8.89491C116.119 8.88131 116.582 9.05054 117.03 9.21734ZM116.441 11.3048C116.657 14.4122 116.873 17.5196 117.089 20.627C117.108 20.8995 117.14 21.2001 117.341 21.3846C121.721 19.5663 126.259 18.1277 130.887 17.09C125.872 15.6502 121.642 11.7114 116.441 11.3048Z" fill="#FFB61D"/>
<path fill-rule="evenodd" clip-rule="evenodd" d="M72.6608 134.661C65.1618 138.418 56.3703 138.724 48.0514 137.654C31.9462 135.583 15.6823 127.775 7.67432 113.649C4.22014 107.556 2.47558 100.647 1.26016 93.7489C0.59335 89.9646 -0.701648 84.2968 1.6696 81.7243C2.19942 81.1495 17.0836 69.1629 22.8975 61.027C25.3902 57.5388 29.045 54.2222 33.3756 53.5823C38.4259 52.8361 43.0641 56.3179 46.7352 59.8654C51.8069 64.7664 56.3585 70.2053 60.2889 76.0614C55.9576 74.2214 52.8403 70.3971 49.9633 66.6732C47.0862 62.9492 44.1133 59.0526 39.9013 56.9538C35.6893 54.8551 29.84 55.2046 27.1044 59.0338C20.5842 68.1605 12.3363 76.0483 2.92796 82.1549C2.22032 82.6142 2.15635 83.6073 2.1696 84.4508C2.32254 94.1877 3.41114 105.276 11.2005 111.12C17.7064 116.002 27.1507 115.365 34.2773 111.445C41.4039 107.525 46.6159 100.895 51.0905 94.1027C64.2161 74.1789 72.739 51.4053 86.8469 32.1646C90.0901 27.7415 93.911 23.3182 99.1362 21.6508C102.623 20.5382 103.6 16.0893 103.536 12.4301C103.472 8.77093 103.126 4.61064 105.666 1.97656C105.131 8.06161 104.595 14.1467 104.06 20.2317C111.864 24.1062 116.422 32.3554 119.767 40.4004C124.735 52.3469 128.107 64.9213 133.337 76.7553C138.566 88.5894 145.99 99.9604 156.963 106.814C162.043 100.202 164.939 89.6155 164.939 83.5658C162.043 80.4087 157.928 75.47 153.114 73.2463C147.375 70.5954 141.08 75.2429 136.47 79.5681C139.018 75.69 142.077 71.6077 146.585 70.5094C150.224 69.6228 154.119 70.9452 157.139 73.1619C160.158 75.3785 162.46 78.4124 164.718 81.4016C167 82.1549 167.498 84.2496 165.912 92.1233C164.313 100.065 160.841 108.326 153.788 112.311C150.601 114.112 146.927 114.884 143.279 115.18C128.043 116.414 111.836 109.909 97.8932 116.175C88.3484 120.465 82.0166 129.973 72.6608 134.661ZM101.383 113.162C113.757 109.083 127.164 113.811 140.192 113.636C145.963 113.559 152.133 112.285 156.106 108.098C147.404 102.974 140.798 94.8257 135.986 85.9465C131.175 77.0673 128.011 67.4073 124.874 57.808C120.746 55.4541 115.432 59.4348 110.901 58.0032C108.585 57.2716 105.82 55.2843 104.158 57.0551C103.155 58.124 101.287 57.4952 100.311 56.4012C99.3355 55.3072 98.792 53.8529 97.6919 52.8842C96.5917 51.9155 94.5036 51.7934 93.9438 53.1481C92.9746 55.4933 91.9531 57.9156 90.095 59.6437C88.2369 61.3719 85.291 62.206 83.1147 60.9012C81.4147 59.8819 80.6123 57.8985 79.6221 56.1814C78.6319 54.4643 76.9918 52.7475 75.0227 52.9751C68.3714 66.9889 60.931 80.6281 52.7486 93.8066C49.2325 99.4695 45.5111 105.127 40.4751 109.494C35.4392 113.861 28.8629 116.849 22.2249 116.241C16.8683 115.751 12.0026 113.023 7.41439 110.215C11.4355 118.396 18.5389 124.832 26.6496 128.993C34.7603 133.153 43.8447 135.154 52.9315 135.876C56.5172 136.161 60.1539 136.251 63.6833 135.558C78.1475 132.715 87.3837 117.778 101.383 113.162ZM88.722 57.4753C89.9895 55.8377 90.7814 53.8677 92.0873 52.2606C93.3933 50.6535 95.514 49.4078 97.4896 50.0284C99.3281 50.6061 100.34 52.5243 101.159 54.2683C101.571 55.1439 102.822 55.2117 103.723 54.8606C104.625 54.5095 105.436 53.8746 106.397 53.7697C108.388 53.5525 109.887 55.614 111.831 56.0887C114.725 56.7951 117.634 53.8417 120.494 54.6751C121.705 55.0278 122.752 56.0397 124.01 55.9533C121.591 50.1551 119.783 44.4458 117.243 38.6994C114.703 32.953 109.187 22.7906 104.774 22.2238C100.311 21.6506 93.4805 26.7607 90.2799 30.2509C87.0793 33.7411 84.4909 37.7412 82.01 41.7749C79.8857 45.2285 77.8279 48.723 75.838 52.2557C78.5064 51.8768 80.8307 54.068 82.3405 56.3006C83.2438 57.6365 84.3194 59.228 85.932 59.2221C87.069 59.2179 88.026 58.3744 88.722 57.4753Z" fill="#00160A"/>
<path fill-rule="evenodd" clip-rule="evenodd" d="M69.0521 10.8754C66.2486 11.1599 63.9618 13.6212 62.8068 16.9521C62.5066 17.8179 61.5209 18.2178 59.7915 18.3844L59.6825 18.3945C55.8534 18.736 53.3115 19.7222 52.086 21.9767L52.0347 22.0731C51.935 22.2648 51.8496 22.4562 51.7247 22.7588L51.6441 22.9558C51.3549 23.6666 51.2069 23.9674 50.9594 24.2803C50.1886 25.2548 49.0286 25.5547 46.7074 25.6244L46.4495 25.6312C40.8882 25.755 36.9594 26.6 33.7768 28.8227C32.8664 29.4585 32.3243 30.0896 32.203 30.8985C32.0639 31.8257 32.6025 32.7856 33.4624 33.3127C34.1505 33.7344 34.9758 33.9009 36.0065 33.904C37.2605 33.9077 38.5145 33.6894 39.6935 33.2621L39.7918 33.2261C39.9693 33.1602 40.1378 33.0932 40.388 32.9894L40.918 32.7682C42.0053 32.3184 42.5329 32.1589 43.1944 32.1243C44.2151 32.0707 45.0206 32.3401 46.7358 33.1781L47.0965 33.3552C47.4699 33.5379 47.7393 33.6652 48.0035 33.781L48.0754 33.8123C50.9529 35.0552 53.8947 35.2631 58.6727 34.8988L59.6155 34.8227L61.7033 34.646C62.2515 34.6015 62.6438 34.5729 63.0959 34.5443L63.5321 34.5186C65.3932 34.4173 67.3799 34.4156 70.6241 34.4804L72.8554 34.5269C77.3273 34.6151 79.3433 34.5913 81.4926 34.3701C83.9896 34.1131 85.6158 32.3695 86.2825 29.7866C86.8229 27.6932 86.6264 25.2506 85.8735 24.09C84.3701 21.7725 82.1263 20.3767 80.0618 21.0199C79.3774 21.2331 78.5165 20.7305 78.0773 19.9061C77.8387 19.4582 77.7175 19.0543 77.5186 18.1492L77.4223 17.7111C77.3668 17.4635 77.3261 17.2979 77.2746 17.1117C76.5742 14.5772 74.6614 12.4129 72.2322 11.4063C71.1662 10.9646 70.0817 10.7709 69.0521 10.8754ZM71.936 12.1187C74.1085 13.0189 75.8341 14.945 76.4973 17.2005L76.5306 17.3174C76.5784 17.4903 76.6169 17.6471 76.6704 17.8855L76.7893 18.4263C76.9895 19.3244 77.1247 19.7598 77.3959 20.2689C77.9809 21.3668 79.1552 22.0671 80.2259 21.7749L80.29 21.7561C81.9462 21.2401 83.8885 22.4485 85.2258 24.5099C85.8469 25.4673 86.0259 27.6929 85.5351 29.5943C84.9422 31.8916 83.5505 33.3837 81.4126 33.6037L81.173 33.6276C79.2043 33.817 77.2461 33.8397 73.2075 33.7632L70.2588 33.7027C67.2175 33.6452 65.299 33.6507 63.488 33.7494L62.7776 33.7929C62.2706 33.8268 61.7871 33.8648 60.9973 33.9316L58.82 34.1145C54.1041 34.4862 51.2368 34.3081 48.5006 33.1565L48.38 33.1051C48.1514 33.0063 47.9229 32.9003 47.6232 32.7552L46.9465 32.4243C45.1979 31.5763 44.3209 31.2936 43.153 31.3549C42.3546 31.3968 41.7575 31.5829 40.519 32.0993L39.9712 32.3275C39.7545 32.4163 39.6032 32.475 39.4298 32.5378C38.3358 32.9343 37.1714 33.137 36.0077 33.1336C35.1056 33.1309 34.4103 32.9906 33.8641 32.6558C33.2511 32.2801 32.8747 31.6093 32.9641 31.0133C33.046 30.4679 33.4647 29.9804 34.2171 29.455C37.2057 27.3677 40.9419 26.5449 46.2496 26.4073L46.4656 26.4021C49.1885 26.3415 50.5666 26.0182 51.5629 24.7588C51.845 24.4021 52.0112 24.0824 52.2807 23.4324L52.4893 22.9256C52.5949 22.6747 52.6696 22.5153 52.7621 22.3452C53.7956 20.4439 56.0228 19.5363 59.4406 19.192L59.7498 19.1626C61.7976 18.98 63.0434 18.5051 63.5089 17.2742L63.534 17.205C64.601 14.1279 66.679 11.8912 69.1288 11.6426C69.9836 11.5559 70.8982 11.7087 71.8115 12.0684L71.936 12.1187Z" fill="#00160A"/>
<path fill-rule="evenodd" clip-rule="evenodd" d="M152.59 26.827L152.495 26.9221C152.422 26.9961 152.35 27.0729 152.262 27.1709L151.909 27.5678C151.573 27.9445 151.391 28.1239 151.153 28.3035C150.635 28.6945 150.015 28.8153 149.602 28.5843C149.436 28.4914 149.312 28.3696 149.074 28.0765L148.896 27.8577C148.804 27.7456 148.738 27.6719 148.657 27.5904C147.594 26.5185 145.736 26.4666 144.322 27.32C143.215 27.9878 142.419 29.0107 141.549 30.6382C141.193 31.303 140.411 31.7627 139.48 31.9033C139.028 31.9715 138.552 31.9766 137.944 31.9315L137.647 31.9067L136.712 31.8119C131.793 31.3267 126.762 32.0218 122.159 33.8227C121.432 34.1069 121.028 34.3615 120.772 34.8359C120.402 35.5195 120.777 36.5118 121.566 36.5555C135.06 37.3033 148.61 37.0478 162.066 35.792L162.919 35.7118L163.542 35.6691C163.6 35.6648 163.648 35.6608 163.708 35.6555L163.868 35.6396C165.095 35.5034 165.769 35.0962 165.769 34.0756C165.769 33.0896 165.294 32.82 164.094 32.6977L163.854 32.6725C163.389 32.6217 163.177 32.5837 162.89 32.4948C161.873 32.1795 160.661 31.5222 160.396 31.1939C160.005 30.7083 159.838 30.2513 159.601 29.1887L159.526 28.8526C159.275 27.7581 159.077 27.236 158.606 26.6504C157.231 24.9411 154.297 25.1503 152.59 26.827ZM158.005 27.1338C158.395 27.6192 158.562 28.0763 158.8 29.1371L158.875 29.4735C159.125 30.5697 159.324 31.0918 159.796 31.6777C160.178 32.1514 161.511 32.8747 162.662 33.2313L162.768 33.263C163.043 33.3423 163.274 33.3828 163.678 33.4286L164.209 33.4858C164.888 33.566 164.999 33.6626 164.999 34.0758C164.999 34.5786 164.635 34.7896 163.717 34.8807L163.483 34.9009L162.896 34.9408C162.868 34.9429 162.841 34.9451 162.815 34.9473L162.739 34.9542C149.076 36.2672 135.314 36.5456 121.609 35.7862C121.453 35.7775 121.324 35.4361 121.45 35.2027C121.592 34.9398 121.874 34.7618 122.439 34.5407C126.852 32.8145 131.669 32.1297 136.388 32.5558L136.965 32.6129L137.442 32.6618C137.554 32.6727 137.646 32.681 137.748 32.6895C138.475 32.7499 139.041 32.7493 139.595 32.6657C140.747 32.4916 141.745 31.9054 142.228 31.0021C143.039 29.4867 143.76 28.5591 144.72 27.9802C145.852 27.2971 147.321 27.3381 148.11 28.1336L148.156 28.1812C148.194 28.2217 148.232 28.2652 148.279 28.3214L148.427 28.5029C148.758 28.9139 148.934 29.094 149.225 29.2572C149.943 29.6589 150.878 29.4769 151.617 28.919C151.889 28.7141 152.088 28.5212 152.417 28.1556L152.828 27.6938C152.948 27.5617 153.032 27.473 153.13 27.3771C154.54 25.992 156.949 25.8204 158.005 27.1338Z" fill="#00160A"/>
<path fill-rule="evenodd" clip-rule="evenodd" d="M103.536 12.4301C103.472 8.77093 103.126 4.61064 105.667 1.97656C105.131 8.06161 104.596 14.1467 104.06 20.2317C104.93 20.6634 103.633 21.3856 102.847 21.4002C100.031 21.4522 103.6 16.0893 103.536 12.4301Z" fill="#FFB61D"/>
<defs>
<linearGradient id="paint0_linear_5314_2636" x1="83.5" y1="31.6875" x2="83.5" y2="138.19" gradientUnits="userSpaceOnUse">
<stop stop-color="#F08B32"/>
<stop offset="1" stop-color="#F08B32" stop-opacity="0"/>
</linearGradient>
</defs>
</svg>
