<svg width="18" height="17" viewBox="0 0 18 17" fill="none" xmlns="http://www.w3.org/2000/svg">
<path d="M17.3372 13.7839H1.22958C1.10272 13.7839 1 13.6639 1 13.5156V1.26832C1 1.12005 1.10272 1 1.22958 1H17.3375C17.4644 1 17.5671 1.12005 17.5671 1.26832V13.5156C17.567 13.664 17.4643 13.7841 17.3374 13.7841L17.3372 13.7839ZM1.45902 13.2473H17.1078L17.1079 1.53629H1.45915L1.45902 13.2473Z" fill="#283049" stroke="#283049" stroke-width="0.3"/>
<path d="M12.9036 16.1935H5.66254C5.53567 16.1935 5.43295 16.0734 5.43295 15.9252C5.43295 15.7769 5.53567 15.6569 5.66254 15.6569H12.9036C13.0305 15.6569 13.1332 15.7769 13.1332 15.9252C13.1331 16.0734 13.0304 16.1935 12.9035 16.1935H12.9036Z" fill="#283049" stroke="#283049" stroke-width="0.3"/>
<path d="M9.05377 13.5157H9.51281V16.112H9.05377V13.5157Z" fill="#283049" stroke="#283049" stroke-width="0.3"/>
<path d="M9.28319 10.6783C7.73275 10.6783 6.47147 9.20425 6.47147 7.3922C6.47147 5.58015 7.73275 4.10605 9.28319 4.10605C10.8336 4.10605 12.0949 5.58015 12.0949 7.3922C12.0949 9.20425 10.8336 10.6783 9.28319 10.6783ZM9.28319 4.64227C7.98582 4.64227 6.93051 5.8758 6.93051 7.39193C6.93051 8.9079 7.98582 10.1417 9.28319 10.1417C10.5806 10.1417 11.6359 8.90805 11.6359 7.39208C11.6359 5.87596 10.5806 4.64227 9.28319 4.64227Z" fill="#283049" stroke="#283049" stroke-width="0.3"/>
<path d="M9.37232 7.66035H8.45013C8.32327 7.66035 8.22055 7.54029 8.22055 7.39203C8.22055 7.24376 8.32327 7.12371 8.45013 7.12371H9.14285V5.54908C9.14285 5.40081 9.24557 5.28076 9.37243 5.28076C9.4993 5.28076 9.60202 5.40081 9.60202 5.54908L9.60189 7.39205C9.60189 7.54002 9.49917 7.66037 9.37231 7.66037L9.37232 7.66035Z" fill="#283049" stroke="#283049" stroke-width="0.3"/>
</svg>
