<svg width="52" height="52" viewBox="0 0 52 52" fill="none" xmlns="http://www.w3.org/2000/svg">
<circle cx="26" cy="26" r="26" fill="white"/>
<path d="M42.3461 22.6273C41.6803 18.578 39.6293 14.8944 36.5516 12.2208C33.474 9.54713 29.5657 8.05362 25.5102 8.00142C21.4547 7.94921 17.5101 9.34164 14.3663 11.9352C11.2225 14.5287 9.07957 18.1583 8.31225 22.1892C7.54493 26.2201 8.20208 30.3957 10.1688 33.9858C12.1355 37.5759 15.2865 40.352 19.0709 41.8286C22.8552 43.3052 27.032 43.3884 30.8708 42.0635C34.7096 40.7386 37.966 38.09 40.0706 34.5809L34.1585 30.9485C32.8957 33.054 30.9419 34.6431 28.6386 35.4381C26.3353 36.233 23.8293 36.1831 21.5586 35.2972C19.288 34.4112 17.3974 32.7456 16.2174 30.5915C15.0374 28.4374 14.6431 25.932 15.1035 23.5135C15.5639 21.095 16.8496 18.9172 18.7359 17.3611C20.6222 15.805 22.9889 14.9695 25.4222 15.0008C27.8555 15.0322 30.2005 15.9283 32.0471 17.5325C33.8937 19.1366 35.1243 21.3468 35.5238 23.7764L42.3461 22.6273Z" fill="url(#paint0_angular_3398_14279)"/>
<path fill-rule="evenodd" clip-rule="evenodd" d="M25.1709 21.7486L41.983 22.3516C42.3815 22.3659 42.4764 22.9217 42.1057 23.0704L26.6607 29.2696C26.3425 29.4242 25.9982 29.5374 25.6333 29.6013C23.5053 29.9738 21.4819 28.5299 21.1138 26.3762C20.7457 24.2225 22.1723 22.1745 24.3002 21.8019C24.4885 21.769 24.676 21.7502 24.8617 21.7449L24.8603 21.7374L25.0474 21.7441C25.0887 21.7449 25.1299 21.7464 25.1709 21.7486Z" fill="#2C3DF2"/>
<defs>
<radialGradient id="paint0_angular_3398_14279" cx="0" cy="0" r="1" gradientUnits="userSpaceOnUse" gradientTransform="translate(24.8766 25.4634) rotate(20.38) scale(27.6074 27.8614)">
<stop offset="0.302083" stop-color="#F22C2C"/>
<stop offset="0.526042" stop-color="#F2CA2C"/>
<stop offset="0.916667" stop-color="#57DD35"/>
<stop offset="1" stop-color="#F22C2C" stop-opacity="0"/>
</radialGradient>
</defs>
</svg>
