<svg width="24" height="24" viewBox="0 0 24 24" fill="none" xmlns="http://www.w3.org/2000/svg">
<circle cx="12" cy="12" r="12" fill="#EFEFED"/>
<path fill-rule="evenodd" clip-rule="evenodd" d="M17 7H8C7.44772 7 7 7.44772 7 8V15C7 15.5523 7.44772 16 8 16H17C17.5523 16 18 15.5523 18 15V8C18 7.44772 17.5523 7 17 7ZM8 15V8H17V15H8Z" fill="#283049"/>
<path d="M16.555 7.75011C16.7785 7.58787 17.0911 7.63749 17.2534 7.86095C17.4156 8.0844 17.366 8.39707 17.1425 8.55931L12.7723 12.6011C12.5959 12.7292 12.3568 12.7282 12.1814 12.5987L7.70588 8.37779C7.48377 8.21372 7.43672 7.90065 7.60079 7.67854C7.76486 7.45642 8.07793 7.40937 8.30004 7.57344L12.4811 11.5768L16.555 7.75011Z" fill="#283049"/>
</svg>
