<svg width="357" height="353" viewBox="0 0 357 353" fill="none" xmlns="http://www.w3.org/2000/svg">
<path d="M350.158 149.18C343.84 108.354 323.371 71.0485 292.33 43.7877C261.29 16.5268 221.654 1.04554 180.355 0.051072C139.055 -0.943392 98.7199 12.6122 66.4035 38.3475C34.0872 64.0828 11.8463 100.36 3.57036 140.834C-4.70555 181.308 1.51028 223.404 21.1308 259.759C40.7514 296.114 72.5278 324.414 110.903 339.711C149.278 355.008 191.81 356.328 231.059 343.439C270.309 330.551 303.779 304.275 325.616 269.206L265.815 231.97C252.713 253.011 232.632 268.776 209.082 276.509C185.532 284.243 160.013 283.451 136.988 274.273C113.963 265.094 94.8969 248.114 83.1245 226.301C71.3522 204.488 67.6227 179.231 72.5883 154.946C77.5538 130.662 90.8983 108.896 110.288 93.4545C129.678 78.0133 153.879 69.8798 178.659 70.4765C203.439 71.0732 230.376 77.0979 249 93.4545C267.624 109.811 276.75 135.458 280.541 159.954L350.158 149.18Z" fill="url(#paint0_angular_23367_53097)"/>
<path fill-rule="evenodd" clip-rule="evenodd" d="M173.514 138.414L347.145 145.045C350.392 145.169 351.152 149.645 348.129 150.835L188.36 213.685C185.133 215.224 181.642 216.347 177.942 216.977C156.388 220.644 135.942 206.144 132.274 184.59C128.606 163.036 143.106 142.589 164.66 138.921C166.567 138.597 168.465 138.415 170.344 138.367L170.33 138.292L172.19 138.363C172.633 138.373 173.074 138.389 173.514 138.414Z" fill="#333333"/>
<defs>
<radialGradient id="paint0_angular_23367_53097" cx="0" cy="0" r="1" gradientUnits="userSpaceOnUse" gradientTransform="translate(171.901 175.863) rotate(36.0563) scale(384.777 384.774)">
<stop offset="0.369792" stop-color="#F08B32"/>
<stop offset="0.744792" stop-color="#F08B32"/>
<stop offset="0.989583" stop-color="#F08B32" stop-opacity="0"/>
</radialGradient>
</defs>
</svg>
