<svg width="26" height="26" viewBox="0 0 26 26" fill="none" xmlns="http://www.w3.org/2000/svg">
<path d="M14.2972 18.2015H6.49872C6.15401 18.2015 5.82341 18.3385 5.57966 18.5822C5.33591 18.826 5.19898 19.1566 5.19898 19.5013C5.19898 19.846 5.33591 20.1766 5.57966 20.4203C5.82341 20.6641 6.15401 20.801 6.49872 20.801H14.2972C14.6419 20.801 14.9725 20.6641 15.2162 20.4203C15.46 20.1766 15.5969 19.846 15.5969 19.5013C15.5969 19.1566 15.46 18.826 15.2162 18.5822C14.9725 18.3385 14.6419 18.2015 14.2972 18.2015ZM9.0982 10.4031H11.6977C12.0424 10.4031 12.373 10.2662 12.6167 10.0224C12.8605 9.77866 12.9974 9.44807 12.9974 9.10336C12.9974 8.75864 12.8605 8.42805 12.6167 8.1843C12.373 7.94055 12.0424 7.80362 11.6977 7.80362H9.0982C8.75349 7.80362 8.42289 7.94055 8.17915 8.1843C7.9354 8.42805 7.79846 8.75864 7.79846 9.10336C7.79846 9.44807 7.9354 9.77866 8.17915 10.0224C8.42289 10.2662 8.75349 10.4031 9.0982 10.4031ZM24.6951 13.0026H20.7959V1.30491C20.7968 1.07588 20.7372 0.850679 20.623 0.652107C20.5089 0.453535 20.3444 0.288645 20.146 0.174132C19.9484 0.0600563 19.7243 0 19.4961 0C19.268 0 19.0438 0.0600563 18.8463 0.174132L14.947 2.40969L11.0478 0.174132C10.8502 0.0600563 10.6261 0 10.3979 0C10.1698 0 9.94566 0.0600563 9.74807 0.174132L5.84885 2.40969L1.94962 0.174132C1.75204 0.0600563 1.5279 0 1.29975 0C1.0716 0 0.847467 0.0600563 0.649881 0.174132C0.451535 0.288645 0.286969 0.453535 0.172848 0.652107C0.0587259 0.850679 -0.000899011 1.07588 1.02457e-05 1.30491V22.1008C1.02457e-05 23.1349 0.41082 24.1267 1.14207 24.8579C1.87331 25.5892 2.8651 26 3.89924 26H22.0956C23.1298 26 24.1215 25.5892 24.8528 24.8579C25.584 24.1267 25.9948 23.1349 25.9948 22.1008V14.3023C25.9948 13.9576 25.8579 13.627 25.6142 13.3833C25.3704 13.1395 25.0398 13.0026 24.6951 13.0026ZM3.89924 23.4005C3.55452 23.4005 3.22393 23.2636 2.98018 23.0198C2.73643 22.7761 2.59949 22.4455 2.59949 22.1008V3.55346L5.19898 5.03517C5.39958 5.13994 5.62253 5.19466 5.84885 5.19466C6.07516 5.19466 6.29812 5.13994 6.49872 5.03517L10.3979 2.79961L14.2972 5.03517C14.4978 5.13994 14.7207 5.19466 14.947 5.19466C15.1734 5.19466 15.3963 5.13994 15.5969 5.03517L18.1964 3.55346V22.1008C18.1999 22.5442 18.279 22.9837 18.4303 23.4005H3.89924ZM23.3954 22.1008C23.3954 22.4455 23.2584 22.7761 23.0147 23.0198C22.7709 23.2636 22.4403 23.4005 22.0956 23.4005C21.7509 23.4005 21.4203 23.2636 21.1766 23.0198C20.9328 22.7761 20.7959 22.4455 20.7959 22.1008V15.6021H23.3954V22.1008ZM14.2972 13.0026H6.49872C6.15401 13.0026 5.82341 13.1395 5.57966 13.3833C5.33591 13.627 5.19898 13.9576 5.19898 14.3023C5.19898 14.647 5.33591 14.9776 5.57966 15.2214C5.82341 15.4651 6.15401 15.6021 6.49872 15.6021H14.2972C14.6419 15.6021 14.9725 15.4651 15.2162 15.2214C15.46 14.9776 15.5969 14.647 15.5969 14.3023C15.5969 13.9576 15.46 13.627 15.2162 13.3833C14.9725 13.1395 14.6419 13.0026 14.2972 13.0026Z" fill="white"/>
</svg>
