<svg width="187" height="183" viewBox="0 0 187 183" fill="none" xmlns="http://www.w3.org/2000/svg">
<path fill-rule="evenodd" clip-rule="evenodd" d="M25.0938 1.91162C19.7526 4.15992 19.9806 12.1462 25.4378 13.964C27.5686 14.6736 28.1255 14.6449 29.9593 13.729C32.1267 12.6463 33.74 10.1868 33.74 7.96409C33.74 5.71273 31.9897 3.01257 29.9494 2.11495C27.6922 1.1227 27.0343 1.09461 25.0938 1.91162ZM29.5834 3.33253C32.0292 4.66369 32.8588 6.75079 32.013 9.4479C31.1027 12.3502 29.128 13.7161 26.5708 13.2112C21.7645 12.2616 20.7388 5.54847 25.0497 3.25254C26.9038 2.26517 27.6469 2.27799 29.5834 3.33253ZM48.6474 31.931C47.7703 32.6155 47.6543 34.7661 47.5214 52.8062L47.3729 72.9183L44.4723 68.4033C42.8769 65.9199 40.7885 63.4176 39.8313 62.8418C37.7591 61.5961 32.5797 60.6711 32.5797 61.5467C32.5797 61.8746 33.7759 62.3161 35.2379 62.5267C39.3388 63.1184 40.8627 64.4569 44.4166 70.5863L47.7001 76.2498L47.5365 110.649C47.3781 143.948 47.3358 145.102 46.2126 146.702C43.6665 150.332 39.0267 149.918 36.6418 145.848C35.5372 143.965 35.4618 142.925 35.5273 130.546L35.5981 117.265H41.3408C44.499 117.265 47.0828 117.011 47.0828 116.699C47.0828 115.988 37.3965 115.551 35.5958 116.181L34.2604 116.648L34.4356 130.958C34.5991 144.376 34.6862 145.375 35.8261 146.99C38.1321 150.255 37.7939 150.22 66.984 150.23L94.1367 150.239L97.9789 152.678C102.876 155.787 106.953 157.385 112.157 158.235C122.218 159.877 133.793 155.977 141.33 148.406L144.834 144.885L147.061 146.384C148.86 147.595 149.226 148.152 148.958 149.273C148.662 150.516 150 151.634 161.696 159.915C172.872 167.828 175.085 169.168 176.98 169.168C181.5 169.168 184.393 164.302 182.385 160.077C180.955 157.07 155.976 139.35 154.717 140.45C153.742 141.302 152.333 140.907 150.455 139.255L149.114 138.076L150.672 133.624C152.516 128.356 153.211 118.908 152.147 113.562C150.718 106.378 147.521 99.981 142.555 94.3669L139.855 91.3138L140.024 83.0705L140.194 74.8271L142.983 70.1106C146.212 64.6517 148.051 63.0604 151.746 62.5273C153.209 62.3161 154.406 61.8746 154.406 61.5467C154.406 60.8292 149.694 61.4807 147.593 62.4883C146.801 62.8681 144.812 65.2501 143.173 67.7817L140.193 72.3846L140.044 52.5394C139.911 34.7508 139.795 32.6149 138.918 31.931C137.492 30.8172 50.0739 30.8172 48.6474 31.931ZM138.603 61.5461C138.686 77.4149 138.653 90.3979 138.528 90.3979C138.404 90.3979 136.77 89.4264 134.897 88.2387C125.054 81.9982 112.129 81.5622 101.15 87.0993C95.3979 90.001 88.1695 97.3633 85.4087 103.133C78.764 117.02 80.5896 134.534 89.8066 145.324C91.196 146.951 92.3325 148.447 92.3325 148.649C92.3325 148.852 82.0208 149.018 69.4176 149.018C56.8144 149.018 46.5027 148.87 46.5027 148.691C46.5027 148.511 46.9598 147.63 47.5179 146.733C48.4635 145.215 48.5424 141.281 48.6724 89.5088C48.7489 58.9326 48.9369 33.5705 49.0906 33.1485C49.3117 32.5397 58.5855 32.414 93.911 32.5379L138.452 32.6942L138.603 61.5461ZM79.2037 58.9387C78.507 60.8506 75.0465 62.4388 72.1604 62.1701C70.6521 62.0303 68.9605 61.6999 68.4024 61.4362C67.8054 61.1547 67.3872 61.2114 67.3872 61.5735C67.3872 63.1874 73.9124 64.1217 76.2724 62.8455C77.8422 61.9961 80.73 59.2019 80.73 58.5314C80.73 57.676 79.5495 57.991 79.2037 58.9387ZM108.576 58.5302C108.576 59.4871 111.08 61.8416 112.991 62.6818C114.052 63.1489 115.908 63.5208 117.114 63.5092C119.424 63.486 122.458 62.1213 121.534 61.5204C121.237 61.3269 120.614 61.4209 120.151 61.7299C119.068 62.4504 115.43 62.4681 113.663 61.761C112.909 61.4594 111.652 60.5025 110.869 59.6342C109.429 58.0368 108.576 57.6265 108.576 58.5302ZM77.475 64.4038C76.8971 65.9883 77.7064 67.2975 79.1324 67.0844C80.0907 66.9409 80.44 66.4817 80.44 65.3624C80.44 64.2432 80.0907 63.784 79.1324 63.6405C78.3475 63.5233 77.6844 63.8286 77.475 64.4038ZM108.802 64.4038C108.224 65.9883 109.033 67.2975 110.459 67.0844C111.417 66.9409 111.767 66.4817 111.767 65.3624C111.767 64.2432 111.417 63.784 110.459 63.6405C109.674 63.5233 109.011 63.8286 108.802 64.4038ZM178.705 70.3189C176.532 71.1579 175.027 74.3831 175.52 77.1468C176.617 83.3007 185.554 83.3703 186.647 77.2329C187.182 74.236 185.958 71.5059 183.621 70.4776C181.444 69.5202 180.825 69.5 178.705 70.3189ZM184.203 72.4676C186.17 74.5382 186.211 77.1267 184.308 79.1289C180.521 83.1156 174.526 78.227 177.068 73.226C178.412 70.5833 182.046 70.1973 184.203 72.4676ZM127.687 86.1486C138.59 90.153 146.678 98.8025 150.061 110.074C152.76 119.068 151.76 130.366 147.586 138.026C143.92 144.754 138.444 150.347 132.32 153.617C126.312 156.826 116.9 157.944 109.345 156.347C97.4968 153.841 86.558 142.544 83.329 129.478C82.0382 124.256 82.4095 114.173 84.0704 109.327C88.05 97.718 97.2409 88.7413 108.573 85.3969C113.714 83.8789 122.444 84.2227 127.687 86.1486ZM111.767 90.9926C102.816 93.0767 95.1826 99.1316 91.4896 107.077C81.4975 128.574 98.4499 153.569 120.763 150.238C138.456 147.597 149.756 128.575 144.033 111.067C142.376 105.995 141.384 104.266 137.79 100.18C134.117 96.004 131.275 94.0451 126.223 92.2072C122.322 90.7875 115.213 90.1903 111.767 90.9926ZM122.499 92.2536C140.002 96.3063 149.482 116.581 141.557 133.014C138.07 140.245 132.721 145.227 125.643 147.835C122.779 148.89 121.15 149.065 115.828 148.885C110.012 148.688 109.095 148.49 105.481 146.65C97.408 142.539 91.4211 134.079 89.9499 124.703C86.9542 105.61 104.526 88.0916 122.499 92.2536ZM150.897 140.988L153.181 142.729L151.744 144.953L150.308 147.178L148.006 145.574C146.74 144.692 145.704 143.866 145.704 143.737C145.704 143.432 148.27 139.265 148.465 139.255C148.547 139.251 149.642 140.031 150.897 140.988ZM157.372 142.668C158.345 143.595 158.258 143.866 155.719 147.821C153.479 151.309 152.869 151.901 152.014 151.42C151.451 151.102 150.833 150.577 150.643 150.252C150.252 149.586 154.984 141.775 155.81 141.724C156.104 141.705 156.807 142.13 157.372 142.668ZM170.522 151.918C178.39 157.473 180.862 159.534 181.465 161.048C182.394 163.381 181.807 165.518 179.839 166.969C177.19 168.922 175.649 168.276 165.231 160.851C159.756 156.948 155.041 153.527 154.754 153.248C154.164 152.677 158.844 144.743 159.771 144.743C160.094 144.743 164.933 147.972 170.522 151.918ZM17.3515 151.809C17.1125 152.065 16.9164 153.327 16.9164 154.615C16.9164 156.938 16.8996 156.956 14.5959 156.956C13.3196 156.956 12.2754 157.23 12.2754 157.566C12.2754 157.902 13.3196 158.177 14.5959 158.177H16.9164V160.619C16.9164 161.963 17.1774 163.062 17.4965 163.062C17.8156 163.062 18.0766 161.963 18.0766 160.619V158.177H20.3971C23.3331 158.177 23.4509 157.093 20.5422 156.84C18.4421 156.657 18.3568 156.559 18.0766 153.997C17.9171 152.538 17.5905 151.553 17.3515 151.809Z" fill="#F08B32"/>
<g clip-path="url(#clip0_4474_8709)">
<path d="M117.083 132.299C116.126 132.299 115.311 132.601 114.636 133.206C113.96 133.81 113.622 134.545 113.622 135.406C113.622 136.381 113.964 137.145 114.646 137.702C115.331 138.258 116.126 138.536 117.037 138.536C117.964 138.536 118.772 138.262 119.463 137.712C120.155 137.163 120.498 136.395 120.498 135.407C120.498 134.545 120.169 133.811 119.509 133.206C118.848 132.601 118.04 132.299 117.083 132.299ZM126.843 110.888C125.966 109.554 124.71 108.485 123.107 107.713C121.515 106.946 119.661 106.559 117.592 106.559C115.366 106.559 113.386 107.024 111.708 107.943C110.026 108.861 108.729 110.04 107.849 111.449C106.963 112.863 106.517 114.285 106.517 115.676C106.517 116.42 106.824 117.113 107.431 117.736C108.041 118.362 108.8 118.68 109.687 118.68C111.195 118.68 112.229 117.791 112.754 116.052C113.232 114.61 113.821 113.512 114.502 112.784C115.144 112.099 116.184 111.753 117.593 111.753C118.808 111.753 119.767 112.093 120.527 112.794C121.277 113.488 121.641 114.315 121.641 115.321C121.645 115.808 121.523 116.288 121.285 116.713C121.032 117.167 120.717 117.584 120.35 117.951C119.96 118.341 119.318 118.928 118.439 119.696C117.416 120.592 116.591 121.38 115.988 122.03C115.35 122.726 114.838 123.527 114.474 124.398C114.094 125.299 113.902 126.372 113.902 127.588C113.902 128.628 114.192 129.432 114.765 129.981C115.331 130.525 116.037 130.801 116.864 130.801C118.444 130.801 119.437 129.938 119.732 128.322C119.885 127.65 119.996 127.181 120.071 126.913C120.14 126.67 120.239 126.421 120.366 126.172C120.489 125.932 120.685 125.657 120.947 125.356C121.222 125.041 121.595 124.668 122.05 124.253C123.753 122.732 124.954 121.629 125.62 120.977C126.307 120.303 126.907 119.496 127.404 118.576C127.911 117.632 128.169 116.524 128.169 115.281C128.168 113.705 127.722 112.229 126.84 110.889" fill="#FF9147" fill-opacity="0.4"/>
</g>
<line x1="52.2324" y1="170.5" x2="146.807" y2="170.5" stroke="#FF9147" stroke-opacity="0.4" stroke-width="2.66406" stroke-linecap="round"/>
<line x1="72.2129" y1="181.156" x2="126.826" y2="181.156" stroke="#FF9147" stroke-opacity="0.4" stroke-width="2.66406" stroke-linecap="round"/>
<circle cx="6.27734" cy="95.2404" r="5.53305" stroke="#FF9147" stroke-opacity="0.4" stroke-width="0.922176"/>
<circle cx="107.516" cy="5.99414" r="5.53305" stroke="#FF9147" stroke-opacity="0.4" stroke-width="0.922176"/>
<circle cx="31.5859" cy="52.6113" r="5.99414" fill="#F08B32" fill-opacity="0.36"/>
<circle cx="16.9336" cy="100.572" r="3.33008" fill="#F08B32" fill-opacity="0.36"/>
<circle cx="126.826" cy="15.9883" r="3.99609" fill="#F08B32" fill-opacity="0.36"/>
<defs>
<clipPath id="clip0_4474_8709">
<rect width="31.9688" height="31.9688" fill="white" transform="translate(101.521 106.559)"/>
</clipPath>
</defs>
</svg>
