<svg width="88" height="98" viewBox="0 0 88 98" fill="none" xmlns="http://www.w3.org/2000/svg">
<path d="M58.4611 65.3334L57.6303 64.5219L56.9917 65.1757L57.4771 65.9501L58.4611 65.3334ZM130.303 72.9249L131.134 73.7364L131.772 73.0826L131.287 72.3082L130.303 72.9249ZM59.2919 66.1448C60.5718 64.8342 61.9463 63.5871 63.4143 62.4129L61.9636 60.5991C60.4212 61.8328 58.9764 63.1437 57.6303 64.5219L59.2919 66.1448ZM63.4143 62.4129C82.7434 46.9527 110.909 50.0514 126.325 69.3254L128.139 67.8746C111.918 47.5946 82.29 44.3412 61.9636 60.5991L63.4143 62.4129ZM126.325 69.3254C127.416 70.6893 128.414 72.0973 129.319 73.5417L131.287 72.3082C130.335 70.7886 129.286 69.3081 128.139 67.8746L126.325 69.3254ZM129.472 72.1135C128.192 73.4241 126.818 74.6712 125.35 75.8454L126.801 77.6592C128.343 76.4255 129.788 75.1146 131.134 73.7364L129.472 72.1135ZM125.35 75.8454C106.021 91.3056 77.8551 88.2069 62.4389 68.9329L60.6251 70.3837C76.846 90.6637 106.474 93.9171 126.801 77.6592L125.35 75.8454ZM62.4389 68.9329C61.348 67.569 60.3504 66.161 59.4451 64.7166L57.4771 65.9501C58.4295 67.4697 59.4786 68.9502 60.6251 70.3837L62.4389 68.9329Z" fill="url(#paint0_linear_8294_9650)"/>
<path d="M2.16577 58.8594L1.33597 58.0469L0.702702 58.6937L1.17535 59.4657L2.16577 58.8594ZM74.2213 66.9004L75.0511 67.7128L75.6844 67.066L75.2118 66.294L74.2213 66.9004ZM2.99557 59.6718C4.2645 58.3758 5.62603 57.1419 7.07926 55.9796L5.62852 54.1658C4.10173 55.387 2.67048 56.6839 1.33597 58.0469L2.99557 59.6718ZM7.07926 55.9796C26.4083 40.5193 54.5741 43.6181 69.9903 62.8921L71.8041 61.4413C55.5831 41.1612 25.9549 37.9078 5.62852 54.1658L7.07926 55.9796ZM69.9903 62.8921C71.1812 64.3811 72.261 65.9226 73.2309 67.5068L75.2118 66.294C74.1913 64.6273 73.0558 63.0063 71.8041 61.4413L69.9903 62.8921ZM73.3915 66.088C72.1226 67.384 70.7611 68.6178 69.3078 69.7802L70.7586 71.594C72.2854 70.3728 73.7166 69.0759 75.0511 67.7128L73.3915 66.088ZM69.3078 69.7802C49.9788 85.2404 21.813 82.1417 6.39684 62.8677L4.58306 64.3185C20.804 84.5985 50.4322 87.8519 70.7586 71.594L69.3078 69.7802ZM6.39684 62.8677C5.20586 61.3787 4.12607 59.8372 3.15619 58.253L1.17535 59.4657C2.19576 61.1324 3.33133 62.7535 4.58306 64.3185L6.39684 62.8677Z" fill="url(#paint1_linear_8294_9650)"/>
<path d="M73.4049 1.87951L74.214 1.0465L73.5647 0.415792L72.7946 0.891497L73.4049 1.87951ZM65.4194 73.941L64.6103 74.774L65.2596 75.4047L66.0297 74.929L65.4194 73.941ZM76.3857 6.8878C91.8019 26.1618 88.637 54.3202 69.308 69.7804L70.7587 71.5942C91.0851 55.3362 94.4204 25.7171 78.1995 5.43706L76.3857 6.8878ZM72.5957 2.71251C73.9281 4.00673 75.1947 5.3988 76.3857 6.8878L78.1995 5.43706C76.9478 3.8721 75.6158 2.40815 74.214 1.0465L72.5957 2.71251ZM69.5163 6.04008C70.9694 4.87779 72.4721 3.82066 74.0151 2.86752L72.7946 0.891497C71.1718 1.89389 69.5922 3.00519 68.0655 4.22629L69.5163 6.04008ZM62.4386 68.9327C47.0224 49.6587 50.1872 21.5003 69.5163 6.04008L68.0655 4.22629C47.7391 20.4843 44.4039 50.1034 60.6248 70.3834L62.4386 68.9327ZM66.2285 73.108C64.8962 71.8138 63.6295 70.4217 62.4386 68.9327L60.6248 70.3834C61.8765 71.9484 63.2085 73.4124 64.6103 74.774L66.2285 73.108ZM69.308 69.7804C67.8548 70.9427 66.3522 71.9998 64.8091 72.953L66.0297 74.929C67.6525 73.9266 69.232 72.8153 70.7587 71.5942L69.308 69.7804Z" fill="url(#paint2_linear_8294_9650)"/>
<path d="M67.3535 58.2212L68.1713 57.3968L67.5225 56.7532L66.7444 57.2324L67.3535 58.2212ZM58.9757 129.976L58.1578 130.801L58.8066 131.444L59.5847 130.965L58.9757 129.976ZM69.9912 62.8927C85.4074 82.1666 82.2425 110.325 62.9135 125.785L64.3642 127.599C84.6906 111.341 88.0259 81.722 71.805 61.4419L69.9912 62.8927ZM66.5356 59.0457C67.7459 60.2462 68.9003 61.5288 69.9912 62.8927L71.805 61.4419C70.6584 60.0085 69.4445 58.6597 68.1713 57.3968L66.5356 59.0457ZM63.4157 62.4121C64.8839 61.2378 66.4026 60.1708 67.9625 59.21L66.7444 57.2324C65.1039 58.243 63.5074 59.3646 61.9649 60.5984L63.4157 62.4121ZM56.338 125.305C40.9218 106.031 44.0866 77.8724 63.4157 62.4121L61.9649 60.5984C41.6386 76.8563 38.3033 106.475 54.5242 126.756L56.338 125.305ZM59.7935 129.152C58.5833 127.951 57.4289 126.669 56.338 125.305L54.5242 126.756C55.6707 128.189 56.8846 129.538 58.1578 130.801L59.7935 129.152ZM62.9135 125.785C61.4453 126.96 59.9265 128.027 58.3666 128.987L59.5847 130.965C61.2252 129.955 62.8217 128.833 64.3642 127.599L62.9135 125.785Z" fill="url(#paint3_linear_8294_9650)"/>
<defs>
<linearGradient id="paint0_linear_8294_9650" x1="78.2985" y1="49.0208" x2="110.466" y2="89.2375" gradientUnits="userSpaceOnUse">
<stop stop-color="#D9D9D9" stop-opacity="0.23"/>
<stop offset="1" stop-color="#D9D9D9" stop-opacity="0.26"/>
</linearGradient>
<linearGradient id="paint1_linear_8294_9650" x1="21.963" y1="42.5878" x2="54.4241" y2="83.172" gradientUnits="userSpaceOnUse">
<stop stop-color="#D9D9D9" stop-opacity="0.23"/>
<stop offset="1" stop-color="#D9D9D9" stop-opacity="0.26"/>
</linearGradient>
<linearGradient id="paint2_linear_8294_9650" x1="53.1816" y1="17.6182" x2="85.6426" y2="58.2023" gradientUnits="userSpaceOnUse">
<stop stop-color="#D9D9D9" stop-opacity="0.23"/>
<stop offset="1" stop-color="#D9D9D9" stop-opacity="0.26"/>
</linearGradient>
<linearGradient id="paint3_linear_8294_9650" x1="47.081" y1="73.9903" x2="79.2482" y2="114.207" gradientUnits="userSpaceOnUse">
<stop stop-color="#D9D9D9" stop-opacity="0.23"/>
<stop offset="1" stop-color="#D9D9D9" stop-opacity="0.26"/>
</linearGradient>
</defs>
</svg>
