<svg width="26" height="25" viewBox="0 0 26 25" fill="none" xmlns="http://www.w3.org/2000/svg">
<path d="M19.1303 18.7769C22.536 15.3712 22.536 9.85243 19.1303 6.44672C15.7246 3.041 10.2059 3.041 6.80015 6.44672C3.39444 9.85243 3.39444 15.3712 6.80015 18.7769C10.2059 22.1826 15.7246 22.1826 19.1303 18.7769ZM16.2467 14.5011C16.719 14.4762 17.1167 14.874 17.1167 15.3215V15.8684C17.1416 16.3407 16.7438 16.7384 16.2715 16.7136H9.65896C9.2115 16.7136 8.83861 16.3407 8.83861 15.8932V9.28067C8.83861 8.8332 9.2115 8.46032 9.68382 8.43546H10.2307C10.6782 8.43546 11.0759 8.8332 11.0511 9.30553L11.0014 12.9847L15.5506 8.43546C15.8738 8.11229 16.3958 8.08743 16.7438 8.43546L17.1416 8.8332C17.4648 9.15637 17.4648 9.70328 17.1416 10.0264L12.5923 14.5757L16.2467 14.5011Z" fill="#179B02"/>
</svg>
