<svg width="149" height="143" viewBox="0 0 149 143" fill="none" xmlns="http://www.w3.org/2000/svg">
<mask id="path-1-inside-1_7942_11634" fill="white">
<path fill-rule="evenodd" clip-rule="evenodd" d="M54.0736 44.5857C52.8319 45.206 52.1778 45.8513 51.493 47.1316L51.0726 47.9175L51.0222 73.152C50.9724 98.0188 50.9771 98.4014 51.3552 99.4115C51.7956 100.589 52.9201 101.849 54.0863 102.472L54.891 102.902H77.0303H99.1694L99.4518 102.399C99.7052 101.948 99.7006 101.845 99.4069 101.397L99.0799 100.897L77.7491 100.896C63.665 100.896 56.1772 100.828 55.7083 100.698C54.8509 100.46 53.944 99.7288 53.4999 98.9178C53.1977 98.3658 53.1727 97.0101 53.1727 81.2328V64.1456L93.9816 64.0974L134.79 64.0491V71.886V79.7228L135.259 80.1913C135.845 80.7769 136.027 80.7769 136.613 80.1913L137.082 79.7228V64.4054C137.082 46.9497 137.134 47.6042 135.595 45.8926C135.124 45.3683 134.385 44.7501 133.953 44.5191L133.168 44.0991L94.2067 44.0496L55.2455 44L54.0736 44.5857ZM132.642 46.3974C134.332 47.1036 134.79 48.0582 134.79 50.8694V52.9778L93.9816 52.9295L53.1727 52.8813L53.1796 50.7812C53.187 48.5418 53.3653 47.9343 54.2524 47.1293C55.4496 46.0426 52.4472 46.1198 93.8923 46.1114C127.71 46.1045 132.017 46.1364 132.642 46.3974ZM134.79 58.5138V61.9509L93.9816 61.9026L53.1727 61.8545L53.12 58.7116C53.0912 56.9832 53.1099 55.4582 53.1618 55.3228C53.2384 55.1233 60.9379 55.0769 94.0234 55.0769H134.79V58.5138ZM58.7202 71.3476C58.4791 71.6918 58.423 72.3938 58.423 75.0705C58.423 78.1145 58.4524 78.3984 58.8048 78.7508C59.1811 79.1271 59.4411 79.1327 76.7086 79.1327C92.2586 79.1327 94.2785 79.0993 94.655 78.8354C95.0672 78.5467 95.0794 78.4383 95.0794 75.0466C95.0794 71.9066 95.0443 71.5232 94.7302 71.2391C94.4106 70.9499 92.8844 70.9232 76.6992 70.9232H59.0173L58.7202 71.3476ZM102.287 71.1294C101.987 71.3039 101.952 71.6972 101.952 74.9311C101.952 78.4421 101.964 78.5462 102.377 78.8354C102.737 79.0878 103.632 79.1327 108.295 79.1327C113.535 79.1327 113.807 79.1149 114.171 78.7508C114.525 78.3975 114.553 78.1145 114.553 74.9621C114.553 71.9039 114.517 71.5229 114.204 71.2391C113.895 70.9598 113.202 70.9239 108.238 70.9289C104.779 70.9325 102.492 71.0095 102.287 71.1294ZM92.9384 74.9802L92.993 76.8417H76.8535H60.714V74.9313V73.0212L76.7989 73.0699L92.8838 73.1187L92.9384 74.9802ZM112.296 74.7459C112.33 75.6933 112.329 76.5524 112.294 76.6551C112.255 76.7687 110.633 76.8417 108.141 76.8417H104.053V75.0598C104.053 74.0796 104.11 73.2205 104.18 73.1506C104.25 73.0806 106.091 73.0233 108.271 73.0233H112.235L112.296 74.7459ZM62.7102 84.554C60.7436 85.0317 59.0868 86.7076 58.608 88.7033C58.0308 91.1088 59.2775 93.7462 61.5559 94.9398C62.3702 95.3663 62.7752 95.4494 64.0551 95.4526C65.4266 95.4559 65.693 95.3936 66.6659 94.8422L67.7494 94.2282L68.9399 94.8422C69.9776 95.3774 70.3166 95.4557 71.5794 95.4515C73.2366 95.4459 74.4777 94.9289 75.5373 93.8027C76.6511 92.6192 77.0339 91.623 77.0299 89.9196C77.0267 88.5929 76.9526 88.2578 76.4652 87.3691C74.9691 84.6409 71.8383 83.6491 69.0518 85.0208C68.378 85.3524 67.7644 85.6239 67.6886 85.6239C67.6127 85.6239 67.3116 85.4538 67.0195 85.2457C66.4981 84.8744 64.5454 84.2718 63.9673 84.3037C63.8055 84.3127 63.2399 84.4253 62.7102 84.554ZM65.2359 86.7817C67.8085 87.7536 68.1354 91.4611 65.7695 92.8349C64.7554 93.4239 63.0025 93.3659 62.0857 92.7131C60.8759 91.8515 60.3297 89.7772 60.9834 88.5259C61.3297 87.863 62.2043 87.035 62.8141 86.7925C63.4548 86.5377 64.5772 86.5327 65.2359 86.7817ZM73.0661 86.9787C74.8151 87.8254 75.4327 90.2877 74.2914 91.8633C73.295 93.2389 71.4234 93.6671 69.8705 92.875C69.4546 92.6627 69.1144 92.4609 69.1144 92.4262C69.1144 92.3914 69.1982 92.114 69.3008 91.8095C69.6211 90.8582 69.6601 89.4127 69.3893 88.5135C69.0919 87.5253 69.2168 87.2561 70.1645 86.8431C71.0112 86.4741 72.1319 86.5264 73.0661 86.9787ZM81.2674 90.7461C80.8691 91.186 80.8622 91.808 81.2513 92.1971C81.4856 92.4311 81.986 92.497 83.5317 92.497C85.3614 92.497 85.5344 92.4647 85.8089 92.0726C86.2003 91.5141 86.1845 91.0997 85.757 90.7129C85.222 90.2287 81.712 90.2547 81.2674 90.7461ZM90.2405 90.7461C89.8423 91.186 89.8354 91.808 90.2245 92.1971C90.4754 92.4477 91.0962 92.497 94.0133 92.497C97.1508 92.497 97.534 92.4619 97.8181 92.1478C98.2126 91.7121 98.2173 91.3645 97.8368 90.8213C97.5481 90.4091 97.4397 90.3969 94.048 90.3969C90.908 90.3969 90.5246 90.432 90.2405 90.7461Z"/>
</mask>
<path fill-rule="evenodd" clip-rule="evenodd" d="M54.0736 44.5857C52.8319 45.206 52.1778 45.8513 51.493 47.1316L51.0726 47.9175L51.0222 73.152C50.9724 98.0188 50.9771 98.4014 51.3552 99.4115C51.7956 100.589 52.9201 101.849 54.0863 102.472L54.891 102.902H77.0303H99.1694L99.4518 102.399C99.7052 101.948 99.7006 101.845 99.4069 101.397L99.0799 100.897L77.7491 100.896C63.665 100.896 56.1772 100.828 55.7083 100.698C54.8509 100.46 53.944 99.7288 53.4999 98.9178C53.1977 98.3658 53.1727 97.0101 53.1727 81.2328V64.1456L93.9816 64.0974L134.79 64.0491V71.886V79.7228L135.259 80.1913C135.845 80.7769 136.027 80.7769 136.613 80.1913L137.082 79.7228V64.4054C137.082 46.9497 137.134 47.6042 135.595 45.8926C135.124 45.3683 134.385 44.7501 133.953 44.5191L133.168 44.0991L94.2067 44.0496L55.2455 44L54.0736 44.5857ZM132.642 46.3974C134.332 47.1036 134.79 48.0582 134.79 50.8694V52.9778L93.9816 52.9295L53.1727 52.8813L53.1796 50.7812C53.187 48.5418 53.3653 47.9343 54.2524 47.1293C55.4496 46.0426 52.4472 46.1198 93.8923 46.1114C127.71 46.1045 132.017 46.1364 132.642 46.3974ZM134.79 58.5138V61.9509L93.9816 61.9026L53.1727 61.8545L53.12 58.7116C53.0912 56.9832 53.1099 55.4582 53.1618 55.3228C53.2384 55.1233 60.9379 55.0769 94.0234 55.0769H134.79V58.5138ZM58.7202 71.3476C58.4791 71.6918 58.423 72.3938 58.423 75.0705C58.423 78.1145 58.4524 78.3984 58.8048 78.7508C59.1811 79.1271 59.4411 79.1327 76.7086 79.1327C92.2586 79.1327 94.2785 79.0993 94.655 78.8354C95.0672 78.5467 95.0794 78.4383 95.0794 75.0466C95.0794 71.9066 95.0443 71.5232 94.7302 71.2391C94.4106 70.9499 92.8844 70.9232 76.6992 70.9232H59.0173L58.7202 71.3476ZM102.287 71.1294C101.987 71.3039 101.952 71.6972 101.952 74.9311C101.952 78.4421 101.964 78.5462 102.377 78.8354C102.737 79.0878 103.632 79.1327 108.295 79.1327C113.535 79.1327 113.807 79.1149 114.171 78.7508C114.525 78.3975 114.553 78.1145 114.553 74.9621C114.553 71.9039 114.517 71.5229 114.204 71.2391C113.895 70.9598 113.202 70.9239 108.238 70.9289C104.779 70.9325 102.492 71.0095 102.287 71.1294ZM92.9384 74.9802L92.993 76.8417H76.8535H60.714V74.9313V73.0212L76.7989 73.0699L92.8838 73.1187L92.9384 74.9802ZM112.296 74.7459C112.33 75.6933 112.329 76.5524 112.294 76.6551C112.255 76.7687 110.633 76.8417 108.141 76.8417H104.053V75.0598C104.053 74.0796 104.11 73.2205 104.18 73.1506C104.25 73.0806 106.091 73.0233 108.271 73.0233H112.235L112.296 74.7459ZM62.7102 84.554C60.7436 85.0317 59.0868 86.7076 58.608 88.7033C58.0308 91.1088 59.2775 93.7462 61.5559 94.9398C62.3702 95.3663 62.7752 95.4494 64.0551 95.4526C65.4266 95.4559 65.693 95.3936 66.6659 94.8422L67.7494 94.2282L68.9399 94.8422C69.9776 95.3774 70.3166 95.4557 71.5794 95.4515C73.2366 95.4459 74.4777 94.9289 75.5373 93.8027C76.6511 92.6192 77.0339 91.623 77.0299 89.9196C77.0267 88.5929 76.9526 88.2578 76.4652 87.3691C74.9691 84.6409 71.8383 83.6491 69.0518 85.0208C68.378 85.3524 67.7644 85.6239 67.6886 85.6239C67.6127 85.6239 67.3116 85.4538 67.0195 85.2457C66.4981 84.8744 64.5454 84.2718 63.9673 84.3037C63.8055 84.3127 63.2399 84.4253 62.7102 84.554ZM65.2359 86.7817C67.8085 87.7536 68.1354 91.4611 65.7695 92.8349C64.7554 93.4239 63.0025 93.3659 62.0857 92.7131C60.8759 91.8515 60.3297 89.7772 60.9834 88.5259C61.3297 87.863 62.2043 87.035 62.8141 86.7925C63.4548 86.5377 64.5772 86.5327 65.2359 86.7817ZM73.0661 86.9787C74.8151 87.8254 75.4327 90.2877 74.2914 91.8633C73.295 93.2389 71.4234 93.6671 69.8705 92.875C69.4546 92.6627 69.1144 92.4609 69.1144 92.4262C69.1144 92.3914 69.1982 92.114 69.3008 91.8095C69.6211 90.8582 69.6601 89.4127 69.3893 88.5135C69.0919 87.5253 69.2168 87.2561 70.1645 86.8431C71.0112 86.4741 72.1319 86.5264 73.0661 86.9787ZM81.2674 90.7461C80.8691 91.186 80.8622 91.808 81.2513 92.1971C81.4856 92.4311 81.986 92.497 83.5317 92.497C85.3614 92.497 85.5344 92.4647 85.8089 92.0726C86.2003 91.5141 86.1845 91.0997 85.757 90.7129C85.222 90.2287 81.712 90.2547 81.2674 90.7461ZM90.2405 90.7461C89.8423 91.186 89.8354 91.808 90.2245 92.1971C90.4754 92.4477 91.0962 92.497 94.0133 92.497C97.1508 92.497 97.534 92.4619 97.8181 92.1478C98.2126 91.7121 98.2173 91.3645 97.8368 90.8213C97.5481 90.4091 97.4397 90.3969 94.048 90.3969C90.908 90.3969 90.5246 90.432 90.2405 90.7461Z" fill="#F08B32" stroke="white" stroke-width="0.8625" mask="url(#path-1-inside-1_7942_11634)"/>
<g clip-path="url(#clip0_7942_11634)">
<path d="M120.668 107.298C119.711 107.298 118.896 107.6 118.221 108.205C117.545 108.81 117.207 109.545 117.207 110.406C117.207 111.381 117.549 112.145 118.231 112.701C118.916 113.257 119.711 113.535 120.622 113.535C121.549 113.535 122.357 113.261 123.048 112.711C123.74 112.163 124.083 111.395 124.083 110.406C124.083 109.545 123.754 108.81 123.094 108.206C122.433 107.6 121.625 107.298 120.668 107.298ZM130.428 85.8874C129.551 84.5537 128.295 83.4842 126.692 82.713C125.1 81.9452 123.246 81.5586 121.177 81.5586C118.951 81.5586 116.971 82.0236 115.292 82.9422C113.611 83.8603 112.314 85.0392 111.434 86.4488C110.548 87.8629 110.102 89.2845 110.102 90.6752C110.102 91.4195 110.409 92.1123 111.016 92.7352C111.626 93.3616 112.385 93.6792 113.271 93.6792C114.78 93.6792 115.814 92.7901 116.339 91.0513C116.817 89.6092 117.406 88.5118 118.087 87.784C118.729 87.0987 119.769 86.752 121.178 86.752C122.393 86.752 123.352 87.0927 124.112 87.794C124.862 88.4873 125.226 89.3145 125.226 90.3205C125.23 90.8077 125.108 91.2876 124.87 91.7127C124.617 92.1666 124.302 92.5832 123.935 92.9505C123.545 93.3401 122.903 93.928 122.024 94.6953C121.001 95.5919 120.176 96.3796 119.573 97.0295C118.935 97.7253 118.423 98.5264 118.059 99.3972C117.679 100.298 117.487 101.371 117.487 102.588C117.487 103.627 117.777 104.432 118.349 104.98C118.916 105.525 119.622 105.801 120.449 105.801C122.029 105.801 123.022 104.937 123.317 103.322C123.469 102.65 123.581 102.18 123.656 101.912C123.725 101.669 123.824 101.421 123.951 101.172C124.074 100.931 124.27 100.657 124.532 100.355C124.807 100.04 125.18 99.6679 125.635 99.2528C127.338 97.7313 128.539 96.6289 129.205 95.9765C129.892 95.3027 130.492 94.4959 130.989 93.5758C131.496 92.6318 131.754 91.5234 131.754 90.2801C131.753 88.7046 131.307 87.2281 130.425 85.8889" fill="#FF9147" fill-opacity="0.4"/>
</g>
<line x1="52.8164" y1="130.5" x2="147.391" y2="130.5" stroke="#FF9147" stroke-opacity="0.4" stroke-width="2.66406" stroke-linecap="round"/>
<line x1="72.7969" y1="141.156" x2="127.41" y2="141.156" stroke="#FF9147" stroke-opacity="0.4" stroke-width="2.66406" stroke-linecap="round"/>
<circle cx="6.86133" cy="95.2402" r="5.53305" stroke="#FF9147" stroke-opacity="0.4" stroke-width="0.922176"/>
<circle cx="108.1" cy="5.99414" r="5.53305" stroke="#FF9147" stroke-opacity="0.4" stroke-width="0.922176"/>
<circle cx="32.1699" cy="52.6113" r="5.99414" fill="#F08B32" fill-opacity="0.36"/>
<circle cx="17.5176" cy="100.572" r="3.33008" fill="#F08B32" fill-opacity="0.36"/>
<circle cx="127.41" cy="15.9883" r="3.99609" fill="#F08B32" fill-opacity="0.36"/>
<defs>
<clipPath id="clip0_7942_11634">
<rect width="31.9688" height="31.9688" fill="white" transform="translate(105.105 81.5586)"/>
</clipPath>
</defs>
</svg>
