<svg width="12" height="17" viewBox="0 0 12 17" fill="none" xmlns="http://www.w3.org/2000/svg">
<path d="M10.8766 3.62319H8.87476C8.7003 2.96358 8.39198 2.34693 7.96896 1.81159H10.8766C11.1168 1.81159 11.3472 1.71616 11.5171 1.54629C11.6869 1.37642 11.7824 1.14603 11.7824 0.905797C11.7824 0.665565 11.6869 0.435172 11.5171 0.265302C11.3472 0.0954319 11.1168 0 10.8766 0H0.912806C0.672574 0 0.442181 0.0954319 0.272311 0.265302C0.102441 0.435172 0.00700939 0.665565 0.00700939 0.905797C0.00700939 1.14603 0.102441 1.37642 0.272311 1.54629C0.442181 1.71616 0.672574 1.81159 0.912806 1.81159H4.0831C4.68114 1.81369 5.26639 1.98491 5.77127 2.30547C6.27614 2.62602 6.68005 3.08285 6.93636 3.62319H0.912806C0.672574 3.62319 0.442181 3.71862 0.272311 3.88849C0.102441 4.05836 0.00700939 4.28875 0.00700939 4.52899C0.00700939 4.76922 0.102441 4.99961 0.272311 5.16948C0.442181 5.33935 0.672574 5.43478 0.912806 5.43478H7.25338C7.1448 6.18714 6.7695 6.87543 6.19588 7.37423C5.62227 7.87302 4.88853 8.14911 4.12839 8.15217H0.912806C0.870642 8.14794 0.828159 8.14794 0.785995 8.15217C0.72597 8.14283 0.66486 8.14283 0.604835 8.15217C0.543093 8.1732 0.485023 8.20376 0.432734 8.24275L0.324038 8.30616C0.274421 8.35097 0.23169 8.40286 0.197227 8.46014C0.166889 8.5003 0.139637 8.54269 0.115705 8.58696C0.107642 8.641 0.107642 8.69595 0.115705 8.75C0.0511564 8.84035 0.0134748 8.94712 0.00700939 9.05797C0.00277172 9.10013 0.00277172 9.14262 0.00700939 9.18478C-0.00233646 9.24481 -0.00233646 9.30592 0.00700939 9.36594C0.0280374 9.42768 0.0586005 9.48575 0.097589 9.53804C0.097589 9.53804 0.0975892 9.61051 0.160995 9.64674L5.59578 15.9873C5.75193 16.1699 5.97421 16.283 6.21373 16.3016C6.45324 16.3203 6.69037 16.2431 6.87295 16.087C7.05553 15.9308 7.1686 15.7085 7.18728 15.469C7.20597 15.2295 7.12874 14.9924 6.97259 14.8098L2.88744 9.96377H4.0831C5.32952 9.96893 6.53261 9.50667 7.4549 8.66822C8.37719 7.82978 8.95168 6.67606 9.06498 5.43478H10.8766C11.1168 5.43478 11.3472 5.33935 11.5171 5.16948C11.6869 4.99961 11.7824 4.76922 11.7824 4.52899C11.7824 4.28875 11.6869 4.05836 11.5171 3.88849C11.3472 3.71862 11.1168 3.62319 10.8766 3.62319Z" fill="white"/>
</svg>
