<svg width="14" height="17" viewBox="0 0 14 17" fill="none" xmlns="http://www.w3.org/2000/svg">
<path d="M12.0077 3.62319H9.79773C9.60513 2.96358 9.26473 2.34693 8.79773 1.81159H12.0077C12.2729 1.81159 12.5273 1.71616 12.7148 1.54629C12.9024 1.37642 13.0077 1.14603 13.0077 0.905797C13.0077 0.665565 12.9024 0.435172 12.7148 0.265302C12.5273 0.0954319 12.2729 0 12.0077 0H1.00774C0.742521 0 0.488168 0.0954319 0.300631 0.265302C0.113095 0.435172 0.00773836 0.665565 0.00773836 0.905797C0.00773836 1.14603 0.113095 1.37642 0.300631 1.54629C0.488168 1.71616 0.742521 1.81159 1.00774 1.81159H4.50773C5.16797 1.81369 5.81409 1.98491 6.37147 2.30547C6.92885 2.62602 7.37477 3.08285 7.65773 3.62319H1.00774C0.742521 3.62319 0.488168 3.71862 0.300631 3.88849C0.113095 4.05836 0.00773836 4.28875 0.00773836 4.52899C0.00773836 4.76922 0.113095 4.99961 0.300631 5.16948C0.488168 5.33935 0.742521 5.43478 1.00774 5.43478H8.00773C7.88785 6.18714 7.47352 6.87543 6.84025 7.37423C6.20698 7.87302 5.39693 8.14911 4.55773 8.15217H1.00774C0.961188 8.14794 0.914287 8.14794 0.867737 8.15217C0.80147 8.14283 0.734005 8.14283 0.667737 8.15217C0.599574 8.1732 0.535465 8.20377 0.477738 8.24275L0.357738 8.30616C0.30296 8.35097 0.255785 8.40286 0.217738 8.46015C0.184246 8.5003 0.15416 8.54269 0.127738 8.58696C0.118837 8.64101 0.118837 8.69595 0.127738 8.75C0.0564766 8.84035 0.0148761 8.94712 0.00773836 9.05797C0.00305998 9.10014 0.00305998 9.14262 0.00773836 9.18478C-0.00257945 9.24481 -0.00257945 9.30592 0.00773836 9.36594C0.0309533 9.42768 0.0646949 9.48575 0.107738 9.53804C0.107738 9.53804 0.107738 9.61051 0.177738 9.64674L6.17773 15.9873C6.35012 16.1699 6.59552 16.283 6.85995 16.3017C7.12437 16.3203 7.38616 16.2431 7.58773 16.087C7.78929 15.9308 7.91412 15.7085 7.93475 15.469C7.95538 15.2295 7.87012 14.9924 7.69773 14.8098L3.18773 9.96377H4.50773C5.88379 9.96893 7.21199 9.50667 8.2302 8.66822C9.24841 7.82978 9.88264 6.67606 10.0077 5.43478H12.0077C12.2729 5.43478 12.5273 5.33935 12.7148 5.16948C12.9024 4.99961 13.0077 4.76922 13.0077 4.52899C13.0077 4.28875 12.9024 4.05836 12.7148 3.88849C12.5273 3.71862 12.2729 3.62319 12.0077 3.62319Z" fill="#283049"/>
</svg>
