<svg width="188" height="183" viewBox="0 0 188 183" fill="none" xmlns="http://www.w3.org/2000/svg">
<path fill-rule="evenodd" clip-rule="evenodd" d="M25.5645 1.91162C20.2233 4.15992 20.4513 12.1462 25.9085 13.964C28.0393 14.6736 28.5962 14.6449 30.43 13.729C32.5974 12.6463 34.2107 10.1868 34.2107 7.96409C34.2107 5.71273 32.4604 3.01257 30.4202 2.11495C28.1629 1.1227 27.505 1.09461 25.5645 1.91162ZM30.0541 3.33253C32.4999 4.66369 33.3295 6.75079 32.4837 9.4479C31.5734 12.3502 29.5987 13.7161 27.0415 13.2112C22.2352 12.2616 21.2095 5.54847 25.5204 3.25254C27.3745 2.26517 28.1176 2.27799 30.0541 3.33253ZM49.1181 31.931C48.241 32.6155 48.125 34.7661 47.9921 52.8062L47.8436 72.9183L44.943 68.4033C43.3476 65.9199 41.2592 63.4176 40.302 62.8418C38.2298 61.5961 33.0504 60.6711 33.0504 61.5467C33.0504 61.8746 34.2467 62.3161 35.7086 62.5267C39.8095 63.1184 41.3334 64.4569 44.8873 70.5863L48.1708 76.2498L48.0072 110.649C47.8488 143.948 47.8065 145.102 46.6833 146.702C44.1372 150.332 39.4974 149.918 37.1125 145.848C36.0079 143.965 35.9325 142.925 35.998 130.546L36.0688 117.265H41.8115C44.9697 117.265 47.5535 117.011 47.5535 116.699C47.5535 115.988 37.8672 115.551 36.0665 116.181L34.7311 116.648L34.9063 130.958C35.0698 144.376 35.1569 145.375 36.2968 146.99C38.6028 150.255 38.2646 150.22 67.4547 150.23L94.6074 150.239L98.4496 152.678C103.347 155.787 107.424 157.385 112.628 158.235C122.688 159.877 134.264 155.977 141.8 148.406L145.304 144.885L147.532 146.384C149.33 147.595 149.697 148.152 149.429 149.273C149.133 150.516 150.471 151.634 162.166 159.915C173.343 167.828 175.556 169.168 177.45 169.168C181.971 169.168 184.864 164.302 182.855 160.077C181.426 157.07 156.447 139.35 155.188 140.45C154.212 141.302 152.804 140.907 150.925 139.255L149.585 138.076L151.143 133.624C152.987 128.356 153.682 118.908 152.618 113.562C151.189 106.378 147.992 99.981 143.026 94.3669L140.325 91.3138L140.495 83.0705L140.665 74.8271L143.454 70.1106C146.682 64.6517 148.521 63.0604 152.217 62.5273C153.68 62.3161 154.876 61.8746 154.876 61.5467C154.876 60.8292 150.165 61.4807 148.064 62.4883C147.272 62.8681 145.283 65.2501 143.644 67.7817L140.663 72.3846L140.515 52.5394C140.382 34.7508 140.265 32.6149 139.389 31.931C137.962 30.8172 50.5446 30.8172 49.1181 31.931ZM139.074 61.5461C139.157 77.4149 139.123 90.3979 138.999 90.3979C138.875 90.3979 137.241 89.4264 135.367 88.2387C125.525 81.9982 112.6 81.5622 101.621 87.0993C95.8686 90.001 88.6402 97.3633 85.8794 103.133C79.2347 117.02 81.0603 134.534 90.2773 145.324C91.6667 146.951 92.8032 148.447 92.8032 148.649C92.8032 148.852 82.4915 149.018 69.8883 149.018C57.2851 149.018 46.9734 148.87 46.9734 148.691C46.9734 148.511 47.4305 147.63 47.9886 146.733C48.9342 145.215 49.0131 141.281 49.1431 89.5088C49.2196 58.9326 49.4076 33.5705 49.5613 33.1485C49.7824 32.5397 59.0562 32.414 94.3817 32.5379L138.923 32.6942L139.074 61.5461ZM79.6744 58.9387C78.9777 60.8506 75.5173 62.4388 72.6311 62.1701C71.1228 62.0303 69.4312 61.6999 68.8731 61.4362C68.2761 61.1547 67.8579 61.2114 67.8579 61.5735C67.8579 63.1874 74.3831 64.1217 76.7431 62.8455C78.3129 61.9961 81.2007 59.2019 81.2007 58.5314C81.2007 57.676 80.0202 57.991 79.6744 58.9387ZM109.047 58.5302C109.047 59.4871 111.551 61.8416 113.461 62.6818C114.522 63.1489 116.378 63.5208 117.585 63.5092C119.894 63.486 122.928 62.1213 122.005 61.5204C121.707 61.3269 121.085 61.4209 120.621 61.7299C119.539 62.4504 115.9 62.4681 114.133 61.761C113.38 61.4594 112.122 60.5025 111.34 59.6342C109.899 58.0368 109.047 57.6265 109.047 58.5302ZM77.9457 64.4038C77.3679 65.9883 78.1771 67.2975 79.6031 67.0844C80.5614 66.9409 80.9107 66.4817 80.9107 65.3624C80.9107 64.2432 80.5614 63.784 79.6031 63.6405C78.8182 63.5233 78.1551 63.8286 77.9457 64.4038ZM109.272 64.4038C108.695 65.9883 109.504 67.2975 110.93 67.0844C111.888 66.9409 112.237 66.4817 112.237 65.3624C112.237 64.2432 111.888 63.784 110.93 63.6405C110.145 63.5233 109.482 63.8286 109.272 64.4038ZM179.176 70.3189C177.003 71.1579 175.498 74.3831 175.991 77.1468C177.088 83.3007 186.025 83.3703 187.118 77.2329C187.652 74.236 186.429 71.5059 184.092 70.4776C181.914 69.5202 181.295 69.5 179.176 70.3189ZM184.674 72.4676C186.641 74.5382 186.682 77.1267 184.779 79.1289C180.992 83.1156 174.996 78.227 177.539 73.226C178.883 70.5833 182.516 70.1973 184.674 72.4676ZM128.158 86.1486C139.061 90.153 147.149 98.8025 150.532 110.074C153.231 119.068 152.231 130.366 148.057 138.026C144.391 144.754 138.914 150.347 132.791 153.617C126.783 156.826 117.371 157.944 109.815 156.347C97.9675 153.841 87.0287 142.544 83.7997 129.478C82.5089 124.256 82.8802 114.173 84.5411 109.327C88.5207 97.718 97.7116 88.7413 109.044 85.3969C114.185 83.8789 122.915 84.2227 128.158 86.1486ZM112.237 90.9926C103.287 93.0767 95.6534 99.1316 91.9603 107.077C81.9682 128.574 98.9206 153.569 121.234 150.238C138.927 147.597 150.227 128.575 144.504 111.067C142.846 105.995 141.854 104.266 138.261 100.18C134.587 96.004 131.746 94.0451 126.694 92.2072C122.793 90.7875 115.684 90.1903 112.237 90.9926ZM122.97 92.2536C140.473 96.3063 149.952 116.581 142.028 133.014C138.541 140.245 133.192 145.227 126.113 147.835C123.249 148.89 121.621 149.065 116.298 148.885C110.483 148.688 109.565 148.49 105.952 146.65C97.8787 142.539 91.8918 134.079 90.4206 124.703C87.4249 105.61 104.997 88.0916 122.97 92.2536ZM151.368 140.988L153.651 142.729L152.215 144.953L150.779 147.178L148.477 145.574C147.211 144.692 146.175 143.866 146.175 143.737C146.175 143.432 148.741 139.265 148.935 139.255C149.018 139.251 150.112 140.031 151.368 140.988ZM157.843 142.668C158.816 143.595 158.729 143.866 156.189 147.821C153.95 151.309 153.34 151.901 152.485 151.42C151.921 151.102 151.304 150.577 151.114 150.252C150.722 149.586 155.454 141.775 156.281 141.724C156.575 141.705 157.278 142.13 157.843 142.668ZM170.993 151.918C178.861 157.473 181.332 159.534 181.936 161.048C182.865 163.381 182.278 165.518 180.31 166.969C177.66 168.922 176.119 168.276 165.702 160.851C160.226 156.948 155.512 153.527 155.225 153.248C154.635 152.677 159.315 144.743 160.242 144.743C160.565 144.743 165.403 147.972 170.993 151.918ZM17.8222 151.809C17.5832 152.065 17.3871 153.327 17.3871 154.615C17.3871 156.938 17.3703 156.956 15.0666 156.956C13.7903 156.956 12.7461 157.23 12.7461 157.566C12.7461 157.902 13.7903 158.177 15.0666 158.177H17.3871V160.619C17.3871 161.963 17.6481 163.062 17.9672 163.062C18.2863 163.062 18.5473 161.963 18.5473 160.619V158.177H20.8678C23.8038 158.177 23.9216 157.093 21.0129 156.84C18.9128 156.657 18.8275 156.559 18.5473 153.997C18.3878 152.538 18.0612 151.553 17.8222 151.809Z" fill="#F08B32"/>
<g clip-path="url(#clip0_7942_11700)">
<path d="M117.555 132.298C116.597 132.298 115.783 132.6 115.107 133.205C114.432 133.81 114.094 134.545 114.094 135.406C114.094 136.381 114.436 137.145 115.118 137.701C115.803 138.257 116.597 138.535 117.509 138.535C118.436 138.535 119.244 138.261 119.935 137.711C120.626 137.163 120.97 136.395 120.97 135.406C120.97 134.545 120.64 133.81 119.981 133.206C119.319 132.6 118.512 132.298 117.555 132.298ZM127.315 110.887C126.438 109.554 125.181 108.484 123.579 107.713C121.987 106.945 120.133 106.559 118.064 106.559C115.838 106.559 113.858 107.024 112.179 107.942C110.497 108.86 109.201 110.039 108.321 111.449C107.435 112.863 106.988 114.285 106.988 115.675C106.988 116.419 107.296 117.112 107.903 117.735C108.513 118.362 109.272 118.679 110.158 118.679C111.667 118.679 112.701 117.79 113.226 116.051C113.704 114.609 114.293 113.512 114.974 112.784C115.615 112.099 116.655 111.752 118.064 111.752C119.28 111.752 120.238 112.093 120.999 112.794C121.748 113.487 122.112 114.315 122.112 115.321C122.117 115.808 121.994 116.288 121.756 116.713C121.504 117.167 121.189 117.583 120.821 117.95C120.432 118.34 119.789 118.928 118.911 119.695C117.888 120.592 117.062 121.38 116.46 122.029C115.822 122.725 115.31 123.526 114.946 124.397C114.566 125.298 114.374 126.371 114.374 127.588C114.374 128.627 114.663 129.432 115.236 129.98C115.803 130.525 116.509 130.801 117.336 130.801C118.916 130.801 119.909 129.937 120.203 128.322C120.356 127.65 120.468 127.18 120.543 126.912C120.611 126.669 120.71 126.421 120.838 126.172C120.961 125.931 121.157 125.657 121.419 125.355C121.693 125.04 122.067 124.668 122.522 124.253C124.224 122.731 125.425 121.629 126.092 120.976C126.779 120.303 127.378 119.496 127.875 118.576C128.383 117.632 128.641 116.523 128.641 115.28C128.64 113.705 128.194 112.228 127.312 110.889" fill="#FF9147" fill-opacity="0.4"/>
</g>
<line x1="52.7031" y1="170.5" x2="147.277" y2="170.5" stroke="#FF9147" stroke-opacity="0.4" stroke-width="2.66406" stroke-linecap="round"/>
<line x1="72.6836" y1="181.156" x2="127.297" y2="181.156" stroke="#FF9147" stroke-opacity="0.4" stroke-width="2.66406" stroke-linecap="round"/>
<circle cx="6.74805" cy="95.2402" r="5.53305" stroke="#FF9147" stroke-opacity="0.4" stroke-width="0.922176"/>
<circle cx="107.986" cy="5.99414" r="5.53305" stroke="#FF9147" stroke-opacity="0.4" stroke-width="0.922176"/>
<circle cx="32.0566" cy="52.6113" r="5.99414" fill="#F08B32" fill-opacity="0.36"/>
<circle cx="17.4043" cy="100.572" r="3.33008" fill="#F08B32" fill-opacity="0.36"/>
<circle cx="127.297" cy="15.9883" r="3.99609" fill="#F08B32" fill-opacity="0.36"/>
<defs>
<clipPath id="clip0_7942_11700">
<rect width="31.9688" height="31.9688" fill="white" transform="translate(101.992 106.559)"/>
</clipPath>
</defs>
</svg>
