<svg width="156" height="183" viewBox="0 0 156 183" fill="none" xmlns="http://www.w3.org/2000/svg">
<path d="M61.2659 40.5463L61.2659 40.5463C59.4572 41.491 58.4125 42.4503 57.3967 44.0932L56.0042 46.3456L55.8756 76.5384L55.7481 106.551H56.9195H58.0929L58.2203 76.7269C58.2836 61.9638 58.3202 54.4342 58.4612 50.4359C58.5316 48.4398 58.6284 47.3073 58.7716 46.59C58.844 46.2281 58.9294 45.9647 59.0329 45.7456C59.1365 45.5263 59.254 45.3608 59.3766 45.1967C59.3766 45.1967 59.3767 45.1966 59.3767 45.1966L59.577 45.3462C60.1146 44.626 61.1435 43.5972 61.8632 43.0595C63.1472 42.1008 63.7284 42.0795 91.8491 41.9524L61.2659 40.5463ZM61.2659 40.5463L63.7471 39.25L61.2659 40.5463ZM109.792 113.196V114.377C109.792 114.665 109.78 114.884 109.752 115.052C109.723 115.221 109.681 115.32 109.635 115.382C109.555 115.49 109.405 115.56 108.975 115.561C108.123 115.562 107.068 116.008 106.107 116.655C105.14 117.306 104.227 118.187 103.663 119.112C102.998 120.202 102.677 121.668 102.681 123.116C102.685 124.563 103.013 126.026 103.684 127.111C103.977 127.585 104.474 128.109 105.043 128.584C105.614 129.062 106.273 129.504 106.902 129.808L106.902 129.809C108.712 130.684 110.497 130.893 112.16 130.438C113.821 129.982 115.333 128.871 116.614 127.156L116.414 127.006L116.614 127.156C116.738 126.99 116.858 126.821 116.963 126.579C117.067 126.339 117.152 126.038 117.224 125.603C117.368 124.74 117.468 123.311 117.545 120.717C117.699 115.521 117.762 105.594 117.878 86.0243L118.115 46.4177L109.792 113.196ZM109.792 113.196L110.042 113.195V112.945L109.792 112.946V113.196ZM124.696 59.243L124.667 59.4947L124.92 59.482L124.949 59.2302L124.696 59.243ZM44.3725 113.451L44.4363 113.407L44.2939 113.201L44.2948 113.451L44.3725 113.451ZM45.1213 132.571L45.0496 132.811L45.1214 132.571C45.1214 132.571 45.1214 132.571 45.1213 132.571ZM112.244 133.102L112.189 133.13L112.305 133.352V133.102H112.244ZM119.987 126.007L119.986 126.077L120.236 126.078L120.024 125.947L119.987 126.007ZM68.319 75.7321V75.9821H68.569V75.7321H68.319ZM107.454 75.7321L107.483 75.9821H107.735L107.706 75.7321H107.454ZM107.186 73.403L107.212 73.623L107.433 73.6244L107.435 73.3744L107.186 73.403ZM68.7408 73.6751C68.7489 73.6731 68.7643 73.6701 68.7888 73.6665C68.8023 73.6428 68.8122 73.6301 68.817 73.6254C68.7832 73.6591 68.7493 73.6718 68.7464 73.6729L68.7462 73.6729C68.7385 73.6759 68.7355 73.6763 68.7408 73.6751ZM102.902 130.757H103.374L103.109 130.367L101.95 128.659C100.944 127.176 100.395 125.101 100.34 123.068C100.284 121.03 100.725 119.084 101.642 117.843C101.925 117.461 102.182 117.084 102.37 116.782C102.464 116.631 102.543 116.496 102.599 116.387C102.626 116.333 102.651 116.281 102.669 116.235C102.683 116.198 102.706 116.133 102.706 116.065C102.706 115.938 102.618 115.872 102.598 115.858C102.569 115.837 102.542 115.827 102.53 115.823C102.504 115.814 102.479 115.809 102.463 115.806C102.427 115.799 102.382 115.794 102.331 115.79C102.228 115.781 102.079 115.772 101.889 115.764C101.507 115.747 100.946 115.731 100.226 115.716C98.7861 115.685 96.7044 115.658 94.1368 115.635C89.0011 115.589 81.918 115.56 74.127 115.561C60.4138 115.562 53.3138 115.569 49.4562 115.691C47.5293 115.752 46.3973 115.842 45.6498 115.977C44.8872 116.114 44.5187 116.3 44.1224 116.542C41.8215 117.944 40.5733 120.262 40.5713 123.102C40.5701 124.638 40.9093 125.972 41.5983 127.09C42.2875 128.208 43.317 129.095 44.6709 129.75L44.7798 129.525L44.6709 129.75C45.1784 129.996 45.6162 130.187 46.4185 130.329C47.2093 130.47 48.3535 130.563 50.2782 130.626C54.1299 130.751 61.159 130.757 74.8553 130.757H102.902ZM76.6162 65.3013H68.569V64.1289V62.9565H76.6162H84.6635V64.1289V65.3013H76.6162ZM87.9954 86.6371H68.569V85.4647V84.2923H87.9954H107.422V85.4647V86.6371H87.9954ZM76.6162 97.5421H68.569V96.3697V95.1973H76.6162H84.6635V96.3697V97.5421H76.6162Z" fill="#F08B32" stroke="white" stroke-width="0.5"/>
<g clip-path="url(#clip0_7942_11655)">
<path d="M139.043 142.74C138.086 142.74 137.271 143.042 136.596 143.646C135.92 144.251 135.582 144.986 135.582 145.847C135.582 146.822 135.924 147.586 136.606 148.143C137.291 148.699 138.086 148.977 138.997 148.977C139.924 148.977 140.732 148.703 141.423 148.153C142.115 147.604 142.458 146.836 142.458 145.848C142.458 144.986 142.129 144.252 141.469 143.647C140.808 143.042 140 142.74 139.043 142.74ZM148.803 121.329C147.926 119.995 146.67 118.926 145.067 118.154C143.475 117.387 141.621 117 139.552 117C137.326 117 135.346 117.465 133.667 118.384C131.986 119.302 130.689 120.481 129.809 121.89C128.923 123.304 128.477 124.726 128.477 126.117C128.477 126.861 128.784 127.554 129.391 128.177C130.001 128.803 130.76 129.121 131.646 129.121C133.155 129.121 134.189 128.232 134.714 126.493C135.192 125.051 135.781 123.953 136.462 123.225C137.104 122.54 138.144 122.193 139.553 122.193C140.768 122.193 141.727 122.534 142.487 123.235C143.237 123.929 143.601 124.756 143.601 125.762C143.605 126.249 143.483 126.729 143.245 127.154C142.992 127.608 142.677 128.025 142.31 128.392C141.92 128.781 141.278 129.369 140.399 130.137C139.376 131.033 138.551 131.821 137.948 132.471C137.31 133.167 136.798 133.968 136.434 134.839C136.054 135.74 135.862 136.813 135.862 138.029C135.862 139.068 136.152 139.873 136.724 140.422C137.291 140.966 137.997 141.242 138.824 141.242C140.404 141.242 141.397 140.379 141.692 138.763C141.844 138.091 141.956 137.622 142.031 137.354C142.1 137.111 142.199 136.862 142.326 136.613C142.449 136.373 142.645 136.098 142.907 135.797C143.182 135.481 143.555 135.109 144.01 134.694C145.713 133.173 146.914 132.07 147.58 131.418C148.267 130.744 148.867 129.937 149.364 129.017C149.871 128.073 150.129 126.965 150.129 125.721C150.128 124.146 149.682 122.669 148.8 121.33" fill="#FF9147" fill-opacity="0.4"/>
</g>
<line x1="52.5" y1="170.737" x2="147.074" y2="170.737" stroke="#FF9147" stroke-opacity="0.4" stroke-width="2.66406" stroke-linecap="round"/>
<line x1="72.4805" y1="181.394" x2="127.094" y2="181.394" stroke="#FF9147" stroke-opacity="0.4" stroke-width="2.66406" stroke-linecap="round"/>
<circle cx="6.54492" cy="95.4775" r="5.53305" stroke="#FF9147" stroke-opacity="0.4" stroke-width="0.922176"/>
<circle cx="107.783" cy="6.23145" r="5.53305" stroke="#FF9147" stroke-opacity="0.4" stroke-width="0.922176"/>
<circle cx="31.8535" cy="52.8486" r="5.99414" fill="#F08B32" fill-opacity="0.36"/>
<circle cx="17.2012" cy="100.81" r="3.33008" fill="#F08B32" fill-opacity="0.36"/>
<circle cx="127.094" cy="16.2256" r="3.99609" fill="#F08B32" fill-opacity="0.36"/>
<defs>
<clipPath id="clip0_7942_11655">
<rect width="31.9688" height="31.9688" fill="white" transform="translate(123.48 117)"/>
</clipPath>
</defs>
</svg>
