<svg width="218" height="186" viewBox="0 0 218 186" fill="none" xmlns="http://www.w3.org/2000/svg">
<path d="M80.3041 89.3695C79.1024 88.3681 77.3165 88.5304 76.3151 89.7321C75.3137 90.9338 75.4761 92.7197 76.6777 93.7211L80.3041 89.3695ZM105.681 114.203L103.867 116.379L106.087 118.229L107.892 115.973L105.681 114.203ZM144.145 70.6565C145.122 69.435 144.924 67.6527 143.703 66.6755C142.481 65.6984 140.699 65.8964 139.722 67.1179L144.145 70.6565ZM110.212 154.988V152.156V154.988ZM46.7695 91.5453H43.9373H46.7695ZM110.212 28.1025V25.2703V28.1025ZM173.655 91.5453H170.823H173.655ZM76.6777 93.7211L103.867 116.379L107.494 112.028L80.3041 89.3695L76.6777 93.7211ZM107.892 115.973L144.145 70.6565L139.722 67.1179L103.469 112.434L107.892 115.973ZM110.212 152.156C102.253 152.156 94.3712 150.588 87.0176 147.542L84.8499 152.775C92.8908 156.106 101.509 157.82 110.212 157.82V152.156ZM87.0176 147.542C79.664 144.496 72.9824 140.032 67.3542 134.403L63.3488 138.409C69.503 144.563 76.8091 149.445 84.8499 152.775L87.0176 147.542ZM67.3542 134.403C61.726 128.775 57.2615 122.094 54.2155 114.74L48.9822 116.908C52.3128 124.948 57.1946 132.255 63.3488 138.409L67.3542 134.403ZM54.2155 114.74C51.1695 107.386 49.6018 99.5048 49.6018 91.5453H43.9373C43.9373 100.249 45.6515 108.867 48.9822 116.908L54.2155 114.74ZM49.6018 91.5453C49.6018 83.5858 51.1695 75.7043 54.2155 68.3507L48.9822 66.1829C45.6515 74.2238 43.9373 82.8419 43.9373 91.5453H49.6018ZM54.2155 68.3507C57.2615 60.9971 61.726 54.3154 67.3542 48.6872L63.3488 44.6818C57.1946 50.836 52.3128 58.1421 48.9822 66.1829L54.2155 68.3507ZM67.3542 48.6872C72.9824 43.059 79.664 38.5945 87.0176 35.5485L84.8499 30.3152C76.8091 33.6458 69.503 38.5276 63.3488 44.6818L67.3542 48.6872ZM87.0176 35.5485C94.3712 32.5025 102.253 30.9348 110.212 30.9348V25.2703C101.509 25.2703 92.8908 26.9845 84.8499 30.3152L87.0176 35.5485ZM110.212 30.9348C126.287 30.9348 141.704 37.3205 153.07 48.6872L157.076 44.6818C144.647 32.2528 127.789 25.2703 110.212 25.2703V30.9348ZM153.07 48.6872C164.437 60.0539 170.823 75.4704 170.823 91.5453H176.487C176.487 73.9681 169.505 57.1108 157.076 44.6818L153.07 48.6872ZM170.823 91.5453C170.823 107.62 164.437 123.037 153.07 134.403L157.076 138.409C169.505 125.98 176.487 109.122 176.487 91.5453H170.823ZM153.07 134.403C141.704 145.77 126.287 152.156 110.212 152.156V157.82C127.789 157.82 144.647 150.838 157.076 138.409L153.07 134.403Z" fill="url(#paint0_linear_7416_13187)"/>
<ellipse opacity="0.6" cx="40.8185" cy="136.432" rx="1.41613" ry="1.33733" stroke="url(#paint1_linear_7416_13187)" stroke-width="2.83226"/>
<g opacity="0.5" clip-path="url(#clip0_7416_13187)">
<path d="M192.164 45.3427C192.721 45.4762 193.159 45.8894 193.3 46.416C193.314 46.4672 193.383 46.4672 193.397 46.416C193.538 45.8894 193.976 45.4762 194.534 45.3427C194.588 45.3299 194.588 45.2641 194.534 45.2513C193.976 45.1178 193.538 44.7046 193.397 44.178C193.383 44.1268 193.314 44.1268 193.3 44.178C193.159 44.7046 192.721 45.1178 192.164 45.2513C192.109 45.2641 192.109 45.3299 192.164 45.3427Z" fill="#27D1A8"/>
<path d="M188.222 47.5891C189.205 47.825 189.98 48.5563 190.229 49.4851C190.253 49.5747 190.375 49.5747 190.4 49.4851C190.649 48.5563 191.424 47.825 192.407 47.5891C192.502 47.5672 192.502 47.452 192.407 47.4282C191.422 47.1942 190.647 46.4628 190.4 45.534C190.376 45.4444 190.254 45.4444 190.229 45.534C189.98 46.4628 189.205 47.1942 188.222 47.43C188.127 47.452 188.127 47.5672 188.222 47.5891Z" fill="#2ED8B1"/>
<path d="M191.586 50.568C193.058 50.9209 194.218 52.0143 194.589 53.4038C194.626 53.5373 194.808 53.5373 194.843 53.4038C195.217 52.0143 196.374 50.9191 197.846 50.568C197.987 50.5333 197.987 50.3614 197.846 50.3285C196.374 49.9756 195.215 48.8823 194.843 47.4927C194.806 47.3592 194.624 47.3592 194.589 47.4927C194.216 48.8823 193.058 49.9775 191.586 50.3285C191.445 50.3614 191.445 50.5333 191.586 50.568Z" fill="#14BD91"/>
</g>
<g opacity="0.7" clip-path="url(#clip1_7416_13187)">
<path d="M129.355 171.413C130.231 171.635 130.919 172.323 131.141 173.199C131.162 173.284 131.272 173.284 131.293 173.199C131.515 172.323 132.203 171.635 133.079 171.413C133.164 171.392 133.164 171.282 133.079 171.261C132.203 171.039 131.515 170.351 131.293 169.475C131.272 169.39 131.162 169.39 131.141 169.475C130.919 170.351 130.231 171.039 129.355 171.261C129.27 171.282 129.27 171.392 129.355 171.413Z" fill="#27D1A8"/>
<path d="M123.151 175.156C124.696 175.548 125.913 176.765 126.306 178.311C126.342 178.46 126.534 178.46 126.574 178.311C126.966 176.765 128.183 175.548 129.729 175.156C129.878 175.119 129.878 174.927 129.729 174.888C128.18 174.498 126.963 173.281 126.574 171.736C126.537 171.587 126.345 171.587 126.306 171.736C125.913 173.281 124.696 174.498 123.151 174.891C123.002 174.927 123.002 175.119 123.151 175.156Z" fill="#2ED8B1"/>
<path d="M128.428 180.094C130.741 180.681 132.563 182.5 133.147 184.812C133.205 185.035 133.491 185.035 133.546 184.812C134.133 182.5 135.952 180.678 138.265 180.094C138.487 180.036 138.487 179.75 138.265 179.695C135.952 179.108 134.13 177.288 133.546 174.976C133.488 174.754 133.202 174.754 133.147 174.976C132.56 177.288 130.741 179.111 128.428 179.695C128.206 179.75 128.206 180.036 128.428 180.094Z" fill="#14BD91"/>
</g>
<g clip-path="url(#clip2_7416_13187)">
<path d="M20.9679 8.23552C22.3221 8.57877 23.3847 9.64142 23.728 10.9956C23.7609 11.1273 23.9301 11.1273 23.9631 10.9956C24.3063 9.64142 25.369 8.57877 26.7231 8.23552C26.8548 8.20261 26.8548 8.03333 26.7231 8.00042C25.369 7.65717 24.3063 6.59452 23.9631 5.24034C23.9301 5.10869 23.7609 5.10869 23.728 5.24034C23.3847 6.59452 22.3221 7.65717 20.9679 8.00042C20.8362 8.03333 20.8362 8.20261 20.9679 8.23552Z" fill="#27D1A8"/>
<path d="M11.3935 14.0067C13.7821 14.6132 15.6629 16.494 16.2695 18.8827C16.3259 19.1131 16.6221 19.1131 16.6833 18.8827C17.2898 16.494 19.1706 14.6132 21.5592 14.0067C21.7896 13.9503 21.7896 13.654 21.5592 13.5929C19.1659 12.991 17.2851 11.1102 16.6833 8.72163C16.6268 8.49123 16.3306 8.49123 16.2695 8.72163C15.6629 11.1102 13.7821 12.991 11.3935 13.5976C11.1631 13.654 11.1631 13.9503 11.3935 14.0067Z" fill="#2ED8B1"/>
<path d="M19.5426 21.6389C23.1161 22.5463 25.9326 25.3581 26.8354 28.9317C26.9247 29.2749 27.3667 29.2749 27.4514 28.9317C28.3588 25.3581 31.1706 22.5416 34.7442 21.6389C35.0874 21.5495 35.0874 21.1075 34.7442 21.0229C31.1706 20.1154 28.3541 17.3036 27.4514 13.7301C27.362 13.3868 26.92 13.3868 26.8354 13.7301C25.9279 17.3036 23.1161 20.1201 19.5426 21.0229C19.1993 21.1075 19.1993 21.5495 19.5426 21.6389Z" fill="#14BD91"/>
</g>
<g clip-path="url(#clip3_7416_13187)">
<path d="M203.65 118.692C205.004 119.035 206.066 120.097 206.41 121.452C206.443 121.583 206.612 121.583 206.645 121.452C206.988 120.097 208.051 119.035 209.405 118.692C209.536 118.659 209.536 118.489 209.405 118.456C208.051 118.113 206.988 117.051 206.645 115.696C206.612 115.565 206.443 115.565 206.41 115.696C206.066 117.051 205.004 118.113 203.65 118.456C203.518 118.489 203.518 118.659 203.65 118.692Z" fill="#27D1A8"/>
<path d="M194.077 124.464C196.466 125.07 198.347 126.951 198.953 129.34C199.009 129.57 199.306 129.57 199.367 129.34C199.973 126.951 201.854 125.07 204.243 124.464C204.473 124.407 204.473 124.111 204.243 124.05C201.85 123.448 199.969 121.567 199.367 119.179C199.31 118.948 199.014 118.948 198.953 119.179C198.347 121.567 196.466 123.448 194.077 124.055C193.847 124.111 193.847 124.407 194.077 124.464Z" fill="#2ED8B1"/>
<path d="M202.226 132.095C205.8 133.002 208.616 135.814 209.519 139.388C209.608 139.731 210.05 139.731 210.135 139.388C211.042 135.814 213.854 132.998 217.428 132.095C217.771 132.006 217.771 131.564 217.428 131.479C213.854 130.571 211.038 127.76 210.135 124.186C210.046 123.843 209.604 123.843 209.519 124.186C208.612 127.76 205.8 130.576 202.226 131.479C201.883 131.564 201.883 132.006 202.226 132.095Z" fill="#14BD91"/>
</g>
<circle opacity="0.5" cx="77.6372" cy="22.147" r="5.66453" stroke="url(#paint2_linear_7416_13187)" stroke-width="1.13291"/>
<circle cx="179.598" cy="168.008" r="5.66453" stroke="url(#paint3_linear_7416_13187)" stroke-width="1.13291"/>
<circle cx="6.83055" cy="102.867" r="5.66453" stroke="url(#paint4_linear_7416_13187)" stroke-width="1.13291"/>
<circle cx="118.705" cy="13.6505" r="1.41613" stroke="url(#paint5_linear_7416_13187)" stroke-width="2.83226"/>
<circle cx="6.83019" cy="102.866" r="1.41613" stroke="url(#paint6_linear_7416_13187)" stroke-width="2.83226"/>
<circle cx="28.0724" cy="53.3019" r="1.41613" stroke="url(#paint7_linear_7416_13187)" stroke-width="2.83226"/>
<circle cx="193.76" cy="58.9665" r="8.49679" stroke="url(#paint8_linear_7416_13187)" stroke-width="1.69936"/>
<g opacity="0.6">
<path d="M165.071 7.50916L163.217 4.61456M163.217 4.61456L161.363 1.71996M163.217 4.61456L166.221 2.92143M163.217 4.61456L160.213 6.30769" stroke="url(#paint9_linear_7416_13187)" stroke-width="1.32762" stroke-linecap="round"/>
</g>
<g opacity="0.3">
<path d="M53.1984 163.969L51.3444 161.075M51.3444 161.075L49.4903 158.18M51.3444 161.075L54.3484 159.381M51.3444 161.075L48.3404 162.768" stroke="url(#paint10_linear_7416_13187)" stroke-width="1.32762" stroke-linecap="round"/>
</g>
<defs>
<linearGradient id="paint0_linear_7416_13187" x1="203.109" y1="219.941" x2="7.49395" y2="-102.559" gradientUnits="userSpaceOnUse">
<stop stop-color="#00A676"/>
<stop offset="1" stop-color="#00EDBD" stop-opacity="0.69"/>
</linearGradient>
<linearGradient id="paint1_linear_7416_13187" x1="42.8921" y1="139.139" x2="38.8814" y2="132.137" gradientUnits="userSpaceOnUse">
<stop stop-color="#00A676"/>
<stop offset="1" stop-color="#00EDBD" stop-opacity="0.69"/>
</linearGradient>
<linearGradient id="paint2_linear_7416_13187" x1="85.9315" y1="33.6109" x2="68.4659" y2="4.81619" gradientUnits="userSpaceOnUse">
<stop stop-color="#00A676"/>
<stop offset="1" stop-color="#00EDBD" stop-opacity="0.69"/>
</linearGradient>
<linearGradient id="paint3_linear_7416_13187" x1="187.892" y1="179.472" x2="170.427" y2="150.678" gradientUnits="userSpaceOnUse">
<stop stop-color="#00A676"/>
<stop offset="1" stop-color="#00EDBD" stop-opacity="0.69"/>
</linearGradient>
<linearGradient id="paint4_linear_7416_13187" x1="15.1249" y1="114.331" x2="-2.34073" y2="85.5359" gradientUnits="userSpaceOnUse">
<stop stop-color="#00A676"/>
<stop offset="1" stop-color="#00EDBD" stop-opacity="0.69"/>
</linearGradient>
<linearGradient id="paint5_linear_7416_13187" x1="120.779" y1="16.5165" x2="116.412" y2="9.31782" gradientUnits="userSpaceOnUse">
<stop stop-color="#00A676"/>
<stop offset="1" stop-color="#00EDBD" stop-opacity="0.69"/>
</linearGradient>
<linearGradient id="paint6_linear_7416_13187" x1="8.90379" y1="105.732" x2="4.53738" y2="98.5336" gradientUnits="userSpaceOnUse">
<stop stop-color="#00A676"/>
<stop offset="1" stop-color="#00EDBD" stop-opacity="0.69"/>
</linearGradient>
<linearGradient id="paint7_linear_7416_13187" x1="30.146" y1="56.1679" x2="25.7796" y2="48.9692" gradientUnits="userSpaceOnUse">
<stop stop-color="#00A676"/>
<stop offset="1" stop-color="#00EDBD" stop-opacity="0.69"/>
</linearGradient>
<linearGradient id="paint8_linear_7416_13187" x1="206.202" y1="76.1624" x2="180.004" y2="32.9704" gradientUnits="userSpaceOnUse">
<stop stop-color="#00A676"/>
<stop offset="1" stop-color="#00EDBD" stop-opacity="0.69"/>
</linearGradient>
<linearGradient id="paint9_linear_7416_13187" x1="171.368" y1="7.9935" x2="152.971" y2="-2.03178" gradientUnits="userSpaceOnUse">
<stop stop-color="#00A676"/>
<stop offset="1" stop-color="#00EDBD" stop-opacity="0.69"/>
</linearGradient>
<linearGradient id="paint10_linear_7416_13187" x1="59.4953" y1="164.453" x2="41.0978" y2="154.428" gradientUnits="userSpaceOnUse">
<stop stop-color="#00A676"/>
<stop offset="1" stop-color="#00EDBD" stop-opacity="0.69"/>
</linearGradient>
<clipPath id="clip0_7416_13187">
<rect width="9.91293" height="9.36132" fill="white" transform="translate(188.096 44.1523)"/>
</clipPath>
<clipPath id="clip1_7416_13187">
<rect width="15.5775" height="15.5775" fill="white" transform="translate(122.953 169.425)"/>
</clipPath>
<clipPath id="clip2_7416_13187">
<rect width="24.0743" height="24.0743" fill="white" transform="translate(11.0781 5.15332)"/>
</clipPath>
<clipPath id="clip3_7416_13187">
<rect width="24.0743" height="24.0743" fill="white" transform="translate(193.76 115.612)"/>
</clipPath>
</defs>
</svg>
