<svg width="36" height="36" viewBox="0 0 36 36" fill="none" xmlns="http://www.w3.org/2000/svg">
<path d="M9.51455 26.0207C9.57955 26.0207 9.64455 26.0142 9.70955 26.0044L15.176 25.0457C15.241 25.0327 15.3028 25.0035 15.3483 24.9547L29.125 11.178C29.1552 11.1479 29.1791 11.1122 29.1954 11.0729C29.2117 11.0335 29.2201 10.9914 29.2201 10.9488C29.2201 10.9063 29.2117 10.8641 29.1954 10.8248C29.1791 10.7855 29.1552 10.7498 29.125 10.7197L23.7235 5.31495C23.6618 5.2532 23.5805 5.2207 23.4928 5.2207C23.405 5.2207 23.3238 5.2532 23.262 5.31495L9.4853 19.0917C9.43655 19.1405 9.4073 19.1989 9.3943 19.264L8.43555 24.7304C8.40393 24.9046 8.41523 25.0837 8.46846 25.2525C8.52169 25.4213 8.61525 25.5745 8.74105 25.6989C8.95555 25.9069 9.2253 26.0207 9.51455 26.0207ZM11.705 20.3527L23.4928 8.5682L25.875 10.9505L14.0873 22.735L11.198 23.2452L11.705 20.3527ZM29.7393 28.7507H5.8193C5.24405 28.7507 4.7793 29.2155 4.7793 29.7907V30.9607C4.7793 31.1037 4.8963 31.2207 5.0393 31.2207H30.5193C30.6623 31.2207 30.7793 31.1037 30.7793 30.9607V29.7907C30.7793 29.2155 30.3145 28.7507 29.7393 28.7507Z" fill="white"/>
</svg>
