<svg width="17" height="16" viewBox="0 0 17 16" fill="none" xmlns="http://www.w3.org/2000/svg">
<path fill-rule="evenodd" clip-rule="evenodd" d="M13.7761 1.04028L15.9826 3.12085C16.5919 3.69538 16.5919 4.62688 15.9826 5.20142L5.50179 15.0841C5.2092 15.36 4.81235 15.515 4.39855 15.515L2.19207 15.515C1.33039 15.515 0.631858 14.8563 0.631857 14.0438L0.631857 11.9633C0.631858 11.5731 0.796236 11.1989 1.08883 10.923L11.5696 1.04028C12.1789 0.465751 13.1668 0.465751 13.7761 1.04028ZM10.2298 4.38424L2.19207 11.9633L2.19207 14.0438L4.39855 14.0438L12.4362 6.4648L10.2298 4.38424ZM11.333 3.34396L13.5395 5.42452L14.8793 4.16113L12.6729 2.08057L11.333 3.34396Z" fill="#A0A4AF"/>
</svg>
