<svg width="21" height="21" viewBox="0 0 21 21" fill="none" xmlns="http://www.w3.org/2000/svg">
<path d="M0.875 15.75C0.875 13.7812 3.5 13.7812 4.8125 12.4688C5.46875 11.8125 3.5 11.8125 3.5 8.53125C3.5 6.34397 4.37478 5.25 6.125 5.25C7.87522 5.25 8.75 6.34397 8.75 8.53125C8.75 11.8125 6.78125 11.8125 7.4375 12.4688C8.75 13.7812 11.375 13.7812 11.375 15.75" stroke="#283049" stroke-linecap="round"/>
<path d="M10.4954 14.2127C10.9915 13.8708 11.6356 13.6246 12.2518 13.3278C12.7337 13.0957 13.1986 12.8327 13.5625 12.4688C14.2188 11.8125 12.25 11.8125 12.25 8.53125C12.25 6.34397 13.1248 5.25 14.875 5.25C16.6252 5.25 17.5 6.34397 17.5 8.53125C17.5 11.8125 15.5313 11.8125 16.1875 12.4688C17.5 13.7812 20.125 13.7812 20.125 15.75" stroke="#283049" stroke-linecap="round"/>
</svg>
