<svg width="58" height="98" viewBox="0 0 58 98" fill="none" xmlns="http://www.w3.org/2000/svg">
<path d="M47.125 0.666748C50.0092 0.666748 52.7753 1.8125 54.8148 3.85196C56.8542 5.89142 58 8.65752 58 11.5417V86.4584C58 89.3427 56.8542 92.1087 54.8148 94.1482C52.7753 96.1877 50.0092 97.3334 47.125 97.3334H10.875C7.99077 97.3334 5.22467 96.1877 3.18521 94.1482C1.14576 92.1087 0 89.3427 0 86.4584V11.5417C0 8.65752 1.14576 5.89142 3.18521 3.85196C5.22467 1.8125 7.99077 0.666748 10.875 0.666748H47.125Z" fill="#474747"/>
<path d="M18.98 44.28H17.12L17.52 47.2L15.18 45.4L14.26 47.04L16.98 48.02L14.26 49.04L15.22 50.74L17.5 48.9L17.12 51.8H18.96L18.54 48.9L20.82 50.7L21.74 49.06L19 48.04L21.74 47.02L20.84 45.42L18.54 47.2L18.98 44.28ZM29.0581 44.28H27.1981L27.5981 47.2L25.2581 45.4L24.3381 47.04L27.0581 48.02L24.3381 49.04L25.2981 50.74L27.5781 48.9L27.1981 51.8H29.0381L28.6181 48.9L30.8981 50.7L31.8181 49.06L29.0781 48.04L31.8181 47.02L30.9181 45.42L28.6181 47.2L29.0581 44.28ZM39.1363 44.28H37.2763L37.6763 47.2L35.3363 45.4L34.4163 47.04L37.1363 48.02L34.4163 49.04L35.3763 50.74L37.6563 48.9L37.2763 51.8H39.1163L38.6963 48.9L40.9763 50.7L41.8963 49.06L39.1563 48.04L41.8963 47.02L40.9963 45.42L38.6963 47.2L39.1363 44.28Z" fill="white"/>
</svg>
