<svg width="24" height="24" viewBox="0 0 24 24" fill="none" xmlns="http://www.w3.org/2000/svg">
<path fill-rule="evenodd" clip-rule="evenodd" d="M8.98647 5.03832C8.90078 4.43696 8.38468 3.9929 7.77759 3.99996L7.77178 4.00003L5.2136 4C5.21272 4.00009 5.20623 4.00054 5.18653 4.00251C5.18524 4.00264 5.18385 4.00278 5.18234 4.00294C5.16376 4.00482 5.12899 4.00833 5.08922 4.00956C4.43181 4.0736 3.94793 4.65584 4.00928 5.31C4.28129 7.8705 5.1544 10.3244 6.55126 12.4779L6.55371 12.4817C7.82432 14.4797 9.52161 16.177 11.5292 17.4475L11.5339 17.4505C13.6872 18.8472 16.1425 19.7114 18.6966 19.993C18.7092 19.9944 18.7218 19.9963 18.7343 19.9986C18.7362 19.9988 18.7395 19.999 18.7445 19.9993C18.7588 19.9999 18.7752 20 18.8018 20C19.4618 20 20.0018 19.4577 20.0018 18.79V16.2185C20.016 15.6011 19.5711 15.0831 18.9683 15.006L18.9653 15.0056C18.1083 14.8906 17.2721 14.6815 16.4575 14.3787L16.4513 14.3763C16.016 14.2078 15.5154 14.3135 15.1853 14.6435L15.1837 14.6452L14.0937 15.7252C13.9343 15.8831 13.6891 15.9155 13.4941 15.8044C11.2772 14.5405 9.44229 12.7164 8.17741 10.4976C8.06541 10.3012 8.09921 10.054 8.25986 9.89482L9.34689 8.81776C9.66868 8.48699 9.77567 7.98284 9.61312 7.54424M8.98647 5.03832C9.10148 5.89466 9.31049 6.73025 9.61312 7.54424L8.98647 5.03832ZM7.76905 3C8.8801 2.9886 9.82202 3.80328 9.97687 4.9001L9.97735 4.90352C10.0824 5.68649 10.2733 6.45036 10.5504 7.19575C10.8473 7.99597 10.6553 8.91054 10.0591 9.51973L10.0537 9.52522L9.24007 10.3313C10.34 12.1369 11.8554 13.6443 13.6635 14.7437L14.4782 13.9364C14.4785 13.9362 14.4787 13.936 14.479 13.9357C15.0881 13.3272 16.0054 13.1329 16.8089 13.4424C17.5529 13.7188 18.3154 13.9093 19.0968 14.0142C20.2112 14.1576 21.0245 15.1159 21.0018 16.2354V18.79C21.0018 20.0023 20.0217 21 18.8018 21C18.7993 21 18.7965 21 18.7934 21C18.7532 21.0001 18.6625 21.0004 18.5704 20.9851C15.8713 20.685 13.2735 19.7703 10.992 18.291C8.86125 16.942 7.05984 15.1405 5.71109 13.0202C4.22915 10.7349 3.30282 8.1305 3.01457 5.41273L3.01403 5.40765C2.89723 4.18772 3.80518 3.11513 5.01938 3.0118M7.76905 3H5.21178C5.161 3 5.11396 3.00475 5.09121 3.00706C5.08971 3.00721 5.08831 3.00735 5.08703 3.00748C5.06706 3.00947 5.06066 3.00992 5.05993 3.01" fill="#F08B32"/>
</svg>
