<svg width="27" height="24" viewBox="0 0 27 24" fill="none" xmlns="http://www.w3.org/2000/svg">
<path d="M22.3975 0H4.30717C1.9382 0 0 1.9382 0 4.30717V15.0746C0 15.5483 0.387752 15.9361 0.861463 15.9361H4.3071V17.2283C4.3071 20.5447 7.02052 23.2581 10.3369 23.2581H20.2432C21.4062 23.2581 22.3966 22.2674 22.3966 21.1047L22.3972 15.9361H25.8428C26.3166 15.9361 26.7043 15.5483 26.7043 15.0746V4.30717C26.7043 1.9382 24.7661 0 22.3971 0H22.3975ZM6.11663 18.0897C6.59036 18.3482 7.15038 18.5204 7.75337 18.5204H9.0456V19.8126C9.0456 20.4156 9.17485 20.9756 9.47634 21.4494C7.79661 21.1049 6.4614 19.7697 6.11667 18.0897L6.11663 18.0897ZM20.6746 21.1049C20.6746 21.3201 20.4594 21.5356 20.2439 21.5356L12.4911 21.5354C11.5435 21.5354 10.7681 20.7602 10.7681 19.8124V17.659C10.7681 17.1852 10.3803 16.7975 9.9066 16.7975H7.75318C6.80568 16.7975 6.03019 16.0223 6.03019 15.0745V11.1981H20.674L20.6746 21.1049ZM24.9818 14.2133H22.3976V10.3369C22.3976 9.86312 22.0099 9.47539 21.5361 9.47539L5.16871 9.47567C4.69497 9.47567 4.30724 9.86342 4.30724 10.3371V14.2135H1.72306V4.30724C1.72306 2.88577 2.88605 1.72306 4.30724 1.72306H22.3969C23.8184 1.72306 24.9811 2.88605 24.9811 4.30724L24.9818 14.2133Z" fill="#A0A4AF"/>
</svg>
