<svg width="43" height="44" viewBox="0 0 43 44" fill="none" xmlns="http://www.w3.org/2000/svg">
<circle cx="21.5" cy="21.8225" r="21.5" fill="#F2F2F0"/>
<path d="M27.9773 16.6213H25.8228C25.6319 15.6713 25.1409 14.8045 24.4318 14.1037H27.9773C28.5364 14.1037 29 13.7 29 13.2131C29 12.7263 28.5364 12.3225 27.9773 12.3225H15.0227C14.4636 12.3225 14 12.7263 14 13.2131C14 13.7 14.4636 14.1037 15.0227 14.1037H19.9728C21.7726 14.1037 23.2864 15.1725 23.7363 16.6213H15.0228C14.4637 16.6213 14.0001 17.0251 14.0001 17.5119C14.0001 17.9988 14.4637 18.4026 15.0228 18.4026H23.7363C23.2863 19.8512 21.7726 20.9318 19.9728 20.9318H15.0364C14.9001 20.9318 14.7773 20.9555 14.641 21.003C14.3819 21.0863 14.1774 21.2644 14.0819 21.4781C13.9728 21.6918 13.9728 21.9411 14.0819 22.1551C14.1365 22.2737 14.2045 22.3688 14.2999 22.4519L24.1864 31.0613C24.3909 31.2394 24.65 31.3225 24.9091 31.3225C25.1682 31.3225 25.4273 31.2394 25.6319 31.0613C26.0272 30.7168 26.0272 30.1468 25.6319 29.8025L17.491 22.7132H19.9592C22.9045 22.7132 25.3319 20.8489 25.8226 18.4027H27.9771C28.5362 18.4027 28.9999 17.999 28.9999 17.5121C28.9999 17.0252 28.5364 16.6213 27.9773 16.6213Z" fill="#F08B32"/>
</svg>
