<svg width="111" height="171" viewBox="0 0 111 171" fill="none" xmlns="http://www.w3.org/2000/svg">
<path d="M108.615 160.827H2.11537L2.21527 159.149C4.22296 125.358 18.9583 98.7725 39.7492 91.4199C42.2731 90.5291 43.9686 88.1315 43.9686 85.455C43.9686 82.7799 42.2717 80.3824 39.7492 79.4916C18.9533 72.1393 4.22215 45.5533 2.21172 11.7621L2.11182 10.0874H108.611L108.51 11.7621C106.502 45.5547 91.7698 72.1389 70.9761 79.4951C68.4536 80.3859 66.7567 82.7835 66.7567 85.4586C66.7567 88.1365 68.4549 90.5326 70.9761 91.4234C91.7705 98.7729 106.503 125.362 108.51 159.153L108.615 160.827ZM5.48266 157.662H105.244C102.942 125.944 89.1783 101.21 69.9251 94.4009C66.1373 93.0647 63.5954 89.4697 63.5954 85.4541C63.5954 81.44 66.1359 77.845 69.9251 76.5074C89.178 69.7003 102.942 44.9681 105.244 13.2499H5.48266C7.78315 44.9695 21.5483 69.7017 40.803 76.5074C44.5866 77.8463 47.1298 81.44 47.1298 85.4541C47.1298 89.4697 44.5851 93.0646 40.8002 94.4009C21.5487 101.211 7.78329 125.94 5.48266 157.662Z" fill="#A0A4AF"/>
<path d="M23.097 58.3869C28.3071 65.7225 34.6758 70.9883 41.8558 73.5259C46.9021 75.3088 53.458 80.1042 53.458 85.4542C53.458 90.807 46.9035 125.656 41.8558 127.439C33.2117 130.494 11.5097 128.775 8.92773 154.499H101.795C99.2153 128.776 77.5122 130.497 68.8666 127.439C63.8217 125.656 57.2686 90.807 57.2686 85.4542C57.2686 80.1042 63.8203 75.3061 68.8694 73.5259C76.0498 70.9854 82.421 65.7211 87.6311 58.3841L23.097 58.3869Z" fill="#A0A4AF"/>
<path d="M110.724 167.448C110.724 169.357 109.175 170.907 107.264 170.907H3.46043C1.54846 170.907 0 169.357 0 167.448C0 165.536 1.54984 163.987 3.46043 163.987H107.264C109.176 163.984 110.724 165.536 110.724 167.448Z" fill="#A0A4AF"/>
<path d="M110.724 3.46043C110.724 5.36962 109.175 6.91947 107.264 6.91947H3.46043C1.54846 6.91947 0 5.36962 0 3.46043C0 1.54846 1.54984 0 3.46043 0H107.264C109.176 0.00138741 110.724 1.54846 110.724 3.46043Z" fill="#A0A4AF"/>
</svg>
