<svg width="54" height="52" viewBox="0 0 54 52" fill="none" xmlns="http://www.w3.org/2000/svg">
<ellipse cx="25" cy="27.5" rx="25" ry="24.5" fill="#F2F2F0"/>
<path d="M26 19V25H32" stroke="#283049" stroke-width="2" stroke-linejoin="round"/>
<path d="M32 24L27 19L18 19L18 37H32L32 24Z" stroke="#283049" stroke-width="2" stroke-linecap="round" stroke-linejoin="round"/>
<path d="M45.1524 4.67021V8.22074L48.3012 10C48.3569 10.0314 48.4058 10.0733 48.4449 10.1232C48.4841 10.1731 48.5128 10.23 48.5295 10.2908C48.5462 10.3515 48.5504 10.4149 48.5421 10.4773C48.5337 10.5396 48.5128 10.5998 48.4807 10.6543C48.4486 10.7087 48.4058 10.7565 48.3547 10.7948C48.3037 10.8331 48.2455 10.8612 48.1834 10.8775C48.1213 10.8938 48.0565 10.898 47.9927 10.8898C47.929 10.8816 47.8675 10.8612 47.8118 10.8298L44.4182 8.91489H44.41L44.3856 8.89894L44.3611 8.88298H44.3448L44.3285 8.85904H44.3122L44.2958 8.83511L44.2795 8.81915L44.2632 8.80319V8.78723L44.2469 8.7633C44.2469 8.75532 44.2387 8.74734 44.2387 8.73936C44.2387 8.73138 44.2306 8.73138 44.2306 8.7234L44.2143 8.69947C44.2143 8.69149 44.2143 8.68351 44.2061 8.68351C44.2063 8.67236 44.2035 8.66135 44.1979 8.6516V8.63564C44.195 8.6324 44.1927 8.62861 44.1913 8.62449C44.1899 8.62038 44.1894 8.61602 44.1898 8.6117V8.58777C44.1868 8.58453 44.1846 8.58073 44.1832 8.57662C44.1818 8.5725 44.1813 8.56815 44.1816 8.56383V4.67021C44.1816 4.54325 44.2332 4.42148 44.325 4.33171C44.4168 4.24193 44.5413 4.19149 44.6711 4.19149C44.8009 4.19149 44.9254 4.24193 45.0172 4.33171C45.109 4.42148 45.1605 4.54325 45.1605 4.67021H45.1524ZM52.9184 6.50532C52.9352 6.48041 52.9489 6.45362 52.9592 6.42553C52.9735 6.40042 52.9845 6.3736 52.9918 6.34575C52.9918 6.32181 53 6.28989 53 6.25798V3.06649C53 2.93953 52.9484 2.81776 52.8566 2.72798C52.7649 2.63821 52.6404 2.58777 52.5105 2.58777C52.3807 2.58777 52.2562 2.63821 52.1644 2.72798C52.0727 2.81776 52.0211 2.93953 52.0211 3.06649V5.08511L50.0877 3.19415C49.015 2.14598 47.6487 1.43239 46.1614 1.14359C44.6741 0.854782 43.1327 1.00373 41.732 1.5716C40.3312 2.13947 39.1341 3.10076 38.2918 4.33398C37.4495 5.56719 37 7.01695 37 8.5C37 9.98305 37.4495 11.4328 38.2918 12.666C39.1341 13.8992 40.3312 14.8605 41.732 15.4284C43.1327 15.9963 44.6741 16.1452 46.1614 15.8564C47.6487 15.5676 49.015 14.854 50.0877 13.8058C50.1779 13.715 50.2284 13.5934 50.2284 13.4668C50.2284 13.3401 50.1779 13.2185 50.0877 13.1277C50.0428 13.082 49.989 13.0458 49.9294 13.021C49.8698 12.9962 49.8058 12.9834 49.741 12.9834C49.6763 12.9834 49.6122 12.9962 49.5527 13.021C49.4931 13.0458 49.4392 13.082 49.3943 13.1277C48.4587 14.0423 47.2668 14.665 45.9693 14.9171C44.6718 15.1693 43.327 15.0395 42.105 14.5442C40.8829 14.0489 39.8384 13.2103 39.1036 12.1344C38.3687 11.0586 37.9765 9.79383 37.9765 8.5C37.9765 7.20617 38.3687 5.94139 39.1036 4.86556C39.8384 3.78973 40.8829 2.95115 42.105 2.45584C43.327 1.96054 44.6718 1.83075 45.9693 2.08288C47.2668 2.33501 48.4587 2.95774 49.3943 3.87234L51.3277 5.7633H49.2475C49.1177 5.7633 48.9932 5.81374 48.9014 5.90351C48.8096 5.99329 48.758 6.11506 48.758 6.24202C48.758 6.36899 48.8096 6.49075 48.9014 6.58053C48.9932 6.67031 49.1177 6.72074 49.2475 6.72074H52.6003L52.69 6.69681L52.7716 6.65692H52.7797L52.8532 6.60106L52.9184 6.52128V6.50532Z" fill="#F08B32" stroke="#F08B32" stroke-width="0.5"/>
</svg>
