<svg width="25" height="25" viewBox="0 0 25 25" fill="none" xmlns="http://www.w3.org/2000/svg">
<rect x="10.4033" y="3.32227" width="7" height="7" transform="rotate(90 10.4033 3.32227)" stroke="white" stroke-linecap="round"/>
<rect width="1" height="1" transform="matrix(-1 0 0 1 7.40332 6.32227)" stroke="white" stroke-linecap="round"/>
<rect x="10.4033" y="14.3223" width="7" height="7" transform="rotate(90 10.4033 14.3223)" stroke="white" stroke-linecap="round"/>
<rect x="6.40332" y="17.3223" width="1" height="1" stroke="white" stroke-linecap="round"/>
<rect x="14.4033" y="20.3223" width="1" height="1" stroke="white" stroke-linecap="round"/>
<rect x="17.4033" y="17.3223" width="1" height="1" stroke="white" stroke-linecap="round"/>
<rect x="14.4033" y="14.3223" width="1" height="1" stroke="white" stroke-linecap="round"/>
<rect x="20.4033" y="17.3223" width="1" height="1" stroke="white" stroke-linecap="round"/>
<rect x="20.4033" y="14.3223" width="1" height="1" stroke="white" stroke-linecap="round"/>
<rect x="20.4033" y="20.3223" width="1" height="1" stroke="white" stroke-linecap="round"/>
<rect x="21.4033" y="3.32227" width="7" height="7" transform="rotate(90 21.4033 3.32227)" stroke="white" stroke-linecap="round"/>
<rect x="17.4033" y="6.32227" width="1" height="1" stroke="white" stroke-linecap="round"/>
</svg>
