<svg width="9" height="15" viewBox="0 0 9 15" fill="none" xmlns="http://www.w3.org/2000/svg">
<path d="M3.667 9.991L3.173 7.312C3.667 7.18533 4.11033 7.046 4.503 6.894C4.89567 6.72933 5.23133 6.55833 5.51 6.381C5.80133 6.191 6.042 5.98833 6.232 5.773C6.422 5.55767 6.56133 5.32967 6.65 5.089C6.75133 4.83567 6.802 4.56967 6.802 4.291C6.802 3.92367 6.70067 3.59433 6.498 3.303C6.308 3.01167 6.042 2.78367 5.7 2.619C5.358 2.45433 4.97167 2.372 4.541 2.372C4.03433 2.372 3.54033 2.54933 3.059 2.904C2.59033 3.246 2.185 3.73367 1.843 4.367L0.418 3.17C0.962667 2.334 1.60867 1.688 2.356 1.232C3.116 0.763332 3.90767 0.528999 4.731 0.528999C5.529 0.528999 6.24467 0.693666 6.878 1.023C7.51133 1.35233 8.01167 1.802 8.379 2.372C8.759 2.942 8.949 3.58167 8.949 4.291C8.949 4.709 8.86033 5.12067 8.683 5.526C8.51833 5.91867 8.27767 6.29233 7.961 6.647C7.64433 7.00167 7.27067 7.31833 6.84 7.597C6.422 7.87567 5.95967 8.10367 5.453 8.281L5.13 9.991H3.667ZM3.002 12.784C3.002 12.366 3.12233 12.024 3.363 11.758C3.60367 11.492 3.92033 11.359 4.313 11.359C4.731 11.359 5.054 11.4857 5.282 11.739C5.51 11.9797 5.624 12.328 5.624 12.784C5.624 13.202 5.50367 13.544 5.263 13.81C5.02233 14.076 4.70567 14.209 4.313 14.209C3.895 14.209 3.572 14.0887 3.344 13.848C3.116 13.5947 3.002 13.24 3.002 12.784Z" fill="#A0A4AF"/>
</svg>
