<svg width="18" height="19" viewBox="0 0 18 19" fill="none" xmlns="http://www.w3.org/2000/svg">
<path d="M6.36965 2.6741L6.36985 2.67438C6.50128 2.85846 6.71021 2.99221 6.95768 2.99221H15.1493C15.29 2.99221 15.4578 3.07271 15.6065 3.28127C15.7542 3.48849 15.8579 3.79419 15.8579 4.14767L15.858 6.34193H0.4V1.55546C0.4 1.20131 0.50312 0.8956 0.650227 0.688705C0.797954 0.480936 0.965527 0.4 1.10854 0.4H4.49684C4.63271 0.4 4.80295 0.475957 4.95448 0.688382C4.9545 0.688416 4.95453 0.68845 4.95455 0.688484L6.36965 2.6741Z" stroke="#283049" stroke-width="0.8"/>
<path d="M15.858 9.19804V6.52924H0.4V14.1234C0.4 14.5964 0.745106 14.9228 1.10854 14.9228H7.74419C7.73472 14.792 7.7292 14.6587 7.7292 14.5231L15.858 9.19804ZM15.858 9.19804C15.0938 8.77061 14.2252 8.52614 13.302 8.52614C10.1994 8.52614 7.72907 11.2462 7.7292 14.523L15.858 9.19804Z" stroke="#283049" stroke-width="0.8"/>
<path d="M10.8976 14.0988C10.9166 14.0508 10.9441 14.0074 10.9787 13.9711L10.8976 14.0988ZM10.8976 14.0988C10.8787 14.1467 10.8685 14.1983 10.8685 14.2513C10.8685 14.3043 10.8787 14.356 10.8976 14.4038M10.8976 14.0988V14.4038M12.1947 12.106L10.6888 13.6954C10.6887 13.6955 10.6886 13.6956 10.6885 13.6958L10.6883 13.696L12.1947 12.106ZM12.1947 12.106C12.4989 11.7849 13.0015 11.7847 13.3057 12.106L12.1947 12.106ZM10.8976 14.4038C10.9167 14.452 10.9443 14.4953 10.9787 14.5316L12.4851 16.1216M10.8976 14.4038L10.5256 14.5509C10.5632 14.6461 10.6184 14.7329 10.6883 14.8067L10.6883 14.8067L12.1945 16.3964L12.4851 16.1216M12.4851 16.1216L12.1948 16.3967L12.1945 16.3965L13.3058 12.1061C13.5983 12.4149 13.5984 12.907 13.3057 13.2159C13.3057 13.2159 13.3057 13.2159 13.3056 13.216L13.0788 13.4554H15.7569C16.205 13.4554 16.532 13.832 16.532 14.2512C16.532 14.6707 16.2049 15.0473 15.7569 15.0473H13.0788L13.3057 15.2868L13.3057 15.2868C13.5983 15.5956 13.5984 16.0878 13.3057 16.3967C13.3057 16.3967 13.3056 16.3967 13.3056 16.3968L13.0153 16.1216M12.4851 16.1216C12.5583 16.199 12.6543 16.2376 12.7502 16.2376C12.8461 16.2376 12.9421 16.1988 13.0153 16.1216M13.0153 16.1216C13.1618 15.9671 13.1618 15.7165 13.0153 15.5619L12.5277 15.0473L13.0153 16.1216ZM9.40021 14.25C9.40021 11.8336 11.2589 9.9 13.5002 9.9C15.7414 9.9 17.6002 11.8336 17.6002 14.25C17.6002 16.6701 15.7417 18.5999 13.5002 18.5999C11.2587 18.5999 9.40021 16.6701 9.40021 14.25Z" stroke="#283049" stroke-width="0.8"/>
</svg>
