<svg width="16" height="16" viewBox="0 0 16 16" fill="none" xmlns="http://www.w3.org/2000/svg">
<path d="M2.80019 3.60015C2.71779 3.60015 2.63779 3.60655 2.55859 3.61855C2.71205 3.2571 2.96851 2.94882 3.296 2.73215C3.62349 2.51549 4.00752 2.40002 4.40019 2.40015H11.6002C12.1306 2.40015 12.6393 2.61086 13.0144 2.98593C13.3895 3.36101 13.6002 3.86971 13.6002 4.40015V7.68015C13.3445 7.54932 13.0765 7.44401 12.8002 7.36575V4.40015C12.8002 4.08189 12.6738 3.77666 12.4487 3.55162C12.2237 3.32657 11.9185 3.20015 11.6002 3.20015H4.40019C3.98979 3.20015 3.62739 3.40655 3.41059 3.72015C3.21697 3.64048 3.00956 3.5997 2.80019 3.60015Z" fill="#283049"/>
<path d="M7.36599 12.8002C7.44519 13.0794 7.54999 13.3466 7.68039 13.6002H4.40039C3.86996 13.6002 3.36125 13.3894 2.98618 13.0144C2.6111 12.6393 2.40039 12.1306 2.40039 11.6002V6.74976C2.66277 6.81736 2.93801 6.81736 3.20039 6.74976V11.6002C3.20039 11.9184 3.32682 12.2236 3.55186 12.4487C3.77691 12.6737 4.08213 12.8002 4.40039 12.8002H7.36599Z" fill="#283049"/>
<path d="M7.67961 9.60017C7.82601 9.31377 8.00281 9.04577 8.20521 8.80017H5.99961C5.89352 8.80017 5.79178 8.84231 5.71677 8.91733C5.64175 8.99234 5.59961 9.09408 5.59961 9.20017C5.59961 9.30626 5.64175 9.408 5.71677 9.48301C5.79178 9.55803 5.89352 9.60017 5.99961 9.60017H7.67961Z" fill="#283049"/>
<path d="M2.8 4.40015C2.58783 4.40015 2.38434 4.48443 2.23431 4.63446C2.08429 4.78449 2 4.98797 2 5.20015C2 5.41232 2.08429 5.6158 2.23431 5.76583C2.38434 5.91586 2.58783 6.00015 2.8 6.00015C3.01217 6.00015 3.21566 5.91586 3.36569 5.76583C3.51571 5.6158 3.6 5.41232 3.6 5.20015C3.6 4.98797 3.51571 4.78449 3.36569 4.63446C3.21566 4.48443 3.01217 4.40015 2.8 4.40015Z" fill="#283049"/>
<path d="M5.99961 6.40015C5.89352 6.40015 5.79178 6.44229 5.71677 6.5173C5.64175 6.59232 5.59961 6.69406 5.59961 6.80015C5.59961 6.90623 5.64175 7.00797 5.71677 7.08299C5.79178 7.158 5.89352 7.20015 5.99961 7.20015H9.99961C10.1057 7.20015 10.2074 7.158 10.2825 7.08299C10.3575 7.00797 10.3996 6.90623 10.3996 6.80015C10.3996 6.69406 10.3575 6.59232 10.2825 6.5173C10.2074 6.44229 10.1057 6.40015 9.99961 6.40015H5.99961Z" fill="#283049"/>
<circle cx="11.6" cy="11.6" r="3.25" stroke="#283049" stroke-width="0.7"/>
<line x1="10.4392" y1="11.56" x2="12.9592" y2="11.56" stroke="#283049" stroke-width="0.480002" stroke-linecap="round"/>
<line x1="11.7016" y1="10.2394" x2="11.7081" y2="12.7594" stroke="#283049" stroke-width="0.480002" stroke-linecap="round"/>
</svg>
