<svg width="81" height="81" viewBox="0 0 81 81" fill="none" xmlns="http://www.w3.org/2000/svg">
<circle cx="40.3047" cy="40.9648" r="39.5" fill="white" stroke="#2F9682"/>
<path d="M50.6047 41.4685V41.9685H51.1047H56.5047C56.845 41.9685 57.1742 42.1073 57.4192 42.359C57.6645 42.6111 57.8047 42.9559 57.8047 43.3182V54.4159C57.8047 55.7593 57.2852 57.045 56.3647 57.9909C55.4447 58.9363 54.1998 59.4648 52.9047 59.4648H27.7047C26.4096 59.4648 25.1647 58.9363 24.2447 57.9909C23.3242 57.045 22.8047 55.7593 22.8047 54.4159V24.8218H22.8047L22.8047 24.8199C22.8038 24.5795 22.8647 24.3438 22.9804 24.1369C23.0961 23.9301 23.262 23.76 23.4598 23.6427L23.4598 23.6427C23.6568 23.5258 23.8792 23.4648 24.1047 23.4648C24.3302 23.4648 24.5526 23.5258 24.7496 23.6427L24.7496 23.6427L24.7509 23.6434L30.1509 26.8248L30.4047 26.9743L30.6585 26.8248L36.0585 23.6434L36.0598 23.6427C36.2568 23.5258 36.4792 23.4648 36.7047 23.4648C36.9302 23.4648 37.1526 23.5258 37.3496 23.6427L37.3509 23.6434L42.7509 26.8248L43.0047 26.9743L43.2585 26.8248L48.6585 23.6434L48.6598 23.6427C48.8568 23.5258 49.0792 23.4648 49.3047 23.4648C49.5302 23.4648 49.7526 23.5258 49.9496 23.6427C50.1474 23.76 50.3133 23.9301 50.4289 24.1369C50.5447 24.3438 50.6056 24.5795 50.6047 24.8199V24.8218V41.4685ZM26.1574 27.5903L25.4047 27.1494V28.0217V54.4159C25.4047 55.0348 25.6438 55.6309 26.0736 56.0725C26.5038 56.5146 27.0902 56.7656 27.7047 56.7656H47.8287H48.5356L48.3001 56.099C48.1093 55.5589 48.0093 54.9891 48.0047 54.414V28.0217V27.1494L47.252 27.5903L43.6606 29.6938C43.4571 29.8014 43.2322 29.8572 43.0047 29.8572C42.7773 29.8572 42.5527 29.8015 42.3493 29.694L36.9585 26.5181L36.7047 26.3686L36.4509 26.5181L31.0601 29.694C30.8567 29.8015 30.6321 29.8572 30.4047 29.8572C30.1771 29.8572 29.9523 29.8014 29.7488 29.6938L26.1574 27.5903ZM51.1047 44.6678H50.6047V45.1678V54.4159C50.6047 55.0348 50.8438 55.6309 51.2736 56.0725C51.7038 56.5146 52.2902 56.7656 52.9047 56.7656C53.5191 56.7656 54.1056 56.5146 54.5358 56.0725C54.9656 55.6309 55.2047 55.0348 55.2047 54.4159V45.1678V44.6678H54.7047H51.1047ZM30.3902 49.7575C30.6351 49.5058 30.9644 49.3671 31.3047 49.3671H42.1047C42.445 49.3671 42.7742 49.5058 43.0192 49.7575C43.2645 50.0096 43.4047 50.3544 43.4047 50.7167C43.4047 51.0789 43.2645 51.4237 43.0192 51.6759C42.7742 51.9275 42.445 52.0663 42.1047 52.0663H31.3047C30.9644 52.0663 30.6351 51.9275 30.3902 51.6759C30.1449 51.4237 30.0047 51.0789 30.0047 50.7167C30.0047 50.3544 30.1449 50.0096 30.3902 49.7575ZM38.5047 37.2693H34.9047C34.5644 37.2693 34.2351 37.1305 33.9902 36.8788C33.7449 36.6267 33.6047 36.2819 33.6047 35.9196C33.6047 35.5574 33.7449 35.2126 33.9902 34.9604C34.2351 34.7088 34.5644 34.57 34.9047 34.57H38.5047C38.845 34.57 39.1742 34.7088 39.4192 34.9604C39.6645 35.2126 39.8047 35.5574 39.8047 35.9196C39.8047 36.2819 39.6645 36.6267 39.4192 36.8788C39.1742 37.1305 38.845 37.2693 38.5047 37.2693ZM31.3047 41.9685H42.1047C42.445 41.9685 42.7742 42.1073 43.0192 42.359C43.2645 42.6111 43.4047 42.9559 43.4047 43.3182C43.4047 43.6804 43.2645 44.0252 43.0192 44.2773C42.7742 44.529 42.445 44.6678 42.1047 44.6678H31.3047C30.9644 44.6678 30.6351 44.529 30.3902 44.2773C30.1449 44.0252 30.0047 43.6804 30.0047 43.3182C30.0047 42.9559 30.1449 42.6111 30.3902 42.359C30.6351 42.1073 30.9644 41.9685 31.3047 41.9685Z" fill="#2F9682" stroke="white"/>
</svg>
