<svg width="25" height="26" viewBox="0 0 25 26" fill="none" xmlns="http://www.w3.org/2000/svg">
<path d="M6.32269 6.92827C2.97693 10.3929 3.07325 15.9108 6.53788 19.2566C10.0025 22.6023 15.5204 22.506 18.8662 19.0414C22.2119 15.5767 22.1156 10.0588 18.651 6.71308C15.1864 3.36732 9.66844 3.46364 6.32269 6.92827ZM9.28054 11.1531C8.80872 11.1862 8.40409 10.7954 8.39628 10.348L8.38674 9.80122C8.35364 9.3294 8.74439 8.92477 9.21707 8.94138L15.8286 8.82598C16.276 8.81817 16.6554 9.18449 16.6632 9.63189L16.7786 16.2434C16.7864 16.6908 16.4201 17.0702 15.9482 17.1033L15.4014 17.1128C14.954 17.1206 14.5494 16.7299 14.566 16.2572L14.5515 12.5777L10.0824 17.2057C9.76487 17.5344 9.24334 17.5684 8.88929 17.2265L8.48466 16.8357C8.1559 16.5183 8.14636 15.9714 8.46384 15.6427L12.933 11.0147L9.28054 11.1531Z" fill="#D56400"/>
</svg>
