<svg width="19" height="19" viewBox="0 0 19 19" fill="none" xmlns="http://www.w3.org/2000/svg">
<path fill-rule="evenodd" clip-rule="evenodd" d="M15.2027 1.1935L17.7625 3.58049C18.4693 4.23964 18.472 5.31775 17.7685 5.98851L5.66749 17.5264C5.32966 17.8485 4.87083 18.0317 4.39192 18.0356L1.83826 18.0567C0.840993 18.0649 0.0306246 17.3092 0.0282518 16.3688L0.0221766 13.9608C0.0210365 13.5092 0.210187 13.0745 0.548019 12.7524L12.6491 1.21452C13.3526 0.543758 14.4959 0.534347 15.2027 1.1935ZM11.1082 5.09752L1.82789 13.9459L1.83396 16.3539L4.38763 16.3329L13.6679 7.48451L11.1082 5.09752ZM12.3819 3.883L14.9417 6.27L16.4887 4.79501L13.9289 2.40801L12.3819 3.883Z" fill="#A0A4AF"/>
</svg>
