<svg width="16" height="20" viewBox="0 0 16 20" fill="none" xmlns="http://www.w3.org/2000/svg">
<path d="M14.3806 4.62108H12.2261C12.0352 3.67102 11.5442 2.80428 10.8351 2.10349H14.3806C14.9397 2.10349 15.4033 1.69973 15.4033 1.21288C15.4033 0.726024 14.9397 0.322266 14.3806 0.322266H1.42603C0.866966 0.322266 0.40332 0.726024 0.40332 1.21288C0.40332 1.69973 0.866966 2.10349 1.42603 2.10349H6.37615C8.17595 2.10349 9.68968 3.17223 10.1396 4.62108H1.42609C0.867024 4.62108 0.403378 5.02484 0.403378 5.51169C0.403378 5.99855 0.867024 6.40231 1.42609 6.40231H10.1396C9.68967 7.85095 8.17589 8.9316 6.37615 8.9316H1.43971C1.30343 8.9316 1.18061 8.95526 1.04432 9.00277C0.785219 9.08606 0.580676 9.26418 0.485254 9.47789C0.376133 9.6916 0.376133 9.94089 0.485254 10.1548C0.539814 10.2735 0.607845 10.3685 0.703267 10.4516L10.5897 19.061C10.7942 19.2392 11.0533 19.3223 11.3124 19.3223C11.5715 19.3223 11.8306 19.2392 12.0352 19.061C12.4306 18.7165 12.4306 18.1466 12.0352 17.8023L3.89437 10.713H6.36256C9.30786 10.713 11.7353 8.84866 12.2259 6.40247H14.3805C14.9395 6.40247 15.4032 5.99872 15.4032 5.51186C15.4032 5.02501 14.9395 4.62125 14.3805 4.62125L14.3806 4.62108Z" fill="white"/>
</svg>
