<svg width="16" height="17" viewBox="0 0 16 17" fill="none" xmlns="http://www.w3.org/2000/svg">
<path d="M2.7994 4.37383C2.717 4.37383 2.637 4.38023 2.5578 4.39223C2.71126 4.03078 2.96772 3.7225 3.29521 3.50584C3.6227 3.28917 4.00673 3.1737 4.3994 3.17383H11.5994C12.1298 3.17383 12.6385 3.38454 13.0136 3.75961C13.3887 4.13469 13.5994 4.6434 13.5994 5.17383V8.45383C13.3437 8.32301 13.0757 8.2177 12.7994 8.13943V5.17383C12.7994 4.85557 12.673 4.55034 12.4479 4.3253C12.2229 4.10026 11.9177 3.97383 11.5994 3.97383H4.3994C3.989 3.97383 3.6266 4.18023 3.4098 4.49383C3.21618 4.41416 3.00877 4.37338 2.7994 4.37383Z" fill="#283049"/>
<path d="M7.36562 13.5738C7.44482 13.853 7.54962 14.1202 7.68002 14.3738H4.40002C3.86959 14.3738 3.36088 14.1631 2.98581 13.7881C2.61074 13.413 2.40002 12.9043 2.40002 12.3738V7.52344C2.66241 7.59104 2.93764 7.59104 3.20002 7.52344V12.3738C3.20002 12.6921 3.32645 12.9973 3.5515 13.2224C3.77654 13.4474 4.08176 13.5738 4.40002 13.5738H7.36562Z" fill="#283049"/>
<path d="M7.67998 10.3742C7.82638 10.0878 8.00318 9.81982 8.20558 9.57422H5.99998C5.89389 9.57422 5.79215 9.61636 5.71713 9.69138C5.64212 9.76639 5.59998 9.86813 5.59998 9.97422C5.59998 10.0803 5.64212 10.182 5.71713 10.2571C5.79215 10.3321 5.89389 10.3742 5.99998 10.3742H7.67998Z" fill="#283049"/>
<path d="M2.8 5.17383C2.58783 5.17383 2.38434 5.25811 2.23431 5.40814C2.08429 5.55817 2 5.76165 2 5.97383C2 6.186 2.08429 6.38948 2.23431 6.53951C2.38434 6.68954 2.58783 6.77383 2.8 6.77383C3.01217 6.77383 3.21566 6.68954 3.36569 6.53951C3.51571 6.38948 3.6 6.186 3.6 5.97383C3.6 5.76165 3.51571 5.55817 3.36569 5.40814C3.21566 5.25811 3.01217 5.17383 2.8 5.17383Z" fill="#283049"/>
<path d="M5.99998 7.17383C5.89389 7.17383 5.79215 7.21597 5.71713 7.29099C5.64212 7.366 5.59998 7.46774 5.59998 7.57383C5.59998 7.67991 5.64212 7.78166 5.71713 7.85667C5.79215 7.93169 5.89389 7.97383 5.99998 7.97383H9.99998C10.1061 7.97383 10.2078 7.93169 10.2828 7.85667C10.3578 7.78166 10.4 7.67991 10.4 7.57383C10.4 7.46774 10.3578 7.366 10.2828 7.29099C10.2078 7.21597 10.1061 7.17383 9.99998 7.17383H5.99998Z" fill="#283049"/>
<circle cx="11.6" cy="12.3734" r="3.25" stroke="#283049" stroke-width="0.7"/>
<line x1="10.4392" y1="12.3342" x2="12.9592" y2="12.3342" stroke="#283049" stroke-width="0.480002" stroke-linecap="round"/>
<line x1="11.7024" y1="11.0128" x2="11.7089" y2="13.5328" stroke="#283049" stroke-width="0.480002" stroke-linecap="round"/>
</svg>
