<svg width="26" height="25" viewBox="0 0 26 25" fill="none" xmlns="http://www.w3.org/2000/svg">
<path d="M0.5625 11.2752V0.349609H11.488V11.2752H0.5625ZM4.65958 4.44669V7.17807H7.39096V4.44669H4.65958Z" fill="#A0A4AF"/>
<path d="M14.2188 11.2752V0.349609H25.1443V11.2752H14.2188ZM18.3158 4.44669V7.17807H21.0472V4.44669H18.3158Z" fill="#A0A4AF"/>
<path d="M0.5625 14.0059V24.9314H11.488V14.0059H0.5625ZM7.39096 18.1029V20.8343H4.65958V18.1029H7.39096Z" fill="#A0A4AF"/>
<path d="M18.3158 14.0068H14.2188V16.7382H18.3158V22.201H16.9501V19.4696H14.2188V24.9324H19.6815V22.201H22.4129V24.9324H25.1443V20.8353H22.4129V19.4696H21.0472V18.1039H25.1443V14.0068H21.0472V16.7382H18.3158V14.0068Z" fill="#A0A4AF"/>
</svg>
