<svg width="23" height="26" viewBox="0 0 23 26" fill="none" xmlns="http://www.w3.org/2000/svg">
<path d="M7.04926 2.58375C5.50159 3.01029 3.96444 3.47409 2.43913 3.97475C2.29985 4.01987 2.17605 4.10319 2.08181 4.21524C1.98758 4.32729 1.92671 4.46355 1.90613 4.6085C1.00588 11.3636 3.08588 16.2923 5.56726 19.539C6.61785 20.9274 7.87055 22.1505 9.28363 23.1676C9.84588 23.5641 10.3431 23.8501 10.7348 24.0337C10.9298 24.1264 11.089 24.1881 11.2109 24.2255C11.2642 24.2442 11.3191 24.2578 11.375 24.2661C11.4302 24.2572 11.4846 24.2436 11.5375 24.2255C11.661 24.1881 11.8203 24.1264 12.0153 24.0337C12.4053 23.8501 12.9041 23.5625 13.4664 23.1676C14.8795 22.1505 16.1322 20.9274 17.1828 19.539C19.6641 16.2939 21.7441 11.3636 20.8439 4.6085C20.8235 4.46348 20.7627 4.32713 20.6684 4.21505C20.5742 4.10298 20.4503 4.0197 20.3109 3.97475C19.253 3.62863 17.4671 3.06475 15.7008 2.58537C13.897 2.09625 12.2379 1.73388 11.375 1.73388C10.5138 1.73388 8.85301 2.09625 7.04926 2.58537V2.58375ZM6.61701 0.91C8.38013 0.430625 10.2538 0 11.375 0C12.4963 0 14.3699 0.430625 16.133 0.91C17.9368 1.3975 19.7551 1.97437 20.8244 2.32375C21.2714 2.47138 21.6678 2.74213 21.9679 3.10489C22.268 3.46765 22.4596 3.9077 22.5209 4.3745C23.4894 11.6496 21.242 17.0414 18.5153 20.6083C17.359 22.1341 15.9802 23.4778 14.4251 24.5944C13.8874 24.9808 13.3177 25.3205 12.7221 25.61C12.2671 25.8245 11.778 26 11.375 26C10.972 26 10.4845 25.8245 10.0279 25.61C9.43234 25.3205 8.86261 24.9808 8.32488 24.5944C6.7698 23.4777 5.39108 22.1341 4.23476 20.6083C1.50801 17.0414 -0.739366 11.6496 0.229134 4.3745C0.290376 3.9077 0.482054 3.46765 0.782149 3.10489C1.08224 2.74213 1.47858 2.47138 1.92563 2.32375C3.47782 1.81481 5.04207 1.34343 6.61701 0.91V0.91Z" fill="#A0A4AF"/>
<path d="M13.8125 10.5612C13.8128 11.0655 13.6566 11.5575 13.3656 11.9693C13.0745 12.3811 12.6629 12.6925 12.1875 12.8606L12.8131 16.0943C12.8359 16.212 12.8324 16.3332 12.8028 16.4493C12.7732 16.5653 12.7184 16.6735 12.6421 16.7659C12.5659 16.8583 12.4701 16.9327 12.3617 16.9837C12.2534 17.0348 12.135 17.0612 12.0153 17.0612H10.7348C10.6151 17.061 10.497 17.0344 10.3888 16.9832C10.2806 16.932 10.1851 16.8576 10.109 16.7652C10.0329 16.6729 9.97821 16.5648 9.94873 16.4489C9.91926 16.3329 9.91577 16.2118 9.9385 16.0943L10.5625 12.8606C10.1412 12.7117 9.76902 12.4498 9.48652 12.1036C9.20401 11.7574 9.0221 11.3403 8.96066 10.8977C8.89921 10.4551 8.9606 10.0042 9.13811 9.59413C9.31563 9.18409 9.60243 8.83072 9.96719 8.57266C10.3319 8.31459 10.7606 8.16175 11.2064 8.13084C11.6521 8.09993 12.0978 8.19213 12.4947 8.39738C12.8916 8.60263 13.2244 8.91302 13.4568 9.29463C13.6892 9.67625 13.8123 10.1144 13.8125 10.5612V10.5612Z" fill="#A0A4AF"/>
</svg>
