<svg width="24" height="25" viewBox="0 0 24 25" fill="none" xmlns="http://www.w3.org/2000/svg">
<path d="M16 8.5L8 11.5" stroke="black" stroke-linecap="round"/>
<path d="M16 16.5L8 13.5" stroke="black" stroke-linecap="round"/>
<path fill-rule="evenodd" clip-rule="evenodd" d="M6 14.5C7.10457 14.5 8 13.6046 8 12.5C8 11.3954 7.10457 10.5 6 10.5C4.89543 10.5 4 11.3954 4 12.5C4 13.6046 4.89543 14.5 6 14.5Z" stroke="black"/>
<path fill-rule="evenodd" clip-rule="evenodd" d="M18 9.5C19.1046 9.5 20 8.60457 20 7.5C20 6.39543 19.1046 5.5 18 5.5C16.8954 5.5 16 6.39543 16 7.5C16 8.60457 16.8954 9.5 18 9.5Z" stroke="black"/>
<path fill-rule="evenodd" clip-rule="evenodd" d="M18 19.5C19.1046 19.5 20 18.6046 20 17.5C20 16.3954 19.1046 15.5 18 15.5C16.8954 15.5 16 16.3954 16 17.5C16 18.6046 16.8954 19.5 18 19.5Z" stroke="black"/>
</svg>
