<svg width="35" height="35" viewBox="0 0 35 35" fill="none" xmlns="http://www.w3.org/2000/svg">
<path d="M30.625 24.7917L30.625 25.2917C30.9011 25.2917 31.125 25.0678 31.125 24.7917H30.625ZM30.625 5.83334H31.125C31.125 5.5572 30.9011 5.33334 30.625 5.33334V5.83334ZM18.9583 24.7917L18.9583 24.2917C18.8596 24.2917 18.7631 24.3209 18.681 24.3757L18.9583 24.7917ZM10.2083 30.625H9.70833C9.70833 30.8094 9.80983 30.9788 9.9724 31.0658C10.135 31.1529 10.3323 31.1433 10.4857 31.041L10.2083 30.625ZM10.2083 24.7917H10.7083C10.7083 24.5155 10.4845 24.2917 10.2083 24.2917V24.7917ZM4.375 24.7917H3.875C3.875 25.0678 4.09886 25.2917 4.375 25.2917V24.7917ZM4.375 5.83334V5.33334C4.09886 5.33334 3.875 5.5572 3.875 5.83334H4.375ZM31.125 24.7917V5.83334H30.125V24.7917H31.125ZM18.9583 25.2917L30.625 25.2917L30.625 24.2917L18.9583 24.2917L18.9583 25.2917ZM10.4857 31.041L19.2357 25.2077L18.681 24.3757L9.93098 30.209L10.4857 31.041ZM9.70833 24.7917V30.625H10.7083V24.7917H9.70833ZM4.375 25.2917H10.2083V24.2917H4.375V25.2917ZM3.875 5.83334V24.7917H4.875V5.83334H3.875ZM30.625 5.33334H4.375V6.33334H30.625V5.33334Z" fill="white"/>
<path d="M8.71394 18.072C8.38194 18.072 8.05994 18.028 7.74794 17.94C7.43994 17.848 7.19194 17.73 7.00394 17.586L7.33394 16.854C7.51394 16.986 7.72794 17.092 7.97594 17.172C8.22394 17.252 8.47194 17.292 8.71994 17.292C8.99594 17.292 9.19994 17.252 9.33194 17.172C9.46394 17.088 9.52994 16.978 9.52994 16.842C9.52994 16.742 9.48994 16.66 9.40994 16.596C9.33394 16.528 9.23394 16.474 9.10994 16.434C8.98994 16.394 8.82594 16.35 8.61794 16.302C8.29794 16.226 8.03594 16.15 7.83194 16.074C7.62794 15.998 7.45194 15.876 7.30394 15.708C7.15994 15.54 7.08794 15.316 7.08794 15.036C7.08794 14.792 7.15394 14.572 7.28594 14.376C7.41794 14.176 7.61594 14.018 7.87994 13.902C8.14794 13.786 8.47394 13.728 8.85794 13.728C9.12594 13.728 9.38794 13.76 9.64394 13.824C9.89994 13.888 10.1239 13.98 10.3159 14.1L10.0159 14.838C9.62794 14.618 9.23994 14.508 8.85194 14.508C8.57994 14.508 8.37794 14.552 8.24594 14.64C8.11794 14.728 8.05394 14.844 8.05394 14.988C8.05394 15.132 8.12794 15.24 8.27594 15.312C8.42794 15.38 8.65794 15.448 8.96594 15.516C9.28594 15.592 9.54794 15.668 9.75194 15.744C9.95594 15.82 10.1299 15.94 10.2739 16.104C10.4219 16.268 10.4959 16.49 10.4959 16.77C10.4959 17.01 10.4279 17.23 10.2919 17.43C10.1599 17.626 9.95994 17.782 9.69194 17.898C9.42394 18.014 9.09794 18.072 8.71394 18.072ZM13.0261 18.072C12.4261 18.072 11.9581 17.906 11.6221 17.574C11.2901 17.242 11.1241 16.768 11.1241 16.152V13.8H12.0961V16.116C12.0961 16.868 12.4081 17.244 13.0321 17.244C13.3361 17.244 13.5681 17.154 13.7281 16.974C13.8881 16.79 13.9681 16.504 13.9681 16.116V13.8H14.9281V16.152C14.9281 16.768 14.7601 17.242 14.4241 17.574C14.0921 17.906 13.6261 18.072 13.0261 18.072ZM17.7066 13.8C18.0786 13.8 18.4006 13.862 18.6726 13.986C18.9486 14.11 19.1606 14.286 19.3086 14.514C19.4566 14.742 19.5306 15.012 19.5306 15.324C19.5306 15.632 19.4566 15.902 19.3086 16.134C19.1606 16.362 18.9486 16.538 18.6726 16.662C18.4006 16.782 18.0786 16.842 17.7066 16.842H16.8606V18H15.8886V13.8H17.7066ZM17.6526 16.05C17.9446 16.05 18.1666 15.988 18.3186 15.864C18.4706 15.736 18.5466 15.556 18.5466 15.324C18.5466 15.088 18.4706 14.908 18.3186 14.784C18.1666 14.656 17.9446 14.592 17.6526 14.592H16.8606V16.05H17.6526ZM23.4766 17.22V18H20.2246V13.8H23.3986V14.58H21.1906V15.492H23.1406V16.248H21.1906V17.22H23.4766ZM26.926 18L26.116 16.83H26.068H25.222V18H24.25V13.8H26.068C26.44 13.8 26.762 13.862 27.034 13.986C27.31 14.11 27.522 14.286 27.67 14.514C27.818 14.742 27.892 15.012 27.892 15.324C27.892 15.636 27.816 15.906 27.664 16.134C27.516 16.358 27.304 16.53 27.028 16.65L27.97 18H26.926ZM26.908 15.324C26.908 15.088 26.832 14.908 26.68 14.784C26.528 14.656 26.306 14.592 26.014 14.592H25.222V16.056H26.014C26.306 16.056 26.528 15.992 26.68 15.864C26.832 15.736 26.908 15.556 26.908 15.324Z" fill="white"/>
</svg>
