<svg width="33" height="33" viewBox="0 0 33 33" fill="none" xmlns="http://www.w3.org/2000/svg">
<path d="M28.875 23.375V23.875C29.1511 23.875 29.375 23.6511 29.375 23.375H28.875ZM28.875 5.5H29.375C29.375 5.22386 29.1511 5 28.875 5V5.5ZM17.875 23.375V22.875C17.7763 22.875 17.6798 22.9042 17.5976 22.959L17.875 23.375ZM9.625 28.875H9.125C9.125 29.0594 9.22649 29.2288 9.38907 29.3158C9.55165 29.4028 9.74892 29.3933 9.90235 29.291L9.625 28.875ZM9.625 23.375H10.125C10.125 23.0989 9.90114 22.875 9.625 22.875V23.375ZM4.125 23.375H3.625C3.625 23.6511 3.84886 23.875 4.125 23.875V23.375ZM4.125 5.5V5C3.84886 5 3.625 5.22386 3.625 5.5H4.125ZM29.375 23.375V5.5H28.375V23.375H29.375ZM17.875 23.875H28.875V22.875H17.875V23.875ZM9.90235 29.291L18.1524 23.791L17.5976 22.959L9.34765 28.459L9.90235 29.291ZM9.125 23.375V28.875H10.125V23.375H9.125ZM4.125 23.875H9.625V22.875H4.125V23.875ZM3.625 5.5V23.375H4.625V5.5H3.625ZM28.875 5H4.125V6H28.875V5Z" fill="#283049"/>
<path d="M7.99965 17.072C7.66765 17.072 7.34565 17.028 7.03365 16.94C6.72565 16.848 6.47765 16.73 6.28965 16.586L6.61965 15.854C6.79965 15.986 7.01365 16.092 7.26165 16.172C7.50965 16.252 7.75765 16.292 8.00565 16.292C8.28165 16.292 8.48565 16.252 8.61765 16.172C8.74965 16.088 8.81565 15.978 8.81565 15.842C8.81565 15.742 8.77565 15.66 8.69565 15.596C8.61965 15.528 8.51965 15.474 8.39565 15.434C8.27565 15.394 8.11165 15.35 7.90365 15.302C7.58365 15.226 7.32165 15.15 7.11765 15.074C6.91365 14.998 6.73765 14.876 6.58965 14.708C6.44565 14.54 6.37365 14.316 6.37365 14.036C6.37365 13.792 6.43965 13.572 6.57165 13.376C6.70365 13.176 6.90165 13.018 7.16565 12.902C7.43365 12.786 7.75965 12.728 8.14365 12.728C8.41165 12.728 8.67365 12.76 8.92965 12.824C9.18565 12.888 9.40965 12.98 9.60165 13.1L9.30165 13.838C8.91365 13.618 8.52565 13.508 8.13765 13.508C7.86565 13.508 7.66365 13.552 7.53165 13.64C7.40365 13.728 7.33965 13.844 7.33965 13.988C7.33965 14.132 7.41365 14.24 7.56165 14.312C7.71365 14.38 7.94365 14.448 8.25165 14.516C8.57165 14.592 8.83365 14.668 9.03765 14.744C9.24165 14.82 9.41565 14.94 9.55965 15.104C9.70765 15.268 9.78165 15.49 9.78165 15.77C9.78165 16.01 9.71365 16.23 9.57765 16.43C9.44565 16.626 9.24565 16.782 8.97765 16.898C8.70965 17.014 8.38365 17.072 7.99965 17.072ZM12.3118 17.072C11.7118 17.072 11.2438 16.906 10.9078 16.574C10.5758 16.242 10.4098 15.768 10.4098 15.152V12.8H11.3818V15.116C11.3818 15.868 11.6938 16.244 12.3178 16.244C12.6218 16.244 12.8538 16.154 13.0138 15.974C13.1738 15.79 13.2538 15.504 13.2538 15.116V12.8H14.2138V15.152C14.2138 15.768 14.0458 16.242 13.7098 16.574C13.3778 16.906 12.9118 17.072 12.3118 17.072ZM16.9923 12.8C17.3643 12.8 17.6863 12.862 17.9583 12.986C18.2343 13.11 18.4463 13.286 18.5943 13.514C18.7423 13.742 18.8163 14.012 18.8163 14.324C18.8163 14.632 18.7423 14.902 18.5943 15.134C18.4463 15.362 18.2343 15.538 17.9583 15.662C17.6863 15.782 17.3643 15.842 16.9923 15.842H16.1463V17H15.1743V12.8H16.9923ZM16.9383 15.05C17.2303 15.05 17.4523 14.988 17.6043 14.864C17.7563 14.736 17.8323 14.556 17.8323 14.324C17.8323 14.088 17.7563 13.908 17.6043 13.784C17.4523 13.656 17.2303 13.592 16.9383 13.592H16.1463V15.05H16.9383ZM22.7623 16.22V17H19.5103V12.8H22.6843V13.58H20.4763V14.492H22.4263V15.248H20.4763V16.22H22.7623ZM26.2117 17L25.4017 15.83H25.3537H24.5077V17H23.5357V12.8H25.3537C25.7257 12.8 26.0477 12.862 26.3197 12.986C26.5957 13.11 26.8077 13.286 26.9557 13.514C27.1037 13.742 27.1777 14.012 27.1777 14.324C27.1777 14.636 27.1017 14.906 26.9497 15.134C26.8017 15.358 26.5897 15.53 26.3137 15.65L27.2557 17H26.2117ZM26.1937 14.324C26.1937 14.088 26.1177 13.908 25.9657 13.784C25.8137 13.656 25.5917 13.592 25.2997 13.592H24.5077V15.056H25.2997C25.5917 15.056 25.8137 14.992 25.9657 14.864C26.1177 14.736 26.1937 14.556 26.1937 14.324Z" fill="#283049"/>
</svg>
