<svg width="24" height="24" viewBox="0 0 24 24" fill="none" xmlns="http://www.w3.org/2000/svg">
<path fill-rule="evenodd" clip-rule="evenodd" d="M7 13.5C7 13.2239 7.22386 13 7.5 13H23.5C23.7761 13 24 13.2239 24 13.5V18.5C24 18.7761 23.7761 19 23.5 19H7.5C7.22386 19 7 18.7761 7 18.5V13.5ZM8 14V18H23V14H8Z" fill="#283049"/>
<path fill-rule="evenodd" clip-rule="evenodd" d="M7 5.5C7 5.22386 7.22386 5 7.5 5H23.5C23.7761 5 24 5.22386 24 5.5V10.5C24 10.7761 23.7761 11 23.5 11H7.5C7.22386 11 7 10.7761 7 10.5V5.5ZM8 6V10H23V6H8Z" fill="#283049"/>
<path fill-rule="evenodd" clip-rule="evenodd" d="M0 11.43C0 9.32966 1.50236 7.5 3.5 7.5H4.5C4.77614 7.5 5 7.72386 5 8C5 8.27614 4.77614 8.5 4.5 8.5H3.5C2.17764 8.5 1 9.75034 1 11.43V12.57C1 14.2497 2.17764 15.5 3.5 15.5H4.5C4.77614 15.5 5 15.7239 5 16C5 16.2761 4.77614 16.5 4.5 16.5H3.5C1.50236 16.5 0 14.6703 0 12.57V11.43Z" fill="#283049"/>
<path fill-rule="evenodd" clip-rule="evenodd" d="M3.1 6.2C3.26568 5.97909 3.57908 5.93431 3.8 6.1L5.8 7.6C5.9259 7.69443 6 7.84262 6 8C6 8.15738 5.9259 8.30557 5.8 8.4L3.8 9.9C3.57908 10.0657 3.26568 10.0209 3.1 9.8C2.93431 9.57908 2.97909 9.26568 3.2 9.1L4.66667 8L3.2 6.9C2.97909 6.73431 2.93431 6.42091 3.1 6.2Z" fill="#283049"/>
<path fill-rule="evenodd" clip-rule="evenodd" d="M3.1 14.2C3.26568 13.9791 3.57908 13.9343 3.8 14.1L5.8 15.6C5.9259 15.6944 6 15.8426 6 16C6 16.1574 5.9259 16.3056 5.8 16.4L3.8 17.9C3.57908 18.0657 3.26568 18.0209 3.1 17.8C2.93431 17.5791 2.97909 17.2657 3.2 17.1L4.66667 16L3.2 14.9C2.97909 14.7343 2.93431 14.4209 3.1 14.2Z" fill="#283049"/>
</svg>
