<svg width="16" height="16" viewBox="0 0 16 16" fill="none" xmlns="http://www.w3.org/2000/svg">
<path d="M12.3125 2.80469L12.4062 4.75C11.3516 3.48438 9.75781 2.6875 8 2.6875C7.97656 2.6875 7.97656 2.6875 7.97656 2.6875C5.14062 2.6875 2.77344 4.72656 2.28125 7.42188C2.28125 7.44531 2.28125 7.46875 2.28125 7.49219C2.28125 7.63281 2.39844 7.75 2.5625 7.75H3.71094C3.82812 7.75 3.94531 7.67969 3.96875 7.53906C4.41406 5.73438 6.03125 4.39844 7.97656 4.39844C9.40625 4.39844 10.6719 5.10156 11.3984 6.20313L9.03125 6.08594H9.00781C8.86719 6.08594 8.72656 6.22656 8.72656 6.36719V7.49219C8.72656 7.63281 8.86719 7.77344 9.00781 7.77344L13.7188 7.77344C13.8594 7.77344 14 7.63281 14 7.49219V2.78125C14 2.64063 13.8594 2.5 13.7188 2.5H12.5938C12.4531 2.52344 12.3125 2.64063 12.3125 2.78125C12.3125 2.80469 12.3125 2.80469 12.3125 2.80469ZM7.97656 12.625C6.54687 12.625 5.30469 11.9219 4.55469 10.8203L6.94531 10.9375H6.96875C7.10937 10.9375 7.25 10.7969 7.25 10.6562V9.53125C7.25 9.39062 7.10937 9.25 6.96875 9.25H2.28125C2.11719 9.25 2 9.39062 2 9.53125L2 14.2188C2 14.3828 2.11719 14.5 2.28125 14.5H3.38281C3.52344 14.5 3.66406 14.3828 3.66406 14.2188L3.57031 12.2734C4.625 13.5391 6.21875 14.3359 7.97656 14.3359V14.3125C10.8125 14.3125 13.1797 12.2969 13.6953 9.60156C13.6953 9.57812 13.6953 9.55469 13.6953 9.53125C13.6953 9.39062 13.5781 9.25 13.4141 9.25H12.2656C12.125 9.27344 12.0312 9.34375 11.9844 9.48438C11.5625 11.2891 9.92188 12.625 7.97656 12.625Z" fill="#5E5E5E"/>
</svg>
