<svg width="154" height="163" viewBox="0 0 154 163" fill="none" xmlns="http://www.w3.org/2000/svg">
<path d="M56.8811 59.4636C56.0325 58.7564 54.7714 58.8711 54.0642 59.7196C53.3571 60.5682 53.4718 61.8293 54.3203 62.5365L56.8811 59.4636ZM74.8007 77L73.5203 78.5365L75.0878 79.8427L76.3624 78.2494L74.8007 77ZM101.962 46.2494C102.652 45.3869 102.513 44.1283 101.65 43.4383C100.788 42.7483 99.529 42.8881 98.8389 43.7506L101.962 46.2494ZM78.0007 105.8V103.8V105.8ZM33.2007 61H31.2007H33.2007ZM78.0007 16.2V14.2V16.2ZM122.801 61H120.801H122.801ZM54.3203 62.5365L73.5203 78.5365L76.0811 75.4636L56.8811 59.4636L54.3203 62.5365ZM76.3624 78.2494L101.962 46.2494L98.8389 43.7506L73.2389 75.7506L76.3624 78.2494ZM78.0007 103.8C72.3801 103.8 66.8146 102.693 61.6218 100.542L60.0911 104.238C65.7691 106.59 71.8548 107.8 78.0007 107.8V103.8ZM61.6218 100.542C56.4291 98.3912 51.7109 95.2385 47.7365 91.2642L44.9081 94.0926C49.2539 98.4384 54.4131 101.886 60.0911 104.238L61.6218 100.542ZM47.7365 91.2642C43.7622 87.2898 40.6095 82.5716 38.4586 77.3789L34.7631 78.9096C37.115 84.5876 40.5623 89.7468 44.9081 94.0926L47.7365 91.2642ZM38.4586 77.3789C36.3077 72.1861 35.2007 66.6206 35.2007 61H31.2007C31.2007 67.1459 32.4112 73.2316 34.7631 78.9096L38.4586 77.3789ZM35.2007 61C35.2007 55.3794 36.3077 49.8139 38.4586 44.6212L34.7631 43.0904C32.4112 48.7685 31.2007 54.8541 31.2007 61H35.2007ZM38.4586 44.6212C40.6095 39.4284 43.7622 34.7102 47.7365 30.7358L44.9081 27.9074C40.5623 32.2532 37.115 37.4124 34.7631 43.0904L38.4586 44.6212ZM47.7365 30.7358C51.7109 26.7615 56.4291 23.6089 61.6218 21.458L60.0911 17.7624C54.4131 20.1144 49.2539 23.5616 44.9081 27.9074L47.7365 30.7358ZM61.6218 21.458C66.8146 19.3071 72.3801 18.2 78.0007 18.2V14.2C71.8548 14.2 65.7691 15.4105 60.0911 17.7624L61.6218 21.458ZM78.0007 18.2C89.3519 18.2 100.238 22.7093 108.265 30.7358L111.093 27.9074C102.317 19.1307 90.4128 14.2 78.0007 14.2V18.2ZM108.265 30.7358C116.291 38.7624 120.801 49.6487 120.801 61H124.801C124.801 48.5879 119.87 36.6841 111.093 27.9074L108.265 30.7358ZM120.801 61C120.801 72.3513 116.291 83.2376 108.265 91.2642L111.093 94.0926C119.87 85.3159 124.801 73.4121 124.801 61H120.801ZM108.265 91.2642C100.238 99.2907 89.3519 103.8 78.0007 103.8V107.8C90.4128 107.8 102.317 102.869 111.093 94.0926L108.265 91.2642Z" fill="url(#paint0_linear_117_17396)"/>
<ellipse opacity="0.6" cx="29" cy="136.854" rx="1" ry="1.18299" stroke="url(#paint1_linear_117_17396)" stroke-width="2"/>
<g opacity="0.5" clip-path="url(#clip0_117_17396)">
<path d="M135.875 56.2874C136.269 56.4054 136.578 56.771 136.677 57.2368C136.687 57.2821 136.736 57.2821 136.746 57.2368C136.846 56.771 137.155 56.4054 137.548 56.2874C137.587 56.2761 137.587 56.2178 137.548 56.2065C137.155 56.0884 136.846 55.7229 136.746 55.2571C136.736 55.2118 136.687 55.2118 136.677 55.2571C136.578 55.7229 136.269 56.0884 135.875 56.2065C135.837 56.2178 135.837 56.2761 135.875 56.2874Z" fill="#27D1A8"/>
<path d="M133.091 58.2728C133.786 58.4814 134.333 59.1283 134.509 59.95C134.525 60.0292 134.612 60.0292 134.629 59.95C134.806 59.1283 135.353 58.4814 136.047 58.2728C136.114 58.2533 136.114 58.1515 136.047 58.1304C135.351 57.9234 134.804 57.2765 134.629 56.4548C134.613 56.3756 134.527 56.3756 134.509 56.4548C134.333 57.2765 133.786 57.9234 133.091 58.132C133.024 58.1515 133.024 58.2533 133.091 58.2728Z" fill="#2ED8B1"/>
<path d="M135.463 60.8994C136.502 61.2116 137.321 62.1788 137.583 63.408C137.609 63.526 137.738 63.526 137.762 63.408C138.026 62.1788 138.844 61.21 139.883 60.8994C139.982 60.8687 139.982 60.7167 139.883 60.6876C138.844 60.3754 138.025 59.4082 137.762 58.179C137.736 58.0609 137.608 58.0609 137.583 58.179C137.319 59.4082 136.502 60.377 135.463 60.6876C135.363 60.7167 135.363 60.8687 135.463 60.8994Z" fill="#14BD91"/>
</g>
<g opacity="0.7" clip-path="url(#clip1_117_17396)">
<path d="M91.5183 117.407C92.137 117.564 92.6226 118.05 92.7794 118.668C92.7944 118.728 92.8718 118.728 92.8868 118.668C93.0437 118.05 93.5292 117.564 94.1479 117.407C94.2081 117.392 94.2081 117.315 94.1479 117.3C93.5292 117.143 93.0437 116.657 92.8868 116.039C92.8718 115.978 92.7944 115.978 92.7794 116.039C92.6226 116.657 92.137 117.143 91.5183 117.3C91.4581 117.315 91.4581 117.392 91.5183 117.407Z" fill="#27D1A8"/>
<path d="M87.1434 120.046C88.2348 120.323 89.0942 121.182 89.3713 122.273C89.3971 122.379 89.5325 122.379 89.5604 122.273C89.8375 121.182 90.6969 120.323 91.7883 120.046C91.8936 120.02 91.8936 119.884 91.7883 119.856C90.6948 119.581 89.8354 118.722 89.5604 117.631C89.5346 117.525 89.3993 117.525 89.3713 117.631C89.0942 118.722 88.2348 119.581 87.1434 119.859C87.0381 119.884 87.0381 120.02 87.1434 120.046Z" fill="#2ED8B1"/>
<path d="M90.8686 123.535C92.5014 123.949 93.7883 125.234 94.2008 126.867C94.2417 127.024 94.4436 127.024 94.4823 126.867C94.8969 125.234 96.1817 123.947 97.8145 123.535C97.9713 123.494 97.9713 123.292 97.8145 123.253C96.1817 122.838 94.8948 121.554 94.4823 119.921C94.4415 119.764 94.2395 119.764 94.2008 119.921C93.7862 121.554 92.5014 122.841 90.8686 123.253C90.7118 123.292 90.7118 123.494 90.8686 123.535Z" fill="#14BD91"/>
</g>
<g clip-path="url(#clip2_117_17396)">
<path d="M14.9828 2.17482C15.9391 2.4172 16.6895 3.16759 16.9318 4.12384C16.9551 4.21681 17.0746 4.21681 17.0979 4.12384C17.3402 3.16759 18.0906 2.4172 19.0469 2.17482C19.1398 2.15157 19.1398 2.03204 19.0469 2.0088C18.0906 1.76642 17.3402 1.01603 17.0979 0.0597778C17.0746 -0.0331909 16.9551 -0.0331909 16.9318 0.0597778C16.6895 1.01603 15.9391 1.76642 14.9828 2.0088C14.8898 2.03204 14.8898 2.15157 14.9828 2.17482Z" fill="#27D1A8"/>
<path d="M8.22261 6.25212C9.90933 6.68044 11.2375 8.00857 11.6658 9.69529C11.7056 9.85798 11.9148 9.85798 11.958 9.69529C12.3863 8.00857 13.7144 6.68044 15.4011 6.25212C15.5638 6.21228 15.5638 6.0031 15.4011 5.95994C13.7111 5.53494 12.383 4.20681 11.958 2.52009C11.9181 2.3574 11.7089 2.3574 11.6658 2.52009C11.2375 4.20681 9.90933 5.53494 8.22261 5.96326C8.05991 6.0031 8.05991 6.21228 8.22261 6.25212Z" fill="#2ED8B1"/>
<path d="M13.9762 11.6444C16.4997 12.2852 18.4885 14.2707 19.126 16.7942C19.1891 17.0365 19.5012 17.0365 19.561 16.7942C20.2018 14.2707 22.1874 12.2819 24.7108 11.6444C24.9532 11.5813 24.9532 11.2692 24.7108 11.2094C22.1874 10.5686 20.1985 8.58303 19.561 6.05959C19.4979 5.81721 19.1858 5.81721 19.126 6.05959C18.4852 8.58303 16.4997 10.5719 13.9762 11.2094C13.7338 11.2692 13.7338 11.5813 13.9762 11.6444Z" fill="#14BD91"/>
</g>
<g clip-path="url(#clip3_117_17396)">
<path d="M143.983 80.1748C144.939 80.4171 145.689 81.1675 145.932 82.1238C145.955 82.2167 146.075 82.2167 146.098 82.1238C146.34 81.1675 147.091 80.4171 148.047 80.1748C148.14 80.1515 148.14 80.032 148.047 80.0087C147.091 79.7664 146.34 79.016 146.098 78.0597C146.075 77.9667 145.955 77.9667 145.932 78.0597C145.689 79.016 144.939 79.7664 143.983 80.0087C143.89 80.032 143.89 80.1515 143.983 80.1748Z" fill="#27D1A8"/>
<path d="M137.223 84.2521C138.909 84.6804 140.237 86.0086 140.666 87.6953C140.706 87.858 140.915 87.858 140.958 87.6953C141.386 86.0086 142.714 84.6804 144.401 84.2521C144.564 84.2123 144.564 84.0031 144.401 83.9599C142.711 83.5349 141.383 82.2068 140.958 80.5201C140.918 80.3574 140.709 80.3574 140.666 80.5201C140.237 82.2068 138.909 83.5349 137.223 83.9633C137.06 84.0031 137.06 84.2123 137.223 84.2521Z" fill="#2ED8B1"/>
<path d="M142.976 89.6444C145.5 90.2852 147.489 92.2707 148.126 94.7942C148.189 95.0365 148.501 95.0365 148.561 94.7942C149.202 92.2707 151.187 90.2819 153.711 89.6444C153.953 89.5813 153.953 89.2692 153.711 89.2094C151.187 88.5686 149.198 86.583 148.561 84.0596C148.498 83.8172 148.186 83.8172 148.126 84.0596C147.485 86.583 145.5 88.5719 142.976 89.2094C142.734 89.2692 142.734 89.5813 142.976 89.6444Z" fill="#14BD91"/>
</g>
<circle opacity="0.5" cx="55" cy="12" r="4" stroke="url(#paint2_linear_117_17396)" stroke-width="0.8"/>
<circle cx="127" cy="115" r="4" stroke="url(#paint3_linear_117_17396)" stroke-width="0.8"/>
<circle cx="5" cy="69" r="4" stroke="url(#paint4_linear_117_17396)" stroke-width="0.8"/>
<circle cx="84" cy="6" r="1" stroke="url(#paint5_linear_117_17396)" stroke-width="2"/>
<circle cx="5" cy="69" r="1" stroke="url(#paint6_linear_117_17396)" stroke-width="2"/>
<circle cx="20" cy="34" r="1" stroke="url(#paint7_linear_117_17396)" stroke-width="2"/>
<circle cx="137" cy="38" r="6" stroke="url(#paint8_linear_117_17396)" stroke-width="1.2"/>
<g opacity="0.6">
<path d="M116.656 22.7067L115.431 20.2469M115.431 20.2469L114.205 17.787M115.431 20.2469L117.636 18.6484M115.431 20.2469L113.225 21.8453" stroke="url(#paint9_linear_117_17396)" stroke-width="0.9375" stroke-linecap="round"/>
</g>
<g opacity="0.3">
<path d="M37.6557 161.117L36.4305 158.657M36.4305 158.657L35.2053 156.197M36.4305 158.657L38.6358 157.059M36.4305 158.657L34.2252 160.256" stroke="url(#paint10_linear_117_17396)" stroke-width="0.9375" stroke-linecap="round"/>
</g>
<defs>
<linearGradient id="paint0_linear_117_17396" x1="143.6" y1="151.667" x2="5.46628" y2="-76.0666" gradientUnits="userSpaceOnUse">
<stop stop-color="#00A676"/>
<stop offset="1" stop-color="#00EDBD" stop-opacity="0.69"/>
</linearGradient>
<linearGradient id="paint1_linear_117_17396" x1="30.4643" y1="139.248" x2="26.5679" y2="133.818" gradientUnits="userSpaceOnUse">
<stop stop-color="#00A676"/>
<stop offset="1" stop-color="#00EDBD" stop-opacity="0.69"/>
</linearGradient>
<linearGradient id="paint2_linear_117_17396" x1="60.8571" y1="20.0952" x2="48.5237" y2="-0.238095" gradientUnits="userSpaceOnUse">
<stop stop-color="#00A676"/>
<stop offset="1" stop-color="#00EDBD" stop-opacity="0.69"/>
</linearGradient>
<linearGradient id="paint3_linear_117_17396" x1="132.857" y1="123.095" x2="120.524" y2="102.762" gradientUnits="userSpaceOnUse">
<stop stop-color="#00A676"/>
<stop offset="1" stop-color="#00EDBD" stop-opacity="0.69"/>
</linearGradient>
<linearGradient id="paint4_linear_117_17396" x1="10.8571" y1="77.0952" x2="-1.47628" y2="56.7619" gradientUnits="userSpaceOnUse">
<stop stop-color="#00A676"/>
<stop offset="1" stop-color="#00EDBD" stop-opacity="0.69"/>
</linearGradient>
<linearGradient id="paint5_linear_117_17396" x1="85.4643" y1="8.02381" x2="82.3809" y2="2.94048" gradientUnits="userSpaceOnUse">
<stop stop-color="#00A676"/>
<stop offset="1" stop-color="#00EDBD" stop-opacity="0.69"/>
</linearGradient>
<linearGradient id="paint6_linear_117_17396" x1="6.46426" y1="71.0238" x2="3.38093" y2="65.9405" gradientUnits="userSpaceOnUse">
<stop stop-color="#00A676"/>
<stop offset="1" stop-color="#00EDBD" stop-opacity="0.69"/>
</linearGradient>
<linearGradient id="paint7_linear_117_17396" x1="21.4643" y1="36.0238" x2="18.3809" y2="30.9405" gradientUnits="userSpaceOnUse">
<stop stop-color="#00A676"/>
<stop offset="1" stop-color="#00EDBD" stop-opacity="0.69"/>
</linearGradient>
<linearGradient id="paint8_linear_117_17396" x1="145.786" y1="50.1429" x2="127.286" y2="19.6429" gradientUnits="userSpaceOnUse">
<stop stop-color="#00A676"/>
<stop offset="1" stop-color="#00EDBD" stop-opacity="0.69"/>
</linearGradient>
<linearGradient id="paint9_linear_117_17396" x1="121.139" y1="22.8846" x2="107.565" y2="16.4628" gradientUnits="userSpaceOnUse">
<stop stop-color="#00A676"/>
<stop offset="1" stop-color="#00EDBD" stop-opacity="0.69"/>
</linearGradient>
<linearGradient id="paint10_linear_117_17396" x1="42.1392" y1="161.295" x2="28.5654" y2="154.873" gradientUnits="userSpaceOnUse">
<stop stop-color="#00A676"/>
<stop offset="1" stop-color="#00EDBD" stop-opacity="0.69"/>
</linearGradient>
<clipPath id="clip0_117_17396">
<rect width="7" height="8.28096" fill="white" transform="translate(133 55.2273)"/>
</clipPath>
<clipPath id="clip1_117_17396">
<rect width="11" height="11" fill="white" transform="translate(87 116)"/>
</clipPath>
<clipPath id="clip2_117_17396">
<rect width="17" height="17" fill="white" transform="translate(8)"/>
</clipPath>
<clipPath id="clip3_117_17396">
<rect width="17" height="17" fill="white" transform="translate(137 78)"/>
</clipPath>
</defs>
</svg>
