<svg width="18" height="17" viewBox="0 0 18 17" fill="none" xmlns="http://www.w3.org/2000/svg">
<path d="M9.15239 4.67021V8.22074L12.3012 10C12.3569 10.0314 12.4058 10.0733 12.4449 10.1232C12.4841 10.1731 12.5128 10.23 12.5295 10.2908C12.5462 10.3515 12.5504 10.4149 12.5421 10.4773C12.5337 10.5396 12.5128 10.5998 12.4807 10.6543C12.4486 10.7087 12.4058 10.7565 12.3547 10.7948C12.3037 10.8331 12.2455 10.8612 12.1834 10.8775C12.1213 10.8938 12.0565 10.898 11.9927 10.8898C11.929 10.8816 11.8675 10.8612 11.8118 10.8298L8.4182 8.91489H8.41005L8.38557 8.89894L8.3611 8.88298H8.34478L8.32847 8.85904H8.31215L8.29584 8.83511L8.27952 8.81915L8.26321 8.80319V8.78723L8.24689 8.7633C8.24689 8.75532 8.23874 8.74734 8.23874 8.73936C8.23874 8.73138 8.23058 8.73138 8.23058 8.7234L8.21426 8.69947C8.21426 8.69149 8.21426 8.68351 8.20611 8.68351C8.20628 8.67236 8.20347 8.66135 8.19795 8.6516V8.63564C8.195 8.6324 8.19275 8.62861 8.19135 8.62449C8.18995 8.62038 8.18942 8.61602 8.18979 8.6117V8.58777C8.18684 8.58453 8.18459 8.58073 8.18319 8.57662C8.18179 8.5725 8.18126 8.56815 8.18163 8.56383V4.67021C8.18163 4.54325 8.2332 4.42148 8.32499 4.33171C8.41678 4.24193 8.54128 4.19149 8.67109 4.19149C8.8009 4.19149 8.9254 4.24193 9.01719 4.33171C9.10898 4.42148 9.16055 4.54325 9.16055 4.67021H9.15239ZM16.9184 6.50532C16.9352 6.48041 16.9489 6.45362 16.9592 6.42553C16.9735 6.40042 16.9845 6.3736 16.9918 6.34575C16.9918 6.32181 17 6.28989 17 6.25798V3.06649C17 2.93953 16.9484 2.81776 16.8566 2.72798C16.7649 2.63821 16.6404 2.58777 16.5105 2.58777C16.3807 2.58777 16.2562 2.63821 16.1644 2.72798C16.0727 2.81776 16.0211 2.93953 16.0211 3.06649V5.08511L14.0877 3.19415C13.015 2.14598 11.6487 1.43239 10.1614 1.14359C8.67414 0.854782 7.13271 1.00373 5.73197 1.5716C4.33123 2.13947 3.13406 3.10076 2.2918 4.33398C1.44954 5.56719 1 7.01695 1 8.5C1 9.98305 1.44954 11.4328 2.2918 12.666C3.13406 13.8992 4.33123 14.8605 5.73197 15.4284C7.13271 15.9963 8.67414 16.1452 10.1614 15.8564C11.6487 15.5676 13.015 14.854 14.0877 13.8058C14.1779 13.715 14.2284 13.5934 14.2284 13.4668C14.2284 13.3401 14.1779 13.2185 14.0877 13.1277C14.0428 13.082 13.989 13.0458 13.9294 13.021C13.8698 12.9962 13.8058 12.9834 13.741 12.9834C13.6763 12.9834 13.6122 12.9962 13.5527 13.021C13.4931 13.0458 13.4392 13.082 13.3943 13.1277C12.4587 14.0423 11.2668 14.665 9.96929 14.9171C8.67181 15.1693 7.32703 15.0395 6.10497 14.5442C4.8829 14.0489 3.83842 13.2103 3.10357 12.1344C2.36873 11.0586 1.97651 9.79383 1.97651 8.5C1.97651 7.20617 2.36873 5.94139 3.10357 4.86556C3.83842 3.78973 4.8829 2.95115 6.10497 2.45584C7.32703 1.96054 8.67181 1.83075 9.96929 2.08288C11.2668 2.33501 12.4587 2.95774 13.3943 3.87234L15.3277 5.7633H13.2475C13.1177 5.7633 12.9932 5.81374 12.9014 5.90351C12.8096 5.99329 12.758 6.11506 12.758 6.24202C12.758 6.36899 12.8096 6.49075 12.9014 6.58053C12.9932 6.67031 13.1177 6.72074 13.2475 6.72074H16.6003L16.69 6.69681L16.7716 6.65692H16.7797L16.8532 6.60106L16.9184 6.52128V6.50532Z" fill="#F08B32" stroke="#F08B32" stroke-width="0.5"/>
</svg>
