<svg width="291" height="203" viewBox="0 0 291 203" fill="none" xmlns="http://www.w3.org/2000/svg">
<path d="M-107.961 -227.869C-66.5638 -262.204 -14.9458 -281.835 38.8052 -283.686C92.5561 -285.538 145.402 -269.505 189.064 -238.099C232.725 -206.694 264.734 -161.692 280.075 -110.143C295.415 -58.5946 293.221 -3.41315 273.836 46.7546C254.451 96.9224 218.971 139.242 172.954 167.081C126.937 194.921 72.9846 206.708 19.5503 200.595C-33.8839 194.482 -83.7805 170.815 -122.321 133.302C-160.861 95.7887 -185.868 46.5497 -193.422 -6.7L-90.922 -21.2406C-86.5863 9.32292 -72.2334 37.5846 -50.1125 59.1158C-27.9915 80.6471 0.647458 94.2313 31.317 97.7399C61.9866 101.249 92.9536 94.4833 119.366 78.5043C145.778 62.5252 166.143 38.2353 177.269 9.44059C188.395 -19.3541 189.655 -51.0265 180.85 -80.6136C172.044 -110.201 153.672 -136.031 128.612 -154.056C103.552 -172.082 73.2199 -181.284 42.3687 -180.222C11.5174 -179.159 -18.1097 -167.892 -41.8703 -148.185L-107.961 -227.869Z" fill="url(#paint0_linear_7461_15960)"/>
<defs>
<linearGradient id="paint0_linear_7461_15960" x1="27.4812" y1="-340.205" x2="112.005" y2="221.099" gradientUnits="userSpaceOnUse">
<stop stop-color="#FFD9C4"/>
<stop offset="1" stop-color="#FFD9C3" stop-opacity="0"/>
</linearGradient>
</defs>
</svg>
