<svg width="13" height="13" viewBox="0 0 13 13" fill="none" xmlns="http://www.w3.org/2000/svg">
<path d="M6.57931 1.60981e-09C7.24201 -2.22826e-05 7.8789 0.231313 8.35605 0.64536C8.8332 1.05941 9.11343 1.6239 9.13782 2.22014L9.13946 2.30533L11.9044 2.30496C12.0894 2.30504 12.2671 2.36947 12.4006 2.48479C12.534 2.60012 12.6127 2.7574 12.6203 2.92378C12.6279 3.09015 12.5638 3.25274 12.4414 3.37756C12.319 3.50237 12.1477 3.57975 11.9634 3.59353L11.9044 3.59574H11.4264L10.7599 11.5506C10.7269 11.9448 10.5296 12.3131 10.2077 12.5819C9.8858 12.8507 9.46298 13 9.02394 13H4.13467C3.69564 13 3.27282 12.8507 2.9509 12.5819C2.62898 12.3131 2.43174 11.9448 2.39869 11.5506L1.73182 3.59574H1.2542C1.07423 3.59573 0.90085 3.53477 0.768501 3.42498C0.636152 3.31518 0.554517 3.16458 0.539811 3.00309L0.537354 2.95035C0.537369 2.78833 0.605077 2.63223 0.727029 2.51307C0.848981 2.39392 1.01625 2.32042 1.19562 2.30718L1.2542 2.30496H4.01916C4.01916 1.08868 5.06575 0.0921985 6.39252 0.00590063L6.4855 0.00147525L6.57931 1.60981e-09ZM8.1154 4.79433C7.98864 4.79427 7.86636 4.83656 7.77223 4.91299C7.6781 4.98943 7.61881 5.09459 7.60583 5.20811L7.60337 5.25532V9.68085L7.60583 9.72806C7.61827 9.84196 7.67732 9.94762 7.77151 10.0245C7.8657 10.1014 7.98827 10.1439 8.1154 10.1439C8.24252 10.1439 8.3651 10.1014 8.45929 10.0245C8.55347 9.94762 8.61253 9.84196 8.62497 9.72806L8.62743 9.68085V5.25532L8.62497 5.20811C8.61199 5.09459 8.5527 4.98943 8.45857 4.91299C8.36444 4.83656 8.24216 4.79427 8.1154 4.79433ZM5.04322 4.79433C4.91646 4.79427 4.79418 4.83656 4.70005 4.91299C4.60592 4.98943 4.54663 5.09459 4.53365 5.20811L4.53119 5.25532V9.68085L4.53365 9.72806C4.54609 9.84196 4.60514 9.94762 4.69933 10.0245C4.79352 10.1014 4.91609 10.1439 5.04322 10.1439C5.17034 10.1439 5.29292 10.1014 5.38711 10.0245C5.48129 9.94762 5.54035 9.84196 5.55279 9.72806L5.55525 9.68085V5.25532L5.55279 5.20811C5.53981 5.09459 5.48052 4.98943 5.38639 4.91299C5.29226 4.83656 5.16998 4.79427 5.04322 4.79433ZM6.64813 1.29262L6.57931 1.29078C6.29245 1.29077 6.0164 1.38928 5.80745 1.56623C5.59851 1.74318 5.47241 1.98523 5.45489 2.24301L5.45284 2.30533L7.70577 2.30496C7.70579 2.0467 7.59637 1.79816 7.39983 1.61005C7.20329 1.42193 6.93444 1.3084 6.64813 1.29262Z" fill="#A0A4AF"/>
</svg>
