<svg width="30" height="23" viewBox="0 0 30 23" fill="none" xmlns="http://www.w3.org/2000/svg">
<path d="M14.9998 1.53348C16.735 1.52091 18.4195 2.13004 19.7609 3.25485C21.1024 4.37993 22.0159 5.94963 22.3431 7.69157C22.6091 9.2384 23.6457 10.5314 25.077 11.102C26.5628 11.6564 27.722 12.8711 28.2269 14.4033C28.7322 15.9357 28.5285 17.6196 27.674 18.9801C26.8192 20.3408 25.4059 21.2305 23.8327 21.3987L23.2408 21.4665H7.98661L7.63479 21.4341C5.95534 21.2863 4.39167 20.498 3.25485 19.2255C2.11829 17.9529 1.49177 16.2897 1.50006 14.5666C1.50609 13.174 1.92193 11.8156 2.69332 10.6679C3.46474 9.51998 4.55611 8.6362 5.82549 8.13106C6.87893 7.73036 7.74125 6.931 8.23444 5.89884C8.84792 4.5956 9.80769 3.4949 11.004 2.72303C12.2003 1.9509 13.5852 1.53868 14.9999 1.53349L14.9998 1.53348ZM14.9999 0.000256694V0C13.3009 0 11.6365 0.492083 10.1996 1.41876C8.76274 2.34564 7.61216 3.66971 6.88118 5.23757C6.55197 5.91521 5.98144 6.43861 5.28684 6.69996C2.95252 7.61738 1.15151 9.56802 0.390886 12.0032C-0.369993 14.4385 -0.00838301 17.095 1.37374 19.2258C2.75613 21.3561 5.00939 22.7302 7.49992 22.9615V23H24V22.9227C26.0239 22.703 27.841 21.5558 28.9394 19.8042C30.0378 18.0525 30.2987 15.8857 29.6488 13.9141C28.9989 11.9421 27.5083 10.3789 25.5968 9.66371C24.6552 9.27559 23.9797 8.41384 23.8139 7.38989C23.4109 5.30454 22.3113 3.4273 20.7034 2.07919C19.0957 0.731269 17.0796 -0.00360533 15.0001 0.000206057L14.9999 0.000256694ZM9.21981 13.576C9.36043 13.7198 9.55102 13.8006 9.74991 13.8006C9.94904 13.8006 10.1396 13.7198 10.2803 13.576L13.5 10.2847V17.6341C13.5 18.0576 13.8358 18.4008 14.2499 18.4008C14.6642 18.4008 14.9999 18.0576 14.9999 17.6341V10.2847L18.2197 13.576C18.5133 13.8702 18.9841 13.8679 19.2749 13.5706C19.5657 13.2734 19.568 12.7921 19.2802 12.492L14.7802 7.89206C14.6396 7.74831 14.4488 7.66745 14.2499 7.66745C14.051 7.66745 13.8604 7.74831 13.7198 7.89206L9.21981 12.492C9.07918 12.6358 9.00008 12.8306 9.00008 13.0339C9.00008 13.2372 9.07918 13.4323 9.21981 13.576L9.21981 13.576Z" fill="#A0A4AF"/>
</svg>
