<svg width="23" height="18" viewBox="0 0 23 18" fill="none" xmlns="http://www.w3.org/2000/svg">
<path fill-rule="evenodd" clip-rule="evenodd" d="M17.6822 5.10419H17.7603C18.3749 5.10429 18.9835 5.22566 19.5511 5.46134C20.1187 5.69701 20.6342 6.04237 21.0681 6.47763C21.9458 7.35727 22.4386 8.54911 22.4386 9.79169C22.4386 11.0343 21.9458 12.2261 21.0681 13.1058C20.6342 13.541 20.1187 13.8864 19.5511 14.122C18.9835 14.3577 18.3749 14.4791 17.7603 14.4792H14.6431V12.9167H17.7603C18.5649 12.8807 19.3247 12.5357 19.8813 11.9536C20.438 11.3715 20.7487 10.5971 20.7487 9.79169C20.7487 8.98626 20.438 8.21187 19.8813 7.62976C19.3247 7.04765 18.5649 6.70268 17.7603 6.66669H16.3322L16.14 5.32763C16.0227 4.48868 15.6349 3.71093 15.0353 3.1125C14.4358 2.51408 13.6573 2.12768 12.8181 2.012C11.9785 1.8973 11.1244 2.06125 10.3869 2.47869C9.64935 2.89613 9.06917 3.54401 8.73532 4.32294L8.215 5.51356L6.95094 5.21825C6.662 5.14658 6.36579 5.10831 6.06813 5.10419C5.03375 5.10419 4.04157 5.51513 3.31188 6.24794C2.76808 6.79473 2.39807 7.49009 2.24837 8.24658C2.09867 9.00308 2.17596 9.78695 2.47052 10.4996C2.76508 11.2123 3.26377 11.822 3.90388 12.2521C4.544 12.6822 5.29697 12.9134 6.06813 12.9167H9.965V14.4792H6.06813C5.2942 14.4861 4.52768 14.3281 3.81963 14.0156C3.11158 13.703 2.47826 13.2432 1.96188 12.6667C1.18111 11.7972 0.699211 10.7006 0.586745 9.5374C0.47428 8.37423 0.737154 7.2056 1.33688 6.20263C1.73409 5.53813 2.26798 4.96563 2.90316 4.52305C3.53834 4.08047 4.26031 3.77792 5.02125 3.63544C5.78063 3.49481 6.56344 3.51513 7.315 3.6995C7.78858 2.61515 8.60237 1.7145 9.63332 1.13377C10.6643 0.553034 11.8563 0.323805 13.0291 0.48075C14.2024 0.639518 15.2917 1.17701 16.1316 2.01152C16.9715 2.84604 17.5159 3.93194 17.6822 5.10419ZM15.0838 11.1245L13.0306 9.07294V17.5667H11.4775V9.12919L9.48063 11.1261L8.37594 10.0198L11.7291 6.66669H12.8353L16.1884 10.0198L15.0838 11.1245Z" fill="#A0A4AF"/>
</svg>
