<svg width="24" height="23" viewBox="0 0 24 23" fill="none" xmlns="http://www.w3.org/2000/svg">
<path fill-rule="evenodd" clip-rule="evenodd" d="M6.609 2.013C8.10822 0.720203 10.0204 0.00620777 12 0C16.035 0 19.3845 3 19.749 6.8685C22.137 7.206 24 9.2055 24 11.6595C24 14.3535 21.753 16.5 19.0305 16.5H15C14.8011 16.5 14.6103 16.421 14.4697 16.2803C14.329 16.1397 14.25 15.9489 14.25 15.75C14.25 15.5511 14.329 15.3603 14.4697 15.2197C14.6103 15.079 14.8011 15 15 15H19.032C20.9685 15 22.5 13.482 22.5 11.6595C22.5 9.8355 20.97 8.3175 19.0305 8.3175H18.2805V7.5675C18.282 4.2375 15.492 1.5 12 1.5C10.3798 1.50647 8.81526 2.09165 7.5885 3.15C6.453 4.128 5.859 5.307 5.859 6.2325V6.9045L5.1915 6.978C3.096 7.2075 1.5 8.928 1.5 10.977C1.5 13.1775 3.345 15 5.6715 15H9C9.19891 15 9.38968 15.079 9.53033 15.2197C9.67098 15.3603 9.75 15.5511 9.75 15.75C9.75 15.9489 9.67098 16.1397 9.53033 16.2803C9.38968 16.421 9.19891 16.5 9 16.5H5.6715C2.562 16.5 0 14.049 0 10.977C0 8.3325 1.899 6.1425 4.413 5.5875C4.6275 4.293 5.46 3.003 6.609 2.013Z" fill="#F08B32"/>
<path fill-rule="evenodd" clip-rule="evenodd" d="M11.4699 6.22034C11.5396 6.1505 11.6224 6.09508 11.7135 6.05727C11.8046 6.01946 11.9023 6 12.0009 6C12.0996 6 12.1973 6.01946 12.2884 6.05727C12.3795 6.09508 12.4623 6.1505 12.5319 6.22034L17.0319 10.7203C17.1728 10.8612 17.2519 11.0522 17.2519 11.2513C17.2519 11.4505 17.1728 11.6415 17.0319 11.7823C16.8911 11.9232 16.7001 12.0023 16.5009 12.0023C16.3018 12.0023 16.1108 11.9232 15.9699 11.7823L12.7509 8.56184V21.7513C12.7509 21.9503 12.6719 22.141 12.5313 22.2817C12.3906 22.4223 12.1999 22.5013 12.0009 22.5013C11.802 22.5013 11.6113 22.4223 11.4706 22.2817C11.33 22.141 11.2509 21.9503 11.2509 21.7513V8.56184L8.03195 11.7823C7.89112 11.9232 7.70011 12.0023 7.50095 12.0023C7.30178 12.0023 7.11078 11.9232 6.96995 11.7823C6.82912 11.6415 6.75 11.4505 6.75 11.2513C6.75 11.0522 6.82912 10.8612 6.96995 10.7203L11.4699 6.22034Z" fill="#F08B32"/>
</svg>
