<svg width="167" height="139" viewBox="0 0 167 139" fill="none" xmlns="http://www.w3.org/2000/svg">
<path fill-rule="evenodd" clip-rule="evenodd" d="M72.661 134.66C65.162 138.417 56.3705 138.723 48.0515 137.653C31.9463 135.582 15.6824 127.774 7.67449 113.648C4.22031 107.555 2.47575 100.646 1.26033 93.7481C-0.362889 84.5359 -1.0186 74.6323 3.06039 66.2144C6.49908 59.1179 12.8806 53.9538 19.2384 49.2888C25.9018 44.3996 33.1202 39.646 41.3269 38.6689C65.0007 38.2 62.6025 47.0933 87.3261 32.9491C94.5134 28.8373 115.882 35.8953 123.102 38.2C130.322 40.5048 144.569 47.6152 154.231 56.0618C158.27 59.5925 161.995 63.6331 164.265 68.4936C167.663 75.7711 167.498 84.2488 165.913 92.1226C164.313 100.065 160.841 108.325 153.788 112.311C150.601 114.111 146.927 114.884 143.279 115.179C128.043 116.413 111.836 109.909 97.8934 116.175C88.3486 120.464 82.0168 129.973 72.661 134.66Z" fill="url(#paint0_linear_404_10243)"/>
<path fill-rule="evenodd" clip-rule="evenodd" d="M15.5334 69.2887C18.3963 66.4687 21.0871 63.561 22.8979 61.027C25.3906 57.5388 29.0453 54.2222 33.376 53.5823C38.4263 52.8361 43.0644 56.3179 46.7356 59.8654C51.8073 64.7664 56.3589 70.2053 60.2893 76.0614C58.7127 76.2668 55.3153 78.6184 50.8003 78.5438C48.1426 78.4999 44.9674 76.1313 41.898 75.9732C39.7662 75.8633 37.4388 78.0948 35.2921 77.9247C31.5387 77.6271 28.028 74.8636 24.8618 74.3637C22.9755 74.0659 20.4299 75.9409 18.9799 75.5647C14.9952 74.5311 13.8143 70.982 15.5334 69.2887Z" fill="white"/>
<path fill-rule="evenodd" clip-rule="evenodd" d="M101.383 113.163C113.756 109.083 127.164 113.811 140.191 113.637C145.963 113.559 152.133 112.286 156.106 108.099C147.403 102.975 140.798 94.8262 135.986 85.947C131.175 77.0678 128.011 67.4078 124.874 57.8085C120.745 55.4546 115.432 59.4353 110.9 58.0037C108.585 57.2721 105.819 55.2848 104.158 57.0556C103.154 58.1245 101.286 57.4957 100.311 56.4017C99.3352 55.3077 98.7917 53.8534 97.6915 52.8846C96.5914 51.9159 94.5033 51.7939 93.9434 53.1486C92.9743 55.4938 91.9528 57.9161 90.0947 59.6442C88.2366 61.3724 85.2907 62.2065 83.1144 60.9017C81.4144 59.8824 80.612 57.899 79.6218 56.1819C78.6316 54.4648 78.2453 52.921 76.2763 53.1486C69.6249 67.1624 64.6592 80.9385 56.4768 94.117C52.9607 99.78 33.288 121.367 21.8571 118.585C10.4262 115.803 11.2743 113.637 7.41406 110.216C11.4352 118.396 18.5386 124.833 26.6493 128.993C34.76 133.154 43.8444 135.154 52.9312 135.877C56.5169 136.162 60.1535 136.252 63.683 135.558C78.1472 132.715 87.3833 117.779 101.383 113.163Z" fill="white"/>
<path fill-rule="evenodd" clip-rule="evenodd" d="M88.9787 58.5027C90.2462 56.8651 91.0381 54.8951 92.3441 53.288C93.65 51.6809 95.7708 50.4352 97.7463 51.0559C99.5848 51.6335 100.596 53.5517 101.416 55.2957C101.828 56.1714 103.079 56.2392 103.98 55.888C104.882 55.5369 105.692 54.902 106.654 54.7971C108.644 54.5799 110.143 56.6415 112.088 57.1161C114.982 57.8225 117.891 54.8692 120.751 55.7026C121.962 56.0553 123.009 57.0671 124.267 56.9807C121.848 51.1825 120.026 45.1446 117.486 39.3982C114.947 33.6518 111.597 28.1056 106.722 24.1437C106.22 23.7363 105.672 23.333 105.031 23.2513C104.39 23.1695 103.648 23.5334 103.535 24.1696C103.202 26.0608 102.868 27.9521 102.534 29.8433C102.369 30.7796 101.932 31.9551 100.982 31.9373C100.348 31.9255 99.8618 31.3045 99.7746 30.677C99.6874 30.0495 99.8977 29.4231 100.105 28.8244C100.754 26.9487 101.403 25.073 102.053 23.1973C97.5983 24.8046 93.7373 27.7881 90.5367 31.2783C87.3361 34.7685 84.7476 38.7687 82.2667 42.8023C80.1425 46.2559 78.0847 49.7504 76.0947 53.2831C78.7632 52.9043 81.0874 55.0954 82.5972 57.328C83.5005 58.6639 84.5761 60.2554 86.1887 60.2495C87.3257 60.2453 88.2827 59.4018 88.9787 58.5027Z" fill="white"/>
<path fill-rule="evenodd" clip-rule="evenodd" d="M106.238 18.1393C105.943 18.0444 105.633 17.9365 105.431 17.7003C105.142 17.3604 105.161 16.8636 105.196 16.4185C105.54 12.0199 105.885 7.62122 106.229 3.22257C106.269 2.71288 106.769 2.33708 107.275 2.26182C107.781 2.18656 108.289 2.3397 108.778 2.49105C111.928 3.46737 115.077 4.44369 118.227 5.42C118.996 5.65829 119.037 6.72542 118.875 7.51384C118.713 8.30225 118.592 9.31458 119.28 9.73184C123.874 12.5169 128.756 14.8272 133.822 16.6142C134.149 16.7297 134.173 17.2276 133.945 17.4889C133.716 17.7502 133.351 17.8345 133.011 17.9069C127.868 19.0045 122.834 20.619 118.012 22.7182C117.337 23.0119 116.456 23.2803 115.947 22.7492C115.584 22.3713 115.619 21.7805 115.589 21.2577C115.558 20.735 115.327 20.1091 114.808 20.0431C111.901 19.6736 109.028 19.0354 106.238 18.1393ZM117.031 9.21734C117.735 8.10142 117.233 6.41463 116.032 5.86607C113.186 4.56511 110.198 3.57275 107.139 2.91194C107.647 3.69644 107.62 4.69992 107.575 5.63373C107.403 9.21943 107.226 12.8382 106.289 16.3038C106.209 16.6034 106.594 16.7983 106.897 16.8661C109.61 17.4728 112.344 17.9885 115.092 18.4122C114.866 15.7639 114.639 13.1155 114.413 10.4672C114.388 10.1728 114.364 9.86536 114.477 9.59203C114.658 9.14919 115.162 8.90851 115.641 8.89491C116.119 8.88131 116.582 9.05054 117.031 9.21734ZM116.441 11.3048C116.657 14.4122 116.873 17.5196 117.089 20.627C117.108 20.8995 117.14 21.2001 117.341 21.3846C121.721 19.5663 126.259 18.1277 130.887 17.09C125.872 15.6502 121.642 11.7114 116.441 11.3048Z" fill="#FFB61D"/>
<path fill-rule="evenodd" clip-rule="evenodd" d="M72.6607 134.661C65.1617 138.418 56.3702 138.724 48.0512 137.654C31.946 135.583 15.6821 127.775 7.6742 113.649C4.22001 107.556 2.47546 100.647 1.26004 93.7489C0.593228 89.9646 -0.70177 84.2968 1.66948 81.7243C2.1993 81.1495 17.0834 69.1629 22.8974 61.027C25.3901 57.5388 29.0448 54.2222 33.3755 53.5823C38.4258 52.8361 43.0639 56.3179 46.7351 59.8654C51.8068 64.7664 56.3584 70.2053 60.2888 76.0614C55.9575 74.2214 52.8402 70.3971 49.9631 66.6732C47.0861 62.9492 44.1131 59.0526 39.9011 56.9538C35.6891 54.8551 29.8398 55.2046 27.1043 59.0338C20.5841 68.1605 12.3362 76.0483 2.92784 82.1549C2.2202 82.6142 2.15623 83.6073 2.16948 84.4508C2.32242 94.1877 3.41102 105.276 11.2004 111.12C17.7063 116.002 27.1506 115.365 34.2772 111.445C41.4038 107.525 46.6158 100.895 51.0904 94.1027C64.216 74.1789 72.7389 51.4053 86.8468 32.1646C90.09 27.7415 93.9109 23.3182 99.136 21.6508C102.623 20.5382 103.6 16.0893 103.536 12.4301C103.472 8.77093 103.126 4.61064 105.666 1.97656C105.131 8.06161 104.595 14.1467 104.06 20.2317C111.864 24.1062 116.422 32.3554 119.767 40.4004C124.735 52.3469 128.107 64.9213 133.336 76.7553C138.566 88.5894 145.99 99.9604 156.963 106.814C162.042 100.202 164.939 89.6155 164.939 83.5658C162.042 80.4087 157.928 75.47 153.114 73.2463C147.375 70.5954 141.08 75.2429 136.47 79.5681C139.018 75.69 142.076 71.6077 146.585 70.5094C150.224 69.6228 154.119 70.9452 157.139 73.1619C160.158 75.3785 162.46 78.4124 164.717 81.4016C167 82.1549 167.498 84.2496 165.912 92.1233C164.313 100.065 160.841 108.326 153.788 112.311C150.601 114.112 146.927 114.884 143.278 115.18C128.043 116.414 111.836 109.909 97.8931 116.175C88.3483 120.465 82.0165 129.973 72.6607 134.661ZM101.383 113.162C113.756 109.083 127.164 113.811 140.192 113.636C145.963 113.559 152.133 112.285 156.106 108.098C147.404 102.974 140.798 94.8257 135.986 85.9465C131.175 77.0673 128.011 67.4073 124.874 57.808C120.745 55.4541 115.432 59.4348 110.9 58.0032C108.585 57.2716 105.819 55.2843 104.158 57.0551C103.155 58.124 101.287 57.4952 100.311 56.4012C99.3354 55.3072 98.7919 53.8529 97.6917 52.8842C96.5916 51.9155 94.5035 51.7934 93.9436 53.1481C92.9745 55.4933 91.953 57.9156 90.0949 59.6437C88.2368 61.3719 85.2909 62.206 83.1146 60.9012C81.4146 59.8819 80.6122 57.8985 79.622 56.1814C78.6318 54.4643 76.9917 52.7475 75.0226 52.9751C68.3713 66.9889 60.9309 80.6281 52.7485 93.8066C49.2324 99.4695 45.511 105.127 40.475 109.494C35.4391 113.861 28.8628 116.849 22.2248 116.241C16.8682 115.751 12.0024 113.023 7.41427 110.215C11.4354 118.396 18.5388 124.832 26.6495 128.993C34.7602 133.153 43.8446 135.154 52.9314 135.876C56.5171 136.161 60.1537 136.251 63.6832 135.558C78.1474 132.715 87.3836 117.778 101.383 113.162ZM88.7218 57.4753C89.9893 55.8377 90.7813 53.8677 92.0872 52.2606C93.3932 50.6535 95.5139 49.4078 97.4895 50.0284C99.328 50.6061 100.339 52.5243 101.159 54.2683C101.571 55.1439 102.822 55.2117 103.723 54.8606C104.625 54.5095 105.436 53.8746 106.397 53.7697C108.387 53.5525 109.886 55.614 111.831 56.0887C114.725 56.7951 117.634 53.8417 120.494 54.6751C121.705 55.0278 122.752 56.0397 124.01 55.9533C121.591 50.1551 119.782 44.4458 117.243 38.6994C114.703 32.953 109.187 22.7906 104.774 22.2238C100.311 21.6506 93.4804 26.7607 90.2798 30.2509C87.0792 33.7411 84.4908 37.7412 82.0098 41.7749C79.8856 45.2285 77.8278 48.723 75.8379 52.2557C78.5063 51.8768 80.8305 54.068 82.3403 56.3006C83.2437 57.6365 84.3193 59.228 85.9319 59.2221C87.0689 59.2179 88.0259 58.3744 88.7218 57.4753Z" fill="#00160A"/>
<path fill-rule="evenodd" clip-rule="evenodd" d="M69.0516 10.8754C66.2481 11.1599 63.9613 13.6212 62.8063 16.9521C62.5061 17.8179 61.5204 18.2178 59.791 18.3844L59.682 18.3945C55.853 18.736 53.3111 19.7222 52.0855 21.9767L52.0342 22.0731C51.9345 22.2648 51.8491 22.4562 51.7242 22.7588L51.6436 22.9558C51.3544 23.6666 51.2065 23.9674 50.9589 24.2803C50.1881 25.2548 49.0281 25.5547 46.7069 25.6244L46.449 25.6312C40.8877 25.755 36.9589 26.6 33.7763 28.8227C32.8659 29.4585 32.3239 30.0896 32.2025 30.8985C32.0634 31.8257 32.602 32.7856 33.4619 33.3127C34.15 33.7344 34.9753 33.9009 36.006 33.904C37.26 33.9077 38.5141 33.6894 39.693 33.2621L39.7913 33.2261C39.9688 33.1602 40.1373 33.0932 40.3875 32.9894L40.9175 32.7682C42.0048 32.3184 42.5324 32.1589 43.1939 32.1243C44.2146 32.0707 45.0201 32.3401 46.7353 33.1781L47.096 33.3552C47.4694 33.5379 47.7388 33.6652 48.003 33.781L48.075 33.8123C50.9524 35.0552 53.8942 35.2631 58.6722 34.8988L59.615 34.8227L61.7028 34.646C62.251 34.6015 62.6434 34.5729 63.0954 34.5443L63.5316 34.5186C65.3927 34.4173 67.3794 34.4156 70.6236 34.4804L72.8549 34.5269C77.3268 34.6151 79.3428 34.5913 81.4921 34.3701C83.9891 34.1131 85.6154 32.3695 86.282 29.7866C86.8224 27.6932 86.6259 25.2506 85.873 24.09C84.3696 21.7725 82.1259 20.3767 80.0613 21.0199C79.3769 21.2331 78.516 20.7305 78.0768 19.9061C77.8382 19.4582 77.7171 19.0543 77.5181 18.1492L77.4218 17.7111C77.3663 17.4635 77.3256 17.2979 77.2741 17.1117C76.5737 14.5772 74.6609 12.4129 72.2317 11.4063C71.1657 10.9646 70.0812 10.7709 69.0516 10.8754ZM71.9355 12.1187C74.108 13.0189 75.8336 14.945 76.4968 17.2005L76.5301 17.3174C76.5779 17.4903 76.6164 17.6471 76.6699 17.8855L76.7888 18.4263C76.989 19.3244 77.1243 19.7598 77.3954 20.2689C77.9804 21.3668 79.1547 22.0671 80.2254 21.7749L80.2895 21.7561C81.9457 21.2401 83.888 22.4485 85.2253 24.5099C85.8464 25.4673 86.0254 27.6929 85.5346 29.5943C84.9417 31.8916 83.55 33.3837 81.4121 33.6037L81.1725 33.6276C79.2039 33.817 77.2456 33.8397 73.207 33.7632L70.2583 33.7027C67.217 33.6452 65.2985 33.6507 63.4875 33.7494L62.7772 33.7929C62.2701 33.8268 61.7866 33.8648 60.9968 33.9316L58.8195 34.1145C54.1036 34.4862 51.2363 34.3081 48.5001 33.1565L48.3795 33.1051C48.1509 33.0063 47.9224 32.9003 47.6227 32.7552L46.946 32.4243C45.1974 31.5763 44.3204 31.2936 43.1525 31.3549C42.3541 31.3968 41.757 31.5829 40.5185 32.0993L39.9707 32.3275C39.754 32.4163 39.6027 32.475 39.4294 32.5378C38.3353 32.9343 37.1709 33.137 36.0072 33.1336C35.1051 33.1309 34.4098 32.9906 33.8636 32.6558C33.2506 32.2801 32.8742 31.6093 32.9637 31.0133C33.0455 30.4679 33.4642 29.9804 34.2166 29.455C37.2053 27.3677 40.9414 26.5449 46.2491 26.4073L46.4651 26.4021C49.188 26.3415 50.5661 26.0182 51.5624 24.7588C51.8446 24.4021 52.0107 24.0824 52.2803 23.4324L52.4888 22.9256C52.5944 22.6747 52.6691 22.5153 52.7616 22.3452C53.7951 20.4439 56.0223 19.5363 59.4401 19.192L59.7494 19.1626C61.7971 18.98 63.043 18.5051 63.5084 17.2742L63.5335 17.205C64.6005 14.1279 66.6785 11.8912 69.1283 11.6426C69.9831 11.5559 70.8977 11.7087 71.811 12.0684L71.9355 12.1187Z" fill="#00160A"/>
<path fill-rule="evenodd" clip-rule="evenodd" d="M152.59 26.827L152.495 26.9221C152.422 26.9961 152.351 27.0729 152.262 27.1709L151.909 27.5678C151.573 27.9445 151.391 28.1239 151.153 28.3035C150.635 28.6945 150.015 28.8153 149.602 28.5843C149.436 28.4914 149.313 28.3696 149.074 28.0765L148.897 27.8577C148.804 27.7456 148.738 27.6719 148.657 27.5904C147.594 26.5185 145.736 26.4666 144.322 27.32C143.215 27.9878 142.42 29.0107 141.549 30.6382C141.193 31.303 140.411 31.7627 139.48 31.9033C139.028 31.9715 138.552 31.9766 137.944 31.9315L137.647 31.9067L136.712 31.8119C131.793 31.3267 126.762 32.0218 122.159 33.8227C121.432 34.1069 121.029 34.3615 120.772 34.8359C120.402 35.5195 120.777 36.5118 121.567 36.5555C135.061 37.3033 148.61 37.0478 162.066 35.792L162.92 35.7118L163.543 35.6691C163.601 35.6648 163.648 35.6608 163.708 35.6555L163.868 35.6396C165.095 35.5034 165.77 35.0962 165.77 34.0756C165.77 33.0896 165.294 32.82 164.094 32.6977L163.854 32.6725C163.389 32.6217 163.177 32.5837 162.891 32.4948C161.873 32.1795 160.661 31.5222 160.397 31.1939C160.005 30.7083 159.839 30.2513 159.601 29.1887L159.526 28.8526C159.276 27.7581 159.077 27.236 158.606 26.6504C157.231 24.9411 154.297 25.1503 152.59 26.827ZM158.005 27.1338C158.396 27.6192 158.562 28.0763 158.8 29.1371L158.875 29.4735C159.125 30.5697 159.324 31.0918 159.796 31.6777C160.178 32.1514 161.512 32.8747 162.662 33.2313L162.768 33.263C163.043 33.3423 163.274 33.3828 163.678 33.4286L164.209 33.4858C164.888 33.566 164.999 33.6626 164.999 34.0758C164.999 34.5786 164.635 34.7896 163.717 34.8807L163.483 34.9009L162.896 34.9408C162.868 34.9429 162.841 34.9451 162.816 34.9473L162.74 34.9542C149.077 36.2672 135.314 36.5456 121.609 35.7862C121.453 35.7775 121.324 35.4361 121.45 35.2027C121.592 34.9398 121.874 34.7618 122.44 34.5407C126.852 32.8145 131.669 32.1297 136.388 32.5558L136.965 32.6129L137.442 32.6618C137.554 32.6727 137.646 32.681 137.748 32.6895C138.475 32.7499 139.042 32.7493 139.595 32.6657C140.747 32.4916 141.745 31.9054 142.228 31.0021C143.039 29.4867 143.761 28.5591 144.72 27.9802C145.852 27.2971 147.321 27.3381 148.11 28.1336L148.156 28.1812C148.194 28.2217 148.233 28.2652 148.28 28.3214L148.428 28.5029C148.758 28.9139 148.934 29.094 149.226 29.2572C149.944 29.6589 150.878 29.4769 151.618 28.919C151.889 28.7141 152.088 28.5212 152.418 28.1556L152.829 27.6938C152.948 27.5617 153.032 27.473 153.13 27.3771C154.54 25.992 156.949 25.8204 158.005 27.1338Z" fill="#00160A"/>
<path fill-rule="evenodd" clip-rule="evenodd" d="M103.537 12.4301C103.472 8.77093 103.126 4.61064 105.667 1.97656C105.131 8.06161 104.596 14.1467 104.06 20.2317C104.93 20.6634 103.633 21.3856 102.847 21.4002C100.032 21.4522 103.601 16.0893 103.537 12.4301Z" fill="#FFB61D"/>
<defs>
<linearGradient id="paint0_linear_404_10243" x1="83.5" y1="31.6875" x2="83.5" y2="138.19" gradientUnits="userSpaceOnUse">
<stop stop-color="#F08B32"/>
<stop offset="1" stop-color="#F08B32" stop-opacity="0"/>
</linearGradient>
</defs>
</svg>
