<svg width="43" height="44" viewBox="0 0 43 44" fill="none" xmlns="http://www.w3.org/2000/svg">
<circle cx="21.5" cy="21.8225" r="21.5" fill="#F2F2F0"/>
<path d="M12 14.3225C12 13.7702 12.4477 13.3225 13 13.3225H29C29.5523 13.3225 30 13.7702 30 14.3225V31.3225H12V14.3225Z" stroke="#F08B32" stroke-width="1.5" stroke-linejoin="round"/>
<path fill-rule="evenodd" clip-rule="evenodd" d="M15 17.3225C15.5523 17.3225 16 16.8748 16 16.3225C16 15.7702 15.5523 15.3225 15 15.3225C14.4477 15.3225 14 15.7702 14 16.3225C14 16.8748 14.4477 17.3225 15 17.3225Z" fill="#F08B32"/>
<path fill-rule="evenodd" clip-rule="evenodd" d="M18 17.3225C18.5523 17.3225 19 16.8748 19 16.3225C19 15.7702 18.5523 15.3225 18 15.3225C17.4477 15.3225 17 15.7702 17 16.3225C17 16.8748 17.4477 17.3225 18 17.3225Z" fill="#F08B32"/>
<path fill-rule="evenodd" clip-rule="evenodd" d="M21 17.3225C21.5523 17.3225 22 16.8748 22 16.3225C22 15.7702 21.5523 15.3225 21 15.3225C20.4477 15.3225 20 15.7702 20 16.3225C20 16.8748 20.4477 17.3225 21 17.3225Z" fill="#F08B32"/>
<path d="M30 19.3225H12" stroke="#F08B32" stroke-width="1.5" stroke-linecap="round"/>
</svg>
