<svg width="21" height="24" viewBox="0 0 21 24" fill="none" xmlns="http://www.w3.org/2000/svg">
<path d="M10.5016 0.652344C11.4278 0.652213 12.3207 0.998355 13.0049 1.6228C13.689 2.24725 14.115 3.1049 14.1992 4.02734H19.9516C20.2081 4.02742 20.455 4.12487 20.6425 4.30001C20.8299 4.47514 20.9439 4.7149 20.9614 4.97083C20.9789 5.22677 20.8986 5.4798 20.7367 5.6788C20.5748 5.8778 20.3434 6.00793 20.0893 6.04289L19.9516 6.05234H19.1645L17.4541 20.8753C17.3779 21.5333 17.0625 22.1404 16.5679 22.5809C16.0733 23.0215 15.434 23.2649 14.7716 23.2648H6.23151C5.56913 23.2649 4.92983 23.0215 4.43523 22.5809C3.94062 22.1404 3.62524 21.5333 3.54906 20.8753L1.83726 6.05234H1.05156C0.806892 6.05233 0.570501 5.96373 0.386106 5.80291C0.201711 5.64209 0.0817877 5.41994 0.0485125 5.17754L0.0390625 5.03984C0.0390728 4.79517 0.12768 4.55878 0.288498 4.37439C0.449316 4.18999 0.671465 4.07007 0.913862 4.03679L1.05156 4.02734H6.80391C6.88812 3.1049 7.31412 2.24725 7.99827 1.6228C8.68241 0.998355 9.57528 0.652213 10.5016 0.652344ZM8.47656 9.08984C8.14581 9.08984 7.86906 9.29909 7.81236 9.57449L7.80156 9.68114V17.9499L7.81236 18.0552C7.86906 18.3306 8.14581 18.5398 8.47656 18.5398C8.80731 18.5398 9.08406 18.3306 9.14076 18.0552L9.15156 17.9485V9.68249L9.14076 9.57449C9.08406 9.30044 8.80731 9.08984 8.47656 9.08984ZM12.5266 9.08984C12.1958 9.08984 11.9191 9.29909 11.8624 9.57449L11.8516 9.68114V17.9499L11.8624 18.0552C11.9191 18.3306 12.1958 18.5398 12.5266 18.5398C12.8573 18.5398 13.1341 18.3306 13.1908 18.0552L13.2016 17.9485V9.68249L13.1908 9.57449C13.1341 9.30044 12.8573 9.09119 12.5266 9.09119V9.08984ZM10.5016 2.67734C9.68481 2.67734 9.00306 3.25784 8.84781 4.02734H12.1553C11.9987 3.25784 11.3183 2.67734 10.5016 2.67734Z" fill="#A0A4AF"/>
</svg>
