<svg width="42" height="42" viewBox="0 0 42 42" fill="none" xmlns="http://www.w3.org/2000/svg">
<circle cx="21" cy="21" r="21" fill="#BABEC8"/>
<path d="M28.222 28.3343H13.7838C13.3429 28.3343 12.9844 28.6956 12.9844 29.1337V30.2006C12.9844 30.6415 13.3457 31 13.7838 31H28.2163C28.6572 31 29.0157 30.6387 29.0157 30.2006V29.1337C29.0243 28.6899 28.6629 28.3343 28.222 28.3343Z" fill="white"/>
<path d="M20.4445 26.9033C20.601 27.0598 20.8059 27.1394 21.0078 27.1394C21.2127 27.1394 21.4175 27.0598 21.5711 26.9033L27.0391 21.4353C27.3493 21.1252 27.3493 20.6188 27.0391 20.303L26.2824 19.5462C25.9723 19.2361 25.4659 19.2361 25.1501 19.5462L22.3393 22.3599V11.7994C22.3393 11.3585 21.978 11 21.5399 11H20.473C20.032 11 19.6735 11.3556 19.6735 11.7994V22.3627L16.8599 19.5491C16.5498 19.239 16.0405 19.239 15.7276 19.5491L14.9708 20.3058C14.6608 20.6159 14.6608 21.1252 14.9708 21.4381L20.4445 26.9033Z" fill="white"/>
</svg>
