<svg width="36" height="36" viewBox="0 0 36 36" fill="none" xmlns="http://www.w3.org/2000/svg">
<path d="M15.9327 16.0364L15.841 15.292L15.2553 15.3642L15.1877 15.9505L15.9327 16.0364ZM34.9744 34.8705L35.0661 35.6149L35.6519 35.5427L35.7195 34.9564L34.9744 34.8705ZM16.0244 16.7808C16.6856 16.6993 17.3593 16.6573 18.0433 16.6573V15.1573C17.2979 15.1573 16.5629 15.2031 15.841 15.292L16.0244 16.7808ZM18.0433 16.6573C27.0438 16.6573 34.3368 23.9345 34.3368 32.9073H35.8368C35.8368 23.1025 27.8686 15.1573 18.0433 15.1573V16.6573ZM34.3368 32.9073C34.3368 33.5425 34.3003 34.1689 34.2293 34.7846L35.7195 34.9564C35.797 34.2838 35.8368 33.6001 35.8368 32.9073H34.3368ZM34.8827 34.1261C34.2215 34.2076 33.5478 34.2495 32.8639 34.2495V35.7495C33.6092 35.7495 34.3442 35.7038 35.0661 35.6149L34.8827 34.1261ZM32.8639 34.2495C23.8634 34.2495 16.5703 26.9724 16.5703 17.9996H15.0703C15.0703 27.8044 23.0386 35.7495 32.8639 35.7495V34.2495ZM16.5703 17.9996C16.5703 17.3644 16.6068 16.738 16.6778 16.1223L15.1877 15.9505C15.1101 16.6231 15.0703 17.3068 15.0703 17.9996H16.5703Z" fill="url(#paint0_linear_4474_9426)"/>
<path d="M1.13377 1.12644L1.04301 0.381953L0.462694 0.4527L0.389647 1.03273L1.13377 1.12644ZM20.1327 20.1402L20.2235 20.8847L20.8038 20.8139L20.8769 20.2339L20.1327 20.1402ZM1.22453 1.87093C1.87916 1.79112 2.54607 1.75 3.22294 1.75V0.25C2.48525 0.25 1.75773 0.294821 1.04301 0.381953L1.22453 1.87093ZM3.22294 1.75C12.2234 1.75 19.5165 9.02717 19.5165 18H21.0165C21.0165 8.19513 13.0482 0.25 3.22294 0.25V1.75ZM19.5165 18C19.5165 18.6935 19.473 19.3765 19.3886 20.0465L20.8769 20.2339C20.969 19.5019 21.0165 18.7563 21.0165 18H19.5165ZM20.042 19.3957C19.3873 19.4755 18.7204 19.5166 18.0436 19.5166V21.0166C18.7812 21.0166 19.5088 20.9718 20.2235 20.8847L20.042 19.3957ZM18.0436 19.5166C9.04307 19.5166 1.75 12.2395 1.75 3.26665H0.25C0.25 13.0715 8.21826 21.0166 18.0436 21.0166V19.5166ZM1.75 3.26665C1.75 2.57316 1.79351 1.89016 1.87789 1.22015L0.389647 1.03273C0.29746 1.76475 0.25 2.51035 0.25 3.26665H1.75Z" fill="url(#paint1_linear_4474_9426)"/>
<path d="M34.953 1.12644L35.6971 1.03273L35.6241 0.452695L35.0438 0.381949L34.953 1.12644ZM15.9541 20.1402L15.21 20.2339L15.283 20.8139L15.8633 20.8847L15.9541 20.1402ZM34.3368 3.26665C34.3368 12.2395 27.0437 19.5166 18.0432 19.5166V21.0166C27.8685 21.0166 35.8368 13.0715 35.8368 3.26665H34.3368ZM34.2089 1.22015C34.2933 1.89016 34.3368 2.57316 34.3368 3.26665H35.8368C35.8368 2.51035 35.7893 1.76475 35.6971 1.03273L34.2089 1.22015ZM32.8639 1.75C33.5407 1.75 34.2076 1.79112 34.8623 1.87093L35.0438 0.381949C34.3291 0.29482 33.6015 0.25 32.8639 0.25V1.75ZM16.5703 18C16.5703 9.02717 23.8634 1.75 32.8639 1.75V0.25C23.0386 0.25 15.0703 8.19512 15.0703 18H16.5703ZM16.6982 20.0465C16.6138 19.3765 16.5703 18.6935 16.5703 18H15.0703C15.0703 18.7563 15.1178 19.5019 15.21 20.2339L16.6982 20.0465ZM18.0432 19.5166C17.3664 19.5166 16.6995 19.4755 16.0448 19.3957L15.8633 20.8847C16.578 20.9718 17.3055 21.0166 18.0432 21.0166V19.5166Z" fill="url(#paint2_linear_4474_9426)"/>
<path d="M20.1541 16.0364L20.8992 15.9505L20.8316 15.3642L20.2458 15.292L20.1541 16.0364ZM1.11242 34.8705L0.367353 34.9564L0.434945 35.5427L1.02072 35.6149L1.11242 34.8705ZM19.5165 17.9996C19.5165 26.9724 12.2234 34.2495 3.22294 34.2495V35.7495C13.0482 35.7495 21.0165 27.8044 21.0165 17.9996H19.5165ZM19.409 16.1223C19.48 16.738 19.5165 17.3644 19.5165 17.9996H21.0165C21.0165 17.3068 20.9767 16.6231 20.8992 15.9505L19.409 16.1223ZM18.0436 16.6573C18.7275 16.6573 19.4012 16.6993 20.0624 16.7808L20.2458 15.292C19.5239 15.2031 18.7889 15.1573 18.0436 15.1573V16.6573ZM1.75 32.9073C1.75 23.9345 9.04307 16.6573 18.0436 16.6573V15.1573C8.21826 15.1573 0.25 23.1025 0.25 32.9073H1.75ZM1.85748 34.7846C1.78651 34.1689 1.75 33.5425 1.75 32.9073H0.25C0.25 33.6001 0.289818 34.2838 0.367353 34.9564L1.85748 34.7846ZM3.22294 34.2495C2.53903 34.2495 1.86529 34.2076 1.20412 34.1261L1.02072 35.6149C1.7426 35.7038 2.47758 35.7495 3.22294 35.7495V34.2495Z" fill="url(#paint3_linear_4474_9426)"/>
<defs>
<linearGradient id="paint0_linear_4474_9426" x1="25.4536" y1="15.9073" x2="25.4536" y2="34.9996" gradientUnits="userSpaceOnUse">
<stop stop-color="#C29765"/>
<stop offset="1" stop-color="#936541"/>
</linearGradient>
<linearGradient id="paint1_linear_4474_9426" x1="10.6333" y1="1" x2="10.6333" y2="20.2666" gradientUnits="userSpaceOnUse">
<stop stop-color="#C29765"/>
<stop offset="1" stop-color="#936541"/>
</linearGradient>
<linearGradient id="paint2_linear_4474_9426" x1="25.4536" y1="1" x2="25.4536" y2="20.2667" gradientUnits="userSpaceOnUse">
<stop stop-color="#C29765"/>
<stop offset="1" stop-color="#936541"/>
</linearGradient>
<linearGradient id="paint3_linear_4474_9426" x1="10.6333" y1="15.9073" x2="10.6333" y2="34.9996" gradientUnits="userSpaceOnUse">
<stop stop-color="#C29765"/>
<stop offset="1" stop-color="#936541"/>
</linearGradient>
</defs>
</svg>
