<svg width="39" height="39" viewBox="0 0 39 39" fill="none" xmlns="http://www.w3.org/2000/svg">
<path fill-rule="evenodd" clip-rule="evenodd" d="M5.6875 8.11692C5.24248 8.11692 4.875 8.48257 4.875 8.92537V30.0746C4.875 30.5174 5.24248 30.8831 5.6875 30.8831H33.3125C33.7575 30.8831 34.125 30.5174 34.125 30.0746V8.92537C34.125 8.48257 33.7575 8.11692 33.3125 8.11692H5.6875ZM3.25 8.92537C3.25 7.58957 4.34502 6.5 5.6875 6.5H33.3125C34.655 6.5 35.75 7.58957 35.75 8.92537V30.0746C35.75 31.4104 34.655 32.5 33.3125 32.5H5.6875C4.34502 32.5 3.25 31.4104 3.25 30.0746V8.92537Z" fill="#283049"/>
<path fill-rule="evenodd" clip-rule="evenodd" d="M35.602 10.095C35.8603 10.462 35.7721 10.9688 35.4052 11.227L20.9599 21.3922C20.0931 22.1296 18.8981 22.119 18.0279 21.395L3.59463 11.2268C3.22779 10.9684 3.13991 10.4615 3.39835 10.0946C3.65678 9.72779 4.16367 9.63991 4.53051 9.89835L18.993 20.0871C19.0145 20.1023 19.0353 20.1185 19.0552 20.1356C19.3399 20.3807 19.6631 20.3707 19.9201 20.1431C19.9427 20.123 19.9665 20.1043 19.9912 20.0869L34.47 9.8981C34.837 9.63986 35.3438 9.728 35.602 10.095Z" fill="#283049"/>
</svg>
