<svg width="25" height="25" viewBox="0 0 25 25" fill="none" xmlns="http://www.w3.org/2000/svg">
<path d="M11.9697 9.28033L13.6806 10.9912L10.7951 13.8767L7.79043 10.871L7.2601 10.3405L6.72968 10.8709L1.35876 16.2418C0.954777 15.0386 0.748377 13.7752 0.75001 12.501V12.5C0.75001 6.01046 6.01047 0.75 12.5 0.75C18.9895 0.75 24.25 6.01046 24.25 12.5C24.25 18.9895 18.9895 24.25 12.5 24.25H12.4995C10.6408 24.2512 8.80842 23.8109 7.15325 22.9652C5.68722 22.2162 4.39736 21.1681 3.36557 19.8913L7.25885 15.9981L10.2648 19.0029L10.795 19.533L11.3253 19.0029L16.5088 13.8205L18.2198 15.5305L19.5 16.8099V15V8.75V8H18.75H12.5H10.6893L11.9697 9.28033Z" stroke="#283049" stroke-width="1.5"/>
</svg>
