<svg width="200" height="194" viewBox="0 0 200 194" fill="none" xmlns="http://www.w3.org/2000/svg">
<path d="M133.333 129.333L100 97L66.6667 129.333" stroke="black" stroke-opacity="0.4" stroke-width="2" stroke-linecap="round" stroke-linejoin="round"/>
<path d="M100 97V169.75" stroke="black" stroke-opacity="0.4" stroke-width="2" stroke-linecap="round" stroke-linejoin="round"/>
<path d="M169.917 148.652C178.045 144.354 184.465 137.553 188.166 129.322C191.866 121.091 192.635 111.899 190.352 103.197C188.068 94.495 182.862 86.7784 175.556 81.265C168.249 75.7517 159.257 72.7556 150 72.7497H139.5C136.978 63.286 132.276 54.5002 125.75 47.0527C119.223 39.6052 111.04 33.6898 101.818 29.7512C92.5946 25.8127 82.5713 23.9535 72.501 24.3134C62.4307 24.6733 52.5756 27.2429 43.6765 31.8291C34.7774 36.4153 27.066 42.8987 21.1219 50.792C15.1778 58.6852 11.1558 67.7828 9.3582 77.4008C7.56062 87.0188 8.03425 96.9069 10.7435 106.322C13.4527 115.737 18.3271 124.433 25 131.758" stroke="black" stroke-opacity="0.4" stroke-width="2" stroke-linecap="round" stroke-linejoin="round"/>
<path d="M133.333 129.333L100 97L66.6667 129.333" stroke="black" stroke-opacity="0.4" stroke-width="2" stroke-linecap="round" stroke-linejoin="round"/>
</svg>
