<svg width="22" height="22" viewBox="0 0 22 22" fill="none" xmlns="http://www.w3.org/2000/svg">
<path d="M10.0518 4.55021V6.60022V6.75022H9.90176H8.80189C8.11242 6.75022 7.45119 7.02415 6.96366 7.51174C6.47613 7.99933 6.20223 8.66066 6.20223 9.35023C6.20223 10.0398 6.47613 10.7011 6.96366 11.1887C7.45119 11.6763 8.11242 11.9502 8.80189 11.9502H13.2014H13.2147L13.2146 11.9508L13.3136 11.9596L13.3272 11.9608L13.3271 11.9614C13.4992 11.9926 13.6534 12.0871 13.7593 12.2263C13.8653 12.3655 13.9152 12.5393 13.8994 12.7135C13.8836 12.8877 13.8032 13.0497 13.6739 13.1675C13.5447 13.2854 13.376 13.3506 13.2011 13.3502M10.0518 4.55021L7.30209 13.2002V13.3502M10.0518 4.55021H11.9515V6.60022V6.75022H12.1015H14.7012V8.65023L10.0518 4.55021ZM13.2011 13.3502L13.2014 13.2002V13.3502H13.2011ZM13.2011 13.3502H7.30209M7.30209 13.3502H7.15209V15.2503H7.30209M7.30209 13.3502V15.2503M7.30209 15.2503V15.4003H9.75176H9.90176V15.5503V17.4503H10.0518M7.30209 15.2503H9.90176H10.0518V15.4003V17.4503M10.0518 17.4503V17.6003H11.9515V17.4503M10.0518 17.4503H11.9515M11.9515 17.4503H12.1015M11.9515 17.4503V15.4003V15.2503H12.1015H13.2014C13.8908 15.2503 14.5521 14.9763 15.0396 14.4887C15.5271 14.0011 15.801 13.3398 15.801 12.6502C15.801 11.9607 15.5271 11.2993 15.0396 10.8118C14.5521 10.3242 13.8908 10.0502 13.2014 10.0502H8.80189H8.78856L8.78861 10.0496L8.68962 10.0408L8.67607 10.0396L8.67618 10.039C8.50406 10.0079 8.34986 9.91338 8.24392 9.77419C8.13799 9.635 8.08801 9.46119 8.10381 9.28698C8.11961 9.11278 8.20006 8.9508 8.32931 8.83295C8.45856 8.71509 8.62726 8.64991 8.80217 8.65023L8.80189 8.80023L12.1015 17.4503M12.1015 17.4503V15.5503V15.4003V17.4503ZM4.04058 2.63291H4.09419L4.13566 2.59892C8.39688 -0.893592 14.6946 -0.650477 18.6727 3.32817C22.9091 7.56511 22.9091 14.4354 18.6727 18.6723C14.4363 22.9092 7.56694 22.9092 3.33055 18.6723L3.33048 18.6722C2.03042 17.3738 1.08165 15.7662 0.573268 14.0004C0.0649949 12.235 0.0135935 10.3693 0.42388 8.5786L0.471852 8.38356L2.30777 8.86776C1.81828 10.8636 2.03017 12.9689 2.91058 14.829C3.81239 16.7344 5.35772 18.2603 7.27425 19.1377C9.19077 20.0151 11.3555 20.1878 13.3868 19.6254C15.4182 19.0629 17.1859 17.8013 18.3783 16.0631C19.5707 14.3248 20.1114 12.2213 19.905 10.1234C19.6986 8.02552 18.7584 6.0678 17.2501 4.59528C15.7418 3.12276 13.7622 2.22996 11.6602 2.07423C9.55814 1.9185 7.46861 2.50983 5.75983 3.74401L5.75981 3.74399L5.75756 3.74568L5.51449 3.92828L5.37633 4.03207L5.49851 4.15427L6.42571 5.08159L1.86824 6.13283L2.91936 1.57479L3.9334 2.58897L3.97734 2.63291H4.03947H4.04058Z" fill="#283049" stroke="white" stroke-width="0.3"/>
</svg>
