<svg width="60" height="60" viewBox="0 0 60 60" fill="none" xmlns="http://www.w3.org/2000/svg">
<circle cx="30" cy="30" r="30" fill="#F5F5F5"/>
<g clip-path="url(#clip0_14531_31042)">
<g clip-path="url(#clip1_14531_31042)">
<path d="M42.25 40.5V30H38.75V40.5H35.25V30H31.75V40.5H28.25V30H24.75V40.5H21.25V30H17.75V40.5H16V44H44V40.5H42.25Z" fill="#A0A4AF"/>
<path d="M42.95 21.4203L30.7 16.1703C30.175 15.9953 29.825 15.9953 29.3 16.1703L17.05 21.4203C16.35 21.5953 16 22.2953 16 22.9953V26.4953C16 27.5453 16.7 28.2453 17.75 28.2453H42.25C43.3 28.2453 44 27.5453 44 26.4953V22.9953C44 22.2953 43.65 21.5953 42.95 21.4203ZM30 24.7453C28.95 24.7453 28.25 24.0453 28.25 22.9953C28.25 21.9453 28.95 21.2453 30 21.2453C31.05 21.2453 31.75 21.9453 31.75 22.9953C31.75 24.0453 31.05 24.7453 30 24.7453Z" fill="#A0A4AF"/>
</g>
</g>
<defs>
<clipPath id="clip0_14531_31042">
<rect width="28" height="28" fill="white" transform="translate(16 16)"/>
</clipPath>
<clipPath id="clip1_14531_31042">
<rect width="28" height="28" fill="white" transform="translate(16 16)"/>
</clipPath>
</defs>
</svg>
