<svg width="12" height="12" viewBox="0 0 12 12" fill="none" xmlns="http://www.w3.org/2000/svg">
<path fill-rule="evenodd" clip-rule="evenodd" d="M0.634705 0.632752C0.322286 0.945172 0.322286 1.4517 0.634705 1.76412L4.86902 5.99844L0.634705 10.2328C0.322286 10.5452 0.322286 11.0517 0.634705 11.3641C0.947125 11.6765 1.45366 11.6765 1.76608 11.3641L6.00039 7.12981L10.2347 11.3641C10.5471 11.6765 11.0537 11.6765 11.3661 11.3641C11.6785 11.0517 11.6785 10.5452 11.3661 10.2328L7.13176 5.99844L11.3661 1.76412C11.6785 1.4517 11.6785 0.945172 11.3661 0.632752C11.0537 0.320333 10.5471 0.320333 10.2347 0.632752L6.00039 4.86707L1.76608 0.632752C1.45366 0.320333 0.947125 0.320333 0.634705 0.632752Z" fill="#FF0000"/>
</svg>
