<svg width="12" height="17" viewBox="0 0 12 17" fill="none" xmlns="http://www.w3.org/2000/svg">
<path d="M4.0831 9.96377H3.01824L2.9639 9.89931L2.88744 9.96377V10.0638H2.97174L6.97259 14.8098C7.12874 14.9924 7.20597 15.2295 7.18728 15.469C7.1686 15.7085 7.05553 15.9308 6.87295 16.087C6.69037 16.2431 6.45325 16.3203 6.21373 16.3016C5.97421 16.283 5.75193 16.1699 5.59578 15.9873L0.160995 9.64674C0.0975891 9.61051 0.097589 9.53804 0.097589 9.53804L4.0831 9.96377ZM4.0831 9.96377C5.32952 9.96893 6.53261 9.50667 7.4549 8.66822M4.0831 9.96377L7.4549 8.66822M7.4549 8.66822C8.37719 7.82978 8.95168 6.67606 9.06498 5.43478L7.4549 8.66822ZM8.77809 3.64876L8.79777 3.72319H8.87476H10.8766C11.0903 3.72319 11.2952 3.80808 11.4464 3.9592C11.5975 4.11032 11.6824 4.31527 11.6824 4.52899C11.6824 4.7427 11.5975 4.94765 11.4464 5.09877C11.2952 5.24989 11.0903 5.33478 10.8766 5.33478H9.06498H8.97369L8.96539 5.42569C8.85436 6.64206 8.29141 7.77261 7.38763 8.59423C6.48385 9.41584 5.30492 9.86883 4.08351 9.86377H4.0831H2.88744H2.67235L2.81099 10.0282L6.89613 14.8742L6.89659 14.8748C7.0355 15.0372 7.10421 15.2482 7.08758 15.4612C7.07096 15.6743 6.97038 15.872 6.80795 16.011C6.64553 16.1499 6.43458 16.2186 6.22151 16.202C6.00843 16.1853 5.81069 16.0847 5.67177 15.9223L5.6717 15.9222L0.236921 9.58166L0.225648 9.56851L0.210609 9.55991C0.205655 9.55708 0.202411 9.55294 0.199901 9.54577C0.198627 9.54213 0.197977 9.53876 0.197686 9.53659C0.197644 9.53628 0.197612 9.53601 0.197589 9.5358L0.197589 9.50486L0.177757 9.47827C0.146749 9.43668 0.122086 9.39074 0.104558 9.34196C0.098086 9.2949 0.0985063 9.24713 0.105819 9.20017L0.107788 9.18752L0.106508 9.17478C0.102939 9.13927 0.102939 9.10349 0.106508 9.06797L0.106596 9.06798L0.10684 9.06379C0.112207 8.97177 0.143489 8.88314 0.197074 8.80813L0.220576 8.77523L0.214611 8.73524C0.208853 8.69665 0.208115 8.65749 0.212398 8.61875C0.231756 8.58461 0.25334 8.55176 0.277013 8.52043L0.277459 8.52077L0.282917 8.51169C0.310596 8.46568 0.34453 8.42375 0.383734 8.38711L0.48312 8.32913L0.483442 8.32968L0.492509 8.32292C0.534095 8.29191 0.580035 8.26725 0.628824 8.24972C0.67588 8.24325 0.723645 8.24367 0.77061 8.25098L0.783259 8.25295L0.795996 8.25167C0.83151 8.2481 0.867292 8.2481 0.902805 8.25167L0.902755 8.25217H0.912806H4.12839L4.12879 8.25217C4.91291 8.24901 5.6698 7.96422 6.2615 7.44969C6.85321 6.93516 7.24035 6.22515 7.35236 5.44907L7.36885 5.33478H7.25338H0.912806C0.699096 5.33478 0.494138 5.24989 0.343022 5.09877C0.191906 4.94765 0.107009 4.7427 0.107009 4.52899C0.107009 4.31527 0.191906 4.11032 0.343022 3.9592C0.494138 3.80808 0.699096 3.72319 0.912806 3.72319H6.93636H7.09447L7.02671 3.58033C6.76232 3.02295 6.34567 2.55171 5.82487 2.22104C5.30406 1.89038 4.70035 1.71376 4.08345 1.71159H4.0831H0.912806C0.699096 1.71159 0.494138 1.6267 0.343022 1.47558C0.191906 1.32447 0.107009 1.11951 0.107009 0.905797C0.107009 0.692086 0.191906 0.487129 0.343022 0.336012C0.494138 0.184896 0.699096 0.1 0.912806 0.1H10.8766C11.0903 0.1 11.2952 0.184896 11.4464 0.336012C11.5975 0.487129 11.6824 0.692086 11.6824 0.905797C11.6824 1.11951 11.5975 1.32447 11.4464 1.47558C11.2952 1.6267 11.0903 1.71159 10.8766 1.71159H7.96896H7.76249L7.8905 1.87359C8.30501 2.39816 8.60714 3.00241 8.77809 3.64876Z" fill="#283049" stroke="white" stroke-width="0.2"/>
</svg>
