<svg width="40" height="40" viewBox="0 0 40 40" fill="none" xmlns="http://www.w3.org/2000/svg">
<path fill-rule="evenodd" clip-rule="evenodd" d="M14.9748 8.39723C14.832 7.39495 13.9719 6.65486 12.96 6.66662L12.9504 6.66674L8.68672 6.66668C8.68526 6.66683 8.67445 6.66759 8.64161 6.67088C8.63947 6.67109 8.63714 6.67133 8.63464 6.67158C8.60367 6.67471 8.54572 6.68058 8.47943 6.68262C7.38374 6.78936 6.57728 7.75975 6.67953 8.85002C7.13287 13.1175 8.58806 17.2074 10.9162 20.7965L10.9202 20.8028C13.0379 24.1329 15.8667 26.9617 19.2127 29.0792L19.2205 29.0842C22.8094 31.4121 26.9016 32.8523 31.1584 33.3217C31.1794 33.324 31.2004 33.3271 31.2212 33.3311C31.2244 33.3313 31.2299 33.3318 31.2382 33.3321C31.2621 33.3332 31.2893 33.3334 31.3337 33.3334C32.4338 33.3334 33.3337 32.4295 33.3337 31.3167V27.0309C33.3573 26.0019 32.616 25.1385 31.6113 25.0099L31.6062 25.0093C30.1779 24.8177 28.7843 24.4692 27.4266 23.9644L27.4162 23.9606C26.6906 23.6797 25.8563 23.8559 25.3063 24.4059L25.3036 24.4086L23.4869 26.2086C23.2212 26.4719 22.8126 26.5259 22.4876 26.3406C18.7927 24.2342 15.7345 21.1939 13.6264 17.4961C13.4397 17.1686 13.4961 16.7567 13.7638 16.4914L15.5755 14.6963C16.1119 14.145 16.2902 13.3048 16.0193 12.5738M14.9748 8.39723C15.1665 9.82446 15.5149 11.2171 16.0193 12.5738L14.9748 8.39723ZM12.9458 5.00001C14.7976 4.98103 16.3674 6.33882 16.6255 8.16686L16.6263 8.17255C16.8014 9.47751 17.1196 10.7506 17.5815 11.9929C18.0762 13.3266 17.7563 14.8509 16.7626 15.8662L16.7536 15.8754L15.3975 17.2189C17.2308 20.2281 19.7563 22.7405 22.7699 24.5728L24.1278 23.2274C24.1282 23.227 24.1286 23.2266 24.129 23.2262C25.1442 22.212 26.673 21.8882 28.0122 22.404C29.2523 22.8647 30.523 23.1822 31.8254 23.3571C33.6827 23.596 35.0382 25.1932 35.0004 27.059V31.3167C35.0004 33.3372 33.3669 35 31.3337 35C31.3296 35 31.3249 35 31.3197 35C31.2528 35.0002 31.1015 35.0007 30.948 34.9753C26.4495 34.475 22.1198 32.9506 18.3174 30.485C14.7662 28.2368 11.7638 25.2343 9.51587 21.7004C7.04598 17.8916 5.50209 13.5509 5.02167 9.02124L5.02078 9.01278C4.82611 6.97956 6.33936 5.19191 8.36303 5.01968M12.9458 5.00001H8.68369C8.59907 5.00001 8.52067 5.00794 8.48275 5.01178C8.48024 5.01203 8.47791 5.01227 8.47577 5.01248C8.4425 5.01581 8.43184 5.01655 8.43061 5.01669" fill="#283049"/>
</svg>
