<svg width="18" height="21" viewBox="0 0 18 21" fill="none" xmlns="http://www.w3.org/2000/svg">
<path d="M9.00001 9.85C6.32142 9.85 4.15001 7.67858 4.15001 5C4.15001 2.32142 6.32142 0.15 9.00001 0.15C11.6786 0.15 13.85 2.32142 13.85 5C13.85 7.67858 11.6786 9.85 9.00001 9.85ZM9.00001 8.15C10.7397 8.15 12.15 6.7397 12.15 5C12.15 3.2603 10.7397 1.85 9.00001 1.85C7.26031 1.85 5.85001 3.2603 5.85001 5C5.85001 6.7397 7.26031 8.15 9.00001 8.15ZM1.84979 20.019C1.83931 20.4883 1.45035 20.8603 0.981025 20.8498C0.5117 20.8393 0.139735 20.4503 0.150217 19.981C0.222516 16.7439 1.02276 14.5461 2.49173 13.1546C3.96156 11.7623 6.12964 11.15 8.99995 11.15C12.008 11.15 14.2466 11.768 15.7168 13.1672C17.1847 14.5641 17.9175 16.7699 17.845 20.019C17.8345 20.4883 17.4455 20.8603 16.9762 20.8498C16.5069 20.8393 16.1349 20.4503 16.1454 19.981C16.2067 17.2365 15.6771 15.4372 14.4752 14.3311C13.2771 13.2287 11.4474 12.85 8.99995 12.85C6.67876 12.85 4.91046 13.2345 3.71058 14.3442C2.50905 15.4553 1.91138 17.2616 1.84979 20.019Z" fill="#283049" stroke="white" stroke-width="0.3"/>
</svg>
