<svg width="44" height="44" viewBox="0 0 44 44" fill="none" xmlns="http://www.w3.org/2000/svg">
<circle cx="22" cy="22" r="22" fill="white"/>
<path d="M28.3307 16.982H26.2241C26.0375 16.0652 25.5574 15.2289 24.864 14.5527H28.3307C28.8774 14.5527 29.3307 14.1631 29.3307 13.6933C29.3307 13.2236 28.8774 12.834 28.3307 12.834H15.664C15.1174 12.834 14.6641 13.2236 14.6641 13.6933C14.6641 14.1631 15.1174 14.5527 15.664 14.5527H20.5042C22.264 14.5527 23.7441 15.5839 24.184 16.982H15.6641C15.1175 16.982 14.6641 17.3716 14.6641 17.8413C14.6641 18.3111 15.1175 18.7007 15.6641 18.7007H24.184C23.744 20.0985 22.2639 21.1412 20.5042 21.1412H15.6774C15.5442 21.1412 15.4241 21.1641 15.2908 21.2099C15.0375 21.2903 14.8375 21.4622 14.7442 21.6684C14.6375 21.8746 14.6375 22.1151 14.7442 22.3215C14.7975 22.436 14.864 22.5277 14.9573 22.6079L24.6241 30.9153C24.8241 31.0871 25.0774 31.1673 25.3308 31.1673C25.5841 31.1673 25.8374 31.0871 26.0374 30.9153C26.424 30.5828 26.424 30.0329 26.0374 29.7007L18.0775 22.8601H20.4909C23.3707 22.8601 25.7442 21.0612 26.2239 18.7009H28.3306C28.8772 18.7009 29.3306 18.3113 29.3306 17.8415C29.3306 17.3717 28.8772 16.9821 28.3306 16.9821L28.3307 16.982Z" fill="#283049"/>
</svg>
