<svg width="20" height="20" viewBox="0 0 20 20" fill="none" xmlns="http://www.w3.org/2000/svg">
<path d="M14.6383 3.32018L14.6208 3.27336L14.6383 3.32018L15.6475 2.9421C16.3427 2.68168 17.1167 2.95918 17.488 3.60223L19.1309 6.44777C19.5021 7.09086 19.3555 7.89982 18.7823 8.37175L17.9503 9.05667C17.3571 9.54489 17.356 10.4541 17.9503 10.9433L18.7823 11.6283C19.3555 12.1002 19.5021 12.9092 19.1309 13.5522L17.488 16.3978C17.1167 17.0408 16.3429 17.3184 15.6475 17.0579L14.6383 16.6799C13.9188 16.4102 13.1309 16.8641 13.0044 17.6232L12.8272 18.6862C12.7052 19.4186 12.0778 19.95 11.3353 19.95H8.04957C7.30706 19.95 6.67972 19.4186 6.55764 18.6861L6.38045 17.6231C6.25415 16.8654 5.46744 16.4097 4.74656 16.6798L3.73743 17.0579C3.04203 17.3183 2.26823 17.0407 1.89693 16.3977L0.254043 13.5522C-0.117212 12.9092 0.0293573 12.1002 0.602597 11.6282L1.43463 10.9433C2.02776 10.455 2.02896 9.54588 1.43463 9.05663L0.602638 8.37171C0.0293591 7.89975 -0.117174 7.09075 0.254081 6.44773L1.89693 3.60223C1.89693 3.60223 1.89693 3.60223 1.89693 3.60223C2.26827 2.95921 3.04222 2.68169 3.73742 2.9421C3.73742 2.9421 3.73742 2.9421 3.73742 2.9421L4.7466 3.32022L4.7466 3.32022C5.46599 3.58968 6.25394 3.13618 6.38049 2.37685L6.55768 1.31385C6.67972 0.581432 7.30706 0.05 8.04961 0.05H11.3354C12.0779 0.05 12.7052 0.58143 12.8272 1.3138L13.0044 2.37685C13.1307 3.13482 13.9176 3.59014 14.6383 3.32018ZM16.1606 15.6883L16.2002 15.7032L16.2214 15.6665L17.8642 12.8209L17.8854 12.7843L17.8527 12.7573L17.0207 12.0724C15.7176 10.9997 15.7151 9.00232 17.0207 7.92751L16.9889 7.88891L17.0207 7.92751L17.8527 7.24259L17.8538 7.24163L17.8553 7.2403L17.8561 7.23959L17.8565 7.23922L17.8566 7.23903L17.8567 7.23894L17.8568 7.23889L17.8568 7.23887L17.8568 7.23885L17.8213 7.20363L17.8568 7.23884L17.8837 7.21171L17.8646 7.17863L16.2214 4.33347L16.2002 4.2968L16.1605 4.31165L15.1514 4.68974C13.5708 5.28177 11.8398 4.2855 11.5618 2.61729L11.3846 1.55428L11.3777 1.5125H11.3353H8.04957H8.00721L8.00025 1.55428L7.8231 2.61729C7.54565 4.28211 5.81729 5.28298 4.23352 4.68974C4.23352 4.68974 4.23352 4.68974 4.23351 4.68974L3.22438 4.31166L3.18471 4.29679L3.16353 4.33348L1.52064 7.17902L1.49947 7.2157L1.53217 7.24263L2.36416 7.92755C3.66717 9.00023 3.66987 10.9976 2.36416 12.0725L1.53217 12.7574L1.49947 12.7843L1.52064 12.821L3.1635 15.6665L3.18467 15.7032L3.22434 15.6883L4.23352 15.3103C5.81421 14.7181 7.54512 15.7147 7.8231 17.3827L8.00029 18.4457L8.00725 18.4875H8.04961H11.3354H11.3777L11.3847 18.4457L11.5618 17.3827C11.8393 15.7179 13.5677 14.717 15.1514 15.3103L16.1606 15.6883ZM5.88828 10C5.88828 7.90242 7.59488 6.19582 9.69246 6.19582C11.79 6.19582 13.4966 7.90242 13.4966 10C13.4966 12.0976 11.79 13.8042 9.69246 13.8042C7.59488 13.8042 5.88828 12.0976 5.88828 10ZM7.35078 10C7.35078 11.2912 8.40121 12.3417 9.69246 12.3417C10.9837 12.3417 12.0341 11.2912 12.0341 10C12.0341 8.70875 10.9837 7.65832 9.69246 7.65832C8.40121 7.65832 7.35078 8.70875 7.35078 10Z" fill="#283049" stroke="white" stroke-width="0.1"/>
</svg>
