<svg width="103" height="22" viewBox="0 0 103 22" fill="none" xmlns="http://www.w3.org/2000/svg">
<path fill-rule="evenodd" clip-rule="evenodd" d="M12.3727 1.71803C13.793 1.41002 13.781 3.01853 13.2393 4.02471C12.8361 4.77763 12.0958 5.64007 11.1389 5.88648C9.91111 6.20134 9.47778 5.01719 10.218 3.54558C10.5972 2.78581 11.3977 1.92337 12.3727 1.71803ZM7.65418 2.38197C7.52177 2.58047 7.04631 2.97746 6.86575 3.16912C6.46853 3.5798 5.77039 4.46962 5.42132 4.92137C3.42318 7.50868 1.19634 12.608 2.53245 16.1331C3.24865 18.0222 4.66299 18.5493 6.34215 18.6245C6.82363 17.5157 7.4014 14.7436 7.55186 13.4568C7.61205 12.9639 7.66019 12.4095 7.63612 11.8962C7.61205 11.3554 7.49168 11.0337 7.05233 10.9447C6.1315 10.7599 5.27086 11.8756 4.83151 11.4649C4.66901 11.0679 5.0903 10.6025 5.24678 10.4109C5.99308 9.48681 8.41852 7.4813 9.41157 7.02955C10.1819 6.68047 11.2653 6.83105 11.518 7.58397C11.7167 8.17947 11.169 9.49366 10.9944 10.0686C10.4407 11.9099 9.18889 16.0851 9.20694 17.7963L9.225 17.8716C10.9643 16.9544 12.6194 15.7155 13.9074 14.1481C14.094 13.9154 14.2865 13.7237 14.4611 13.4841C14.6296 13.2446 14.8162 13.0461 14.9847 12.7928C15.1532 12.5464 15.3097 12.3205 15.4842 12.0673C16.1402 11.0953 16.706 9.97279 17.1754 8.82972C17.2898 8.54908 17.7712 7.00901 17.8194 6.94057C18.1504 4.07947 17.5365 1.21152 15.0509 0.27379C14.75 0.164274 14.3166 0.150585 14.0518 0H13.0407C12.9264 0.0410693 12.3847 0.0889803 12.2041 0.123205C10.7958 0.396995 8.59908 1.45793 7.65418 2.38197Z" fill="#CB242D"/>
<path fill-rule="evenodd" clip-rule="evenodd" d="M36.5153 13.3076C36.1903 13.9852 36.0038 14.3206 35.4862 14.7039C34.9987 15.0667 34.3126 15.2173 33.6265 15.1488C32.1339 14.9846 31.7908 13.6704 32.2121 11.9866C32.5732 10.5766 33.1992 9.56353 34.1681 9.04333C34.6978 8.75585 35.432 8.59158 36.1061 8.74901C37.0931 8.98173 36.9788 9.71412 37.045 10.2138L40.3912 10.2069C40.5959 9.36503 40.4454 8.46153 40.0723 7.91395C38.9468 6.27806 35.7149 6.38073 34.0779 6.75034C31.3635 7.36637 29.6061 9.22814 28.8719 12.0071C28.3723 13.8963 28.6672 15.272 29.6483 16.2303C31.3635 17.9141 37.051 17.8388 39.001 15.0735C39.2477 14.7313 39.7954 13.8757 39.8737 13.3076H36.5153Z" fill="#2E3092"/>
<path fill-rule="evenodd" clip-rule="evenodd" d="M57.1274 13.3104H53.7751C53.6487 13.4816 53.4982 13.8717 53.3598 14.0634C52.77 14.8847 51.9575 15.2407 50.9223 15.1517C49.4117 15.0216 49.0385 13.7622 49.4478 12.0442C49.9714 9.85385 51.4158 8.38908 53.2936 8.73816C53.9978 8.86821 54.3107 9.31997 54.2686 10.2166H57.639C57.8797 9.45001 57.657 8.44384 57.344 7.95102C57.0191 7.45135 56.5015 7.09542 55.8214 6.8627C54.5635 6.43148 52.6557 6.45202 51.3436 6.74634C48.6473 7.34868 46.8418 9.23783 46.1256 11.9963C45.6501 13.8375 45.8969 15.2475 46.8599 16.1989C48.5571 17.8759 52.9445 17.5337 54.8644 16.3495C55.4663 15.9731 55.8816 15.5555 56.2366 15.0901C56.5015 14.741 57.0431 13.8786 57.1274 13.3104Z" fill="#2E3092"/>
<path fill-rule="evenodd" clip-rule="evenodd" d="M69.104 12.4364C70.0429 12.4569 71.1503 12.3748 72.0531 12.4775C73.0582 12.6007 73.6119 12.9977 73.2207 14.2503C72.9498 15.0922 72.3119 15.4481 71.379 15.5439C70.4582 15.6329 69.3207 15.5645 68.3698 15.5645L69.104 12.4364ZM70.1031 8.16529C71.0059 8.17214 71.9508 8.12423 72.8475 8.19267C73.7262 8.25428 74.4544 8.52122 74.0031 9.69852C73.7262 10.4377 73.0883 10.691 72.2156 10.7594C71.3429 10.8347 70.392 10.7937 69.5012 10.7868L70.1031 8.16529ZM73.8947 11.5466C74.8396 11.2523 75.6642 10.8553 76.1396 9.83541C76.6993 8.64443 76.591 7.39184 75.6521 6.85795C74.8035 6.37197 73.2568 6.50202 72.2156 6.50202C71.0119 6.50202 69.6577 6.44042 68.4781 6.50887C68.3457 6.73474 67.9184 8.76079 67.8161 9.20569C67.5994 10.116 67.3887 11.0196 67.1721 11.9162C66.9073 13.0456 66.0587 16.4337 65.9082 17.3099C67.2985 17.3099 68.6827 17.3099 70.073 17.3099C71.4211 17.3099 72.5767 17.3715 73.6961 16.7486C75.3693 15.8109 76.1517 13.4289 75.2669 12.3132C74.7674 11.6972 74.3582 11.7451 73.8947 11.5466Z" fill="#2E3092"/>
<path fill-rule="evenodd" clip-rule="evenodd" d="M103 9.79232V9.77179C102.272 9.7581 101.544 9.77179 100.815 9.76494C100.581 9.76494 100.544 9.7581 100.388 9.88815C99.5153 10.6137 97.6075 12.2496 96.9033 12.7424L98.3718 6.5H96.4459L93.9121 17.3078L95.832 17.2942L96.7769 13.29C96.9575 13.4885 97.9204 15.0491 98.0769 15.3092L99.3287 17.301L101.971 17.3078L100.532 15.1449C100.274 14.7753 100.051 14.4331 99.8042 14.0634L99.1061 13.0025C99.2264 12.8314 99.8704 12.3591 100.063 12.1948L103 9.79232Z" fill="#2E3092"/>
<path fill-rule="evenodd" clip-rule="evenodd" d="M0 15.6342V17.2154C0.0662021 17.3796 0.084258 17.8451 0.12037 18.0641C0.439349 19.7411 1.25184 21.1374 2.7685 21.7397C3.9722 22.212 4.57405 22.0478 5.19395 21.1442C5.62126 20.5214 6.09672 19.481 6.34348 18.6254C4.66432 18.5501 3.24998 18.023 2.53378 16.1339C1.19768 12.6089 3.42452 7.50952 5.42265 4.92221C5.77172 4.47046 6.46987 3.58064 6.86709 3.16996C7.04764 2.9783 7.5231 2.58131 7.65551 2.38281C7.34857 2.51971 6.49394 3.32054 6.24117 3.56695C4.02035 5.68198 2.26295 8.30351 1.04722 11.37C0.698144 12.2598 0.343053 13.4987 0.180554 14.4912C0.126388 14.8129 0.11435 15.3878 0 15.6342Z" fill="#F15A27"/>
<path fill-rule="evenodd" clip-rule="evenodd" d="M81.6035 13.8446C81.4109 15.7885 79.0396 16.7126 78.1669 15.9391C77.7517 15.5695 77.9142 14.358 78.9313 14.0157C79.5572 13.8035 80.8933 13.783 81.6035 13.8446ZM77.7276 17.4997H78.528C78.7026 17.4244 79.0577 17.4176 79.2683 17.356C79.497 17.2944 79.7197 17.2122 79.9304 17.1027C80.4299 16.8631 80.6586 16.6236 81.0438 16.3361L80.8632 17.3149L82.8313 17.3012C82.9877 16.0007 83.3428 14.707 83.6377 13.4818C83.9567 12.1471 84.2697 10.7508 83.2164 10.0526C82.3197 9.46397 80.6586 9.49819 79.5873 9.79252C78.6665 10.0389 77.529 10.7576 77.3123 11.8528H79.178C79.5813 11.0246 80.0387 10.7713 80.9956 10.8192C82.0609 10.8671 82.103 11.4763 81.9225 12.5441C80.0507 12.5304 78.0165 12.462 76.7646 13.5982C76.3253 13.9952 75.7295 15.0493 75.9341 16.0828C76.1929 17.3696 77.4868 17.3765 77.7276 17.4997Z" fill="#2E3092"/>
<path fill-rule="evenodd" clip-rule="evenodd" d="M57.3984 17.2892L57.597 17.3029H60.4558L60.7748 17.2961L63.4049 6.52247L63.1461 6.51562H60.0285L57.3984 17.2892Z" fill="#2E3092"/>
<path fill-rule="evenodd" clip-rule="evenodd" d="M28.8945 6.51562H25.5964C25.482 6.54985 25.4218 6.95369 25.3677 7.17272C25.0607 8.45953 22.9482 16.947 22.9121 17.3029H26.2704L28.8945 6.51562Z" fill="#2E3092"/>
<path fill-rule="evenodd" clip-rule="evenodd" d="M46.1503 6.51562L42.786 6.52247L40.168 17.3029L43.5203 17.2961L46.1503 6.51562Z" fill="#2E3092"/>
<path fill-rule="evenodd" clip-rule="evenodd" d="M88.087 9.7683H86.1611C86.0106 10.3296 85.9204 11.1236 85.8 11.7396C85.475 13.3686 84.7708 15.7917 84.5 17.3044H86.4741C86.775 16.0723 87.0398 14.7992 87.3528 13.5466C88.0268 10.8292 90.5426 10.6923 91.0902 11.5548C91.4273 12.0818 91.2888 12.91 91.1324 13.5534L90.2537 17.3112L92.1976 17.2907C92.4263 16.1955 92.7092 15.073 92.974 13.9778C93.2268 12.9511 93.6842 11.5616 93.1185 10.5897C92.631 9.73408 91.4875 9.48082 90.3018 9.65194C89.7722 9.72723 89.3148 9.90519 88.9055 10.1584C88.424 10.4665 88.2315 10.7266 87.8764 11.0414L88.087 9.7683Z" fill="#2E3092"/>
<path fill-rule="evenodd" clip-rule="evenodd" d="M9.20794 17.7933C9.08155 18.0397 9.17785 18.9226 9.25007 19.1896C9.64127 20.6338 10.9894 19.0938 11.6695 18.4777C12.6686 17.5674 13.5412 16.4585 14.3477 15.3565C15.6898 13.5153 17.4834 10.0861 17.8204 6.9375C17.7722 7.00595 17.2908 8.54601 17.1764 8.82665C16.707 9.96972 16.1412 11.0923 15.4852 12.0642C15.3107 12.3175 15.1542 12.5433 14.9857 12.7898C14.8172 13.043 14.6306 13.2415 14.4621 13.4811C14.2875 13.7206 14.0949 13.9123 13.9084 14.145C12.6204 15.7125 10.9653 16.9514 9.22599 17.8686L9.20794 17.7933Z" fill="#F15A27"/>
<path fill-rule="evenodd" clip-rule="evenodd" d="M12.3752 1.71042C11.4002 1.91577 10.5997 2.7782 10.2205 3.53797C9.48026 5.00959 9.91359 6.19373 11.1414 5.87887C12.0983 5.63246 12.8386 4.77003 13.2418 4.0171C13.7835 3.01093 13.7955 1.40241 12.3752 1.71042Z" fill="white"/>
</svg>
