<svg width="131" height="131" viewBox="0 0 131 131" fill="none" xmlns="http://www.w3.org/2000/svg">
<g filter="url(#filter0_d_4474_9487)">
<rect x="40" y="40" width="51" height="51" rx="25.5" fill="white"/>
<path d="M72.2217 61.7335C72.2217 60.0361 71.5661 58.4082 70.3992 57.208C69.2324 56.0078 67.6497 55.3335 65.9995 55.3335C64.3492 55.3335 62.7666 56.0078 61.5997 57.208C60.4328 58.4082 59.7772 60.0361 59.7772 61.7335C59.7772 69.2002 56.6661 71.3335 56.6661 71.3335H75.3328C75.3328 71.3335 72.2217 69.2002 72.2217 61.7335Z" stroke="#283049" stroke-width="1.61273" stroke-linecap="round" stroke-linejoin="round"/>
<path d="M70.0002 74C69.5937 74.8111 69.0103 75.4843 68.3083 75.9523C67.6063 76.4203 66.8103 76.6667 66.0002 76.6667C65.1901 76.6667 64.3942 76.4203 63.6922 75.9523C62.9902 75.4843 62.4067 74.8111 62.0002 74" stroke="#283049" stroke-width="1.61273" stroke-linecap="round" stroke-linejoin="round"/>
<ellipse cx="70.8203" cy="58.4101" rx="5.33333" ry="5.33333" fill="#00C514"/>
</g>
<defs>
<filter id="filter0_d_4474_9487" x="0" y="0" width="131" height="131" filterUnits="userSpaceOnUse" color-interpolation-filters="sRGB">
<feFlood flood-opacity="0" result="BackgroundImageFix"/>
<feColorMatrix in="SourceAlpha" type="matrix" values="0 0 0 0 0 0 0 0 0 0 0 0 0 0 0 0 0 0 127 0" result="hardAlpha"/>
<feOffset/>
<feGaussianBlur stdDeviation="20"/>
<feColorMatrix type="matrix" values="0 0 0 0 0.188235 0 0 0 0 0.286275 0 0 0 0 0.74902 0 0 0 0.05 0"/>
<feBlend mode="normal" in2="BackgroundImageFix" result="effect1_dropShadow_4474_9487"/>
<feBlend mode="normal" in="SourceGraphic" in2="effect1_dropShadow_4474_9487" result="shape"/>
</filter>
</defs>
</svg>
