<svg width="154" height="163" viewBox="0 0 154 163" fill="none" xmlns="http://www.w3.org/2000/svg">
<path d="M56.8811 59.4638C56.0325 58.7566 54.7714 58.8713 54.0642 59.7198C53.3571 60.5684 53.4718 61.8295 54.3203 62.5366L56.8811 59.4638ZM74.8007 77.0002L73.5203 78.5366L75.0878 79.8429L76.3624 78.2496L74.8007 77.0002ZM101.962 46.2496C102.652 45.3871 102.513 44.1285 101.65 43.4385C100.788 42.7484 99.529 42.8883 98.8389 43.7508L101.962 46.2496ZM78.0007 105.8V103.8V105.8ZM33.2007 61.0002H31.2007H33.2007ZM78.0007 16.2002V14.2002V16.2002ZM122.801 61.0002H120.801H122.801ZM54.3203 62.5366L73.5203 78.5366L76.0811 75.4638L56.8811 59.4638L54.3203 62.5366ZM76.3624 78.2496L101.962 46.2496L98.8389 43.7508L73.2389 75.7508L76.3624 78.2496ZM78.0007 103.8C72.3801 103.8 66.8146 102.693 61.6218 100.542L60.0911 104.238C65.7691 106.59 71.8548 107.8 78.0007 107.8V103.8ZM61.6218 100.542C56.4291 98.3913 51.7109 95.2387 47.7365 91.2644L44.9081 94.0928C49.2539 98.4386 54.4131 101.886 60.0911 104.238L61.6218 100.542ZM47.7365 91.2644C43.7622 87.29 40.6095 82.5718 38.4586 77.3791L34.7631 78.9098C37.115 84.5878 40.5623 89.747 44.9081 94.0928L47.7365 91.2644ZM38.4586 77.3791C36.3077 72.1863 35.2007 66.6208 35.2007 61.0002H31.2007C31.2007 67.1461 32.4112 73.2318 34.7631 78.9098L38.4586 77.3791ZM35.2007 61.0002C35.2007 55.3796 36.3077 49.8141 38.4586 44.6213L34.7631 43.0906C32.4112 48.7687 31.2007 54.8543 31.2007 61.0002H35.2007ZM38.4586 44.6213C40.6095 39.4286 43.7622 34.7104 47.7365 30.736L44.9081 27.9076C40.5623 32.2534 37.115 37.4126 34.7631 43.0906L38.4586 44.6213ZM47.7365 30.736C51.7109 26.7617 56.4291 23.6091 61.6218 21.4582L60.0911 17.7626C54.4131 20.1146 49.2539 23.5618 44.9081 27.9076L47.7365 30.736ZM61.6218 21.4582C66.8146 19.3072 72.3801 18.2002 78.0007 18.2002V14.2002C71.8548 14.2002 65.7691 15.4107 60.0911 17.7626L61.6218 21.4582ZM78.0007 18.2002C89.3519 18.2002 100.238 22.7095 108.265 30.736L111.093 27.9076C102.317 19.1309 90.4128 14.2002 78.0007 14.2002V18.2002ZM108.265 30.736C116.291 38.7626 120.801 49.6489 120.801 61.0002H124.801C124.801 48.5881 119.87 36.6843 111.093 27.9076L108.265 30.736ZM120.801 61.0002C120.801 72.3515 116.291 83.2378 108.265 91.2644L111.093 94.0928C119.87 85.3161 124.801 73.4123 124.801 61.0002H120.801ZM108.265 91.2644C100.238 99.2909 89.3519 103.8 78.0007 103.8V107.8C90.4128 107.8 102.317 102.869 111.093 94.0928L108.265 91.2644Z" fill="url(#paint0_linear_1587_5456)"/>
<ellipse opacity="0.6" cx="29" cy="136.854" rx="1" ry="1.18299" stroke="url(#paint1_linear_1587_5456)" stroke-width="2"/>
<g opacity="0.5" clip-path="url(#clip0_1587_5456)">
<path d="M135.875 56.2879C136.269 56.4059 136.578 56.7715 136.677 57.2373C136.687 57.2826 136.736 57.2826 136.746 57.2373C136.846 56.7715 137.155 56.4059 137.548 56.2879C137.587 56.2765 137.587 56.2183 137.548 56.207C137.155 56.0889 136.846 55.7234 136.746 55.2576C136.736 55.2123 136.687 55.2123 136.677 55.2576C136.578 55.7234 136.269 56.0889 135.875 56.207C135.837 56.2183 135.837 56.2765 135.875 56.2879Z" fill="#27D1A8"/>
<path d="M133.091 58.2729C133.786 58.4815 134.333 59.1285 134.509 59.9501C134.525 60.0293 134.612 60.0293 134.629 59.9501C134.806 59.1285 135.353 58.4815 136.047 58.2729C136.114 58.2535 136.114 58.1516 136.047 58.1305C135.351 57.9235 134.804 57.2766 134.629 56.4549C134.613 56.3757 134.527 56.3757 134.509 56.4549C134.333 57.2766 133.786 57.9235 133.091 58.1322C133.024 58.1516 133.024 58.2535 133.091 58.2729Z" fill="#2ED8B1"/>
<path d="M135.463 60.8998C136.502 61.2119 137.321 62.1791 137.583 63.4083C137.609 63.5264 137.738 63.5264 137.762 63.4083C138.026 62.1791 138.844 61.2103 139.883 60.8998C139.982 60.8691 139.982 60.717 139.883 60.6879C138.844 60.3758 138.025 59.4086 137.762 58.1794C137.736 58.0613 137.608 58.0613 137.583 58.1794C137.319 59.4086 136.502 60.3774 135.463 60.6879C135.363 60.717 135.363 60.8691 135.463 60.8998Z" fill="#14BD91"/>
</g>
<g opacity="0.7" clip-path="url(#clip1_1587_5456)">
<path d="M91.5183 117.407C92.137 117.564 92.6226 118.05 92.7794 118.668C92.7944 118.729 92.8718 118.729 92.8868 118.668C93.0437 118.05 93.5292 117.564 94.1479 117.407C94.2081 117.392 94.2081 117.315 94.1479 117.3C93.5292 117.143 93.0437 116.658 92.8868 116.039C92.8718 115.979 92.7944 115.979 92.7794 116.039C92.6226 116.658 92.137 117.143 91.5183 117.3C91.4581 117.315 91.4581 117.392 91.5183 117.407Z" fill="#27D1A8"/>
<path d="M87.1434 120.046C88.2348 120.323 89.0942 121.182 89.3713 122.273C89.3971 122.379 89.5325 122.379 89.5604 122.273C89.8375 121.182 90.6969 120.323 91.7883 120.046C91.8936 120.02 91.8936 119.884 91.7883 119.856C90.6948 119.581 89.8354 118.722 89.5604 117.631C89.5346 117.525 89.3993 117.525 89.3713 117.631C89.0942 118.722 88.2348 119.581 87.1434 119.859C87.0381 119.884 87.0381 120.02 87.1434 120.046Z" fill="#2ED8B1"/>
<path d="M90.8686 123.535C92.5014 123.949 93.7883 125.234 94.2008 126.867C94.2417 127.024 94.4436 127.024 94.4823 126.867C94.8969 125.234 96.1817 123.947 97.8145 123.535C97.9713 123.494 97.9713 123.292 97.8145 123.253C96.1817 122.838 94.8948 121.554 94.4823 119.921C94.4415 119.764 94.2395 119.764 94.2008 119.921C93.7862 121.554 92.5014 122.841 90.8686 123.253C90.7118 123.292 90.7118 123.494 90.8686 123.535Z" fill="#14BD91"/>
</g>
<g clip-path="url(#clip2_1587_5456)">
<path d="M14.9828 2.175C15.9391 2.41738 16.6895 3.16777 16.9318 4.12402C16.9551 4.21699 17.0746 4.21699 17.0979 4.12402C17.3402 3.16777 18.0906 2.41738 19.0469 2.175C19.1398 2.15176 19.1398 2.03223 19.0469 2.00898C18.0906 1.7666 17.3402 1.01621 17.0979 0.0599609C17.0746 -0.0330078 16.9551 -0.0330078 16.9318 0.0599609C16.6895 1.01621 15.9391 1.7666 14.9828 2.00898C14.8898 2.03223 14.8898 2.15176 14.9828 2.175Z" fill="#27D1A8"/>
<path d="M8.22261 6.252C9.90933 6.68032 11.2375 8.00845 11.6658 9.69517C11.7056 9.85786 11.9148 9.85786 11.958 9.69517C12.3863 8.00845 13.7144 6.68032 15.4011 6.252C15.5638 6.21216 15.5638 6.00298 15.4011 5.95981C13.7111 5.53481 12.383 4.20669 11.958 2.51997C11.9181 2.35728 11.7089 2.35728 11.6658 2.51997C11.2375 4.20669 9.90933 5.53481 8.22261 5.96314C8.05991 6.00298 8.05991 6.21216 8.22261 6.252Z" fill="#2ED8B1"/>
<path d="M13.9762 11.6445C16.4997 12.2853 18.4885 14.2708 19.126 16.7943C19.1891 17.0367 19.5012 17.0367 19.561 16.7943C20.2018 14.2708 22.1874 12.282 24.7108 11.6445C24.9532 11.5814 24.9532 11.2693 24.7108 11.2095C22.1874 10.5687 20.1985 8.58315 19.561 6.05972C19.4979 5.81733 19.1858 5.81733 19.126 6.05972C18.4852 8.58315 16.4997 10.572 13.9762 11.2095C13.7338 11.2693 13.7338 11.5814 13.9762 11.6445Z" fill="#14BD91"/>
</g>
<g clip-path="url(#clip3_1587_5456)">
<path d="M143.983 80.175C144.939 80.4174 145.689 81.1678 145.932 82.124C145.955 82.217 146.075 82.217 146.098 82.124C146.34 81.1678 147.091 80.4174 148.047 80.175C148.14 80.1518 148.14 80.0322 148.047 80.009C147.091 79.7666 146.34 79.0162 146.098 78.06C146.075 77.967 145.955 77.967 145.932 78.06C145.689 79.0162 144.939 79.7666 143.983 80.009C143.89 80.0322 143.89 80.1518 143.983 80.175Z" fill="#27D1A8"/>
<path d="M137.223 84.252C138.909 84.6803 140.237 86.0084 140.666 87.6952C140.706 87.8579 140.915 87.8579 140.958 87.6952C141.386 86.0084 142.714 84.6803 144.401 84.252C144.564 84.2122 144.564 84.003 144.401 83.9598C142.711 83.5348 141.383 82.2067 140.958 80.52C140.918 80.3573 140.709 80.3573 140.666 80.52C140.237 82.2067 138.909 83.5348 137.223 83.9631C137.06 84.003 137.06 84.2122 137.223 84.252Z" fill="#2ED8B1"/>
<path d="M142.976 89.6445C145.5 90.2853 147.489 92.2708 148.126 94.7943C148.189 95.0367 148.501 95.0367 148.561 94.7943C149.202 92.2708 151.187 90.282 153.711 89.6445C153.953 89.5814 153.953 89.2693 153.711 89.2095C151.187 88.5687 149.198 86.5832 148.561 84.0597C148.498 83.8173 148.186 83.8173 148.126 84.0597C147.485 86.5832 145.5 88.572 142.976 89.2095C142.734 89.2693 142.734 89.5814 142.976 89.6445Z" fill="#14BD91"/>
</g>
<circle opacity="0.5" cx="55" cy="12" r="4" stroke="url(#paint2_linear_1587_5456)" stroke-width="0.8"/>
<circle cx="127" cy="115" r="4" stroke="url(#paint3_linear_1587_5456)" stroke-width="0.8"/>
<circle cx="5" cy="69" r="4" stroke="url(#paint4_linear_1587_5456)" stroke-width="0.8"/>
<circle cx="84" cy="6" r="1" stroke="url(#paint5_linear_1587_5456)" stroke-width="2"/>
<circle cx="5" cy="69" r="1" stroke="url(#paint6_linear_1587_5456)" stroke-width="2"/>
<circle cx="20" cy="34" r="1" stroke="url(#paint7_linear_1587_5456)" stroke-width="2"/>
<circle cx="137" cy="38" r="6" stroke="url(#paint8_linear_1587_5456)" stroke-width="1.2"/>
<g opacity="0.6">
<path d="M116.656 22.7065L115.431 20.2467M115.431 20.2467L114.205 17.7868M115.431 20.2467L117.636 18.6483M115.431 20.2467L113.225 21.8451" stroke="url(#paint9_linear_1587_5456)" stroke-width="0.9375" stroke-linecap="round"/>
</g>
<g opacity="0.3">
<path d="M37.6557 161.117L36.4305 158.657M36.4305 158.657L35.2053 156.197M36.4305 158.657L38.6358 157.058M36.4305 158.657L34.2252 160.255" stroke="url(#paint10_linear_1587_5456)" stroke-width="0.9375" stroke-linecap="round"/>
</g>
<defs>
<linearGradient id="paint0_linear_1587_5456" x1="143.6" y1="151.667" x2="5.46628" y2="-76.0665" gradientUnits="userSpaceOnUse">
<stop stop-color="#00A676"/>
<stop offset="1" stop-color="#00EDBD" stop-opacity="0.69"/>
</linearGradient>
<linearGradient id="paint1_linear_1587_5456" x1="30.4643" y1="139.248" x2="26.5679" y2="133.818" gradientUnits="userSpaceOnUse">
<stop stop-color="#00A676"/>
<stop offset="1" stop-color="#00EDBD" stop-opacity="0.69"/>
</linearGradient>
<linearGradient id="paint2_linear_1587_5456" x1="60.8571" y1="20.0952" x2="48.5237" y2="-0.238095" gradientUnits="userSpaceOnUse">
<stop stop-color="#00A676"/>
<stop offset="1" stop-color="#00EDBD" stop-opacity="0.69"/>
</linearGradient>
<linearGradient id="paint3_linear_1587_5456" x1="132.857" y1="123.095" x2="120.524" y2="102.762" gradientUnits="userSpaceOnUse">
<stop stop-color="#00A676"/>
<stop offset="1" stop-color="#00EDBD" stop-opacity="0.69"/>
</linearGradient>
<linearGradient id="paint4_linear_1587_5456" x1="10.8571" y1="77.0952" x2="-1.47628" y2="56.7619" gradientUnits="userSpaceOnUse">
<stop stop-color="#00A676"/>
<stop offset="1" stop-color="#00EDBD" stop-opacity="0.69"/>
</linearGradient>
<linearGradient id="paint5_linear_1587_5456" x1="85.4643" y1="8.02381" x2="82.3809" y2="2.94048" gradientUnits="userSpaceOnUse">
<stop stop-color="#00A676"/>
<stop offset="1" stop-color="#00EDBD" stop-opacity="0.69"/>
</linearGradient>
<linearGradient id="paint6_linear_1587_5456" x1="6.46426" y1="71.0238" x2="3.38093" y2="65.9405" gradientUnits="userSpaceOnUse">
<stop stop-color="#00A676"/>
<stop offset="1" stop-color="#00EDBD" stop-opacity="0.69"/>
</linearGradient>
<linearGradient id="paint7_linear_1587_5456" x1="21.4643" y1="36.0238" x2="18.3809" y2="30.9405" gradientUnits="userSpaceOnUse">
<stop stop-color="#00A676"/>
<stop offset="1" stop-color="#00EDBD" stop-opacity="0.69"/>
</linearGradient>
<linearGradient id="paint8_linear_1587_5456" x1="145.786" y1="50.1429" x2="127.286" y2="19.6429" gradientUnits="userSpaceOnUse">
<stop stop-color="#00A676"/>
<stop offset="1" stop-color="#00EDBD" stop-opacity="0.69"/>
</linearGradient>
<linearGradient id="paint9_linear_1587_5456" x1="121.139" y1="22.8845" x2="107.565" y2="16.4626" gradientUnits="userSpaceOnUse">
<stop stop-color="#00A676"/>
<stop offset="1" stop-color="#00EDBD" stop-opacity="0.69"/>
</linearGradient>
<linearGradient id="paint10_linear_1587_5456" x1="42.1392" y1="161.295" x2="28.5654" y2="154.873" gradientUnits="userSpaceOnUse">
<stop stop-color="#00A676"/>
<stop offset="1" stop-color="#00EDBD" stop-opacity="0.69"/>
</linearGradient>
<clipPath id="clip0_1587_5456">
<rect width="7" height="8.28096" fill="white" transform="translate(133 55.2275)"/>
</clipPath>
<clipPath id="clip1_1587_5456">
<rect width="11" height="11" fill="white" transform="translate(87 116)"/>
</clipPath>
<clipPath id="clip2_1587_5456">
<rect width="17" height="17" fill="white" transform="translate(8)"/>
</clipPath>
<clipPath id="clip3_1587_5456">
<rect width="17" height="17" fill="white" transform="translate(137 78)"/>
</clipPath>
</defs>
</svg>
